<svg width="256" height="256" viewBox="0 0 256 256" fill="none" xmlns="http://www.w3.org/2000/svg">
<path fill-rule="evenodd" clip-rule="evenodd" d="M7.62999 142.602L47.0571 142.523L47.1048 218.172C26.9427 202 8.72541 166.514 7.62999 142.602ZM47.0175 37.8096L47.1048 112.482L7.68556 112.538C9.98753 96.1202 14.8296 81.8938 21.7672 69.4775C27.3237 59.5778 38.3176 44.2083 47.0175 37.8096ZM181.46 236.987C180.873 237.542 182.318 237.534 180.555 237.407L181.452 236.685C192.907 228.024 191.637 210.868 181.325 203.794C177.668 201.102 173.229 199.685 168.688 199.761C161.719 199.642 153.257 200.27 146.518 199.65C145.018 197.991 144.018 196.729 146.462 194.887C149.122 193.49 182.556 195.919 191.589 193.625C197.274 192.177 202.431 189.144 206.458 184.878C210.486 180.612 213.219 175.29 214.339 169.53C218.197 149.882 203.655 132.591 182.381 132.591C179.531 132.591 148.915 132.917 147.606 132.313C147.289 132.145 147.013 131.91 146.796 131.626C146.578 131.341 146.424 131.013 146.344 130.663C146.264 130.314 146.261 129.952 146.333 129.601C146.406 129.25 146.553 128.919 146.764 128.63C147.756 127.137 149.455 127.423 151.527 127.431C165.902 127.502 182.135 128.796 194.574 123.827C201.21 121.214 207.206 117.205 212.156 112.069C218.293 105.873 222.734 98.2016 225.051 89.7932C227.368 81.3847 227.485 72.5216 225.388 64.0553C223.047 54.5843 221.284 54.0445 218.284 47.5743C220.197 47.9395 225.571 55.9021 226.531 57.212C247.297 85.4504 254.314 122.787 245.86 157.241C236.7 194.601 210.743 222.705 181.452 237.026L181.46 236.987ZM123.435 48.4476C128.864 48.3285 148.653 49.0986 152.011 47.7093C155.186 46.3756 155.662 42.8983 158.965 40.1753C164.727 35.412 179.222 39.8022 185.278 37.1586C187.056 36.387 188.531 35.0535 189.477 33.3627C190.423 31.6719 190.789 29.7173 190.517 27.7987C189.946 23.2736 186.937 21.8922 183.596 20.1378C157.829 6.64178 127.237 3.05344 98.2561 10.3651C93.1759 11.6512 80.4119 15.5888 77.0542 18.0578V112.292C80.5548 113.379 107.393 112.363 113.655 112.593C113.282 114.244 111.885 116.777 111.211 118.944C108.083 128.907 109.893 134.123 111.314 142.531L77.0542 142.713V237.979C78.6417 239.289 87.3178 242.441 90.0008 243.306C105.535 248.268 121.847 250.506 138.572 248.934C145.764 248.26 163.87 245.37 168.395 242.075C176.817 235.939 174.856 222.665 164.831 219.91C156.686 217.671 145.153 222.903 133.643 214.52C117.339 202.611 121.458 175.373 142.692 170.253C149.725 168.554 169.681 169.507 178.206 169.507C180.825 169.507 184.945 170.221 185.771 167.919C187.128 164.148 182.945 164.37 180.492 164.378C174.396 164.378 168.299 164.378 162.235 164.378C149.066 164.378 140.97 165.172 130.96 158.924C110.107 145.936 109.837 113.673 132.595 100.693C143.152 94.6753 152.67 96.2472 164.902 96.2472C169.562 96.2472 177.896 97.3348 180.921 94.5245C181.838 93.7158 182.499 92.6565 182.822 91.477C183.145 90.2975 183.116 89.0493 182.739 87.886C182.362 86.7227 181.653 85.6949 180.7 84.9293C179.746 84.1637 178.59 83.6936 177.372 83.5768C173.991 83.164 129.237 83.5768 122.935 83.4975C123.729 79.3455 126.475 75.9794 128.61 73.4469C132.476 68.8503 134.5 68.12 138.969 68.1358C144.168 68.1358 149.384 68.1358 154.591 68.1358C159.941 68.1358 167.379 69.2155 167.863 65.8257C168.561 60.8639 159.322 62.5152 155.734 62.5152H140.112C136.064 62.5152 136.223 63.0074 133.659 60.9274C130.031 57.9504 124.641 52.9886 123.435 48.4396V48.4476ZM129.785 256C164.204 256 196.574 240.495 218.824 218.219C238.073 198.96 255.441 168.34 255.989 128.407C256.528 89.3087 237.874 56.7913 219.205 38.2144C207.925 26.9969 197.209 19.1613 182.151 12.0164C147.606 -4.38524 108.274 -3.64693 73.6727 12.0957C52.177 21.8922 35.1822 37.4365 22.2435 55.8942C8.45552 75.6063 -0.450713 103.352 0.0176182 128.788C0.406572 148.842 4.35167 164.981 11.5275 181.145C19.3542 198.793 31.372 213.781 45.7395 226.158C68.4972 245.775 98.7562 255.992 129.825 256H129.785Z" fill="white"/>
<path fill-rule="evenodd" clip-rule="evenodd" d="M102.416 58.2202C107.925 57.99 108.036 62.0071 111.647 61.3958C112.489 57.1644 110.981 46.963 108.687 44.3829C107.829 43.7398 104.488 44.891 102.13 38.8813C118.291 33.5861 115.537 56.3467 129.539 64.6189C128.571 67.0403 122.76 68.4057 117.815 80.8935C115.283 87.2446 111.092 94.0005 102.13 91.0711C106.591 81.3301 109.091 91.7538 111.211 77.6942C111.584 75.2093 112.235 70.7159 111.536 68.6122C107.432 68.1517 107.377 72.788 101.289 71.6448C92.811 70.057 93.6842 58.5775 102.416 58.2044V58.2202ZM122.189 27.6955C123.578 26.9016 146.645 27.3938 151.559 27.3621C158.552 27.3144 155.107 31.4506 154.678 31.6808C153.44 32.3556 129.992 31.9825 125.261 32.0063C118.831 32.0063 121.117 28.2909 122.173 27.6955H122.189ZM137.469 16.6605C141.819 15.1601 143.819 21.5905 139.946 23.0592C135.548 24.7184 132.873 18.2483 137.469 16.6605ZM151.249 16.7002C155.71 14.9775 157.552 21.5429 153.631 23.0513C149.336 24.7343 146.621 18.4547 151.249 16.7002ZM123.213 16.8273C127.682 14.9458 129.563 21.4159 126.134 22.956C125.298 23.3717 124.333 23.445 123.443 23.1604C122.554 22.8758 121.811 22.2557 121.371 21.4318C121.157 20.9685 121.039 20.4669 121.022 19.9569C121.006 19.4469 121.092 18.9387 121.276 18.4627C121.792 16.8749 122.07 17.3036 123.221 16.8273H123.213ZM123.467 48.4476C128.896 48.3285 148.685 49.0985 152.043 47.7093C155.218 46.3755 155.694 42.8983 158.997 40.1753C164.759 35.412 179.254 39.8022 185.31 37.1586C187.088 36.387 188.563 35.0535 189.509 33.3627C190.455 31.6719 190.821 29.7173 190.549 27.7987C189.978 23.2736 186.969 21.8922 183.628 20.1377C157.861 6.64175 127.269 3.05341 98.2881 10.3651C93.2079 11.6511 80.4439 15.5888 77.0862 18.0578V112.292C80.5868 113.379 107.425 112.363 113.687 112.593C113.314 114.244 111.917 116.777 111.243 118.944C108.115 128.907 109.925 134.123 111.346 142.53L77.0862 142.713V237.979C78.6737 239.289 87.3498 242.441 90.0328 243.306C105.567 248.268 121.879 250.506 138.604 248.934C145.796 248.26 163.902 245.37 168.427 242.075C176.849 235.939 174.888 222.665 164.863 219.91C156.718 217.671 145.185 222.903 133.675 214.52C117.371 202.611 121.49 175.373 142.724 170.253C149.757 168.554 169.713 169.507 178.238 169.507C180.857 169.507 184.977 170.221 185.803 167.919C187.16 164.148 182.977 164.37 180.524 164.378C174.428 164.378 168.331 164.378 162.267 164.378C149.098 164.378 141.002 165.172 130.992 158.924C110.139 145.936 109.869 113.673 132.627 100.693C143.184 94.6753 152.702 96.2472 164.934 96.2472C169.594 96.2472 177.928 97.3348 180.953 94.5245C181.871 93.7138 182.532 92.6518 182.853 91.4698C183.175 90.2878 183.144 89.0374 182.763 87.873C182.382 86.7087 181.669 85.6813 180.711 84.9178C179.753 84.1544 178.592 83.6882 177.373 83.5768C173.991 83.164 129.238 83.5768 122.935 83.4974C123.729 79.3454 126.475 75.9794 128.611 73.4469C132.476 68.8503 134.5 68.1199 138.969 68.1358C144.169 68.1358 149.384 68.1358 154.591 68.1358C159.941 68.1358 167.379 69.2155 167.863 65.8256C168.562 60.8639 159.322 62.5151 155.734 62.5151H140.112C136.064 62.5151 136.223 63.0074 133.659 60.9274C130.031 57.9583 124.642 52.9727 123.435 48.4476H123.467Z" fill="#9A1E3B"/>
<path fill-rule="evenodd" clip-rule="evenodd" d="M181.453 236.685V236.987C210.743 222.697 236.7 194.562 245.86 157.201C254.298 122.787 247.297 85.4505 226.531 57.2121C225.571 55.9022 220.181 47.9395 218.284 47.5744C221.285 54.0445 223.047 54.5843 225.388 64.0554C227.485 72.5216 227.369 81.3848 225.051 89.7932C222.734 98.2017 218.293 105.873 212.156 112.069C207.207 117.205 201.21 121.214 194.574 123.827C182.135 128.796 165.902 127.502 151.527 127.431C149.471 127.431 147.772 127.137 146.764 128.63C146.553 128.919 146.406 129.25 146.333 129.601C146.261 129.952 146.265 130.314 146.344 130.664C146.424 131.013 146.578 131.341 146.796 131.626C147.013 131.91 147.29 132.145 147.606 132.313C148.915 132.917 179.532 132.591 182.381 132.591C203.655 132.591 218.197 149.882 214.339 169.53C213.223 175.298 210.489 180.63 206.456 184.902C202.424 189.174 197.259 192.21 191.565 193.656C182.532 195.951 149.098 193.522 146.439 194.919C143.994 196.729 144.994 197.991 146.494 199.682C153.234 200.301 161.695 199.682 168.665 199.793C173.205 199.717 177.645 201.134 181.302 203.826C191.637 210.868 192.907 228.063 181.453 236.685Z" fill="#9A1E3B"/>
<path fill-rule="evenodd" clip-rule="evenodd" d="M7.63025 142.602C8.72567 166.514 26.943 202 47.105 218.172L47.0574 142.523L7.63025 142.602Z" fill="#9A1E3B"/>
<path fill-rule="evenodd" clip-rule="evenodd" d="M47.0179 37.8334C38.2863 44.2321 27.3321 59.6016 21.7677 69.5013C14.7903 81.9177 9.98794 96.144 7.68597 112.561L47.1052 112.506L47.0179 37.8334Z" fill="#9A1E3B"/>
<path fill-rule="evenodd" clip-rule="evenodd" d="M102.098 38.8972C104.48 44.9069 107.798 43.7557 108.655 44.3988C110.949 46.9789 112.457 57.1803 111.616 61.4117C108.004 62.0071 107.893 57.99 102.384 58.2361C93.6525 58.6093 92.7794 70.0809 101.257 71.6766C107.345 72.8198 107.401 68.1835 111.505 68.6439C112.203 70.7477 111.552 75.2411 111.179 77.7259C109.06 91.7856 106.559 81.3619 102.098 91.1029C111.06 94.0323 115.251 87.3081 117.783 80.9253C122.729 68.4375 128.539 67.0721 129.508 64.6507C115.505 56.3308 118.292 33.602 102.098 38.8972Z" fill="white"/>
<path fill-rule="evenodd" clip-rule="evenodd" d="M122.157 27.6955C121.102 28.2909 118.815 32.0381 125.245 32.0063C130.008 32.0063 153.424 32.3556 154.663 31.6808C155.091 31.4506 158.536 27.3145 151.543 27.3621C146.614 27.3939 123.546 26.9096 122.157 27.6955Z" fill="white"/>
<path fill-rule="evenodd" clip-rule="evenodd" d="M151.218 16.7003C146.629 18.4786 149.344 24.7582 153.599 23.0514C157.521 21.543 155.679 14.9776 151.218 16.7003Z" fill="white"/>
<path fill-rule="evenodd" clip-rule="evenodd" d="M123.181 16.8273C122.038 17.3036 121.752 16.8988 121.236 18.4627C121.053 18.9388 120.966 19.4469 120.983 19.9569C120.999 20.467 121.118 20.9685 121.332 21.4318C121.771 22.2557 122.515 22.8758 123.404 23.1605C124.293 23.4451 125.259 23.3718 126.095 22.9561C129.556 21.4159 127.651 14.9458 123.181 16.8273Z" fill="white"/>
<path fill-rule="evenodd" clip-rule="evenodd" d="M137.438 16.6606C132.841 18.2483 135.516 24.7185 139.915 23.0592C143.789 21.5906 141.788 15.1601 137.438 16.6606Z" fill="white"/>
</svg>
