<svg width="256" height="256" viewBox="0 0 256 256" fill="none" xmlns="http://www.w3.org/2000/svg">
<circle cx="127.603" cy="127.603" r="127.603" fill="white"/>
<path fill-rule="evenodd" clip-rule="evenodd" d="M101.062 54.3797C106.871 54.1369 106.988 58.3726 110.797 57.7281C111.684 53.2663 110.094 42.5096 107.675 39.789C106.771 39.1109 103.247 40.3247 100.761 33.9879C117.802 28.4044 114.898 52.4041 129.663 61.1267C128.642 63.6799 122.515 65.1197 117.3 78.2873C114.63 84.9841 110.211 92.1079 100.761 89.0189C105.465 78.7477 108.102 89.7388 110.336 74.9138C110.73 72.2936 111.416 67.5556 110.68 65.3373C106.352 64.8518 106.294 69.7405 99.8739 68.5351C90.9348 66.8609 91.8555 54.7564 101.062 54.3629V54.3797ZM121.912 22.1931C123.377 21.356 147.7 21.875 152.881 21.8415C160.255 21.7913 156.622 26.1526 156.17 26.3953C154.865 27.1069 130.14 26.7134 125.151 26.7385C118.372 26.7385 120.782 22.8209 121.895 22.1931H121.912ZM138.024 10.5573C142.611 8.97522 144.72 15.7558 140.636 17.3044C135.999 19.0539 133.178 12.2316 138.024 10.5573ZM152.555 10.5992C157.258 8.78271 159.2 15.7055 155.066 17.296C150.537 19.0707 147.675 12.4492 152.555 10.5992ZM122.992 10.7332C127.704 8.74923 129.688 15.5716 126.072 17.1956C125.19 17.6339 124.173 17.7112 123.235 17.4111C122.297 17.111 121.513 16.4571 121.05 15.5883C120.825 15.0998 120.699 14.571 120.682 14.0332C120.665 13.4954 120.756 12.9596 120.95 12.4576C121.494 10.7834 121.787 11.2354 123 10.7332H122.992ZM123.26 44.0749C128.985 43.9494 149.851 44.7614 153.392 43.2964C156.74 41.8901 157.242 38.2236 160.724 35.3523C166.8 30.3297 182.084 34.9589 188.47 32.1713C190.344 31.3577 191.899 29.9516 192.897 28.1688C193.895 26.386 194.281 24.3249 193.994 22.3019C193.392 17.5304 190.219 16.0739 186.696 14.2239C159.527 -0.00687827 127.269 -3.79058 96.7101 3.91913C91.3533 5.27524 77.8944 9.42727 74.3539 12.0307V111.395C78.0451 112.542 106.344 111.47 112.948 111.713C112.554 113.454 111.081 116.124 110.37 118.41C107.072 128.915 108.98 134.415 110.479 143.28L74.3539 143.472V243.925C76.0279 245.306 85.1763 248.629 88.0053 249.542C104.385 254.774 121.586 257.134 139.221 255.477C146.804 254.765 165.896 251.718 170.667 248.244C179.548 241.773 177.48 227.777 166.909 224.872C158.321 222.512 146.16 228.028 134.023 219.188C116.832 206.632 121.176 177.911 143.565 172.512C150.981 170.72 172.023 171.725 181.012 171.725C183.775 171.725 188.119 172.478 188.989 170.05C190.42 166.074 186.009 166.309 183.423 166.317C176.995 166.317 170.567 166.317 164.172 166.317C150.286 166.317 141.749 167.154 131.194 160.566C109.206 146.871 108.922 112.851 132.919 99.1646C144.051 92.8194 154.086 94.4768 166.984 94.4768C171.898 94.4768 180.686 95.6237 183.875 92.6603C184.843 91.8055 185.54 90.6858 185.879 89.4394C186.219 88.193 186.185 86.8745 185.784 85.6468C185.382 84.419 184.63 83.3358 183.62 82.5307C182.61 81.7257 181.386 81.2341 180.1 81.1167C176.535 80.6814 129.345 81.1167 122.699 81.033C123.536 76.6549 126.432 73.1056 128.683 70.4353C132.76 65.5884 134.894 64.8183 139.606 64.835C145.089 64.835 150.588 64.835 156.078 64.835C161.72 64.835 169.562 65.9735 170.073 62.3991C170.809 57.1672 161.067 58.9084 157.284 58.9084H140.811C136.543 58.9084 136.71 59.4274 134.007 57.2342C130.182 54.1034 124.498 48.8464 123.226 44.0749H123.26Z" fill="#9A1E3B"/>
<path fill-rule="evenodd" clip-rule="evenodd" d="M184.402 242.56V242.878C215.287 227.811 242.657 198.144 252.316 158.75C261.213 122.461 253.831 83.0923 231.935 53.3166C230.923 51.9354 225.239 43.5392 223.239 43.1542C226.403 49.9766 228.261 50.5458 230.73 60.5324C232.94 69.4596 232.818 78.8053 230.375 87.6715C227.931 96.5377 223.249 104.626 216.777 111.16C211.558 116.575 205.235 120.803 198.238 123.558C185.122 128.798 168.005 127.434 152.847 127.358C150.68 127.358 148.888 127.049 147.825 128.622C147.602 128.927 147.447 129.276 147.371 129.646C147.295 130.016 147.299 130.399 147.383 130.767C147.467 131.135 147.629 131.481 147.859 131.781C148.088 132.081 148.379 132.329 148.713 132.506C150.094 133.143 182.377 132.799 185.381 132.799C207.813 132.799 223.147 151.032 219.079 171.75C217.902 177.832 215.019 183.454 210.767 187.958C206.515 192.463 201.069 195.664 195.066 197.189C185.541 199.609 150.286 197.047 147.482 198.52C144.904 200.429 145.959 201.76 147.541 203.543C154.647 204.196 163.569 203.543 170.918 203.66C175.706 203.58 180.387 205.074 184.243 207.913C195.141 215.338 196.48 233.469 184.402 242.56Z" fill="#9A1E3B"/>
<path fill-rule="evenodd" clip-rule="evenodd" d="M1.11668 143.355C2.27174 168.569 21.4808 205.987 42.7406 223.039L42.6903 143.272L1.11668 143.355Z" fill="#9A1E3B"/>
<path fill-rule="evenodd" clip-rule="evenodd" d="M42.6487 32.8829C33.4417 39.63 21.8911 55.8362 16.0238 66.2749C8.66656 79.3672 3.60274 94.3681 1.17545 111.679L42.7407 111.621L42.6487 32.8829Z" fill="#9A1E3B"/>
</svg>
