<svg width="64" height="64" viewBox="0 0 64 64" fill="none" xmlns="http://www.w3.org/2000/svg">
<g clip-path="url(#clip0_1086_996)">
<circle cx="32" cy="32" r="32" fill="black"/>
<path d="M25.4484 4.28491C12.8972 7.24651 3.55554 18.5301 3.55554 31.9977C3.55554 45.4723 12.9071 56.7608 25.4684 59.7151L26.9847 53.3338C17.3107 51.0643 10.1071 42.373 10.1071 31.9977C10.1071 21.6207 17.313 12.9283 26.9893 10.6605L25.4484 4.28491Z" fill="#E6BD11"/>
<path d="M60.4444 31.9977C60.4444 18.5733 51.1625 7.31887 38.6721 4.31365L37.1492 10.6934C46.7557 13.0114 53.8928 21.6703 53.8928 31.9977C53.8928 42.3236 46.7577 50.9814 37.1533 53.3009L38.6881 59.6778C51.1704 56.6669 60.4444 45.4163 60.4444 31.9977Z" fill="#E6BD11"/>
</g>
<defs>
<clipPath id="clip0_1086_996">
<rect width="64" height="64" fill="white"/>
</clipPath>
</defs>
</svg>
