<svg width="64" height="64" viewBox="0 0 64 64" fill="none" xmlns="http://www.w3.org/2000/svg">
<g clip-path="url(#clip0_863_87)">
<path d="M28.4444 3.55556C28.4444 3.55556 28.4444 0 32 0C35.5556 0 35.5556 3.55556 35.5556 3.55556V7.11111C35.5556 7.11111 35.5556 10.6667 32 10.6667C28.4444 10.6667 28.4444 7.11111 28.4444 7.11111V3.55556ZM60.4444 28.4444C60.4444 28.4444 64 28.4444 64 32C64 35.5556 60.4444 35.5556 60.4444 35.5556H56.8889C56.8889 35.5556 53.3333 35.5556 53.3333 32C53.3333 28.4444 56.8889 28.4444 56.8889 28.4444H60.4444ZM7.11111 28.4444C7.11111 28.4444 10.6667 28.4444 10.6667 32C10.6667 35.5556 7.11111 35.5556 7.11111 35.5556H3.55556C3.55556 35.5556 0 35.5556 0 32C0 28.4444 3.55556 28.4444 3.55556 28.4444H7.11111ZM16.2151 12.9653C16.2151 12.9653 18.7289 15.4791 16.2151 17.9929C13.7013 20.5067 11.1876 17.9929 11.1876 17.9929L8.672 15.4809C8.672 15.4809 6.15822 12.9671 8.672 10.4516C11.1876 7.93778 13.7013 10.4516 13.7013 10.4516L16.2151 12.9653ZM53.5484 50.2987C53.5484 50.2987 56.0622 52.8124 53.5484 55.3262C51.0347 57.84 48.5209 55.3262 48.5209 55.3262L46.0071 52.8124C46.0071 52.8124 43.4933 50.2987 46.0071 47.7849C48.5209 45.2711 51.0347 47.7849 51.0347 47.7849L53.5484 50.2987ZM52.8142 17.9929C52.8142 17.9929 50.3004 20.5067 47.7867 17.9929C45.2729 15.4791 47.7867 12.9653 47.7867 12.9653L50.3004 10.4516C50.3004 10.4516 52.8142 7.93778 55.328 10.4516C57.8418 12.9653 55.328 15.4791 55.328 15.4791L52.8142 17.9929ZM15.4809 55.3262C15.4809 55.3262 12.9671 57.84 10.4533 55.3262C7.93956 52.8124 10.4533 50.2987 10.4533 50.2987L12.9671 47.7849C12.9671 47.7849 15.4809 45.2711 17.9947 47.7849C20.5084 50.2987 17.9947 52.8124 17.9947 52.8124L15.4809 55.3262ZM28.4444 56.8889C28.4444 56.8889 28.4444 53.3333 32 53.3333C35.5556 53.3333 35.5556 56.8889 35.5556 56.8889V60.4444C35.5556 60.4444 35.5556 64 32 64C28.4444 64 28.4444 60.4444 28.4444 60.4444V56.8889Z" fill="#FFAC33"/>
<path d="M32.0004 49.7778C41.8188 49.7778 49.7782 41.8184 49.7782 32C49.7782 22.1816 41.8188 14.2222 32.0004 14.2222C22.182 14.2222 14.2227 22.1816 14.2227 32C14.2227 41.8184 22.182 49.7778 32.0004 49.7778Z" fill="#FFAC33"/>
</g>
<defs>
<clipPath id="clip0_863_87">
<rect width="64" height="64" fill="white"/>
</clipPath>
</defs>
</svg>
