<svg width="64" height="64" viewBox="0 0 64 64" fill="none" xmlns="http://www.w3.org/2000/svg">
<g clip-path="url(#clip0_1384_709)">
<path d="M53.8883 1.37955C56.8892 33.7778 35.5559 56.8889 1.37988 53.888C15.9559 67.6071 38.875 67.3778 53.1257 53.1253C67.3781 38.8747 67.6092 15.9555 53.8883 1.37955Z" fill="#FFD983"/>
<path d="M54.5867 28.2933C54.3766 28.4808 54.207 28.7091 54.0883 28.9644C53.9696 29.2197 53.9042 29.4965 53.8963 29.778C53.8884 30.0594 53.938 30.3395 54.0421 30.6011C54.1463 30.8626 54.3027 31.1002 54.5019 31.2991C54.7011 31.4981 54.9389 31.6543 55.2006 31.7581C55.4623 31.8619 55.7424 31.9112 56.0239 31.9029C56.3053 31.8946 56.582 31.829 56.8372 31.7099C57.0923 31.5909 57.3205 31.421 57.5076 31.2107C57.8584 30.8164 58.0452 30.3029 58.0297 29.7754C58.0142 29.2479 57.7975 28.7463 57.4241 28.3734C57.0507 28.0005 56.5489 27.7844 56.0213 27.7695C55.4938 27.7546 54.9806 27.942 54.5867 28.2933V28.2933ZM26.1032 53.8578C25.8148 54.1452 25.586 54.4867 25.4299 54.8627C25.2737 55.2387 25.1934 55.6418 25.1934 56.0489C25.1934 56.456 25.2737 56.8591 25.4299 57.2351C25.586 57.6111 25.8148 57.9526 26.1032 58.24C26.5364 58.6728 27.0882 58.9673 27.6889 59.0865C28.2895 59.2057 28.912 59.1442 29.4777 58.9097C30.0434 58.6752 30.5268 58.2783 30.8669 57.7691C31.2071 57.2599 31.3886 56.6613 31.3886 56.0489C31.3886 55.4365 31.2071 54.8379 30.8669 54.3287C30.5268 53.8195 30.0434 53.4226 29.4777 53.1881C28.912 52.9536 28.2895 52.8921 27.6889 53.0113C27.0882 53.1305 26.5364 53.425 26.1032 53.8578V53.8578ZM50.9352 50.0409C50.4557 50.5206 49.8865 50.9011 49.2599 51.1608C48.6334 51.4204 47.9618 51.554 47.2836 51.554C46.6054 51.554 45.9339 51.4204 45.3073 51.1608C44.6808 50.9011 44.1115 50.5206 43.6321 50.0409C43.1522 49.5617 42.7715 48.9927 42.5118 48.3663C42.2521 47.7398 42.1184 47.0684 42.1184 46.3902C42.1184 45.7121 42.2521 45.0406 42.5118 44.4142C42.7715 43.7878 43.1522 43.2187 43.6321 42.7396C44.1113 42.2594 44.6804 41.8785 45.307 41.6186C45.9336 41.3588 46.6053 41.225 47.2836 41.225C47.962 41.225 48.6336 41.3588 49.2602 41.6186C49.8868 41.8785 50.456 42.2594 50.9352 42.7396C51.415 43.2187 51.7957 43.7878 52.0554 44.4142C52.3152 45.0406 52.4489 45.7121 52.4489 46.3902C52.4489 47.0684 52.3152 47.7398 52.0554 48.3663C51.7957 48.9927 51.415 49.5617 50.9352 50.0409V50.0409Z" fill="#FFCC4D"/>
</g>
<defs>
<clipPath id="clip0_1384_709">
<rect width="64" height="64" fill="white"/>
</clipPath>
</defs>
</svg>
