<svg width="64" height="64" viewBox="0 0 64 64" fill="none" xmlns="http://www.w3.org/2000/svg">
<g clip-path="url(#clip0_863_88)">
<path d="M24.8889 3.55556C24.8889 3.55556 24.8889 0 28.4444 0C32 0 32 3.55556 32 3.55556V7.11111C32 7.11111 32 10.6667 28.4444 10.6667C24.8889 10.6667 24.8889 7.11111 24.8889 7.11111V3.55556ZM53.3333 24.8889C53.3333 24.8889 56.8889 24.8889 56.8889 28.4444C56.8889 32 53.3333 32 53.3333 32H49.7778C49.7778 32 46.2222 32 46.2222 28.4444C46.2222 24.8889 49.7778 24.8889 49.7778 24.8889H53.3333ZM7.11111 24.8889C7.11111 24.8889 10.6667 24.8889 10.6667 28.4444C10.6667 32 7.11111 32 7.11111 32H3.55556C3.55556 32 0 32 0 28.4444C0 24.8889 3.55556 24.8889 3.55556 24.8889H7.11111ZM13.9947 10.7431C13.9947 10.7431 16.5084 13.2569 13.9947 15.7707C11.4809 18.2844 8.96711 15.7707 8.96711 15.7707L6.45156 13.2587C6.45156 13.2587 3.93778 10.7449 6.45156 8.22933C8.96711 5.71556 11.4809 8.22933 11.4809 8.22933L13.9947 10.7431ZM47.9236 15.7707C47.9236 15.7707 45.4098 18.2844 42.896 15.7707C40.3822 13.2569 42.896 10.7431 42.896 10.7431L45.4098 8.22933C45.4098 8.22933 47.9236 5.71556 50.4373 8.22933C52.9511 10.7431 50.4373 13.2569 50.4373 13.2569L47.9236 15.7707Z" fill="#FFAC33"/>
<path d="M28.4443 44.4445C37.2809 44.4445 44.4443 37.281 44.4443 28.4445C44.4443 19.6079 37.2809 12.4445 28.4443 12.4445C19.6078 12.4445 12.4443 19.6079 12.4443 28.4445C12.4443 37.281 19.6078 44.4445 28.4443 44.4445Z" fill="#FFAC33"/>
<path d="M49.7778 35.5556C48.3111 35.5556 46.8978 35.7778 45.5662 36.1902C44.7769 33.9283 43.3038 31.9678 41.3511 30.58C39.3983 29.1923 37.0623 28.446 34.6667 28.4445C29.2551 28.4445 24.7253 32.1707 23.4684 37.1929C22.0904 36.1359 20.4034 35.5606 18.6667 35.5556C16.5449 35.5556 14.5101 36.3984 13.0098 37.8987C11.5095 39.399 10.6667 41.4338 10.6667 43.5556C10.6667 44.6293 10.8853 45.6498 11.2693 46.5849C10.4961 46.3562 9.69518 46.2342 8.88889 46.2222C3.97867 46.2222 0 50.2009 0 55.1111C0 60.0213 3.97867 64 8.88889 64H49.7778C53.5497 64 57.1672 62.5016 59.8344 59.8344C62.5016 57.1672 64 53.5498 64 49.7778C64 46.0058 62.5016 42.3883 59.8344 39.7212C57.1672 37.054 53.5497 35.5556 49.7778 35.5556Z" fill="#F0F5F9"/>
</g>
<defs>
<clipPath id="clip0_863_88">
<rect width="64" height="64" fill="white"/>
</clipPath>
</defs>
</svg>
