<svg width="64" height="64" viewBox="0 0 64 64" fill="none" xmlns="http://www.w3.org/2000/svg">
<g clip-path="url(#clip0_1384_710)">
<path d="M48.4981 2.51617C47.2256 26.5915 29.1073 41.2495 4.37183 35.3861C13.5881 47.007 30.4165 49.2954 42.3925 40.3733C54.3695 31.4527 56.9956 14.6737 48.4981 2.51617Z" fill="#FFD983"/>
<path d="M46.1252 22.3236C45.9511 22.4385 45.8023 22.5877 45.6878 22.7621C45.5734 22.9366 45.4959 23.1326 45.4599 23.3381C45.4239 23.5435 45.4303 23.7542 45.4786 23.9572C45.5269 24.1601 45.6161 24.351 45.7409 24.5183C45.8656 24.6855 46.0232 24.8255 46.2039 24.9297C46.3847 25.0338 46.5848 25.1 46.792 25.1241C46.9992 25.1482 47.2092 25.1297 47.409 25.0698C47.6088 25.0098 47.7943 24.9097 47.9541 24.7756C48.2535 24.5241 48.4455 24.1677 48.4907 23.7793C48.5358 23.3908 48.4307 22.9998 48.197 22.6864C47.9632 22.3729 47.6184 22.1607 47.2332 22.0933C46.848 22.0258 46.4516 22.1082 46.1252 22.3236V22.3236ZM22.5015 38.0138C22.2593 38.1936 22.0549 38.4195 21.9002 38.6784C21.7454 38.9374 21.6433 39.2243 21.5996 39.5228C21.556 39.8213 21.5717 40.1255 21.6459 40.4179C21.72 40.7103 21.8512 40.9852 22.0318 41.2268C22.3031 41.5905 22.6761 41.8656 23.1037 42.0174C23.5313 42.1692 23.9943 42.1908 24.4342 42.0795C24.874 41.9682 25.271 41.729 25.575 41.3921C25.879 41.0552 26.0762 40.6358 26.1418 40.1868C26.2075 39.7379 26.1385 39.2795 25.9438 38.8697C25.749 38.4599 25.437 38.1171 25.0474 37.8845C24.6578 37.652 24.208 37.5401 23.7549 37.5631C23.3017 37.5862 22.8656 37.743 22.5015 38.0138V38.0138ZM41.1169 37.877C40.714 38.1773 40.2559 38.3953 39.7687 38.5185C39.2815 38.6417 38.7748 38.6677 38.2775 38.595C37.7803 38.5223 37.3022 38.3524 36.8707 38.0948C36.4391 37.8373 36.0626 37.4973 35.7625 37.0942C35.462 36.6915 35.2439 36.2335 35.1206 35.7463C34.9973 35.2592 34.9713 34.7526 35.044 34.2554C35.1166 33.7582 35.2866 33.2802 35.5442 32.8488C35.8018 32.4174 36.1419 32.0409 36.5451 31.741C36.9479 31.4404 37.406 31.2221 37.8932 31.0987C38.3805 30.9754 38.8873 30.9493 39.3846 31.022C39.882 31.0947 40.3601 31.2648 40.7917 31.5225C41.2232 31.7802 41.5997 32.1205 41.8995 32.5238C42.2 32.9266 42.4181 33.3846 42.5414 33.8717C42.6647 34.3588 42.6907 34.8655 42.6181 35.3627C42.5454 35.8599 42.3754 36.3379 42.1178 36.7693C41.8602 37.2007 41.5201 37.5771 41.1169 37.877V37.877Z" fill="#FFCC4D"/>
<path d="M49.5998 33.6C48.2798 33.6 47.0078 33.8 45.8094 34.1712C45.099 32.1355 43.7733 30.371 42.0158 29.122C40.2582 27.8731 38.1559 27.2014 35.9998 27.2C31.1294 27.2 27.0526 30.5536 25.9214 35.0736C24.6812 34.1223 23.1629 33.6045 21.5998 33.6C19.6902 33.6 17.8589 34.3586 16.5086 35.7088C15.1584 37.0591 14.3998 38.8905 14.3998 40.8C14.3998 41.7664 14.5966 42.6848 14.9422 43.5264C14.2463 43.3206 13.5255 43.2107 12.7998 43.2C8.3806 43.2 4.7998 46.7808 4.7998 51.2C4.7998 55.6192 8.3806 59.2 12.7998 59.2H49.5998C52.9946 59.2 56.2503 57.8514 58.6508 55.451C61.0512 53.0505 62.3998 49.7948 62.3998 46.4C62.3998 43.0052 61.0512 39.7495 58.6508 37.349C56.2503 34.9486 52.9946 33.6 49.5998 33.6V33.6Z" fill="#F0F5F9"/>
</g>
<defs>
<clipPath id="clip0_1384_710">
<rect width="64" height="64" fill="white"/>
</clipPath>
</defs>
</svg>
