<svg width="64" height="64" viewBox="0 0 64 64" fill="none" xmlns="http://www.w3.org/2000/svg">
<g clip-path="url(#clip0_863_89)">
<path d="M40.0999 16.3555C38.9171 16.3555 37.7799 16.5337 36.7061 16.8646C35.4363 13.2581 31.991 10.6667 27.9254 10.6667C23.5668 10.6667 19.9166 13.6473 18.9062 17.6655C17.7891 16.8172 16.4325 16.3578 15.038 16.3555C11.4777 16.3555 8.59357 19.221 8.59357 22.7555C8.59357 23.6134 8.77034 24.4293 9.0782 25.1778C8.45442 24.9951 7.80943 24.898 7.16033 24.8889C3.20528 24.8889 0 28.0717 0 32C0 35.9283 3.20528 39.1111 7.16033 39.1111H40.0984C46.4265 39.1111 51.5556 34.018 51.5556 27.7333C51.5556 21.4486 46.4265 16.3555 40.0999 16.3555Z" fill="#F1F6F9"/>
<path d="M50.5694 28.0889C49.1826 28.0889 47.8493 28.3005 46.5904 28.6933C45.1017 24.4107 41.0623 21.3333 36.2958 21.3333C31.1857 21.3333 26.9062 24.8729 25.7215 29.6445C24.4118 28.6371 22.8213 28.0916 21.1864 28.0889C17.0123 28.0889 13.6309 31.4916 13.6309 35.6889C13.6309 36.7076 13.8381 37.6765 14.1991 38.5653C13.4677 38.3484 12.7115 38.233 11.9505 38.2222C7.31358 38.2222 3.55566 42.0018 3.55566 46.6667C3.55566 51.3316 7.31358 55.1111 11.9505 55.1111H50.5676C57.9867 55.1111 64.0001 49.0631 64.0001 41.6C64.0001 34.1369 57.9867 28.0889 50.5694 28.0889Z" fill="#D6E6F1"/>
</g>
<defs>
<clipPath id="clip0_863_89">
<rect width="64" height="64" fill="white"/>
</clipPath>
</defs>
</svg>
