<svg width="64" height="64" viewBox="0 0 64 64" fill="none" xmlns="http://www.w3.org/2000/svg">
<path d="M50.1738 19.2C48.7462 19.2 47.3738 19.4116 46.0778 19.8045C44.5453 15.5218 40.3871 12.4445 35.4805 12.4445C30.22 12.4445 25.8147 15.984 24.5951 20.7556C23.2469 19.7482 21.6097 19.2027 19.9267 19.2C15.6298 19.2 12.1489 22.6027 12.1489 26.8C12.1489 27.8187 12.3622 28.7893 12.7338 29.6782C11.981 29.4607 11.2026 29.3447 10.4191 29.3333C5.64579 29.3333 1.77734 33.1129 1.77734 37.7778C1.77734 42.4427 5.64579 46.2222 10.4191 46.2222H50.172C57.8093 46.2222 63.9996 40.1742 63.9996 32.7111C63.9996 25.248 57.8093 19.2 50.1738 19.2Z" fill="#E1E8ED"/>
<path d="M21.3314 56.8196L21.1306 50.7378L16.0301 53.7742C15.455 54.0821 14.9776 54.5448 14.6521 55.1101C14.3266 55.6754 14.1659 56.3205 14.1883 56.9724C14.2254 57.9195 14.633 58.8141 15.3233 59.4635C16.0136 60.113 16.9314 60.4652 17.879 60.4444C18.3449 60.4371 18.8047 60.3371 19.2316 60.1502C19.6585 59.9633 20.0438 59.6933 20.3652 59.3558C20.6866 59.0184 20.9375 58.6203 21.1034 58.1849C21.2693 57.7494 21.3468 57.2853 21.3314 56.8196ZM8.92433 54.0818L8.72166 48L3.62122 51.0364C3.04598 51.3441 2.5685 51.8069 2.24296 52.3722C1.91741 52.9375 1.75683 53.5827 1.77944 54.2347C1.81651 55.1817 2.22411 56.0763 2.91443 56.7257C3.60475 57.3752 4.52255 57.7274 5.47011 57.7067C5.93619 57.6996 6.39619 57.5998 6.82326 57.413C7.25033 57.2261 7.63591 56.9561 7.95747 56.6187C8.27904 56.2812 8.53016 55.8831 8.69616 55.4475C8.86217 55.0119 8.93973 54.5477 8.92433 54.0818ZM33.8132 55.0418L33.6123 48.96L28.5119 51.9964C27.9368 52.3043 27.4594 52.7671 27.1339 53.3323C26.8084 53.8976 26.6477 54.5428 26.6701 55.1947C26.7072 56.1417 27.1148 57.0363 27.8051 57.6858C28.4954 58.3352 29.4132 58.6874 30.3608 58.6667C30.8267 58.6594 31.2865 58.5593 31.7134 58.3724C32.1402 58.1855 32.5256 57.9155 32.847 57.5781C33.1684 57.2406 33.4193 56.8426 33.5852 56.4071C33.7511 55.9716 33.8286 55.5075 33.8132 55.0418ZM44.4408 56.8196L44.2399 50.7378L39.1394 53.7742C38.5644 54.082 38.0872 54.5448 37.7619 55.1101C37.4367 55.6754 37.2765 56.3206 37.2994 56.9724C37.3365 57.9195 37.7441 58.8141 38.4344 59.4635C39.1248 60.113 40.0426 60.4652 40.9901 60.4444C41.456 60.4372 41.9157 60.3371 42.3425 60.1502C42.7692 59.9633 43.1545 59.6932 43.4757 59.3557C43.797 59.0183 44.0477 58.6202 44.2134 58.1847C44.3791 57.7493 44.4564 57.2852 44.4408 56.8196ZM55.1448 54.0818L54.9421 48L49.8417 51.0364C49.2666 51.3442 48.7894 51.807 48.4641 52.3723C48.1389 52.9377 47.9787 53.5829 48.0017 54.2347C48.0383 55.1819 48.4457 56.0768 49.1362 56.7263C49.8266 57.3758 50.7446 57.7279 51.6923 57.7067C52.1583 57.6994 52.6181 57.5993 53.0449 57.4124C53.4718 57.2255 53.8572 56.9555 54.1785 56.6181C54.4999 56.2806 54.7509 55.8826 54.9168 55.4471C55.0827 55.0117 55.1602 54.5475 55.1448 54.0818Z" fill="#5DADEC"/>
</svg>
