<svg width="64" height="64" viewBox="0 0 64 64" fill="none" xmlns="http://www.w3.org/2000/svg">
<g clip-path="url(#clip0_863_91)">
<path d="M49.7778 7.11111C48.3111 7.11111 46.8978 7.33333 45.5662 7.74578C44.7769 5.48388 43.3038 3.52334 41.3511 2.13559C39.3983 0.747836 37.0623 0.00153191 34.6667 0C29.2551 0 24.7253 3.72622 23.4684 8.74844C22.0904 7.69139 20.4034 7.11614 18.6667 7.11111C16.5449 7.11111 14.5101 7.95397 13.0098 9.45426C11.5095 10.9545 10.6667 12.9894 10.6667 15.1111C10.6667 16.1849 10.8853 17.2053 11.2693 18.1404C10.4961 17.9117 9.69518 17.7897 8.88889 17.7778C3.97867 17.7778 0 21.7564 0 26.6667C0 31.5769 3.97867 35.5556 8.88889 35.5556H49.7778C53.5497 35.5556 57.1672 34.0571 59.8344 31.39C62.5016 28.7228 64 25.1053 64 21.3333C64 17.5614 62.5016 13.9439 59.8344 11.2767C57.1672 8.60952 53.5497 7.11111 49.7778 7.11111Z" fill="#73838E"/>
<path d="M21.3313 44.3751L21.1304 38.2933L16.0282 41.3298C15.4534 41.6379 14.9763 42.1008 14.6508 42.666C14.3253 43.2312 14.1645 43.8762 14.1864 44.528C14.2235 45.4751 14.6311 46.3697 15.3214 47.0191C16.0118 47.6685 16.9296 48.0208 17.8771 48C18.3431 47.9927 18.803 47.8927 19.23 47.7058C19.6569 47.5189 20.0424 47.2489 20.3639 46.9115C20.6854 46.5741 20.9366 46.176 21.1027 45.7406C21.2688 45.3051 21.3465 44.8409 21.3313 44.3751ZM17.8131 57.6373L17.6122 51.5556L12.51 54.592C11.9352 54.9002 11.458 55.363 11.1326 55.9282C10.8071 56.4934 10.6462 57.1384 10.6682 57.7902C10.7053 58.7373 11.1129 59.6319 11.8032 60.2813C12.4935 60.9307 13.4113 61.283 14.3589 61.2622C14.825 61.2552 15.285 61.1553 15.712 60.9685C16.1391 60.7817 16.5247 60.5117 16.8463 60.1742C17.1678 59.8368 17.4189 59.4386 17.5849 59.0031C17.7509 58.5675 17.8285 58.1032 17.8131 57.6373ZM8.92422 49.7084L8.72333 43.6267L3.62111 46.6631C3.04628 46.9713 2.56915 47.4341 2.24367 47.9993C1.91819 48.5645 1.75734 49.2095 1.77933 49.8613C1.81685 50.8082 2.22459 51.7026 2.91481 52.3519C3.60503 53.0012 4.52257 53.3536 5.47 53.3333C5.93608 53.3263 6.39608 53.2264 6.82315 53.0396C7.25022 52.8528 7.6358 52.5828 7.95736 52.2453C8.27893 51.9079 8.53005 51.5098 8.69605 51.0742C8.86206 50.6386 8.93962 50.1743 8.92422 49.7084ZM40.9242 44.3751L40.7233 38.2933L35.6229 41.3298C35.0478 41.6376 34.5704 42.1004 34.2449 42.6657C33.9194 43.2309 33.7587 43.8761 33.7811 44.528C33.8182 45.4751 34.2258 46.3697 34.9161 47.0191C35.6064 47.6685 36.5242 48.0208 37.4718 48C37.9377 47.9927 38.3975 47.8927 38.8244 47.7058C39.2512 47.5189 39.6366 47.2488 39.958 46.9114C40.2794 46.574 40.5303 46.1759 40.6962 45.7404C40.8621 45.305 40.9396 44.8408 40.9242 44.3751ZM30.2202 51.4862L30.0193 45.4044L24.9189 48.4409C24.3438 48.7487 23.8664 49.2115 23.5409 49.7768C23.2154 50.342 23.0547 50.9872 23.0771 51.6391C23.1142 52.5862 23.5218 53.4808 24.2121 54.1302C24.9024 54.7796 25.8202 55.1319 26.7678 55.1111C27.2337 55.1038 27.6935 55.0038 28.1204 54.8169C28.5472 54.63 28.9326 54.3599 29.254 54.0225C29.5754 53.6851 29.8263 53.287 29.9922 52.8516C30.1581 52.4161 30.2356 51.952 30.2202 51.4862ZM39.1464 59.4151L38.9438 53.3333L33.8433 56.3698C33.2682 56.6776 32.7909 57.1404 32.4653 57.7057C32.1398 58.2709 31.9792 58.9161 32.0016 59.568C32.0386 60.5151 32.4462 61.4097 33.1365 62.0591C33.8269 62.7085 34.7447 63.0608 35.6922 63.04C36.1583 63.0329 36.6183 62.9331 37.0454 62.7463C37.4724 62.5595 37.858 62.2895 38.1796 61.952C38.5012 61.6146 38.7523 61.2164 38.9183 60.7808C39.0843 60.3453 39.1618 59.881 39.1464 59.4151ZM51.5536 49.7084L51.3527 43.6267L46.2522 46.6631C45.6771 46.9709 45.1998 47.4337 44.8742 47.999C44.5487 48.5643 44.388 49.2094 44.4104 49.8613C44.4475 50.8084 44.8551 51.703 45.5454 52.3524C46.2358 53.0018 47.1536 53.3541 48.1011 53.3333C48.567 53.326 49.0269 53.226 49.4537 53.0391C49.8806 52.8522 50.2659 52.5822 50.5873 52.2447C50.9087 51.9073 51.1597 51.5092 51.3256 51.0738C51.4915 50.6383 51.569 50.1742 51.5536 49.7084Z" fill="#5DADEC"/>
</g>
<defs>
<clipPath id="clip0_863_91">
<rect width="64" height="64" fill="white"/>
</clipPath>
</defs>
</svg>
