<svg width="64" height="64" viewBox="0 0 64 64" fill="none" xmlns="http://www.w3.org/2000/svg">
<g clip-path="url(#clip0_863_92)">
<path d="M24.7412 64C24.6143 63.9999 24.4895 63.9673 24.3788 63.9052C24.2681 63.8431 24.1753 63.7536 24.1091 63.6453C24.0429 63.537 24.0056 63.4135 24.0008 63.2867C23.996 63.1598 24.0239 63.0339 24.0817 62.9209L30.2221 51.5556H21.1946C20.8852 51.5556 20.4159 51.5005 20.1955 51.0276C19.9928 50.5956 20.0941 50.1849 20.279 49.7778L26.6666 33.7778C26.8052 33.6587 38.9368 34.4765 39.111 34.4765C39.2379 34.477 39.3625 34.51 39.473 34.5725C39.5834 34.6349 39.676 34.7247 39.7418 34.8331C39.8076 34.9416 39.8445 35.0652 39.8489 35.192C39.8533 35.3187 39.8251 35.4446 39.767 35.5573L32.9812 46.224H41.927C42.2364 46.224 42.5119 46.416 42.6221 46.7058C42.6745 46.8477 42.6822 47.0022 42.6444 47.1486C42.6066 47.2951 42.5251 47.4265 42.4106 47.5253L25.2266 63.8204C25.0912 63.936 24.9192 63.9996 24.7412 64Z" fill="#F4900C"/>
<path d="M49.7778 7.11111C48.3111 7.11111 46.8978 7.33333 45.5662 7.74578C44.7769 5.48388 43.3038 3.52334 41.3511 2.13559C39.3983 0.747836 37.0623 0.00153191 34.6667 0C29.2551 0 24.7253 3.72622 23.4684 8.74844C22.0904 7.69139 20.4034 7.11614 18.6667 7.11111C16.5449 7.11111 14.5101 7.95397 13.0098 9.45426C11.5095 10.9545 10.6667 12.9894 10.6667 15.1111C10.6667 16.1849 10.8853 17.2053 11.2693 18.1404C10.4961 17.9117 9.69518 17.7897 8.88889 17.7778C3.97867 17.7778 0 21.7564 0 26.6667C0 31.5769 3.97867 35.5556 8.88889 35.5556H49.7778C53.5497 35.5556 57.1672 34.0571 59.8344 31.39C62.5016 28.7228 64 25.1053 64 21.3333C64 17.5614 62.5016 13.9439 59.8344 11.2767C57.1672 8.60952 53.5497 7.11111 49.7778 7.11111Z" fill="#576671"/>
<path d="M19.554 44.3751L19.3531 38.2933L14.2509 41.3298C13.676 41.6379 13.1989 42.1008 12.8734 42.666C12.548 43.2312 12.3871 43.8762 12.4091 44.528C12.4466 45.4749 12.8544 46.3692 13.5446 47.0186C14.2348 47.6679 15.1523 48.0203 16.0998 48C16.5658 47.9927 17.0257 47.8927 17.4526 47.7058C17.8796 47.5189 18.2651 47.2489 18.5866 46.9115C18.9081 46.5741 19.1592 46.176 19.3253 45.7406C19.4914 45.3051 19.5691 44.8409 19.554 44.3751ZM15.9984 58.5973L15.7975 52.5156L10.6953 55.552C10.1205 55.8602 9.64336 56.323 9.31788 56.8882C8.9924 57.4534 8.83156 58.0984 8.85354 58.7502C8.89106 59.6971 9.2988 60.5915 9.98902 61.2408C10.6792 61.8901 11.5968 62.2425 12.5442 62.2222C13.0103 62.2152 13.4703 62.1153 13.8974 61.9285C14.3244 61.7417 14.71 61.4717 15.0316 61.1342C15.3531 60.7968 15.6043 60.3986 15.7703 59.9631C15.9363 59.5275 16.0138 59.0632 15.9984 58.5973ZM7.14688 48.7484L6.94599 42.6667L1.84376 45.7031C1.26894 46.0113 0.791806 46.4741 0.466324 47.0393C0.140843 47.6045 -0.0199997 48.2495 0.00198704 48.9013C0.0390554 49.8484 0.446655 50.743 1.13698 51.3924C1.8273 52.0418 2.7451 52.3941 3.69265 52.3733C4.15874 52.3663 4.61874 52.2664 5.04581 52.0796C5.47288 51.8928 5.85845 51.6228 6.18002 51.2853C6.50159 50.9479 6.7527 50.5498 6.91871 50.1142C7.08471 49.6786 7.16228 49.2143 7.14688 48.7484ZM51.5913 44.3751L51.3904 38.2933L46.29 41.3298C45.7149 41.6376 45.2375 42.1004 44.912 42.6657C44.5865 43.2309 44.4258 43.8761 44.4482 44.528C44.4853 45.4751 44.8929 46.3697 45.5832 47.0191C46.2735 47.6685 47.1913 48.0208 48.1389 48C48.6048 47.9927 49.0646 47.8927 49.4915 47.7058C49.9183 47.5189 50.3037 47.2488 50.6251 46.9114C50.9465 46.574 51.1974 46.1759 51.3633 45.7404C51.5292 45.305 51.6067 44.8408 51.5913 44.3751ZM48.0358 60.3751L47.8349 54.2933L42.7344 57.3298C42.1593 57.6376 41.682 58.1004 41.3564 58.6657C41.0309 59.2309 40.8703 59.8761 40.8927 60.528C40.9297 61.4751 41.3373 62.3697 42.0276 63.0191C42.718 63.6685 43.6358 64.0208 44.5833 64C45.0492 63.9927 45.5091 63.8927 45.9359 63.7058C46.3628 63.5189 46.7481 63.2488 47.0695 62.9114C47.3909 62.574 47.6419 62.1759 47.8078 61.7404C47.9737 61.305 48.0512 60.8408 48.0358 60.3751ZM58.7024 53.264L58.5015 47.1822L53.4011 50.2187C52.826 50.5265 52.3486 50.9893 52.0231 51.5545C51.6976 52.1198 51.5369 52.765 51.5593 53.4169C51.5964 54.3639 52.004 55.2585 52.6943 55.908C53.3846 56.5574 54.3024 56.9097 55.25 56.8889C55.7159 56.8816 56.1757 56.7816 56.6026 56.5947C57.0295 56.4078 57.4148 56.1377 57.7362 55.8003C58.0576 55.4628 58.3085 55.0648 58.4744 54.6293C58.6403 54.1939 58.7178 53.7297 58.7024 53.264Z" fill="#5DADEC"/>
</g>
<defs>
<clipPath id="clip0_863_92">
<rect width="64" height="64" fill="white"/>
</clipPath>
</defs>
</svg>
