<svg width="1490" height="594" viewBox="0 0 1490 594" fill="none" xmlns="http://www.w3.org/2000/svg">
<path d="M621.914 271C578.477 240.5 565.823 201.485 569.5 166.5C576.495 99.9499 641.42 43.5002 722.31 43.5002C798.202 43.5002 856.399 100.5 849.62 165C845.942 200 831.635 232 789.188 263" stroke="url(#paint0_linear_1260_576)" stroke-width="4"/>
<path d="M618.366 275.559C573.189 243.837 560.027 203.257 563.851 166.871C571.126 97.6536 638.654 38.9417 722.785 38.9417C801.719 38.9417 862.248 98.2259 855.197 165.311C851.371 201.713 836.492 234.996 792.344 267.238" stroke="url(#paint1_linear_1260_576)"/>
<path d="M616.44 251.349C593.939 231.117 581.563 202.179 584.94 170.044C591.37 108.874 652.444 59.2871 721.354 59.2871C790.265 59.2871 840.915 108.874 834.486 170.044C831.61 197.414 817.792 222.465 797.227 241.793" stroke="white" stroke-width="10"/>
<path d="M574.5 105.5L547 109C544 109.5 541.299 110.769 538.5 114.5C534 120.5 505 169.5 514.5 215C523.016 248 537.499 261.807 540 264.5C541.5 266.116 544 267.8 550 267C556 266.2 568.5 263.667 574.5 262.5" stroke="url(#paint2_linear_1260_576)" stroke-opacity="0.5" stroke-width="2"/>
<path d="M571 114.5L547.898 117.639C545.377 118.087 543.109 119.224 540.757 122.57C536.976 127.951 512.615 171.889 520.596 212.688C527.749 242.279 539.917 254.66 542.017 257.074C543.277 258.523 545.378 260.033 550.418 259.316C555.459 258.599 565.96 256.327 571 255.281" stroke="url(#paint3_linear_1260_576)" stroke-opacity="0.5" stroke-width="2"/>
<path d="M856.5 95.0002H878C882 95.0002 887.5 95.0003 891 101C898.5 115 913 142 910.5 180C908.592 209 888 239.5 880.5 247C876 251.5 875.5 253.5 867 253.5L831.5 252" stroke="url(#paint4_linear_1260_576)" stroke-opacity="0.5" stroke-width="2"/>
<path d="M853.807 104.5H871.701C875.03 104.5 879.94 105.034 882.936 110.727C889.456 125.257 900.83 146.311 898.749 180.115C897.162 205.913 880.023 233.046 873.781 239.718C870.036 243.721 869.62 245.5 862.546 245.5L833 244.166" stroke="url(#paint5_linear_1260_576)" stroke-opacity="0.5" stroke-width="2"/>
<path d="M386 159.5C369.128 163.394 273.5 203 226.5 227.5V382.5C320.5 327 368.5 308.667 391 300.5C413.8 292.5 419.167 277.5 419 271L414.5 176C413 156.5 399 156.5 386 159.5Z" fill="url(#paint6_linear_1260_576)"/>
<path d="M269.5 216.5C304.833 200.167 383.128 170.394 400 166.5C413 163.5 427 163.5 428.5 183L433 278C433.167 284.5 427.8 299.5 405 307.5C382.5 315.667 330.3 336.1 301.5 352.5" stroke="url(#paint7_linear_1260_576)" stroke-opacity="0.8" stroke-width="2"/>
<path d="M301 279C237 304.5 125.5 368.5 32.4999 459.5C6.99997 482 9.49981 491 12 506.5L19.4999 542C21.4999 549 25.2217 554.706 34.4999 544.5C64.5 511.5 105.5 474.5 138 450C170.5 425.5 242 373.5 293.5 353" stroke="url(#paint8_linear_1260_576)" stroke-width="3"/>
<path d="M1 391.5C114 275 242.5 202 395.5 154.5" stroke="url(#paint9_radial_1260_576)" stroke-opacity="0.8" stroke-width="2"/>
<path d="M1006 121.5C1208 162 1333.5 215.5 1489 309" stroke="url(#paint10_radial_1260_576)" stroke-opacity="0.8" stroke-width="2"/>
<path d="M1053.5 134.5C1077.5 138.1 1154.67 162.334 1188 173V324.5C1146.5 303.5 1056.75 278.991 1028 272.5C1012.5 269 1000 257 1002 244L1013.5 157C1015.5 137.5 1023.5 130 1053.5 134.5Z" fill="url(#paint11_linear_1260_576)"/>
<path d="M1173.5 178C1140.17 167.334 1067.5 145.1 1043.5 141.5C1013.5 137 1005.5 144.5 1003.5 164L992 251C990 264 1002.5 276 1018 279.5C1046.75 285.991 1136.5 310.5 1178 331.5" stroke="url(#paint12_linear_1260_576)" stroke-opacity="0.8" stroke-width="2"/>
<path d="M1021.5 246C1169.5 281 1297 335 1444 430.5" stroke="white" stroke-width="8"/>
<path d="M1021.5 246C1169.5 281 1297 335 1444 430.5" stroke="#FE9331" stroke-width="8"/>
<path fill-rule="evenodd" clip-rule="evenodd" d="M890 247.5L977.5 262L979.156 249.854L898.675 237C896.02 240.644 893.128 244.152 890 247.5ZM900.584 234.298C902.825 231.024 904.883 227.648 906.757 224.186L981.061 235.889L979.58 246.747L900.584 234.298ZM983.058 221.243L981.444 233.076L908.211 221.411C910.059 217.765 911.709 214.031 913.161 210.226L983.058 221.243ZM914.201 207.391C915.417 203.945 916.474 200.446 917.371 196.906L984.926 207.544L983.457 218.316L914.201 207.391ZM986.929 192.855L985.326 204.613L918.071 194C918.947 190.153 919.639 186.262 920.145 182.344L986.929 192.855ZM920.492 179.392C920.907 175.446 921.137 171.477 921.182 167.5L988.932 178.165L987.328 189.926L920.492 179.392ZM990.985 163.109L989.322 175.309L921.185 164.93C921.148 160.871 920.919 156.808 920.498 152.759L990.985 163.109ZM920.143 149.705C919.613 145.572 918.881 141.458 917.949 137.381L992.991 148.397L991.387 160.164L920.143 149.705ZM994.958 133.974L993.393 145.45L917.199 134.276C916.143 130.133 914.878 126.035 913.404 122L994.958 133.974ZM912.202 118.838C910.403 114.293 908.336 109.838 906 105.5L997 119L995.358 131.043L912.202 118.838Z" fill="#3F6368"/>
<path d="M978.5 268L891 253.5C894.128 250.152 897.02 246.644 899.675 243L980.156 255.854L978.5 268Z" fill="#39DF92"/>
<path d="M982.061 241.889L907.758 230.186C905.883 233.648 903.826 237.024 901.584 240.298L980.58 252.747L982.061 241.889Z" fill="#39DF92"/>
<path d="M984.058 227.244L914.161 216.226C912.709 220.031 911.059 223.765 909.211 227.411L982.444 239.076L984.058 227.244Z" fill="#39DF92"/>
<path d="M985.926 213.544L918.371 202.906C917.473 206.446 916.417 209.945 915.201 213.391L984.457 224.316L985.926 213.544Z" fill="#39DF92"/>
<path d="M987.929 198.854L921.146 188.344C920.639 192.262 919.947 196.153 919.071 200L986.326 210.613L987.929 198.854Z" fill="#39DF92"/>
<path d="M989.932 184.165L922.182 173.5C922.137 177.477 921.908 181.446 921.492 185.392L988.328 195.926L989.932 184.165Z" fill="#39DF92"/>
<path d="M991.985 169.109L921.498 158.759C921.919 162.808 922.148 166.871 922.184 170.93L990.321 181.309L991.985 169.109Z" fill="#39DF92"/>
<path d="M993.992 154.397L918.95 143.381C919.882 147.458 920.613 151.572 921.143 155.705L992.387 166.164L993.992 154.397Z" fill="#39DF92"/>
<path d="M995.958 139.974L914.404 128C915.878 132.035 917.143 136.133 918.199 140.276L994.393 151.45L995.958 139.974Z" fill="#39DF92"/>
<path d="M907 111.5L998 125L996.358 137.043L913.202 124.838C911.403 120.293 909.336 115.838 907 111.5Z" fill="#39DF92"/>
<path fill-rule="evenodd" clip-rule="evenodd" d="M440.5 278L521.5 256.5C518.946 253.877 516.327 250.657 513.81 246.867L439.8 266.39L440.5 278ZM439.619 263.389L438.951 252.301L507 234.413C508.583 237.965 510.307 241.227 512.107 244.187L439.619 263.389ZM502.636 222.551C503.592 225.78 504.674 228.84 505.852 231.724L438.773 249.348L438.179 239.5L502.636 222.551ZM438.003 236.583L437.314 225.156L499.68 209.463C500.254 213.059 500.99 216.495 501.857 219.769L438.003 236.583ZM498.37 196.061C498.512 199.782 498.827 203.369 499.291 206.817L437.154 222.5L436.5 211.647L498.37 196.061ZM436.334 208.9L435.629 197.197L498.656 182C498.357 185.885 498.244 189.649 498.297 193.289L436.334 208.9ZM500.776 166.5C499.94 170.789 499.33 174.957 498.923 179L435.45 194.235L434.737 182.403L500.776 166.5ZM434.562 179.5L433.847 167.635L504.786 150.596C503.439 154.962 502.324 159.223 501.421 163.373L434.562 179.5ZM510.803 134.105C508.883 138.671 507.213 143.137 505.774 147.5L433.682 164.895L432.953 152.805L510.803 134.105ZM432.775 149.86L432 137L519.5 116C516.796 121.014 514.391 125.925 512.262 130.728L432.775 149.86Z" fill="#4B4242"/>
<path d="M524.5 260.5L443.5 282L442.8 270.39L516.81 250.867C519.327 254.657 521.946 257.877 524.5 260.5Z" fill="#C80000"/>
<path d="M510 238.413L441.951 256.301L442.619 267.389L515.107 248.187C513.307 245.227 511.583 241.965 510 238.413Z" fill="#C80000"/>
<path d="M505.637 226.551L441.179 243.5L441.773 253.348L508.852 235.724C507.674 232.84 506.592 229.78 505.637 226.551Z" fill="#C80000"/>
<path d="M502.68 213.463L440.314 229.156L441.003 240.583L504.857 223.769C503.99 220.495 503.255 217.059 502.68 213.463Z" fill="#C80000"/>
<path d="M501.37 200.061L439.5 215.647L440.154 226.5L502.291 210.817C501.827 207.369 501.512 203.782 501.37 200.061Z" fill="#C80000"/>
<path d="M501.656 186L438.629 201.197L439.334 212.9L501.297 197.289C501.244 193.649 501.357 189.885 501.656 186Z" fill="#C80000"/>
<path d="M503.776 170.5L437.737 186.403L438.451 198.235L501.924 183C502.33 178.957 502.94 174.789 503.776 170.5Z" fill="#C80000"/>
<path d="M507.786 154.596L436.847 171.635L437.562 183.5L504.421 167.373C505.324 163.223 506.439 158.963 507.786 154.596Z" fill="#C80000"/>
<path d="M513.803 138.105L435.953 156.805L436.682 168.895L508.774 151.5C510.213 147.137 511.883 142.671 513.803 138.105Z" fill="#C80000"/>
<path d="M435 141L522.5 120C519.796 125.014 517.391 129.925 515.262 134.728L435.775 153.86L435 141Z" fill="#C80000"/>
<path d="M738.44 267.501C1098.29 262.115 1368.86 446.236 1460 528.5C1369.81 447.098 1095.76 270.154 738.56 275.5C372.569 280.977 156.977 463.154 53 593C158.023 461.847 369.432 273.023 738.44 267.501Z" fill="url(#paint13_radial_1260_576)"/>
<path d="M183 218C270.5 173 352.79 134.393 427.5 95.5C526 41.5002 616.158 1 712 1C829.5 1 877 32.6327 1043.5 95.5C1179.1 146.7 1307.67 195.5 1355 213.5" stroke="url(#paint14_radial_1260_576)" stroke-opacity="0.8" stroke-width="2"/>
<defs>
<linearGradient id="paint0_linear_1260_576" x1="722.409" y1="43.5002" x2="722.409" y2="271" gradientUnits="userSpaceOnUse">
<stop offset="0.77117" stop-color="#FE9331"/>
<stop offset="0.975719" stop-color="#98581D" stop-opacity="0"/>
</linearGradient>
<linearGradient id="paint1_linear_1260_576" x1="722.888" y1="38.9417" x2="722.888" y2="275.559" gradientUnits="userSpaceOnUse">
<stop offset="0.77117" stop-color="#FE9331"/>
<stop offset="0.975719" stop-color="#98581D" stop-opacity="0"/>
</linearGradient>
<linearGradient id="paint2_linear_1260_576" x1="513" y1="105.5" x2="575" y2="105.5" gradientUnits="userSpaceOnUse">
<stop stop-color="white"/>
<stop offset="1" stop-color="white" stop-opacity="0"/>
</linearGradient>
<linearGradient id="paint3_linear_1260_576" x1="519.335" y1="114.5" x2="571.42" y2="114.5" gradientUnits="userSpaceOnUse">
<stop stop-color="white"/>
<stop offset="1" stop-color="white" stop-opacity="0"/>
</linearGradient>
<linearGradient id="paint4_linear_1260_576" x1="911" y1="94.5002" x2="862" y2="87.0002" gradientUnits="userSpaceOnUse">
<stop stop-color="white"/>
<stop offset="1" stop-color="white" stop-opacity="0"/>
</linearGradient>
<linearGradient id="paint5_linear_1260_576" x1="899.166" y1="104.055" x2="858.268" y2="98.1989" gradientUnits="userSpaceOnUse">
<stop stop-color="white"/>
<stop offset="1" stop-color="white" stop-opacity="0"/>
</linearGradient>
<linearGradient id="paint6_linear_1260_576" x1="419" y1="215.5" x2="227" y2="215.5" gradientUnits="userSpaceOnUse">
<stop stop-color="#3B5972"/>
<stop offset="1" stop-color="#254057" stop-opacity="0"/>
</linearGradient>
<linearGradient id="paint7_linear_1260_576" x1="420.5" y1="165.5" x2="272.769" y2="206.616" gradientUnits="userSpaceOnUse">
<stop stop-color="#79A8FF"/>
<stop offset="1" stop-color="white" stop-opacity="0"/>
</linearGradient>
<linearGradient id="paint8_linear_1260_576" x1="1" y1="476" x2="292" y2="356.5" gradientUnits="userSpaceOnUse">
<stop offset="0.451923" stop-color="#FE9331"/>
<stop offset="1" stop-color="#F5DEC8" stop-opacity="0"/>
</linearGradient>
<radialGradient id="paint9_radial_1260_576" cx="0" cy="0" r="1" gradientUnits="userSpaceOnUse" gradientTransform="translate(198 237) scale(198 329.582)">
<stop stop-color="white"/>
<stop offset="1" stop-color="white" stop-opacity="0"/>
</radialGradient>
<radialGradient id="paint10_radial_1260_576" cx="0" cy="0" r="1" gradientUnits="userSpaceOnUse" gradientTransform="translate(1262.74 193.835) rotate(51.3071) scale(198 329.582)">
<stop stop-color="white"/>
<stop offset="1" stop-color="white" stop-opacity="0"/>
</radialGradient>
<linearGradient id="paint11_linear_1260_576" x1="1188" y1="182.192" x2="1002.27" y2="182.192" gradientUnits="userSpaceOnUse">
<stop stop-color="#254057" stop-opacity="0"/>
<stop offset="1" stop-color="#3B5972"/>
</linearGradient>
<linearGradient id="paint12_linear_1260_576" x1="1019.5" y1="288" x2="1169.16" y2="294.583" gradientUnits="userSpaceOnUse">
<stop stop-color="#79A8FF"/>
<stop offset="1" stop-color="white" stop-opacity="0"/>
</linearGradient>
<radialGradient id="paint13_radial_1260_576" cx="0" cy="0" r="1" gradientUnits="userSpaceOnUse" gradientTransform="translate(726.03 270.646) rotate(90) scale(904.963 734.268)">
<stop stop-color="white"/>
<stop offset="1" stop-color="#C0D6FF" stop-opacity="0"/>
</radialGradient>
<radialGradient id="paint14_radial_1260_576" cx="0" cy="0" r="1" gradientUnits="userSpaceOnUse" gradientTransform="translate(744 0.500208) rotate(90) scale(612.5 612.5)">
<stop stop-color="#79A8FF"/>
<stop offset="1" stop-color="white" stop-opacity="0"/>
</radialGradient>
</defs>
</svg>
