<svg width="256" height="213" viewBox="0 0 256 213" fill="none" xmlns="http://www.w3.org/2000/svg">
<path d="M49.3336 126.961C48.756 127.323 48.1784 127.612 47.6008 127.974V112.429C48.8282 111.2 49.9113 109.898 50.9221 108.597C56.0484 101.728 55.4708 91.0275 49.7668 84.7373C49.117 84.0143 48.395 83.3635 47.6008 82.7128V0H98.2145C121.247 0 139.947 18.3646 139.947 40.9949C139.947 60.2994 126.446 76.4226 108.178 80.833L118.359 95.2933C118.142 95.5102 117.926 95.6548 117.781 95.8717C109.189 95.944 102.402 98.4022 95.904 103.68L95.6874 103.825L95.543 103.969C94.6766 104.765 93.8824 105.488 93.016 106.211L84.7127 93.3411V60.1548H91.5719C102.474 60.1548 111.283 52.057 111.283 42.0071C111.283 31.9572 103.052 23.8595 92.1495 23.8595H77.1315V112.067C75.8318 112.284 74.6044 112.501 72.5827 113.007C65.6513 114.598 59.3697 119.514 54.3156 123.419C51.5719 125.588 50.7777 126.094 50.5611 126.238C50.1279 126.455 49.6946 126.744 49.3336 126.961ZM158.503 73.6752L158.792 73.5306L159.153 73.3859C162.691 71.8676 166.807 71.0723 171.067 71.0723C174.171 71.0723 177.276 71.5784 179.947 72.446V23.8595H198.431C206.518 23.8595 213.088 31.3065 213.088 39.4043C213.088 47.502 206.518 54.0815 198.431 54.0815H188.828V76.5672C189.55 77.0733 190.344 77.5794 191.283 78.2301L191.572 78.447L192.294 79.0255H206.518C216.337 79.0255 223.774 86.9786 223.774 96.8116C223.63 100.21 222.836 103.246 221.464 105.849C225.579 110.838 230.706 117.49 233.738 122.406L233.882 122.623C235.182 124.865 236.41 127.829 237.204 130.504C247.384 123.202 253.955 111.778 253.955 98.9806C253.955 83.1466 248.395 71.9399 229.767 63.2637C237.348 56.1782 241.969 46.7067 241.969 36.2953C241.969 26.8238 238.359 18.1477 232.005 11.3513C225.435 4.04888 213.738 0 197.926 0H150.417V78.5917C151.211 78.0855 152.077 77.5794 152.944 77.001C154.677 75.9165 156.482 74.6874 158.503 73.6752ZM142.619 190.731C143.413 192.466 144.135 194.057 144.929 194.274C145.29 194.346 145.651 194.419 146.085 194.419C147.89 194.419 150.489 193.406 152.294 191.96C153.305 191.093 153.016 190.514 152.511 189.719C152.366 189.502 152.222 189.213 152.005 188.851C151.5 187.911 151.211 186.899 150.994 186.032C150.489 184.224 150.056 182.706 148.178 182.995C145.435 183.356 142.835 183.573 139.875 183.573C139.803 183.573 138.937 183.573 138.648 184.224C138.287 184.947 139.081 185.67 139.875 186.393C140.308 186.827 140.814 187.261 141.103 187.694C141.536 188.49 142.113 189.647 142.619 190.731ZM6.15673 196.732C6.08453 196.732 5.9401 196.732 5.8679 196.804C4.27945 197.455 2.47441 199.48 2.40221 200.709C2.0412 205.987 1.82458 206.565 0.452739 208.156C0.0195255 208.59 -0.197072 209.674 0.236141 210.108C0.669354 210.542 5.79571 212.132 6.37333 212.132H6.51774C6.95095 211.988 7.38415 210.831 8.39498 207.144C8.9726 205.191 9.62243 202.95 10.3444 200.926C10.4166 200.781 10.4166 200.636 9.91123 199.913C9.33361 199.046 7.31196 196.732 6.15673 196.732ZM255.976 189.285C255.904 189.791 255.543 190.153 254.965 190.225C254.316 190.37 253.666 190.442 252.944 190.442C247.673 190.442 242.113 186.248 239.947 182.344C237.059 177.066 234.677 173.957 230.417 172.439C230.85 173.307 231.355 174.102 231.933 174.897C232.294 175.331 232.583 175.837 232.872 176.271C234.243 178.585 236.193 181.983 237.204 185.381C238.142 188.562 241.536 190.948 244.641 192.9L248.539 194.997C249.334 195.358 249.767 195.937 249.695 196.443C249.622 196.877 249.478 197.238 248.756 197.455L248.034 197.527C247.745 197.527 247.529 197.527 247.24 197.527C240.236 197.527 234.604 195.142 230.056 190.225C228.684 188.707 227.312 187.911 225.94 187.911C222.835 190.659 219.659 193.406 215.399 193.696C210.128 192.828 205.724 193.117 202.402 194.563C201.825 194.78 201.319 194.925 200.742 195.142C197.709 196.226 194.604 197.383 191.139 197.527C189.261 197.527 186.879 196.588 186.229 194.708C186.012 193.912 186.085 193.189 185.796 192.249C185.363 190.587 185.002 188.851 185.94 187.261L188.539 183.356C188.539 182.995 188.251 182.706 187.89 182.633C187.529 182.561 187.095 182.778 186.662 182.923C186.229 183.067 185.868 183.284 185.507 183.284C184.352 183.212 184.424 182.127 184.424 182.127C184.568 179.091 187.023 176.705 189.334 174.608C189.984 174.03 190.633 173.451 191.211 172.8C191.861 169.475 193.16 166.727 195.254 164.341C195.182 164.124 195.038 163.907 194.749 163.763C193.955 163.907 193.16 164.052 192.366 164.197C189.839 164.703 187.24 165.136 184.496 165.136C180.886 167.016 175.904 167.595 174.532 166.655C174.532 166.655 173.955 166.221 173.882 165.715C173.81 165.209 173.955 164.63 174.099 164.341C177.637 159.425 179.009 153.207 177.998 147.278C177.926 146.772 177.709 146.627 177.42 146.627C176.987 146.627 176.843 147.133 176.77 147.423C175.687 153.641 173.955 158.196 171.139 162.534C170.2 163.98 167.601 164.558 165.074 165.064C163.991 165.281 163.052 165.426 161.969 165.859C161.391 166.076 160.597 166.655 160.597 167.522C160.525 169.33 161.464 170.921 162.402 172.367L162.547 172.511C162.763 172.945 168.756 182.778 168.973 184.802C169.189 186.538 168.395 191.888 167.673 194.129C167.456 194.925 167.817 194.997 167.89 194.997C168.034 194.997 168.251 194.925 168.539 194.708C169.55 193.985 173.088 188.562 173.377 186.899C173.666 185.236 173.16 184.152 172.655 183.067L165.579 169.041L165.651 168.896C166.012 168.173 166.951 167.739 168.251 167.667H168.395C169.55 167.667 170.561 168.029 171.5 168.462C171.933 168.607 172.438 168.824 172.872 168.968H173.016L173.088 169.113C174.677 173.379 175.399 175.042 179.298 181.332C180.597 183.429 180.597 186.104 179.298 188.779C177.854 191.816 176.121 194.708 174.171 197.527C172.583 199.19 170.417 199.335 168.323 199.48C167.89 199.48 167.384 199.552 166.951 199.624H164.929C158.792 202.878 152.366 205.047 145.724 207.144C144.785 207.433 143.846 207.577 142.835 207.577C140.525 207.577 138.359 206.782 136.843 205.481C135.182 204.179 134.171 202.372 133.233 200.636C132.872 199.913 132.438 199.19 132.005 198.54C131.5 197.889 130.633 197.6 129.406 197.6C128.973 197.6 128.539 197.6 128.178 197.672C127.817 197.672 127.456 197.744 127.095 197.744C126.518 197.744 125.724 197.672 125.363 197.094L124.713 196.009C123.269 193.551 121.825 191.165 120.381 188.634C120.02 188.056 120.02 187.333 120.236 186.827C120.453 186.321 120.886 186.032 121.464 185.887C124.207 185.309 126.59 184.802 129.117 184.586C131.716 184.369 133.666 185.019 135.182 186.755C136.337 188.056 137.204 189.574 138.07 191.02C139.659 193.696 139.37 194.491 141.897 196.804C141.969 196.877 143.341 197.889 144.929 198.034C147.312 198.178 151.355 196.588 153.882 195.358C155.471 194.419 157.637 192.828 157.637 190.587C157.348 185.67 153.666 182.127 150.633 179.958C145.868 177.5 142.041 174.463 139.586 171.354C138.431 169.764 137.854 167.812 137.348 166.004C137.204 165.57 137.132 165.136 136.987 164.703C136.915 164.413 136.626 164.341 136.409 164.341C136.193 164.341 135.904 164.413 135.76 164.558C134.532 165.643 135.254 167.884 135.76 169.402C135.832 169.619 135.904 169.836 135.976 170.053L136.048 170.27C136.409 171.427 136.626 172.294 135.904 172.945C134.821 173.813 133.377 174.246 131.355 174.246C130.489 174.246 129.622 174.174 128.756 174.102C128.251 174.03 127.817 174.03 127.384 174.03C124.929 173.885 122.547 173.451 120.308 172.945C117.709 172.439 114.965 171.86 112.15 171.86C111.5 171.86 110.922 171.86 110.344 171.933C108.9 172.005 107.24 172.294 105.507 172.511C103.269 172.873 100.886 173.234 98.7921 173.234C95.2542 173.234 93.016 172.15 92.0051 169.908C89.7669 164.269 90.9221 157.545 91.8607 152.628C91.8607 152.122 91.2109 151.905 90.9221 151.833C90.7777 151.761 90.7055 151.761 90.6333 151.761C90.3445 151.761 90.0557 151.905 89.9113 152.267C89.2614 154.653 88.9004 157.183 88.5394 159.714C88.1062 162.823 87.6008 166.076 86.59 169.113C85.0737 173.74 81.247 179.597 76.0484 182.2C72.0051 184.296 67.3842 185.381 60.9582 185.815C52.2939 185.959 41.608 187.261 35.3264 196.226C34.8932 197.021 34.821 197.238 34.6766 197.889C34.6044 198.178 34.6044 198.467 34.7488 198.612C34.9654 198.901 35.3986 198.829 35.6874 198.54C41.608 191.888 49.6946 188.49 59.7307 188.49C60.3084 188.49 60.8138 188.49 61.3914 188.49C69.478 188.49 79.5863 187.405 85.7957 178.946C87.312 177.211 89.6224 173.379 89.6224 173.379L89.7669 173.162L93.3048 175.837L93.2326 175.982C93.2326 176.054 91.7163 179.886 90.7777 181.621C89.8391 183.501 87.2398 188.128 84.2795 189.791C83.5575 190.153 82.691 190.659 81.7524 191.165C80.0196 192.033 77.9257 193.189 75.8318 194.346C74.099 195.358 71.9329 195.865 69.6947 195.865C68.395 195.865 67.0954 195.72 65.7957 195.358C63.413 194.925 60.3806 194.346 57.5647 194.346C55.2542 194.346 53.4492 194.708 51.8607 195.431C50.6333 196.226 49.4058 197.311 48.2506 198.395C47.5286 199.118 46.7343 199.769 46.0123 200.42C44.2795 201.793 40.6694 204.179 36.9148 203.962C36.1206 203.89 35.3264 203.673 34.6044 203.529C33.738 203.312 32.8715 203.095 32.0773 203.095C31.1387 203.095 30.4889 203.384 29.9112 204.035C28.9004 204.975 28.1784 206.204 27.5286 207.433C26.4455 209.24 25.3625 211.12 23.3408 212.06C22.1856 212.711 20.886 213 19.3697 213C17.7813 213 16.1206 212.638 14.6044 212.277C13.3769 211.988 12.2939 211.771 11.1387 211.699H10.8499L10.9221 211.265C10.9943 210.759 11.1387 210.325 11.2109 209.819C11.8607 206.637 12.5827 203.384 14.6766 200.926L14.7488 200.853H14.821C16.1928 200.709 17.6369 200.42 18.7921 199.407C20.2362 198.106 21.3914 196.443 22.4744 194.635L22.5466 194.563C23.1964 194.129 23.9185 193.768 24.5683 193.334C27.312 191.743 30.1278 190.08 31.8607 187.333C32.4383 186.032 33.0881 184.513 33.6657 183.067C34.6044 180.609 35.4708 178.512 36.1928 177.717C36.626 177.283 37.0593 177.066 37.7091 176.994C37.9979 176.994 38.4311 176.922 39.0809 176.922C40.3083 176.849 42.0412 176.777 43.6297 176.56C44.6405 176.415 49.9835 174.536 52.6549 172.077C53.377 171.354 53.738 170.125 53.377 169.041C53.3048 168.679 53.0159 168.028 52.6549 167.233C51.8607 165.281 50.6333 162.244 50.1279 159.786C49.9113 158.702 49.7668 156.026 49.6946 153.279C49.6224 151.544 49.5502 149.809 49.4058 148.218C49.3336 147.423 49.0448 147.423 48.9004 147.423C48.8282 147.423 48.6838 147.423 48.5394 147.495C45.0737 148.363 41.4636 149.302 37.6369 149.302C36.4094 149.302 35.3264 149.23 34.1712 149.013C27.7452 148.218 20.0195 143.952 17.2037 136.433C15.0376 130.721 15.2542 121.9 19.9473 116.767C23.4852 112.429 27.7452 108.886 31.9329 105.415C32.7271 104.765 33.5935 104.042 34.3878 103.391C35.2542 102.668 35.6152 102.162 35.543 101.439C35.3986 100.282 34.46 99.3422 33.5214 99.053C32.5105 98.7637 31.3553 98.7637 30.4166 98.7637C30.0556 98.7637 29.7668 98.7637 29.4058 98.7637C29.0448 98.7637 28.756 98.7637 28.395 98.7637C26.8787 98.7637 25.2903 98.6914 23.7019 98.0407C23.4852 97.9684 23.2686 97.8961 23.052 97.8238C18.2145 95.5825 13.8101 90.1599 13.1603 84.8819C13.0159 82.3513 13.4491 80.11 14.7488 78.0855C18.2145 79.9654 21.247 83.002 25.2181 84.0866C26.7343 84.4481 28.2506 84.665 29.839 85.0265C30.0556 85.0988 30.4889 85.0988 30.7777 85.1711L31.2109 85.2434C33.6658 85.8218 40.3084 87.4847 43.2687 90.7383C46.2289 93.9919 46.5177 99.9929 43.9185 103.536C41.6802 106.572 38.3589 109.392 34.8932 112.284C32.7271 114.092 30.5611 115.971 28.6116 117.924C24.4961 122.045 22.9798 127.323 24.4239 132.529C25.9401 137.156 30.5611 140.626 35.6152 140.988C35.7596 140.988 35.9762 140.988 36.1206 140.988C42.9076 140.988 48.1784 137.879 53.738 134.625C54.2434 134.336 54.821 133.975 55.2542 133.685C56.1928 133.107 58.1423 131.589 59.6585 130.432C64.1351 126.889 69.478 122.768 74.46 121.611C77.7813 120.816 78.3589 120.816 81.8246 120.454C84.2795 120.237 86.59 119.948 88.6838 119.225C93.3048 117.634 97.3481 114.164 101.319 110.549C106.373 106.428 111.283 104.692 118.142 104.692C121.103 104.692 121.536 104.331 125.146 100.933C125.94 100.21 126.879 99.3422 128.034 98.2576C131.933 94.6426 136.915 93.1242 141.752 91.6059C144.207 90.8106 146.734 90.0876 149.117 89.0031C152.15 87.9908 154.965 86.1833 157.637 84.4481C159.225 83.4358 160.886 82.3513 162.547 81.4837C165.002 80.3992 167.962 79.8208 170.994 79.8208C173.377 79.8208 175.687 80.1823 177.637 80.9053C180.669 81.9898 181.969 82.5682 186.157 85.4603L207.312 103.03L207.601 103.319C207.962 103.68 208.467 104.114 208.828 104.548C209.478 105.199 221.247 118.936 226.157 126.961C227.745 129.636 229.045 133.758 229.189 135.71C230.128 148.073 233.882 159.208 237.348 168.607C237.493 168.968 238.215 169.619 239.009 170.342C239.947 171.137 240.958 172.077 241.608 173.017C242.547 174.319 243.413 175.765 244.207 177.138C246.301 180.681 248.539 184.369 252.294 186.538C252.294 186.538 254.027 187.405 255.471 188.128C255.976 188.49 256.049 188.851 255.976 189.285ZM178.937 111.633C177.854 109.464 176.77 108.091 175.687 107.585C175.399 107.44 175.038 107.368 174.677 107.368C173.955 107.368 173.233 107.657 173.016 108.091C172.077 109.609 172.944 110.693 173.882 111.995C174.316 112.646 174.821 113.296 175.254 114.164C176.554 116.767 177.204 119.587 178.287 125.226C178.359 125.732 178.72 125.804 178.792 125.804C179.081 125.804 179.298 125.515 179.442 125.154C179.514 125.081 181.68 117.201 178.937 111.633ZM214.532 178.078C213.521 177.572 212.438 177.934 212.438 177.934C209.117 178.801 207.456 182.272 207.24 182.633C207.24 182.633 206.734 183.573 207.023 184.079C207.312 184.513 207.817 184.73 209.261 184.802C210.706 184.875 213.377 184.513 214.099 183.79C214.821 183.139 215.038 181.477 215.038 181.477C215.038 181.187 215.543 178.585 214.532 178.078ZM224.496 154.87C224.135 153.207 222.691 150.459 221.391 149.086C220.092 147.712 219.659 146.989 219.225 146.266C218.792 145.543 219.153 145.76 217.565 143.808C216.193 142.145 214.965 142.289 214.604 142.289C214.604 142.289 213.16 142.217 212.077 143.808C211.644 144.386 210.633 146.844 210.633 146.844C210.128 148.073 209.695 148.435 209.261 150.242C208.828 151.978 208.973 152.701 209.189 153.641C209.334 154.58 209.839 154.653 210.2 154.436C210.561 154.219 210.561 154.002 211.716 152.484C212.727 151.182 214.027 150.387 214.532 150.387C216.554 150.17 220.02 154.725 220.742 156.316C221.391 157.762 221.536 161.232 221.536 161.232C221.536 161.377 221.464 162.678 222.547 162.678C223.485 162.678 223.846 161.955 223.991 161.666C224.135 161.377 224.496 160.726 224.713 159.425C224.857 157.979 224.929 156.533 224.496 154.87ZM11.9329 196.588C12.3661 196.949 12.9437 197.383 13.8823 197.383C14.3878 197.383 14.9654 197.238 15.4708 196.949C18.4311 195.503 21.4636 190.008 21.5358 189.719C21.8246 188.851 20.8138 188.056 19.5863 187.044L19.4419 186.899C18.8643 186.465 17.8535 186.538 17.2037 186.971C16.6982 187.261 16.265 187.622 15.7596 187.911C14.2434 188.924 12.6549 189.936 10.9943 191.382C10.4166 191.888 10.0556 192.828 9.98344 193.551C9.91123 194.129 10.0556 194.635 10.2722 194.925C10.4888 195.069 11.6441 196.371 11.9329 196.588Z" fill="white"/>
</svg>
