<svg width="256" height="256" viewBox="0 0 256 256" fill="none" xmlns="http://www.w3.org/2000/svg">
<path d="M253.736 128C253.736 152.868 246.362 177.178 232.545 197.856C218.729 218.533 199.092 234.649 176.116 244.166C153.141 253.683 127.859 256.173 103.468 251.321C79.0778 246.469 56.6736 234.494 39.0891 216.909C21.5045 199.324 9.52931 176.92 4.67786 152.529C-0.17358 128.139 2.31661 102.857 11.8335 79.8817C21.3505 56.9063 37.4667 37.2689 58.1442 23.4529C78.8217 9.63694 103.132 2.26281 128 2.26306C144.512 2.26273 160.863 5.51478 176.118 11.8335C191.373 18.1523 205.235 27.414 216.91 39.0898C228.586 50.7656 237.848 64.6269 244.167 79.8822C250.485 95.1374 253.736 111.488 253.736 128Z" fill="#231F20"/>
<path d="M128 256.001C98.4698 255.984 69.8534 245.758 46.9987 227.058C24.144 208.358 8.45626 182.332 2.59297 153.389C-3.27032 124.447 1.05138 94.3673 14.826 68.2463C28.6005 42.1254 50.9811 21.569 78.1762 10.0595C109.435 -3.0411 144.614 -3.21256 175.999 9.58276C207.384 22.3781 232.416 47.096 245.605 78.3177C258.795 109.539 259.067 144.717 246.361 176.139C233.655 207.56 209.008 232.662 177.824 245.94C162.062 252.611 145.116 256.033 128 256.001ZM128 4.52737C103.579 4.52712 79.7068 11.7685 59.4014 25.3359C39.0961 38.9032 23.2699 58.1871 13.9243 80.749C4.57863 103.311 2.13325 128.137 6.89738 152.089C11.6615 176.041 23.4211 198.042 40.6892 215.31C57.9573 232.578 79.9583 244.338 103.91 249.103C127.862 253.867 152.688 251.422 175.25 242.076C197.812 232.731 217.096 216.905 230.664 196.6C244.231 176.295 251.473 152.422 251.473 128.001C251.436 95.2655 238.415 63.8811 215.268 40.7333C192.12 17.5855 160.736 4.56464 128 4.52737Z" fill="#00E701"/>
<path d="M81.5615 193.908C80.6193 193.858 79.6957 194.184 78.9938 194.815C78.6939 195.088 78.4551 195.422 78.2928 195.795C78.1304 196.167 78.0483 196.569 78.0518 196.975C78.0212 197.304 78.0579 197.635 78.1596 197.949C78.2612 198.263 78.4258 198.553 78.6431 198.802C79.6449 199.528 80.738 200.12 81.8943 200.561C83.2922 201.082 84.5415 201.937 85.5334 203.051C86.2593 204.189 86.6024 205.529 86.5126 206.875C86.587 208.07 86.3953 209.266 85.9513 210.378C85.5072 211.49 84.822 212.489 83.9449 213.304C81.9967 214.891 79.5277 215.695 77.0188 215.561C75.7903 215.554 74.5652 215.429 73.3606 215.188C72.3481 215.01 71.3488 214.763 70.3692 214.451L69.335 214.044L70.1836 210.386C72.3455 210.811 74.5387 211.058 76.741 211.123C77.9634 211.217 79.1845 210.927 80.2342 210.294C80.6302 209.945 80.9373 209.507 81.1299 209.015C81.3225 208.524 81.395 207.994 81.3414 207.469C81.3607 207.164 81.3129 206.858 81.2012 206.574C81.0895 206.289 80.9167 206.033 80.695 205.823C79.7115 205.131 78.6515 204.555 77.5359 204.106C76.1613 203.56 74.9339 202.699 73.9519 201.592C73.1766 200.481 72.7991 199.141 72.8806 197.788C72.8446 196.695 73.0327 195.607 73.4331 194.59C73.8335 193.573 74.4378 192.648 75.2089 191.873C76.0311 191.084 77.0055 190.471 78.0727 190.071C79.1398 189.671 80.2773 189.493 81.4156 189.547C82.661 189.554 83.9033 189.672 85.1276 189.901C86.1325 190.066 87.126 190.294 88.1023 190.584L89.1366 190.953L88.2137 194.573C86.0153 194.181 83.7901 193.959 81.5577 193.908M85.3414 215.113L96.6476 189.99H105.441L104.666 215.113H99.566L99.7132 210.752H92.3967L90.4396 215.113H85.3414ZM99.6454 194.428L94.3257 206.323H99.9014L100.413 194.428H99.6454ZM112.564 206.58C112.355 207.409 112.243 208.259 112.23 209.114C112.199 209.42 112.253 209.729 112.387 210.006C112.521 210.283 112.729 210.518 112.988 210.684C113.826 211.043 114.739 211.194 115.648 211.126C116.169 211.165 116.693 211.095 117.186 210.921C117.679 210.746 118.131 210.471 118.511 210.112C119.312 209.085 119.834 207.868 120.026 206.58L123.866 189.995H128.965L125.125 206.58C124.708 209.175 123.487 211.573 121.634 213.436C119.836 214.917 117.551 215.675 115.224 215.562C109.854 215.562 107.169 213.665 107.169 209.87C107.182 208.491 107.343 207.118 107.649 205.774L111.307 189.998H116.407L112.564 206.58ZM141.106 189.995C145.489 189.995 147.682 191.806 147.682 195.426C147.739 196.817 147.379 198.192 146.648 199.377C145.832 200.531 144.773 201.492 143.546 202.193C144.351 202.608 145.018 203.25 145.466 204.038C145.81 204.83 145.974 205.689 145.946 206.552C145.976 207.698 145.763 208.837 145.32 209.895C144.877 210.952 144.215 211.903 143.378 212.686C141.345 214.423 138.713 215.296 136.045 215.118H126.584L132.385 189.995H141.106ZM138.298 204.587H134.126L132.685 210.756H137.037C137.538 210.776 138.037 210.684 138.498 210.487C138.958 210.289 139.369 209.99 139.699 209.613C140.385 208.784 140.74 207.732 140.695 206.657C140.695 205.275 139.895 204.589 138.294 204.589M140.289 194.349H136.484L135.076 200.337H138.881C139.359 200.345 139.833 200.253 140.272 200.065C140.712 199.877 141.106 199.598 141.43 199.246C142.131 198.49 142.503 197.486 142.464 196.456C142.5 196.164 142.469 195.868 142.371 195.591C142.274 195.314 142.113 195.063 141.902 194.859C141.691 194.654 141.435 194.502 141.155 194.413C140.875 194.325 140.579 194.303 140.289 194.349ZM146.656 215.113L152.416 189.99H167.158L166.123 194.424H156.525L155.159 200.335H162.77L161.736 204.769H154.161L152.8 210.684H162.443L161.445 215.118L146.656 215.113ZM177.061 189.995C179.159 189.822 181.247 190.42 182.936 191.676C183.612 192.373 184.13 193.207 184.455 194.121C184.78 195.036 184.905 196.01 184.82 196.977C184.896 199.108 184.344 201.214 183.232 203.034C182.285 204.566 180.875 205.758 179.205 206.434L181.235 215.117H176.138L174.474 207.137H170.966L169.117 215.117H164.018L169.819 189.994L177.061 189.995ZM178.41 201.188C179.17 200.176 179.578 198.944 179.574 197.679C179.671 196.758 179.45 195.831 178.946 195.054C178.653 194.791 178.308 194.593 177.933 194.472C177.558 194.351 177.162 194.31 176.77 194.351H173.92L171.96 202.776H175.25C175.867 202.795 176.479 202.659 177.031 202.382C177.582 202.104 178.056 201.693 178.409 201.186" fill="white"/>
<path d="M71.2793 44.233H113.992V72.7079H128.229V58.4704H142.464V44.233H185.178V86.9453H170.94V101.183H156.703V115.42H170.94V129.66H185.178V172.371H142.464V158.131H128.228V143.894H113.99V172.369H71.2793V44.233Z" fill="#00E701"/>
</svg>
