<svg width="300" height="334" viewBox="0 0 300 334" fill="none" xmlns="http://www.w3.org/2000/svg">
<path d="M81.3501 212.801L189.384 307.284C195.427 312.531 202.306 310.893 204.62 307.593L211.97 298.734C219.957 288.428 219.796 292.329 224.683 298.106L238.037 317.623C246.875 331.699 250.973 328.665 257.259 326.938L287.544 316.591C295.208 314.089 295.544 313.718 293.782 306.725L274.445 252.106C270.905 243.502 263.35 235.309 257.86 231.686L230.646 211.084C225.042 206.547 222.669 207.231 218.801 207.776L204.746 209.887C200.174 210.467 199.467 210.502 193.944 206.173L173.702 190.536C161.913 181.208 157.222 172.236 151.811 155.866C146.58 140.043 150.227 123.85 152.68 116.177L161.541 87.7737C164.457 78.0012 163.424 68.5656 161.257 60.531L156.783 41.6368C155.956 36.8398 151.668 26.422 140.835 19.7704C126.963 11.2528 114.089 15.7828 107.929 12.9014C101.769 10.0201 96.1752 4.27882 92.7134 5.86595C90.7554 6.76369 82.152 11.8158 78.2663 14.3678L58.2041 23.8548C45.4703 31.2103 43.4563 33.4338 35.3305 40.9152C28.8299 46.9003 27.1495 49.0212 27.4142 52.6338C28.1384 62.5095 30.2578 81.52 30.2578 81.52C31.3481 89.2538 28.999 91.848 23.7542 93.169L12.895 95.476C2.74175 97.7478 4.66446 100.839 8.17423 107.391C11.0968 111.612 17.0461 122.173 30.2258 138.159C42.6524 153.232 71.8003 177.166 71.8003 177.166C82.4429 184.782 80.9875 198.305 79.0084 201.235C74.7078 207.602 78.8912 210.799 81.3501 212.801Z" fill="black" fill-opacity="0.1"/>
<path d="M81.3501 212.801L189.384 307.284C195.427 312.531 202.306 310.893 204.62 307.593L211.97 298.734C219.957 288.428 219.796 292.329 224.683 298.106L238.037 317.623C246.875 331.699 250.973 328.665 257.259 326.938L287.544 316.591C295.208 314.089 295.544 313.718 293.782 306.725L274.445 252.106C270.905 243.502 263.35 235.309 257.86 231.686L230.646 211.084C225.042 206.547 222.669 207.231 218.801 207.776L204.746 209.887C200.174 210.467 199.467 210.502 193.944 206.173L173.702 190.536C161.913 181.208 157.222 172.236 151.811 155.866C146.58 140.043 150.227 123.85 152.68 116.177L161.541 87.7737C164.457 78.0012 163.424 68.5656 161.257 60.531L156.783 41.6368C155.956 36.8398 151.668 26.422 140.835 19.7704C126.963 11.2528 114.089 15.7828 107.929 12.9014C101.769 10.0201 96.1752 4.27882 92.7134 5.86595C90.7554 6.76369 82.152 11.8158 78.2663 14.3678L58.2041 23.8548C45.4703 31.2103 43.4563 33.4338 35.3305 40.9152C28.8299 46.9003 27.1495 49.0212 27.4142 52.6338C28.1384 62.5095 30.2578 81.52 30.2578 81.52C31.3481 89.2538 28.999 91.848 23.7542 93.169L12.895 95.476C2.74175 97.7478 4.66446 100.839 8.17423 107.391C11.0968 111.612 17.0461 122.173 30.2258 138.159C42.6524 153.232 71.8003 177.166 71.8003 177.166C82.4429 184.782 80.9875 198.305 79.0084 201.235C74.7078 207.602 78.8912 210.799 81.3501 212.801Z" stroke="black" stroke-width="10"/>
<path d="M100.585 229.549L125.295 242.487L192.972 301.089C197.048 304.781 205.222 305.439 216.299 293.21" stroke="#5B93FF" stroke-width="2"/>
<path d="M81.3501 212.801L189.384 307.284C195.427 312.531 202.306 310.893 204.62 307.593L211.97 298.734C219.957 288.428 219.796 292.329 224.683 298.106L238.037 317.623C246.875 331.699 250.973 328.665 257.259 326.938L287.544 316.591C295.208 314.089 295.544 313.718 293.782 306.725L274.445 252.106C270.905 243.502 263.35 235.309 257.86 231.686L230.646 211.084C225.042 206.547 222.669 207.231 218.801 207.776L204.746 209.887C200.174 210.467 199.467 210.502 193.944 206.173L173.702 190.536C161.913 181.208 157.222 172.236 151.811 155.866C146.58 140.043 150.227 123.85 152.68 116.177L161.541 87.7737C164.457 78.0012 163.424 68.5656 161.257 60.531L156.783 41.6368C155.956 36.8398 151.668 26.422 140.835 19.7704C126.963 11.2528 114.089 15.7828 107.929 12.9014C101.769 10.0201 96.1752 4.27882 92.7134 5.86595C90.7554 6.76369 82.152 11.8158 78.2663 14.3678L58.2041 23.8548C45.4703 31.2103 43.4563 33.4338 35.3305 40.9152C28.8299 46.9003 27.1495 49.0212 27.4142 52.6338C28.1384 62.5095 30.2578 81.52 30.2578 81.52C31.3481 89.2538 28.999 91.848 23.7542 93.169L12.895 95.476C2.74175 97.7478 4.66446 100.839 8.17423 107.391C11.0968 111.612 17.0461 122.173 30.2258 138.159C42.6524 153.232 71.8003 177.166 71.8003 177.166C82.4429 184.782 80.9875 198.305 79.0084 201.235C74.7078 207.602 78.8912 210.799 81.3501 212.801Z" stroke="white" stroke-width="2"/>
<path d="M185.621 303.992L83.9855 215.105" stroke="url(#paint0_radial_8528_7745)" stroke-width="2"/>
<path d="M67.9608 173.959C59.632 166.931 39.8819 149.87 30.2265 138.159C18.2261 123.604 12.22 113.545 9.03516 108.675" stroke="url(#paint1_radial_8528_7745)" stroke-width="2"/>
<path d="M161.541 87.7744L152.679 116.177C150.227 123.85 146.579 140.044 151.81 155.867C157.222 172.237 161.913 181.208 173.701 190.537L191.165 204.028" stroke="url(#paint2_radial_8528_7745)" stroke-width="2"/>
<path d="M241.852 219.568L257.86 231.686C263.35 235.309 270.905 243.502 274.445 252.106L293.43 305.732" stroke="url(#paint3_radial_8528_7745)" stroke-width="2"/>
<path d="M133.588 252.697L128.217 258.626" stroke="black" stroke-width="4"/>
<path d="M70.127 14.416L72.8956 20.2969" stroke="black" stroke-width="4"/>
<path d="M181.205 191.936L176.876 197.459" stroke="black" stroke-width="4"/>
<path d="M148.852 234.815L152.044 237.707L149.152 240.899L145.96 238.007L148.852 234.815Z" fill="white"/>
<path d="M143.09 241.18L146.282 244.072L143.391 247.264L140.198 244.373L143.09 241.18Z" fill="white"/>
<path d="M145.971 237.998L149.163 240.889L146.271 244.082L143.079 241.19L145.971 237.998Z" fill="black"/>
<path d="M140.211 244.362L143.403 247.254L140.512 250.447L137.319 247.555L140.211 244.362Z" fill="black"/>
<path d="M145.658 231.923L148.851 234.815L145.959 238.008L142.766 235.116L145.658 231.923Z" fill="black"/>
<path d="M139.898 238.288L143.091 241.18L140.199 244.372L137.007 241.481L139.898 238.288Z" fill="black"/>
<path d="M142.779 235.105L145.972 237.997L143.08 241.19L139.888 238.298L142.779 235.105Z" fill="white"/>
<path d="M137.018 241.47L140.21 244.362L137.318 247.555L134.126 244.663L137.018 241.47Z" fill="white"/>
<path d="M109.053 14.5936C107.569 16.2309 105.04 16.3559 103.403 14.8729C101.765 13.3898 101.64 10.8602 103.123 9.22293C104.606 7.58561 107.136 7.46056 108.773 8.94363C110.411 10.4267 110.536 12.9563 109.053 14.5936Z" fill="#00FF38"/>
<path d="M233.787 310.399C232.304 312.037 229.774 312.162 228.137 310.679C226.5 309.195 226.375 306.666 227.858 305.029C229.341 303.391 231.87 303.266 233.508 304.749C235.145 306.232 235.27 308.762 233.787 310.399Z" fill="#00FF38"/>
<defs>
<radialGradient id="paint0_radial_8528_7745" cx="0" cy="0" r="1" gradientUnits="userSpaceOnUse" gradientTransform="translate(134.638 259.398) rotate(-138.838) scale(67.2868 1.76663)">
<stop stop-color="#39FF65" stop-opacity="0.5"/>
<stop offset="1" stop-color="#00FF38"/>
</radialGradient>
<radialGradient id="paint1_radial_8528_7745" cx="0" cy="0" r="1" gradientUnits="userSpaceOnUse" gradientTransform="translate(38.2651 141.358) rotate(-143.896) scale(43.8506 6.87801)">
<stop stop-color="#39FF65" stop-opacity="0.5"/>
<stop offset="1" stop-color="#00FF38"/>
</radialGradient>
<radialGradient id="paint2_radial_8528_7745" cx="0" cy="0" r="1" gradientUnits="userSpaceOnUse" gradientTransform="translate(175.612 146.472) rotate(-172.377) scale(60.5036 42.1792)">
<stop stop-color="#39FF65" stop-opacity="0.5"/>
<stop offset="1" stop-color="#00FF38"/>
</radialGradient>
<radialGradient id="paint3_radial_8528_7745" cx="0" cy="0" r="1" gradientUnits="userSpaceOnUse" gradientTransform="translate(268.244 261.747) rotate(-156.078) scale(50.4118 22.375)">
<stop stop-color="#39FF65" stop-opacity="0.5"/>
<stop offset="1" stop-color="#00FF38"/>
</radialGradient>
</defs>
</svg>
