<svg width="428" height="294" viewBox="0 0 428 294" fill="none" xmlns="http://www.w3.org/2000/svg">
<g clip-path="url(#clip0_8466_7253)">
<path d="M153.781 110.434L218.966 163.952C237.439 179.408 276.936 212.415 287.147 220.79C299.483 233.452 300.85 225.289 299.969 214.637C300.052 203.717 305.7 201.631 311 200.16C316.299 198.689 321.438 200.377 327.913 206.882C330.481 209.462 335.753 214.565 335.753 214.565C358.847 230.469 374.746 226.057 388.049 219.771C396.535 214.821 401.487 213.966 406.221 223.549C408.276 227.96 405.657 234.602 403.916 237.68C400.311 242.14 392.056 252.906 387.344 258.364C381.454 265.188 379.76 272.404 381.505 276.59C382.474 278.915 386.966 288.788 402.994 286.712C416.018 285.025 419.664 268.249 419.059 260.46C419.57 250.459 420.111 230.591 420.111 230.591C421.588 207.868 412.447 197.365 399.11 192.313C389.133 188.534 321.637 158.863 300.448 149.532C296.221 147.671 292.262 145.29 288.594 142.482C284.352 139.234 279.712 135.756 278.39 135.007C275.928 133.615 273.68 131.125 271.513 127.057C269.346 122.988 268.115 122.292 266.617 120.632C265.119 118.972 260.944 117.018 255.054 123.841C250.342 129.3 248.496 128.255 241.993 125.39C180.673 99.5116 81.9317 57.2084 57.8998 47.2729C55.9394 46.4625 49.1215 45.5579 46.4474 35.922C40.5898 20.424 38.0748 16.9708 28.4412 10.3039C20.5198 4.822 14.8451 9.92609 12.8897 14.1008L9.4618 22.3167C5.5537 30.6659 6.91748 31.8441 17.4356 30.4818C29.0519 29.3338 35.7873 37.8426 32.8492 44.8846C30.1069 51.4572 35.3088 55.6177 38.2526 56.8764L38.2659 56.8849C41.8555 59.1867 52.3529 65.9181 66.5654 72.8884C82.7822 80.8417 98.2479 97.3056 107.801 105.551C110.152 107.58 112.858 108.818 115.454 110.692C122.143 116.1 130.463 116.744 138.82 108.878C144.315 103.705 149.687 106.9 153.781 110.434Z" fill="black" fill-opacity="0.1"/>
<path d="M316.114 195.147L311.869 195.01C309.143 194.922 306.397 195.346 304.03 196.702C300.775 198.565 296.695 201.545 294.057 205.419C291.108 209.75 284.073 208.708 281.478 206.834L274.919 201.78C274.018 201.085 273.245 200.239 272.662 199.262C271.254 196.905 269.274 193.689 265.048 190.638C261.88 188.196 234.685 167.238 221.484 157.064L182.549 128.952" stroke="#5B93FF" stroke-width="2"/>
<path d="M153.781 110.434L218.966 163.952C237.439 179.408 276.936 212.415 287.147 220.79C299.483 233.452 300.85 225.289 299.969 214.637C300.052 203.717 305.7 201.631 311 200.16C316.299 198.689 321.438 200.377 327.913 206.882C330.481 209.462 335.753 214.565 335.753 214.565C358.847 230.469 374.746 226.057 388.049 219.771C396.535 214.821 401.487 213.966 406.221 223.549C408.276 227.96 405.657 234.602 403.916 237.68C400.311 242.14 392.056 252.906 387.344 258.364C381.454 265.188 379.76 272.404 381.505 276.59C382.474 278.915 386.966 288.788 402.994 286.712C416.018 285.025 419.664 268.249 419.059 260.46C419.57 250.459 420.111 230.591 420.111 230.591C421.588 207.868 412.447 197.365 399.11 192.313C389.133 188.534 321.637 158.863 300.448 149.532C296.221 147.671 292.262 145.29 288.594 142.482C284.352 139.234 279.712 135.756 278.39 135.007C275.928 133.615 273.68 131.125 271.513 127.057C269.346 122.988 268.115 122.292 266.617 120.632C265.119 118.972 260.944 117.018 255.054 123.841C250.342 129.3 248.496 128.255 241.993 125.39C180.673 99.5116 81.9317 57.2084 57.8998 47.2729C55.9394 46.4625 49.1215 45.5579 46.4474 35.922C40.5898 20.424 38.0748 16.9708 28.4412 10.3039C20.5198 4.822 14.8451 9.92609 12.8897 14.1008L9.4618 22.3167C5.5537 30.6659 6.91748 31.8441 17.4356 30.4818C29.0519 29.3338 35.7873 37.8426 32.8492 44.8846C30.1069 51.4572 35.3088 55.6177 38.2526 56.8764L38.2659 56.8849C41.8555 59.1867 52.3529 65.9181 66.5654 72.8884C82.7822 80.8417 98.2479 97.3056 107.801 105.551C110.152 107.58 112.858 108.818 115.454 110.692C122.143 116.1 130.463 116.744 138.82 108.878C144.315 103.705 149.687 106.9 153.781 110.434Z" stroke="black" stroke-width="14"/>
<path d="M153.781 110.434L218.966 163.952C237.439 179.408 276.936 212.415 287.147 220.79C299.483 233.452 300.85 225.289 299.969 214.637C300.052 203.717 305.7 201.631 311 200.16C316.299 198.689 321.438 200.377 327.913 206.882C330.481 209.462 335.753 214.565 335.753 214.565C358.847 230.469 374.746 226.057 388.049 219.771C396.535 214.821 401.487 213.966 406.221 223.549C408.276 227.96 405.657 234.602 403.916 237.68C400.311 242.14 392.056 252.906 387.344 258.364C381.454 265.188 379.76 272.404 381.505 276.59C382.474 278.915 386.966 288.788 402.994 286.712C416.018 285.025 419.664 268.249 419.059 260.46C419.57 250.459 420.111 230.591 420.111 230.591C421.588 207.868 412.447 197.365 399.11 192.313C389.133 188.534 321.637 158.863 300.448 149.532C296.221 147.671 292.262 145.29 288.594 142.482C284.352 139.234 279.712 135.756 278.39 135.007C275.928 133.615 273.68 131.125 271.513 127.057C269.346 122.988 268.115 122.292 266.617 120.632C265.119 118.972 260.944 117.018 255.054 123.841C250.342 129.3 248.496 128.255 241.993 125.39C180.673 99.5116 81.9317 57.2084 57.8998 47.2729C55.9394 46.4625 49.1215 45.5579 46.4474 35.922C40.5898 20.424 38.0748 16.9708 28.4412 10.3039C20.5198 4.822 14.8451 9.92609 12.8897 14.1008L9.4618 22.3167C5.5537 30.6659 6.91748 31.8441 17.4356 30.4818C29.0519 29.3338 35.7873 37.8426 32.8492 44.8846C30.1069 51.4572 35.3088 55.6177 38.2526 56.8764L38.2659 56.8849C41.8555 59.1867 52.3529 65.9181 66.5654 72.8884C82.7822 80.8417 98.2479 97.3056 107.801 105.551C110.152 107.58 112.858 108.818 115.454 110.692C122.143 116.1 130.463 116.744 138.82 108.878C144.315 103.705 149.687 106.9 153.781 110.434Z" stroke="white" stroke-width="4"/>
<path d="M88.4551 60.1482C127.891 76.8797 191.637 104.115 237.29 123.404" stroke="url(#paint0_radial_8466_7253)" stroke-width="2"/>
<path d="M277.755 213.018C261.797 199.762 233.697 176.277 218.967 163.951L158.506 114.312" stroke="url(#paint1_radial_8466_7253)" stroke-width="2"/>
<path d="M217.275 167.032L215.753 165.735L219.646 161.169L221.168 162.466L217.275 167.032Z" fill="black"/>
<path d="M334.508 168.089L332.734 167.164L335.507 161.844L337.281 162.768L334.508 168.089Z" fill="black"/>
<path d="M7.7832 18.1335L8.62908 16.3212L14.066 18.8589L13.2202 20.6712L7.7832 18.1335Z" fill="black"/>
<path d="M202.381 183.212L199.139 180.377L201.974 177.134L205.217 179.97L202.381 183.212Z" fill="white"/>
<path d="M208.029 176.748L204.787 173.912L207.623 170.67L210.865 173.506L208.029 176.748Z" fill="white"/>
<path d="M205.205 179.98L201.963 177.144L204.799 173.902L208.041 176.738L205.205 179.98Z" fill="black"/>
<path d="M210.854 173.516L207.611 170.68L210.447 167.438L213.689 170.274L210.854 173.516Z" fill="black"/>
<path d="M205.623 186.048L202.381 183.212L205.217 179.97L208.459 182.806L205.623 186.048Z" fill="black"/>
<path d="M211.271 179.584L208.029 176.748L210.865 173.506L214.107 176.342L211.271 179.584Z" fill="black"/>
<path d="M208.447 182.816L205.205 179.98L208.041 176.738L211.283 179.574L208.447 182.816Z" fill="white"/>
<path d="M214.096 176.352L210.853 173.516L213.689 170.274L216.932 173.11L214.096 176.352Z" fill="white"/>
<path d="M45.3799 22.7268C45.9706 24.8555 44.7238 27.06 42.5952 27.6508C40.4665 28.2415 38.2619 26.9947 37.6712 24.8661C37.0805 22.7374 38.3272 20.5328 40.4559 19.9421C42.5846 19.3514 44.7891 20.5981 45.3799 22.7268Z" fill="#00FF38"/>
<path d="M323.847 199.708C324.437 201.837 323.191 204.041 321.062 204.632C318.933 205.223 316.729 203.976 316.138 201.847C315.547 199.719 316.794 197.514 318.923 196.923C321.051 196.333 323.256 197.579 323.847 199.708Z" fill="#00FF38"/>
</g>
<defs>
<radialGradient id="paint0_radial_8466_7253" cx="0" cy="0" r="1" gradientUnits="userSpaceOnUse" gradientTransform="translate(162.661 91.7971) rotate(125.675) scale(80.9064 58.9759)">
<stop stop-color="#39FF65" stop-opacity="0.5"/>
<stop offset="1" stop-color="#00FF38"/>
</radialGradient>
<radialGradient id="paint1_radial_8466_7253" cx="0" cy="0" r="1" gradientUnits="userSpaceOnUse" gradientTransform="translate(217.977 163.659) rotate(109.097) scale(77.6653 54.1865)">
<stop stop-color="#39FF65" stop-opacity="0.5"/>
<stop offset="1" stop-color="#00FF38"/>
</radialGradient>
<clipPath id="clip0_8466_7253">
<rect width="428" height="294" fill="white"/>
</clipPath>
</defs>
</svg>
