<svg width="229" height="360" viewBox="0 0 229 360" fill="none" xmlns="http://www.w3.org/2000/svg">
<path d="M40.5544 15.5599L84.7445 83.8068C90.5868 92.9388 89.9191 93.5549 85.1487 93.1914C81.9332 92.9465 77.3583 90.3835 78.3579 100.188C78.7136 103.676 79.2624 107.152 79.5516 110.646C80.4992 122.095 82.4029 131.846 85.932 141.94C88.9703 150.629 93.6499 160.966 98.3242 169.88C103.2 179.179 103.709 184.457 100.802 193.987C99.2623 199.033 96.6402 203.155 94.5824 209.224C94.3089 210.031 93.9975 210.823 93.6588 211.604C89.7801 220.552 87.9675 232.897 59.1274 248.019C30.976 261.086 16.7831 282.642 9.75226 297.056C0.501164 316.02 7.97437 324.292 12.0603 327.419C15.2391 329.892 23.1789 335.703 29.5077 339.16C35.8365 342.616 39.8253 338.309 42.2272 334.226C45.9085 327.967 54.3459 313.193 56.7275 309.121C60.2999 303.014 65.4545 297.77 79.1631 304.655C90.7534 310.475 95.5783 302.341 97.0074 298.727C99.2054 292.87 104.822 274.87 112.891 252.573C118.642 237.701 123.169 235.031 129.945 232.339C139.972 228.357 150.186 230.878 151.394 231.255C153.419 231.887 162.826 232.6 166.357 253.331C167.598 260.617 169.573 268.582 171.26 275.601C174.451 290.301 178.755 300.265 183.107 310.039C188.406 321.942 184.614 325.955 181.149 327.96L181.02 328.027C179.656 328.74 175.043 331.15 166.857 337.19C159.793 342.022 159.737 347.838 162.905 351.188C166.316 355.54 172.464 355.421 178.294 350.388C182.962 346.633 190.95 340.112 197.459 335.257C203.131 331.027 207.318 327.998 210.468 325.613C220.167 318.269 219.804 314.466 218.223 310.256C217.393 308.043 214.778 303.031 213.683 297.394C212.895 293.34 213.491 289.352 218.003 287.224C226.15 283.382 222.325 275.966 221.055 271.51C214.592 252.339 208.976 236.63 200.655 211.071C199.754 208.499 191.857 184.675 189.991 179.966C186.3 170.652 184.914 162.577 181.692 155.524C174.346 139.447 165.194 127.477 159.254 120.389C142.565 98.1307 146.75 94.8071 143.235 86.488C140.501 80.0177 130.491 75.1041 124.815 70.7406C123.458 69.9467 115.7 61.9705 103.799 47.8865C80.7144 22.1649 67.0955 19.8793 46.9206 9.39713C40.4896 6.05586 37.2887 4.67764 36.5633 5.79491C35.6781 7.15814 38.0214 11.8058 40.5544 15.5599Z" fill="black" fill-opacity="0.1"/>
<rect x="65.6641" y="66.4766" width="4.3075" height="4.3075" transform="rotate(57.6783 65.6641 66.4766)" fill="white"/>
<rect x="58.3848" y="71.0833" width="4.3075" height="4.3075" transform="rotate(57.6783 58.3848 71.0833)" fill="white"/>
<rect x="62.0234" y="68.7798" width="4.3075" height="4.3075" transform="rotate(57.6783 62.0234 68.7798)" fill="black"/>
<rect x="54.7441" y="73.3865" width="4.3075" height="4.3075" transform="rotate(57.6783 54.7441 73.3865)" fill="black"/>
<rect x="63.3613" y="62.8367" width="4.3075" height="4.3075" transform="rotate(57.6783 63.3613 62.8367)" fill="black"/>
<rect x="56.082" y="67.4431" width="4.3075" height="4.3075" transform="rotate(57.6783 56.082 67.4431)" fill="black"/>
<rect x="59.7207" y="65.1399" width="4.3075" height="4.3075" transform="rotate(57.6783 59.7207 65.1399)" fill="white"/>
<rect x="52.4414" y="69.7466" width="4.3075" height="4.3075" transform="rotate(57.6783 52.4414 69.7466)" fill="white"/>
<path d="M44.8718 10.994L81.4881 65.7526C86.3209 72.8161 91.8364 78.1668 93.8969 82.9579C96.4725 88.9467 96.8298 95.0115 87.9369 95.1579" stroke="#FF7A00" stroke-width="2"/>
<path d="M40.5544 15.5594L84.7445 83.8063C90.5868 92.9383 89.9191 93.5544 85.1487 93.1909C81.9332 92.946 77.3583 90.383 78.3579 100.187C78.7136 103.676 79.2624 107.151 79.5516 110.646C80.4992 122.094 82.4029 131.846 85.932 141.939C88.9703 150.629 93.6499 160.965 98.3242 169.88C103.2 179.179 103.709 184.457 100.802 193.986C99.2623 199.033 96.6402 203.155 94.5824 209.223C94.3089 210.03 93.9975 210.822 93.6588 211.604C89.7801 220.552 87.9675 232.896 59.1274 248.018C30.976 261.085 16.7831 282.642 9.75226 297.055C0.501164 316.02 7.97437 324.292 12.0603 327.419C15.2391 329.892 23.1789 335.703 29.5077 339.159C35.8365 342.615 39.8253 338.309 42.2272 334.225C45.9085 327.967 54.3459 313.192 56.7275 309.121C60.2999 303.013 65.4545 297.77 79.1631 304.654C90.7534 310.475 95.5783 302.341 97.0074 298.727C99.2054 292.87 104.822 274.869 112.891 252.573C118.642 237.701 123.169 235.03 129.945 232.339C139.972 228.356 150.186 230.877 151.394 231.254C153.419 231.886 162.826 232.599 166.357 253.331C167.598 260.616 169.573 268.581 171.26 275.601C174.451 290.3 178.755 300.265 183.107 310.039C188.406 321.941 184.614 325.954 181.149 327.959L181.02 328.027C179.656 328.74 175.043 331.15 166.857 337.189C159.793 342.022 159.737 347.838 162.905 351.187C166.316 355.54 172.464 355.42 178.294 350.387C182.962 346.632 190.95 340.112 197.459 335.257C203.131 331.026 207.318 327.998 210.468 325.613C220.167 318.269 219.804 314.466 218.223 310.255C217.393 308.043 214.778 303.03 213.683 297.394C212.895 293.34 213.491 289.351 218.003 287.224C226.15 283.381 222.325 275.966 221.055 271.509C214.592 252.339 208.976 236.629 200.655 211.07C199.754 208.498 191.857 184.674 189.991 179.965C186.3 170.651 184.914 162.577 181.692 155.524C174.346 139.446 165.194 127.477 159.254 120.389C142.565 98.1302 146.75 94.8066 143.235 86.4875C140.501 80.0172 130.491 75.1036 124.815 70.7401C123.458 69.9462 115.7 61.97 103.799 47.886C80.7144 22.1644 67.0955 19.8788 46.9206 9.39665C40.4896 6.05537 37.2887 4.67715 36.5633 5.79442C35.6781 7.15765 38.0214 11.8053 40.5544 15.5594Z" stroke="black" stroke-width="10"/>
<path d="M40.5544 15.5594L84.7445 83.8063C90.5868 92.9383 89.9191 93.5544 85.1487 93.1909C81.9332 92.946 77.3583 90.383 78.3579 100.187C78.7136 103.676 79.2624 107.151 79.5516 110.646C80.4992 122.094 82.4029 131.846 85.932 141.939C88.9703 150.629 93.6499 160.965 98.3242 169.88C103.2 179.179 103.709 184.457 100.802 193.986C99.2623 199.033 96.6402 203.155 94.5824 209.223C94.3089 210.03 93.9975 210.822 93.6588 211.604C89.7801 220.552 87.9675 232.896 59.1274 248.018C30.976 261.085 16.7831 282.642 9.75226 297.055C0.501164 316.02 7.97437 324.292 12.0603 327.419C15.2391 329.892 23.1789 335.703 29.5077 339.159C35.8365 342.615 39.8253 338.309 42.2272 334.225C45.9085 327.967 54.3459 313.192 56.7275 309.121C60.2999 303.013 65.4545 297.77 79.1631 304.654C90.7534 310.475 95.5783 302.341 97.0074 298.727C99.2054 292.87 104.822 274.869 112.891 252.573C118.642 237.701 123.169 235.03 129.945 232.339C139.972 228.356 150.186 230.877 151.394 231.254C153.419 231.886 162.826 232.599 166.357 253.331C167.598 260.616 169.573 268.581 171.26 275.601C174.451 290.3 178.755 300.265 183.107 310.039C188.406 321.941 184.614 325.954 181.149 327.959L181.02 328.027C179.656 328.74 175.043 331.15 166.857 337.189C159.793 342.022 159.737 347.838 162.905 351.187C166.316 355.54 172.464 355.42 178.294 350.387C182.962 346.632 190.95 340.112 197.459 335.257C203.131 331.026 207.318 327.998 210.468 325.613C220.167 318.269 219.804 314.466 218.223 310.255C217.393 308.043 214.778 303.03 213.683 297.394C212.895 293.34 213.491 289.351 218.003 287.224C226.15 283.381 222.325 275.966 221.055 271.509C214.592 252.339 208.976 236.629 200.655 211.07C199.754 208.498 191.857 184.674 189.991 179.965C186.3 170.651 184.914 162.577 181.692 155.524C174.346 139.446 165.194 127.477 159.254 120.389C142.565 98.1302 146.75 94.8066 143.235 86.4875C140.501 80.0172 130.491 75.1036 124.815 70.7401C123.458 69.9462 115.7 61.97 103.799 47.886C80.7144 22.1644 67.0955 19.8788 46.9206 9.39665C40.4896 6.05537 37.2887 4.67715 36.5633 5.79442C35.6781 7.15765 38.0214 11.8053 40.5544 15.5594Z" stroke="white" stroke-width="2"/>
<path d="M83.1264 81.3084L40.554 15.5599C40 14.7388 39.455 13.8749 38.9509 13.0119" stroke="url(#paint0_radial_8476_7387)" stroke-width="2"/>
<path d="M172.938 139.225C175.933 144.054 178.939 149.501 181.691 155.524C184.913 162.577 186.299 170.652 189.99 179.966C191.856 184.675 199.753 208.499 200.654 211.071C208.905 236.416 214.496 252.076 220.892 271.03" stroke="url(#paint1_radial_8476_7387)" stroke-width="2"/>
<path d="M82.4673 125.642C80.9999 126.411 79.1866 125.845 78.4172 124.378C77.6478 122.91 78.2136 121.097 79.681 120.328C81.1484 119.558 82.9616 120.124 83.731 121.591C84.5004 123.059 83.9346 124.872 82.4673 125.642Z" fill="#00FF38"/>
<circle cx="101.963" cy="45.4617" r="3" transform="rotate(62.33 101.963 45.4617)" fill="#00FF38"/>
<path fill-rule="evenodd" clip-rule="evenodd" d="M24.2775 331.217L20.0177 338.007L18.355 336.899L22.6148 330.11L24.2775 331.217Z" fill="black"/>
<path fill-rule="evenodd" clip-rule="evenodd" d="M219.987 253.721L212.089 256.147L211.443 254.257L219.341 251.83L219.987 253.721Z" fill="black"/>
<path fill-rule="evenodd" clip-rule="evenodd" d="M73.7112 61.402L68.1867 64.8633L67.1249 63.1685L72.6493 59.7072L73.7112 61.402Z" fill="black"/>
<path d="M74.5338 34.8343L75.6367 36.4352C76.0088 36.9754 76.143 37.4804 76.0392 37.9502C75.9354 38.42 75.6035 38.8478 75.0435 39.2336L74.3617 39.7033C73.8017 40.0891 73.2837 40.2468 72.8078 40.1763C72.3318 40.1059 71.9078 39.8006 71.5356 39.2604L71.1816 38.7465L68.3652 40.6867L67.6164 39.5997L74.5338 34.8343ZM72.5238 38.5796C72.6464 38.7575 72.7865 38.8552 72.9444 38.8728C73.1067 38.8969 73.3065 38.8273 73.5437 38.6639L74.3639 38.0989C74.601 37.9355 74.7373 37.7736 74.7725 37.6133C74.8124 37.4596 74.771 37.2938 74.6485 37.1159L74.2945 36.6021L72.1698 38.0658L72.5238 38.5796ZM79.2022 41.6108L79.951 42.6978L73.0336 47.4633L72.2848 46.3762L79.2022 41.6108ZM82.1515 48.0071L81.3686 46.8707L82.3568 46.1899L84.6714 49.5498L83.6832 50.2306L82.9003 49.0942L76.9711 53.1788L76.2223 52.0918L82.1515 48.0071ZM90.209 57.588L90.9579 58.675L85.0286 62.7597L86.2609 64.5483L85.2727 65.2291L83.2916 62.3534L90.209 57.588ZM95.1968 64.8281L96.2111 66.3005L90.0698 72.1925L89.321 71.1055L90.5584 69.9616L90.5386 69.9752L89.6877 68.7399L88.1977 69.475L87.5033 68.467L95.1968 64.8281ZM91.3889 69.2L94.4745 66.3603L94.4609 66.3405L90.715 68.2217L91.3889 69.2ZM99.3929 70.919L100.332 72.2827L96.9202 76.1926L96.9338 76.2123L101.074 73.3599L101.742 74.3283L94.8241 79.0938L94.0549 77.9771L98.2059 73.1939L98.1923 73.1741L93.1426 76.6529L92.4755 75.6845L99.3929 70.919ZM104.34 78.1009L106.383 81.0655L105.395 81.7462L104.101 79.8687L102.273 81.1281L103.301 82.6203L102.313 83.3011L101.285 81.8089L99.1601 83.2725L100.454 85.1501L99.4654 85.8309L97.4231 82.8663L104.34 78.1009Z" fill="#EFF0F7"/>
<defs>
<radialGradient id="paint0_radial_8476_7387" cx="0" cy="0" r="1" gradientUnits="userSpaceOnUse" gradientTransform="translate(60.9787 47.0401) rotate(-122.948) scale(40.5377 5.54171)">
<stop stop-color="#39FF65" stop-opacity="0.5"/>
<stop offset="1" stop-color="#00FF38"/>
</radialGradient>
<radialGradient id="paint1_radial_8476_7387" cx="0" cy="0" r="1" gradientUnits="userSpaceOnUse" gradientTransform="translate(196.988 204.829) rotate(-125.584) scale(69.9358 14.2344)">
<stop stop-color="#39FF65" stop-opacity="0.5"/>
<stop offset="1" stop-color="#00FF38"/>
</radialGradient>
</defs>
</svg>
