<svg width="236" height="394" viewBox="0 0 236 394" fill="none" xmlns="http://www.w3.org/2000/svg">
<g clip-path="url(#clip0_8486_7577)">
<path d="M25.0244 145.169L10.382 299.473C8.74783 331.136 3.96058 370.501 25.1804 382.5C41.8932 391.551 49.1137 379.198 49.8786 370.7C54.7447 316.63 65.8234 218.779 66.2816 214.552C66.8543 209.268 66.8962 204.966 72.6295 200.952C78.3628 196.937 80.8606 190.915 79.7546 184.976C78.076 175.961 79.6713 175.268 84.709 171.13C89.7467 166.992 118.293 141.51 140.164 121.313C157.661 105.155 176.288 93.5769 183.415 89.8074L214.38 73.0088C229.74 65.3058 228.019 62.8484 227.403 54.1237L225.228 25.7376C223.259 6.36298 211.529 7.04525 204.745 9.56067C193.727 13.0029 173.816 21.1798 168.127 21.7723C160.959 22.5188 157.887 22.8388 155.635 27.4677C153.669 32.5062 149.081 32.0562 146.583 31.9748L83.2977 36.612C61.0149 38.7862 42.2972 51.282 33.5748 70.2076C23.9117 96.5062 27.8469 116.945 30.3059 127.431C31.3889 132.05 35.4281 139.105 30.021 139.228C25.6954 139.327 25.3928 143.079 25.0244 145.169Z" stroke="black" stroke-width="16"/>
<path d="M25.0244 145.169L10.382 299.473C8.74783 331.136 3.96058 370.501 25.1804 382.5C41.8932 391.551 49.1137 379.198 49.8786 370.7C54.7447 316.63 65.8234 218.779 66.2816 214.552C66.8543 209.268 66.8962 204.966 72.6295 200.952C78.3628 196.937 80.8606 190.915 79.7546 184.976C78.076 175.961 79.6713 175.268 84.709 171.13C89.7467 166.992 118.293 141.51 140.164 121.313C157.661 105.155 176.288 93.5769 183.415 89.8074L214.38 73.0088C229.74 65.3058 228.019 62.8484 227.403 54.1237L225.228 25.7376C223.259 6.36298 211.529 7.04525 204.745 9.56067C193.727 13.0029 173.816 21.1798 168.127 21.7723C160.959 22.5188 157.887 22.8388 155.635 27.4677C153.669 32.5062 149.081 32.0562 146.583 31.9748L83.2977 36.612C61.0149 38.7862 42.2972 51.282 33.5748 70.2076C23.9117 96.5062 27.8469 116.945 30.3059 127.431C31.3889 132.05 35.4281 139.105 30.021 139.228C25.6954 139.327 25.3928 143.079 25.0244 145.169Z" stroke="white" stroke-width="4"/>
</g>
<defs>
<clipPath id="clip0_8486_7577">
<rect width="236" height="394" fill="white"/>
</clipPath>
</defs>
</svg>
