<svg width="380" height="194" viewBox="0 0 380 194" fill="none" xmlns="http://www.w3.org/2000/svg">
<g clip-path="url(#clip0_8493_1144)">
<path d="M371.814 158.511C376.314 163.511 380.314 183.511 364.314 189.011C356.314 191.011 349.814 179.511 348.314 177.011C345.981 173.011 339.615 163.311 334.815 158.511C331.215 154.511 325.314 154.511 322.315 154.511C315.814 154.011 308.415 153.011 304.815 139.011C300.315 121.511 293.314 122.511 283.314 122.511C278.314 122.511 265.315 120.011 264.815 107.511C264.815 100.511 269.815 92.5108 269.815 86.5108C269.815 79.5107 263.314 66.0107 238.815 66.5107C216.315 66.5107 209.314 80.7464 199.315 92.5108C187.814 106.041 193.314 106.54 168.315 108.011C158.314 108.599 160.042 109.011 157.314 101.511C156.665 99.724 155.698 95.985 154.604 91.305C153.629 91.0562 152.698 90.7866 151.816 90.5109C148.815 89.5109 134.815 85.5109 100.315 74.5109C48.8147 58.0906 34.8156 47.0108 22.8156 39.5108C14.815 33.5108 1.81449 25.5108 4.31401 15.0108C5.31445 11.5108 9.81445 4.51082 23.8151 4.01085C36.3145 3.56455 39.3145 17.0107 41.8145 22.0107C45.3145 30.0107 45.8145 33.0107 50.8155 40.5107C60.3145 54.0107 78.3145 63.5107 101.315 64.0108C124.814 64.5218 130.316 53.5107 141.816 32.5107C150.577 16.5107 155.314 26.5107 151.816 33.5107L148.815 40.5107C144.814 48.5107 146.981 55.3441 147.815 59.0107C149.502 67.7876 152.33 81.5785 154.604 91.305C162.474 93.3121 173.248 93.9632 184.815 85.5109C196.315 76.0109 211.815 60.5108 219.315 54.0108C220.958 52.5864 225.815 47.0108 231.315 52.0108C235.815 56.5108 238.815 52.5108 243.815 48.5108C249.988 43.5722 262.815 39.5108 279.315 54.5108C282.526 57.5108 289.315 64.0107 289.815 64.5107C290.068 64.7637 310.645 87.807 331.314 111.511C351.512 134.673 371.814 158.511 371.814 158.511Z" fill="black" fill-opacity="0.2"/>
<path d="M289.815 64.5107C289.315 64.0107 282.526 57.5108 279.315 54.5108C262.815 39.5108 249.988 43.5722 243.815 48.5108C238.815 52.5108 235.815 56.5108 231.315 52.0108C225.815 47.0108 220.958 52.5864 219.315 54.0108C211.815 60.5108 196.315 76.0109 184.815 85.5109C171.815 95.0109 159.815 93.0109 151.816 90.5109C148.815 89.5109 134.815 85.5109 100.315 74.5109C48.8147 58.0906 34.8156 47.0108 22.8156 39.5108C14.815 33.5108 1.81449 25.5108 4.31401 15.0108C5.31445 11.5108 9.81445 4.51082 23.8151 4.01085C36.3145 3.56455 39.3145 17.0107 41.8145 22.0107C45.3145 30.0107 45.8145 33.0107 50.8155 40.5107C60.3145 54.0107 78.3145 63.5107 101.315 64.0108C124.814 64.5218 130.316 53.5107 141.816 32.5107C150.577 16.5107 155.314 26.5107 151.816 33.5107L148.815 40.5107C144.814 48.5107 146.981 55.3441 147.815 59.0107C150.314 72.0107 155.314 96.0107 157.314 101.511C160.042 109.011 158.314 108.599 168.315 108.011C193.314 106.54 187.814 106.041 199.315 92.5108C209.314 80.7464 216.315 66.5107 238.815 66.5107C263.314 66.0107 269.815 79.5107 269.815 86.5108C269.815 92.5108 264.815 100.511 264.815 107.511C265.315 120.011 278.314 122.511 283.314 122.511C293.314 122.511 300.315 121.511 304.815 139.011C308.415 153.011 315.814 154.011 322.315 154.511C325.314 154.511 331.215 154.511 334.815 158.511C339.615 163.311 345.981 173.011 348.314 177.011C349.814 179.511 356.314 191.011 364.314 189.011C380.314 183.511 376.314 163.511 371.814 158.511C371.814 158.511 351.512 134.673 331.314 111.511C310.645 87.807 290.067 64.7637 289.815 64.5107Z" stroke="black" stroke-width="8"/>
<path d="M276.314 59.5107L275.554 60.1596L275.56 60.1668L275.566 60.1739L276.314 59.5107ZM330.814 121.011L330.066 121.674L330.104 121.717L330.147 121.755L330.814 121.011ZM364.147 152.255C364.558 152.624 365.19 152.59 365.559 152.178C365.928 151.767 365.893 151.135 365.482 150.766L364.147 152.255ZM241.314 50.5108L241.74 51.4156C245.957 49.4313 250.87 47.5357 256.459 48.1302C262.013 48.721 268.421 51.797 275.554 60.1596L276.314 59.5107L277.075 58.8617C269.708 50.2245 262.866 46.8005 256.67 46.1414C250.508 45.4859 245.172 47.5903 240.889 49.606L241.314 50.5108ZM276.314 59.5107L275.566 60.1739L330.066 121.674L330.814 121.011L331.563 120.347L277.063 58.8475L276.314 59.5107ZM330.814 121.011L330.147 121.755L364.147 152.255L364.814 151.511L365.482 150.766L331.482 120.266L330.814 121.011Z" fill="#FF7A00"/>
<path d="M155.642 95.6055C156.303 98.2459 156.88 100.315 157.314 101.511C160.042 109.011 158.314 108.599 168.315 108.011C193.314 106.54 187.814 106.041 199.315 92.5108C209.314 80.7464 216.315 66.5107 238.815 66.5107C263.314 66.0107 269.815 79.5107 269.815 86.5108C269.815 92.5108 264.815 100.511 264.815 107.511C265.315 120.011 278.314 122.511 283.314 122.511C293.314 122.511 300.315 121.511 304.815 139.011C308.415 153.011 315.814 154.011 322.315 154.511C325.314 154.511 331.215 154.511 334.815 158.511C339.615 163.311 345.981 173.011 348.314 177.011C349.814 179.511 356.314 191.011 364.314 189.011C380.314 183.511 376.314 163.511 371.814 158.511C371.814 158.511 351.512 134.673 331.314 111.511C310.645 87.807 290.067 64.7637 289.815 64.5107C289.315 64.0107 282.526 57.5108 279.315 54.5108C262.815 39.5108 249.988 43.5722 243.815 48.5108C238.815 52.5108 235.815 56.5108 231.315 52.0108C225.815 47.0108 220.958 52.5864 219.315 54.0108C211.815 60.5108 196.315 76.0109 184.815 85.5109C171.815 95.0109 159.815 93.0109 151.816 90.5109C148.815 89.5109 134.815 85.5109 100.315 74.5109C48.8147 58.0906 34.8156 47.0108 22.8156 39.5108C14.815 33.5108 1.81449 25.5108 4.31401 15.0108C5.31445 11.5108 9.81445 4.51082 23.8151 4.01085C36.3145 3.56455 39.3145 17.0107 41.8145 22.0107C45.3145 30.0107 45.8145 33.0107 50.8155 40.5107C60.3145 54.0107 78.3145 63.5107 101.315 64.0108C124.814 64.5218 130.316 53.5107 141.816 32.5107C150.577 16.5107 155.314 26.5107 151.816 33.5107L148.815 40.5107C144.814 48.5107 146.981 55.3441 147.815 59.0107C149.246 66.4548 151.497 77.5056 153.535 86.6244" stroke="white" stroke-width="2" stroke-linejoin="round"/>
<path d="M279.314 54.5107C282.525 57.5107 289.315 64.0106 289.815 64.5106C290.067 64.7636 310.645 87.8069 331.314 111.511C346.086 128.45 360.914 145.752 367.814 153.825" stroke="url(#paint0_radial_8493_1144)" stroke-width="2" stroke-linejoin="round"/>
<path d="M221.314 54.4692C221.314 56.1261 219.971 57.4692 218.314 57.4692C216.658 57.4692 215.314 56.1261 215.314 54.4692C215.314 52.8124 216.658 51.4692 218.314 51.4692C219.971 51.4692 221.314 52.8124 221.314 54.4692Z" fill="#00FF38"/>
<path d="M308.086 49.7778L310.893 53.0451L307.626 55.8521L304.819 52.5849L308.086 49.7778Z" fill="white"/>
<path d="M301.578 55.375L304.385 58.6423L301.118 61.4493L298.311 58.1821L301.578 55.375Z" fill="white"/>
<path d="M304.832 52.5767L307.639 55.8439L304.372 58.651L301.565 55.3837L304.832 52.5767Z" fill="black"/>
<path d="M298.322 58.1736L301.129 61.4408L297.862 64.2479L295.055 60.9806L298.322 58.1736Z" fill="black"/>
<path d="M305.279 46.5107L308.086 49.778L304.819 52.5851L302.012 49.3178L305.279 46.5107Z" fill="black"/>
<path d="M298.771 52.1077L301.579 55.3749L298.311 58.182L295.504 54.9147L298.771 52.1077Z" fill="black"/>
<path d="M302.025 49.3093L304.832 52.5766L301.565 55.3836L298.758 52.1164L302.025 49.3093Z" fill="white"/>
<path d="M295.516 54.9062L298.323 58.1735L295.055 60.9806L292.248 57.7133L295.516 54.9062Z" fill="white"/>
<path fill-rule="evenodd" clip-rule="evenodd" d="M286.887 67.1774L292.377 61.3007L294.47 63.6712L288.994 69.5883L286.887 67.1774Z" fill="black"/>
<path fill-rule="evenodd" clip-rule="evenodd" d="M119.252 84.6689L120.871 76.6622L123.895 77.5875L122.309 85.6215L119.252 84.6689Z" fill="black"/>
<path fill-rule="evenodd" clip-rule="evenodd" d="M201.41 96.3482L194.881 91.6518L196.966 89.2737L203.533 93.9515L201.41 96.3482Z" fill="black"/>
</g>
<defs>
<radialGradient id="paint0_radial_8493_1144" cx="0" cy="0" r="1" gradientUnits="userSpaceOnUse" gradientTransform="translate(323.418 104.132) rotate(131.421) scale(66.663 49.3607)">
<stop stop-color="#39FF65" stop-opacity="0.5"/>
<stop offset="1" stop-color="#00FF38"/>
</radialGradient>
<clipPath id="clip0_8493_1144">
<rect width="380" height="194" fill="white"/>
</clipPath>
</defs>
</svg>
