<svg width="380" height="242" viewBox="0 0 380 242" fill="none" xmlns="http://www.w3.org/2000/svg">
<path d="M179.106 141L137.606 57.0001C136.273 54.6667 132.106 46.9001 126.106 34.5001C120.606 21.5001 112.106 25.0001 108.106 29.0001L88.6055 49.5001C86.6055 51.3334 82.4063 56.3999 81.6063 61.9999C80.8063 67.5999 84.6055 75.0001 84.6055 75.0001C87.4388 81.3334 94.6055 96.7001 100.605 107.5C108.106 121 105.606 129.5 101.606 132C89.1055 138 81.1055 137.5 80.1055 137C79.1055 136.5 74.1055 133 69.6055 121.5C65.1055 110 57.1063 117 55.1063 118.5C53.1063 120 43.1055 125.5 37.1055 131C35.1063 133.5 34.3256 138.71 33.6055 141.5C32.2721 146.667 30.6063 150 29.1055 162.5C28.5051 167.5 30.6055 174.333 31.6055 177.5C33.9388 185.833 38.7055 203.1 41.1055 215.5C44.1055 232.5 27.8127 238 21.6071 238C15.1071 238 3.60731 235.5 5.10591 217C6.63999 198.062 9.10712 175 11.6063 162.5C13.5917 152.569 17.9388 139.167 20.1054 133C24.9388 118.5 35.9055 86.4001 41.1055 74.0001C47.6055 58.5001 55.6055 50.0001 62.1055 44.0001C68.6055 38.0001 76.7514 33.2362 80.1055 31.0001C84.6055 27.9999 91.6055 24.9999 87.1055 18.4999C84.8245 15.2051 83.5055 11.4999 84.1055 9.9999C85.1055 7.50005 88.3038 8.00005 90.6064 8.00005H123.606C130.606 8.00005 148.569 8.60765 164.106 7.00005C178.606 5.4999 188.94 6.00005 191.606 6.00005H301.607C315.273 5.66672 333.106 5.9999 364.106 4C379.606 4.0001 377.106 18.4999 367.606 22.5C359.605 27 325.106 43.0001 314.606 48.0001C297.106 56.3334 284.606 57.0001 274.606 57.0001C264.606 57.0001 254.606 58.0001 245.606 67.0001C236.606 76.0001 237.106 86.5001 237.106 101C237.106 114.038 235.106 116.5 230.106 120.5C221.106 125.667 201.106 137.4 193.106 143C185.106 148.6 182.606 146 179.106 141Z" fill="black" fill-opacity="0.15"/>
<path d="M100.105 37.5L110.606 33.5C112.272 32.8333 116.006 32.3 117.606 35.5L173.606 148C175.772 151.5 181.706 156 188.106 146C190.906 140 213.272 124.5 224.106 117.5C226.439 115.333 231.406 107.6 232.606 94C234.106 77 234.106 74.5 241.106 66C242.939 63.6667 251.606 55 269.606 57" stroke="#FF5C00" stroke-width="2" stroke-linecap="round"/>
<path d="M179.106 141L137.606 57.0001C136.273 54.6667 132.106 46.9001 126.106 34.5001C120.606 21.5001 112.106 25.0001 108.106 29.0001L88.6055 49.5001C86.6055 51.3334 82.4063 56.3999 81.6063 61.9999C80.8063 67.5999 84.6055 75.0001 84.6055 75.0001C87.4388 81.3334 94.6055 96.7001 100.605 107.5C108.106 121 105.606 129.5 101.606 132C89.1055 138 81.1055 137.5 80.1055 137C79.1055 136.5 74.1055 133 69.6055 121.5C65.1055 110 57.1063 117 55.1063 118.5C53.1063 120 43.1055 125.5 37.1055 131C35.1063 133.5 34.3256 138.71 33.6055 141.5C32.2721 146.667 30.6063 150 29.1055 162.5C28.5051 167.5 30.6055 174.333 31.6055 177.5C33.9388 185.833 38.7055 203.1 41.1055 215.5C44.1055 232.5 27.8127 238 21.6071 238C15.1071 238 3.60731 235.5 5.10591 217C6.63999 198.062 9.10712 175 11.6063 162.5C13.5917 152.569 17.9388 139.167 20.1054 133C24.9388 118.5 35.9055 86.4001 41.1055 74.0001C47.6055 58.5001 55.6055 50.0001 62.1055 44.0001C68.6055 38.0001 76.7514 33.2362 80.1055 31.0001C84.6055 27.9999 91.6055 24.9999 87.1055 18.4999C84.8245 15.2051 83.5055 11.4999 84.1055 9.9999C85.1055 7.50005 88.3038 8.00005 90.6064 8.00005H123.606C130.606 8.00005 148.569 8.60765 164.106 7.00005C178.606 5.4999 188.94 6.00005 191.606 6.00005H301.607C315.273 5.66672 333.106 5.9999 364.106 4C379.606 4.0001 377.106 18.4999 367.606 22.5C359.605 27 325.106 43.0001 314.606 48.0001C297.106 56.3334 284.606 57.0001 274.606 57.0001C264.606 57.0001 254.606 58.0001 245.606 67.0001C236.606 76.0001 237.106 86.5001 237.106 101C237.106 114.038 235.106 116.5 230.106 120.5C221.106 125.667 201.106 137.4 193.106 143C185.106 148.6 182.606 146 179.106 141Z" stroke="black" stroke-width="8"/>
<path d="M179.106 141L137.606 57.0001C136.273 54.6667 132.106 46.9001 126.106 34.5001C120.606 21.5001 112.106 25.0001 108.106 29.0001L88.6055 49.5001C86.6055 51.3334 82.4063 56.3999 81.6063 61.9999C80.8063 67.5999 84.6055 75.0001 84.6055 75.0001C87.4388 81.3334 94.6055 96.7001 100.605 107.5C108.106 121 105.606 129.5 101.606 132C89.1055 138 81.1055 137.5 80.1055 137C79.1055 136.5 74.1055 133 69.6055 121.5C65.1055 110 57.1063 117 55.1063 118.5C53.1063 120 43.1055 125.5 37.1055 131C35.1063 133.5 34.3256 138.71 33.6055 141.5C32.2721 146.667 30.6063 150 29.1055 162.5C28.5051 167.5 30.6055 174.333 31.6055 177.5C33.9388 185.833 38.7055 203.1 41.1055 215.5C44.1055 232.5 27.8127 238 21.6071 238C15.1071 238 3.60731 235.5 5.10591 217C6.63999 198.062 9.10712 175 11.6063 162.5C13.5917 152.569 17.9388 139.167 20.1054 133C24.9388 118.5 35.9055 86.4001 41.1055 74.0001C47.6055 58.5001 55.6055 50.0001 62.1055 44.0001C68.6055 38.0001 76.7514 33.2362 80.1055 31.0001C84.6055 27.9999 91.6055 24.9999 87.1055 18.4999C84.8245 15.2051 83.5055 11.4999 84.1055 9.9999C85.1055 7.50005 88.3038 8.00005 90.6064 8.00005H123.606C130.606 8.00005 148.569 8.60765 164.106 7.00005C178.606 5.4999 188.94 6.00005 191.606 6.00005H301.607C315.273 5.66672 333.106 5.9999 364.106 4C379.606 4.0001 377.106 18.4999 367.606 22.5C359.605 27 325.106 43.0001 314.606 48.0001C297.106 56.3334 284.606 57.0001 274.606 57.0001C264.606 57.0001 254.606 58.0001 245.606 67.0001C236.606 76.0001 237.106 86.5001 237.106 101C237.106 114.038 235.106 116.5 230.106 120.5C221.106 125.667 201.106 137.4 193.106 143C185.106 148.6 182.606 146 179.106 141Z" stroke="white" stroke-width="2"/>
<path d="M314.106 5.81287C309.493 5.86663 305.39 5.90782 301.606 6.0001H191.606C188.94 6.0001 178.605 5.49995 164.106 7.0001C148.569 8.6077 130.606 8.0001 123.606 8.0001H100.105" stroke="url(#paint0_radial_8450_7179)" stroke-width="2"/>
<path d="M55.66 50.5C50.7495 56.0008 45.5736 63.3472 41.1062 74.0001C35.9062 86.4001 24.9396 118.5 20.1062 133C17.9396 139.167 13.5925 152.569 11.607 162.5C9.10789 175 6.64077 198.062 5.10668 217C5.06519 217.512 5.03366 218.012 5.01172 218.5" stroke="url(#paint1_radial_8450_7179)" stroke-width="2"/>
<path d="M370.105 23.0001C370.105 24.657 368.762 26.0001 367.105 26.0001C365.449 26.0001 364.105 24.657 364.105 23.0001C364.105 21.3433 365.449 20.0001 367.105 20.0001C368.762 20.0001 370.105 21.3433 370.105 23.0001Z" fill="#00FF38"/>
<path d="M80.1055 33C80.1055 34.6569 78.7623 36 77.1055 36C75.4486 36 74.1055 34.6569 74.1055 33C74.1055 31.3431 75.4486 30 77.1055 30C78.7623 30 80.1055 31.3431 80.1055 33Z" fill="#00FF38"/>
<path d="M136.039 59.0635L135.104 57.2957L140.407 54.4896L141.342 56.2574L136.039 59.0635Z" fill="black"/>
<path d="M143.965 53.6799L141.999 49.8474L145.831 47.8812L147.797 51.7137L143.965 53.6799Z" fill="white"/>
<path d="M151.6 49.7581L149.633 45.9255L153.466 43.9593L155.432 47.7919L151.6 49.7581Z" fill="white"/>
<path d="M147.783 51.7189L145.817 47.8863L149.65 45.9201L151.616 49.7527L147.783 51.7189Z" fill="black"/>
<path d="M155.418 47.797L153.452 43.9644L157.284 41.9982L159.251 45.8308L155.418 47.797Z" fill="black"/>
<path d="M145.93 57.5123L143.963 53.6797L147.796 51.7136L149.762 55.5461L145.93 57.5123Z" fill="black"/>
<path d="M153.566 53.5906L151.6 49.758L155.433 47.7918L157.399 51.6244L153.566 53.5906Z" fill="black"/>
<path d="M149.748 55.5514L147.782 51.7188L151.614 49.7526L153.581 53.5852L149.748 55.5514Z" fill="white"/>
<path d="M157.385 51.6296L155.419 47.7971L159.251 45.8309L161.217 49.6635L157.385 51.6296Z" fill="white"/>
<path d="M326.375 39.4688L328.105 38.4653L331.115 43.6554L329.385 44.6589L326.375 39.4688Z" fill="black"/>
<path d="M4 198.518L4.1561 196.524L10.1378 196.992L9.9817 198.986L4 198.518Z" fill="black"/>
<path d="M134.573 78.6353L135.432 80.3793C135.722 80.9679 135.781 81.487 135.61 81.9368C135.439 82.3865 135.049 82.7616 134.439 83.062L133.696 83.4278C133.086 83.7282 132.551 83.809 132.09 83.6703C131.629 83.5315 131.254 83.1679 130.964 82.5794L130.689 82.0196L127.62 83.5304L127.037 82.3462L134.573 78.6353ZM132.041 82.0492C132.136 82.243 132.261 82.3601 132.414 82.4003C132.571 82.4478 132.779 82.4079 133.038 82.2807L133.931 81.8407C134.189 81.7135 134.348 81.5731 134.406 81.4196C134.468 81.2733 134.451 81.1033 134.355 80.9095L134.08 80.3497L131.765 81.4894L132.041 82.0492ZM138.208 86.0177L138.792 87.2019L131.256 90.9128L130.673 89.7286L138.208 86.0177ZM140.198 92.7744L139.588 91.5364L140.665 91.0063L142.467 94.6666L141.391 95.1967L140.781 93.9587L134.322 97.1394L133.739 95.9552L140.198 92.7744ZM146.779 103.423L147.363 104.608L140.903 107.788L141.863 109.737L140.786 110.267L139.244 107.134L146.779 103.423ZM150.663 111.311L151.453 112.915L144.522 117.853L143.939 116.669L145.329 115.717L145.307 115.727L144.645 114.382L143.064 114.893L142.523 113.794L150.663 111.311ZM146.261 115.084L149.726 112.722L149.716 112.7L145.736 114.018L146.261 115.084ZM153.931 117.946L154.662 119.432L150.719 122.805L150.73 122.827L155.24 120.605L155.76 121.66L148.224 125.371L147.625 124.155L152.426 120.025L152.416 120.003L146.915 122.712L146.395 121.657L153.931 117.946ZM157.784 125.77L159.374 129L158.297 129.53L157.29 127.485L155.299 128.465L156.099 130.091L155.023 130.621L154.222 128.995L151.907 130.135L152.915 132.181L151.838 132.711L150.248 129.481L157.784 125.77Z" fill="#EFF0F7"/>
<defs>
<radialGradient id="paint0_radial_8450_7179" cx="0" cy="0" r="1" gradientUnits="userSpaceOnUse" gradientTransform="translate(206.751 6.96195) rotate(179.378) scale(106.652 1.72765)">
<stop stop-color="#39FF65" stop-opacity="0.5"/>
<stop offset="1" stop-color="#00FF38"/>
</radialGradient>
<radialGradient id="paint1_radial_8450_7179" cx="0" cy="0" r="1" gradientUnits="userSpaceOnUse" gradientTransform="translate(30.252 134.439) rotate(106.62) scale(88.2474 36.0981)">
<stop stop-color="#39FF65" stop-opacity="0.5"/>
<stop offset="1" stop-color="#00FF38"/>
</radialGradient>
</defs>
</svg>
