<svg width="395" height="235" viewBox="0 0 395 235" fill="none" xmlns="http://www.w3.org/2000/svg">
<path d="M131.513 227.356C126.263 224.368 8.30319 135.812 8.30319 135.812C6.90011 134.68 4.74076 133.199 4.32028 129.927C3.73265 125.355 12.4244 123.636 16.0908 121.961L49.0471 107.388C61.1795 100.961 66.4139 105.199 69.4178 109.744C71.183 112.415 76.9291 120.97 88.699 135.096C101.373 150.307 114.637 148 124.053 143.836C138.178 137.59 138.652 134.621 140.803 125.278C143.294 114.459 133.336 102.507 130.666 98.7497C127.995 94.9922 118.717 81.0941 121.478 78.333C131.121 71.6796 143.75 87.3888 145.65 94.0886C147.106 99.2228 150.508 101.392 152.485 101.74L162.443 102.646C165.431 102.918 165.386 103.416 167.649 100.609C170.843 96.6501 167.333 93.0495 166.473 91.4651C166.473 91.4651 158.96 80.238 149.455 68.8295C139.95 57.421 143.888 58.2815 151.538 56.9695C154.655 56.435 162.747 55.178 170.823 54.708C201.198 51.9496 261.829 42.2173 318.987 26.5205C331.346 23.1266 380.056 6.47282 382.138 5.6582C384.22 4.84358 388.081 4.19098 389.607 6.33806C391.743 9.34402 388.263 13.7466 386.754 15.6175L353.841 57.3061C352.844 59.0563 348.136 64.82 343.609 70.4328C342.477 71.8359 340.802 73.6918 336.139 75.2757C331.884 76.06 321.743 78.9863 312.509 81.1583C301.388 83.7737 299.109 84.9594 294.175 78.4857C291.175 74.5489 289.649 73.0531 285.666 72.6906C280.487 72.2193 275.42 76.7788 273.533 79.1174C271.466 81.607 267.992 87.0478 266.652 88.5324C264.976 90.3882 259.544 94.9145 254.564 94.4613C249.585 94.0082 248.227 92.3785 244.877 90.5674C241.528 88.7564 235.326 85.1796 228.355 84.5452C221.384 83.9108 217.167 86.5036 213.326 89.7042C208.98 93.3251 204.415 98.4325 204.044 108.942C203.701 118.673 198.973 120.53 193.722 123.065C188.47 125.599 183.853 126.685 180.411 136.915C178.139 143.669 172.066 149.544 168.459 152.396C161.548 156.62 146.73 164.978 141.297 169.505C135.296 174.504 134.099 176.882 132.468 183.763C131.148 189.336 131.909 195.427 132.739 197.343C134.488 202.021 138.486 212.527 140.477 217.126C142.967 222.875 144.596 227.04 141.336 229.756C138.729 231.929 136.764 230.344 131.513 227.356Z" stroke="black" stroke-width="8"/>
<path d="M131.513 227.356C126.263 224.368 8.30319 135.812 8.30319 135.812C6.90011 134.68 4.74076 133.199 4.32028 129.927C3.73265 125.355 12.4244 123.636 16.0908 121.961L49.0471 107.388C61.1795 100.961 66.4139 105.199 69.4178 109.744C71.183 112.415 76.9291 120.97 88.699 135.096C101.373 150.307 114.637 148 124.053 143.836C138.178 137.59 138.652 134.621 140.803 125.278C143.294 114.459 133.336 102.507 130.666 98.7497C127.995 94.9922 118.717 81.0941 121.478 78.333C131.121 71.6796 143.75 87.3888 145.65 94.0886C147.106 99.2228 150.508 101.392 152.485 101.74L162.443 102.646C165.431 102.918 165.386 103.416 167.649 100.609C170.843 96.6501 167.333 93.0495 166.473 91.4651C166.473 91.4651 158.96 80.238 149.455 68.8295C139.95 57.421 143.888 58.2815 151.538 56.9695C154.655 56.435 162.747 55.178 170.823 54.708C201.198 51.9496 261.829 42.2173 318.987 26.5205C331.346 23.1266 380.056 6.47282 382.138 5.6582C384.22 4.84358 388.081 4.19098 389.607 6.33806C391.743 9.34402 388.263 13.7466 386.754 15.6175L353.841 57.3061C352.844 59.0563 348.136 64.82 343.609 70.4328C342.477 71.8359 340.802 73.6918 336.139 75.2757C331.884 76.06 321.743 78.9863 312.509 81.1583C301.388 83.7737 299.109 84.9594 294.175 78.4857C291.175 74.5489 289.649 73.0531 285.666 72.6906C280.487 72.2193 275.42 76.7788 273.533 79.1174C271.466 81.607 267.992 87.0478 266.652 88.5324C264.976 90.3882 259.544 94.9145 254.564 94.4613C249.585 94.0082 248.227 92.3785 244.877 90.5674C241.528 88.7564 235.326 85.1796 228.355 84.5452C221.384 83.9108 217.167 86.5036 213.326 89.7042C208.98 93.3251 204.415 98.4325 204.044 108.942C203.701 118.673 198.973 120.53 193.722 123.065C188.47 125.599 183.853 126.685 180.411 136.915C178.139 143.669 172.066 149.544 168.459 152.396C161.548 156.62 146.73 164.978 141.297 169.505C135.296 174.504 134.099 176.882 132.468 183.763C131.148 189.336 131.909 195.427 132.739 197.343C134.488 202.021 138.486 212.527 140.477 217.126C142.967 222.875 144.596 227.04 141.336 229.756C138.729 231.929 136.764 230.344 131.513 227.356Z" fill="black" fill-opacity="0.1"/>
<path d="M23.4268 118.612C21.0575 120.739 16.309 126.023 16.8618 130.064C17.7658 136.673 27.7552 142.77 32.9305 146.588L86.0259 186.565L127.759 224.504" stroke="#FDC601" stroke-width="2"/>
<path d="M131.513 227.356C126.263 224.368 8.30319 135.812 8.30319 135.812C6.90011 134.68 4.74076 133.199 4.32028 129.927C3.73265 125.355 12.4244 123.636 16.0908 121.961L49.0471 107.388C61.1795 100.961 66.4139 105.199 69.4178 109.744C71.183 112.415 76.9291 120.97 88.699 135.096C101.373 150.307 114.637 148 124.053 143.836C138.178 137.59 138.652 134.621 140.803 125.278C143.294 114.459 133.336 102.507 130.666 98.7497C127.995 94.9922 118.717 81.0941 121.478 78.333C131.121 71.6796 143.75 87.3888 145.65 94.0886C147.106 99.2228 150.508 101.392 152.485 101.74L162.443 102.646C165.431 102.918 165.386 103.416 167.649 100.609C170.843 96.6501 167.333 93.0495 166.473 91.4651C166.473 91.4651 158.96 80.238 149.455 68.8295C139.95 57.421 143.888 58.2815 151.538 56.9695C154.655 56.435 162.747 55.178 170.823 54.708C201.198 51.9496 261.829 42.2173 318.987 26.5205C331.346 23.1266 380.056 6.47282 382.138 5.6582C384.22 4.84358 388.081 4.19098 389.607 6.33806C391.743 9.34402 388.263 13.7466 386.754 15.6175L353.841 57.3061C352.844 59.0563 348.136 64.82 343.609 70.4328C342.477 71.8359 340.802 73.6918 336.139 75.2757C331.884 76.06 321.743 78.9863 312.509 81.1583C301.388 83.7737 299.109 84.9594 294.175 78.4857C291.175 74.5489 289.649 73.0531 285.666 72.6906C280.487 72.2193 275.42 76.7788 273.533 79.1174C271.466 81.607 267.992 87.0478 266.652 88.5324C264.976 90.3882 259.544 94.9145 254.564 94.4613C249.585 94.0082 248.227 92.3785 244.877 90.5674C241.528 88.7564 235.326 85.1796 228.355 84.5452C221.384 83.9108 217.167 86.5036 213.326 89.7042C208.98 93.3251 204.415 98.4325 204.044 108.942C203.701 118.673 198.973 120.53 193.722 123.065C188.47 125.599 183.853 126.685 180.411 136.915C178.139 143.669 172.066 149.544 168.459 152.396C161.548 156.62 146.73 164.978 141.297 169.505C135.296 174.504 134.099 176.882 132.468 183.763C131.148 189.336 131.909 195.427 132.739 197.343C134.488 202.021 138.486 212.527 140.477 217.126C142.967 222.875 144.596 227.04 141.336 229.756C138.729 231.929 136.764 230.344 131.513 227.356Z" stroke="white" stroke-width="2"/>
<path d="M338.02 20.5622C329.87 23.2292 322.748 25.4883 318.989 26.5206C261.831 42.2173 201.199 51.9497 170.824 54.708C166.249 54.9743 161.669 55.4931 157.991 55.99" stroke="url(#paint0_radial_8492_1049)" stroke-width="2"/>
<path d="M131.514 227.356C127.159 224.877 45.2425 163.515 17.4434 142.669" stroke="url(#paint1_radial_8492_1049)" stroke-width="2"/>
<path d="M363.619 49.1589C363.469 50.8089 362.01 52.0248 360.36 51.8746C358.71 51.7244 357.494 50.2651 357.644 48.6151C357.794 46.965 359.254 45.7491 360.904 45.8993C362.554 46.0495 363.77 47.5088 363.619 49.1589Z" fill="#00FF38"/>
<path d="M85.3968 127.264C85.2466 128.914 83.7873 130.13 82.1372 129.98C80.4872 129.83 79.2713 128.37 79.4215 126.72C79.5716 125.07 81.031 123.854 82.681 124.005C84.331 124.155 85.5469 125.614 85.3968 127.264Z" fill="#00FF38"/>
<path d="M36.077 143.919L41.9543 136.077L43.7691 137.437C45.0015 138.36 45.0942 139.497 44.1539 140.752L43.5745 141.525C42.6342 142.78 41.5171 143.01 40.2847 142.086L39.7022 141.649L37.3093 144.842L36.077 143.919ZM40.5418 140.529L41.1244 140.966C41.5165 141.26 41.8636 141.24 42.2835 140.68L42.9803 139.75C43.4001 139.19 43.3216 138.851 42.9295 138.557L42.347 138.12L40.5418 140.529ZM44.3194 150.096L50.1967 142.254L51.429 143.178L45.5517 151.02L44.3194 150.096ZM51.3591 155.372L56.3968 148.65L55.1085 147.685L55.9481 146.564L59.7571 149.419L58.9175 150.539L57.6291 149.574L52.5915 156.296L51.3591 155.372ZM64.1127 164.93L69.99 157.088L71.2223 158.012L66.1846 164.734L68.2123 166.253L67.3727 167.374L64.1127 164.93ZM71.6036 170.544L78.758 163.66L80.4272 164.911L75.8271 173.71L74.5948 172.786L75.5378 171.061L75.521 171.083L74.1206 170.034L72.7463 171.401L71.6036 170.544ZM75.0639 169.079L76.173 169.91L78.5291 165.622L78.5067 165.606L75.0639 169.079ZM80.346 177.096L86.2232 169.254L87.7692 170.413L85.45 176.005L85.4724 176.022L88.9904 171.328L90.0882 172.151L84.211 179.993L82.945 179.044L85.7567 172.211L85.7343 172.195L81.4438 177.919L80.346 177.096ZM89.0479 183.618L94.9252 175.776L98.2861 178.295L97.4465 179.415L95.3179 177.82L93.7646 179.893L95.4563 181.16L94.6166 182.281L92.925 181.013L91.1198 183.422L93.2484 185.017L92.4088 186.137L89.0479 183.618Z" fill="#EFF0F7"/>
<defs>
<radialGradient id="paint0_radial_8492_1049" cx="0" cy="0" r="1" gradientUnits="userSpaceOnUse" gradientTransform="translate(247.717 38.231) rotate(168.712) scale(91.5095 37.1693)">
<stop stop-color="#39FF65" stop-opacity="0.5"/>
<stop offset="1" stop-color="#00FF38"/>
</radialGradient>
<radialGradient id="paint1_radial_8492_1049" cx="0" cy="0" r="1" gradientUnits="userSpaceOnUse" gradientTransform="translate(74.2812 184.967) rotate(153.555) scale(70.9932 47.3267)">
<stop stop-color="#39FF65" stop-opacity="0.5"/>
<stop offset="1" stop-color="#00FF38"/>
</radialGradient>
</defs>
</svg>
