<svg width="246" height="379" viewBox="0 0 246 379" fill="none" xmlns="http://www.w3.org/2000/svg">
<g clip-path="url(#clip0_8491_961)">
<path d="M52.4996 354.666L28.2292 266.789L10.585 199.221C2.10567 168.105 2.76497 161.562 10.8268 124.398L25.7916 58.5458C30.1736 41.6017 39.9381 33.7996 46.89 28.8853C46.89 28.8853 52.2653 24.0764 74.4154 14.3129C95.8318 5.38935 113.325 1.65179 128.331 5.53268C131.397 6.32555 139.949 8.53724 154.454 14.3544C167.061 19.4103 163.427 29.5845 159.253 35.7371L132.588 78.9366C112.942 108.973 84.0391 98.9157 71.0692 83.1667L60.2526 71.0732C52.3238 61.7924 49.049 58.4795 43.2344 60.9927C38.583 63.0031 38.077 68.9534 39.0113 73.3282L41.7071 84.8709C44.6205 99.5668 50.8634 107.379 63.9913 118.522C71.8121 126.224 78.5561 132.098 76.1772 141.297C73.5463 151.47 61.4714 160.218 46.7818 147.124C28.0598 134.846 25.1659 150.829 26.6594 161.029L31.8929 188.72C34.9309 202.933 39.2375 210.244 56.7889 214.269C77.8383 220.744 88.588 211.129 94.8559 200.872L151.901 120.081C168.483 95.6393 179.967 94.852 190.942 94.0996L191.161 94.0845C195.843 93.7631 208.73 96.0428 224.955 99.2074C240.82 101.761 242.016 113.778 240.561 118.739L188.825 322.783C179.227 369.88 133.375 373.442 116.339 363.429C97.5102 352.362 96.7923 351.145 80.7594 369.205C67.9315 380.865 56.8646 369.74 52.4996 354.666Z" fill="black" fill-opacity="0.2"/>
<path d="M8.75769 140.389C9.90947 147.917 12.3065 163.41 12.6804 165.16C13.0543 166.909 16.5252 179.582 18.2139 185.699C21.4857 201.006 16.8619 202.909 21.1185 216.405L59.6361 357.028C61.0188 361.001 65.1233 367.256 72.0802 362.828C80.7349 357.321 86.7023 354.216 91.6098 347.222C97.0589 339.456 105.715 342.606 108.494 343.841C110.718 344.829 121.495 350.818 126.605 353.689C133.329 356.977 147.777 360.093 159.839 352.988C176.648 343.907 184.902 327.967 205.559 248.095" stroke="#FF8C21" stroke-width="3"/>
<path d="M52.4996 354.666L28.2292 266.789L10.585 199.221C2.10567 168.105 2.76497 161.562 10.8268 124.398L25.7916 58.5458C30.1736 41.6017 39.9381 33.7996 46.89 28.8853C46.89 28.8853 52.2653 24.0764 74.4154 14.3129C95.8318 5.38935 113.325 1.65179 128.331 5.53268C131.397 6.32555 139.949 8.53724 154.454 14.3544C167.061 19.4103 163.427 29.5845 159.253 35.7371L132.588 78.9366C112.942 108.973 84.0391 98.9157 71.0692 83.1667L60.2526 71.0732C52.3238 61.7924 49.049 58.4795 43.2344 60.9927C38.583 63.0031 38.077 68.9534 39.0113 73.3282L41.7071 84.8709C44.6205 99.5668 50.8634 107.379 63.9913 118.522C71.8121 126.224 78.5561 132.098 76.1772 141.297C73.5463 151.47 61.4714 160.218 46.7818 147.124C28.0598 134.846 25.1659 150.829 26.6594 161.029L31.8929 188.72C34.9309 202.933 39.2375 210.244 56.7889 214.269C77.8383 220.744 88.588 211.129 94.8559 200.872L151.901 120.081C168.483 95.6393 179.967 94.852 190.942 94.0996L191.161 94.0845C195.843 93.7631 208.73 96.0428 224.955 99.2074C240.82 101.761 242.016 113.778 240.561 118.739L188.825 322.783C179.227 369.88 133.375 373.442 116.339 363.429C97.5102 352.362 96.7923 351.145 80.7594 369.205C67.9315 380.865 56.8646 369.74 52.4996 354.666Z" stroke="black" stroke-width="8"/>
<path d="M52.4996 354.666L28.2292 266.789L10.585 199.221C2.10567 168.105 2.76497 161.562 10.8268 124.398L25.7916 58.5458C30.1736 41.6017 39.9381 33.7996 46.89 28.8853C46.89 28.8853 52.2653 24.0764 74.4154 14.3129C95.8318 5.38935 113.325 1.65179 128.331 5.53268C131.397 6.32555 139.949 8.53724 154.454 14.3544C167.061 19.4103 163.427 29.5845 159.253 35.7371L132.588 78.9366C112.942 108.973 84.0391 98.9157 71.0692 83.1667L60.2526 71.0732C52.3238 61.7924 49.049 58.4795 43.2344 60.9927C38.583 63.0031 38.077 68.9534 39.0113 73.3282L41.7071 84.8709C44.6205 99.5668 50.8634 107.379 63.9913 118.522C71.8121 126.224 78.5561 132.098 76.1772 141.297C73.5463 151.47 61.4714 160.218 46.7818 147.124C28.0598 134.846 25.1659 150.829 26.6594 161.029L31.8929 188.72C34.9309 202.933 39.2375 210.244 56.7889 214.269C77.8383 220.744 88.588 211.129 94.8559 200.872L151.901 120.081C168.483 95.6393 179.967 94.852 190.942 94.0996L191.161 94.0845C195.843 93.7631 208.73 96.0428 224.955 99.2074C240.82 101.761 242.016 113.778 240.561 118.739L188.825 322.783C179.227 369.88 133.375 373.442 116.339 363.429C97.5102 352.362 96.7923 351.145 80.7594 369.205C67.9315 380.865 56.8646 369.74 52.4996 354.666Z" stroke="white" stroke-width="2"/>
<path d="M18.6977 89.7663L10.8275 124.399C2.76563 161.563 2.10632 168.106 10.5857 199.222L28.2299 266.79L50.6333 347.908" stroke="url(#paint0_radial_8491_961)" stroke-width="2"/>
<path d="M236.014 136.671L190.299 316.968" stroke="url(#paint1_radial_8491_961)" stroke-width="2"/>
<path d="M25.7129 268.722L25.126 266.81L30.8619 265.049L31.4488 266.961L25.7129 268.722Z" fill="black"/>
<path d="M4.46094 274.37L3.24921 270.237L7.38276 269.025L8.59449 273.159L4.46094 274.37Z" fill="white"/>
<path d="M12.6973 271.952L11.4855 267.818L15.6191 266.607L16.8308 270.74L12.6973 271.952Z" fill="white"/>
<path d="M8.57812 273.161L7.3664 269.027L11.5 267.816L12.7117 271.949L8.57812 273.161Z" fill="black"/>
<path d="M16.8145 270.743L15.6027 266.609L19.7363 265.397L20.948 269.531L16.8145 270.743Z" fill="black"/>
<path d="M5.67188 278.504L4.46015 274.37L8.5937 273.159L9.80543 277.292L5.67188 278.504Z" fill="black"/>
<path d="M13.9082 276.085L12.6965 271.952L16.83 270.74L18.0418 274.873L13.9082 276.085Z" fill="black"/>
<path d="M9.79102 277.294L8.57929 273.161L12.7128 271.949L13.9246 276.083L9.79102 277.294Z" fill="white"/>
<path d="M18.0273 274.876L16.8156 270.742L20.9492 269.531L22.1609 273.664L18.0273 274.876Z" fill="white"/>
<path d="M221.49 182.495L221.991 180.558L227.8 182.06L227.299 183.997L221.49 182.495Z" fill="black"/>
<path d="M142.102 58.1262L143.083 56.655L148.074 59.9839L147.093 61.4552L142.102 58.1262Z" fill="black"/>
<circle cx="98.7357" cy="6.14186" r="3" transform="rotate(-75.5 98.7357 6.14186)" fill="#00FF38"/>
<path d="M96.7759 353.206C98.3799 353.621 99.344 355.257 98.9292 356.861C98.5143 358.465 96.8777 359.43 95.2736 359.015C93.6695 358.6 92.7054 356.963 93.1203 355.359C93.5351 353.755 95.1718 352.791 96.7759 353.206Z" fill="#00FF38"/>
<path d="M54.1379 315.058L53.6307 313.182C53.4595 312.549 53.501 312.028 53.7552 311.619C54.0094 311.211 54.4648 310.918 55.1212 310.74L55.9205 310.524C56.5769 310.347 57.1179 310.37 57.5433 310.595C57.9687 310.82 58.2669 311.249 58.4381 311.882L58.6009 312.485L61.9025 311.592L62.2469 312.867L54.1379 315.058ZM57.2797 312.195C57.2233 311.987 57.1237 311.848 56.9807 311.779C56.8356 311.702 56.6241 311.701 56.346 311.777L55.3845 312.036C55.1065 312.112 54.9242 312.219 54.8376 312.358C54.7489 312.49 54.7327 312.66 54.7891 312.869L54.9519 313.471L57.4425 312.798L57.2797 312.195ZM51.9907 307.115L51.6462 305.84L59.7552 303.648L60.0996 304.923L51.9907 307.115ZM51.338 300.101L51.6981 301.434L50.5397 301.747L49.475 297.808L50.6335 297.495L50.9936 298.827L57.9441 296.948L58.2886 298.223L51.338 300.101ZM46.928 288.385L46.5835 287.111L53.5341 285.232L52.9673 283.135L54.1258 282.822L55.037 286.193L46.928 288.385ZM44.6338 279.898L44.1673 278.172L51.9193 274.659L52.2637 275.934L50.7161 276.601L50.7393 276.594L51.1307 278.042L52.7804 277.845L53.0998 279.027L44.6338 279.898ZM49.6795 277.042L45.8248 278.693L45.831 278.717L49.9895 278.189L49.6795 277.042ZM42.7038 272.758L42.2717 271.159L46.7904 268.608L46.7842 268.584L41.9304 269.897L41.6235 268.761L49.7325 266.569L50.0863 267.878L44.5801 271.008L44.5864 271.031L50.5059 269.431L50.8128 270.566L42.7038 272.758ZM40.4281 264.339L39.4887 260.864L40.6471 260.55L41.2421 262.751L43.3852 262.172L42.9124 260.423L44.0708 260.11L44.5436 261.859L47.0342 261.186L46.4393 258.985L47.5977 258.672L48.5371 262.147L40.4281 264.339Z" fill="#EFF0F7"/>
</g>
<defs>
<radialGradient id="paint0_radial_8491_961" cx="0" cy="0" r="1" gradientUnits="userSpaceOnUse" gradientTransform="translate(19.608 208.268) rotate(77.3721) scale(143.174 73.5436)">
<stop stop-color="#39FF65" stop-opacity="0.5"/>
<stop offset="1" stop-color="#00FF38"/>
</radialGradient>
<radialGradient id="paint1_radial_8491_961" cx="0" cy="0" r="1" gradientUnits="userSpaceOnUse" gradientTransform="translate(213.079 227.118) rotate(104.225) scale(92.693 0.663869)">
<stop stop-color="#39FF65" stop-opacity="0.5"/>
<stop offset="1" stop-color="#00FF38"/>
</radialGradient>
<clipPath id="clip0_8491_961">
<rect width="246" height="379" fill="white"/>
</clipPath>
</defs>
</svg>
