<svg width="383" height="241" viewBox="0 0 383 241" fill="none" xmlns="http://www.w3.org/2000/svg">
<g clip-path="url(#clip0_8474_7275)">
<rect x="295.929" y="205.981" width="4.3075" height="4.3075" transform="rotate(-19.3615 295.929 205.981)" fill="#EFF0F7"/>
<rect x="298.785" y="214.108" width="4.3075" height="4.3075" transform="rotate(-19.3615 298.785 214.108)" fill="#EFF0F7"/>
<rect x="297.357" y="210.044" width="4.3075" height="4.3075" transform="rotate(-19.3615 297.357 210.044)" fill="black"/>
<rect x="300.214" y="218.172" width="4.3075" height="4.3075" transform="rotate(-19.3615 300.214 218.172)" fill="black"/>
<rect x="291.865" y="207.409" width="4.3075" height="4.3075" transform="rotate(-19.3615 291.865 207.409)" fill="black"/>
<rect x="294.722" y="215.536" width="4.3075" height="4.3075" transform="rotate(-19.3615 294.722 215.536)" fill="black"/>
<rect x="293.294" y="211.472" width="4.3075" height="4.3075" transform="rotate(-19.3615 293.294 211.472)" fill="#EFF0F7"/>
<rect x="296.15" y="219.6" width="4.3075" height="4.3075" transform="rotate(-19.3615 296.15 219.6)" fill="#EFF0F7"/>
<g opacity="0.15">
<path d="M11.875 5.49866C22.1901 4.09841 60.7359 0.379327 97.0273 6.03772L98.7539 6.31409L98.8037 6.3219L98.8535 6.33167C135.075 13.5547 175.282 21.9896 232.675 20.275L232.72 20.274H232.765C236.891 20.2741 243.525 22.9238 244.752 29.9449C245.348 33.3548 244.524 37.3202 242.062 41.8043C239.601 46.286 235.406 51.4725 228.924 57.4752L228.809 57.5826L228.682 57.6774C216.297 66.9336 207.651 70.9818 198.436 72.153C189.498 73.2888 180.126 71.6475 166.95 70.2574C159.071 69.4262 143.533 66.8174 136.789 65.736C130.598 64.7433 123.372 66.4803 118.521 70.9049C113.859 75.1566 111.005 82.2486 114.043 92.984C114.329 93.9939 114.799 95.0258 115.399 96.0563C130.463 121.927 133.191 126.142 139.037 135.398C139.594 136.279 141.134 137.716 143.629 139.023C146.048 140.29 149.086 141.283 152.355 141.513C158.693 141.959 166.238 139.58 172.199 129.721L172.292 129.568L172.402 129.426C180.866 118.595 189.689 112.864 199.085 109.639C208.325 106.468 218.057 105.765 227.973 104.789L228.069 104.779L228.167 104.776L346.303 100.838C347.672 100.792 349.196 100.837 350.749 101.181C354.41 101.992 358.436 103.782 362.204 108.724C365.836 113.488 369.127 121.047 371.885 133.158C376.604 146.35 378.635 152.657 379.689 156.746C380.858 161.275 380.326 166.828 376.268 170.517C371.333 175.002 362.609 179.735 348.607 185.289L348.479 185.339L348.346 185.379L170.153 237.639C169.047 238.009 167.086 238.642 164.895 238.394C162.45 238.117 160.113 236.811 158.233 234.081C157.727 233.344 157.367 232.596 157.091 231.973C156.765 231.24 156.634 230.881 156.379 230.345C154.49 226.371 149.114 218.951 142.075 209.659C135.153 200.522 126.802 189.798 119.341 179.539L119.298 179.48L119.259 179.421C108.749 163.406 97.1426 147.746 77.293 103.742C66.6354 81.5948 59.2845 70.8346 49.583 60.5338C44.6768 55.3245 39.1506 50.2122 32.1904 43.7662C25.2477 37.3364 16.9447 29.6391 6.59082 19.3375C5.67687 18.4282 4.27267 17.0143 3.52344 15.1295C2.9216 13.6155 2.72095 11.8681 3.56934 10.1676C4.33642 8.63019 5.71427 7.65985 6.9668 6.98694C8.6087 6.10486 10.3228 5.70937 11.875 5.49866Z" fill="#151720" stroke="#151720" stroke-width="6"/>
<path d="M82.501 221.5C82.501 217.081 86.0827 213.5 90.501 213.5H166.501V241.5H90.501C86.0827 241.5 82.501 237.918 82.501 233.5V221.5Z" fill="#151720"/>
<circle cx="53.501" cy="83.4998" r="12" fill="#151720"/>
<circle cx="152.501" cy="128.5" r="12" fill="#151720"/>
<circle cx="367.501" cy="190.5" r="13" fill="#151720"/>
</g>
<path d="M363.912 121.513C364.728 130.618 368.267 144.774 365.267 155.774C363.358 162.774 357.389 170.029 335.374 178.183C317.435 183.401 224.888 210.255 180.857 223.029C178.139 223.844 172.55 224.448 170.267 224.774C160.267 225.274 171.54 227.946 143.001 199" stroke="#E49700" stroke-width="2"/>
<path d="M11.6058 3.51642C22.1691 2.08254 62.0071 -1.75956 99.0775 4.34064L99.1615 4.35431L99.2435 4.37091C135.456 11.5922 175.469 19.9834 232.615 18.2762L232.689 18.2742H232.764C237.459 18.2744 245.267 21.2741 246.722 29.6014C247.42 33.5967 246.416 38.0276 243.814 42.7664C241.214 47.5015 236.857 52.8553 230.283 58.9432L230.089 59.1219L229.878 59.2791C217.366 68.6313 208.391 72.9042 198.687 74.1375C189.445 75.3119 179.699 73.6141 166.74 72.2469C158.79 71.4082 143.167 68.7843 136.472 67.7108C130.804 66.802 124.213 68.419 119.868 72.3826C115.838 76.0578 113.106 82.3344 115.966 92.4402C116.194 93.2457 116.586 94.1206 117.127 95.0496C132.18 120.901 134.896 125.096 140.728 134.33C141.024 134.799 142.226 136.031 144.556 137.252C146.759 138.405 149.531 139.31 152.495 139.518C158.087 139.912 164.916 137.901 170.488 128.687L170.642 128.431L170.826 128.195C179.522 117.069 188.662 111.102 198.435 107.748C207.948 104.483 217.957 103.765 227.776 102.799L227.938 102.782L228.099 102.777L346.236 98.8387C347.691 98.7902 349.401 98.835 351.181 99.2293C355.228 100.126 359.696 102.137 363.793 107.512C367.662 112.586 371.028 120.43 373.808 132.596C378.497 145.709 380.548 152.072 381.625 156.247C382.907 161.216 382.404 167.641 377.613 171.997C372.392 176.742 363.374 181.582 349.344 187.147L349.129 187.233L348.908 187.298L170.75 239.549C169.621 239.926 167.307 240.681 164.668 240.382C161.599 240.034 158.764 238.38 156.585 235.216C155.974 234.328 155.556 233.446 155.262 232.784C154.887 231.939 154.819 231.725 154.572 231.204C152.792 227.46 147.574 220.231 140.481 210.867C133.582 201.761 125.198 190.994 117.722 180.715L117.652 180.618L117.585 180.517C107.068 164.491 95.3885 148.722 75.473 104.573C64.8811 82.5674 57.6382 72.0046 48.1263 61.9051C43.2765 56.7557 37.8054 51.693 30.8314 45.2342C23.8859 38.8019 15.5601 31.0833 5.17903 20.7547C4.28358 19.8638 2.58596 18.1867 1.66438 15.869C0.92554 14.0104 0.59925 11.6382 1.77864 9.27423C2.82249 7.18227 4.64179 5.96574 6.01985 5.2254C7.95112 4.18789 9.92456 3.74464 11.6058 3.51642ZM96.7152 8.01349C60.7026 2.39904 22.3777 6.09113 12.1439 7.48029C10.7207 7.67348 9.26596 8.02322 7.91341 8.74982C6.78637 9.35529 5.84814 10.0775 5.35774 11.0604C4.84038 12.0975 4.91627 13.2219 5.38118 14.3914C5.95814 15.8423 7.06805 16.9922 8.00032 17.9197C18.3274 28.1947 26.6089 35.8722 33.5492 42.2996C40.4949 48.7322 46.076 53.8931 51.0384 59.1619C60.9241 69.6583 68.3806 80.6109 79.0941 102.874H79.095C98.8886 146.761 110.426 162.317 120.93 178.323L120.943 178.343L120.957 178.362C128.404 188.601 136.724 199.284 143.669 208.452C150.654 217.671 156.185 225.283 158.184 229.487C158.446 230.038 158.643 230.542 158.918 231.162C159.177 231.745 159.478 232.362 159.88 232.947C161.461 235.243 163.3 236.201 165.118 236.407C166.851 236.603 168.452 236.099 169.55 235.732L347.782 183.46L347.826 183.446L347.869 183.43C361.843 177.887 370.274 173.262 374.922 169.037C378.247 166.015 378.807 161.336 377.752 157.246C376.72 153.245 374.71 146.992 369.962 133.721C367.227 121.663 364.006 114.387 360.613 109.936C357.174 105.427 353.59 103.86 350.316 103.135C348.991 102.841 347.652 102.794 346.369 102.837L228.233 106.775L228.201 106.776L228.168 106.779C218.156 107.765 208.701 108.454 199.734 111.531C190.715 114.626 182.211 120.124 173.978 130.659L173.941 130.706L173.91 130.757C167.559 141.259 159.298 144.007 152.215 143.509C148.64 143.257 145.335 142.175 142.701 140.796C140.041 139.403 138.163 137.759 137.346 136.466C131.486 127.187 128.745 122.951 113.671 97.0623C113.012 95.931 112.461 94.743 112.118 93.5291C108.901 82.1641 111.879 74.2558 117.172 69.4276C122.529 64.5418 130.391 62.6848 137.106 63.7615C143.9 64.851 159.35 67.4445 167.159 68.2684C180.551 69.6813 189.548 71.2659 198.182 70.1688C206.908 69.0598 215.227 65.2357 227.484 56.075L227.526 56.0438L227.565 56.0076C233.955 50.0902 237.986 45.0698 240.308 40.8416C242.63 36.6129 243.275 33.1138 242.782 30.2899C241.783 24.5746 236.321 22.2744 232.764 22.2742H232.749L232.734 22.2752C175.094 23.9971 134.691 15.5185 98.4613 8.29376L98.4447 8.28986L98.4281 8.2879L96.7152 8.01349ZM12.4124 9.46173C22.7227 8.06215 61.8717 4.30121 98.0843 10.2567C134.317 17.482 174.908 26.0017 232.781 24.2742C235.768 24.2816 240.042 26.2327 240.811 30.6336C241.202 32.872 240.736 35.9049 238.554 39.8787C236.376 43.8458 232.518 48.6885 226.242 54.5057C214.138 63.5461 206.157 67.1398 197.93 68.1854C189.6 69.2439 180.978 67.7159 167.368 66.2801C159.63 65.4637 144.266 62.8844 137.422 61.7869C130.184 60.6262 121.687 62.6032 115.825 67.95C109.899 73.3548 106.798 82.0794 110.193 94.074C110.594 95.492 111.225 96.8368 111.943 98.0692C127.028 123.976 129.78 128.233 135.655 137.534C136.732 139.24 138.949 141.088 141.773 142.567C144.623 144.059 148.194 145.231 152.075 145.504C159.889 146.054 168.847 142.95 175.583 131.852C183.576 121.638 191.752 116.385 200.383 113.423C209.069 110.442 218.238 109.765 228.335 108.771L346.436 104.836C347.632 104.796 348.786 104.844 349.883 105.087C352.771 105.727 355.914 107.072 359.023 111.149C362.171 115.278 365.314 122.25 368.025 134.221L368.038 134.28L368.059 134.337C372.823 147.651 374.807 153.838 375.816 157.746C376.757 161.396 376.167 165.203 373.576 167.557C369.218 171.519 361.089 176.031 347.163 181.556L168.983 233.814L168.964 233.82L168.947 233.826C167.842 234.195 166.608 234.563 165.344 234.42C164.15 234.284 162.81 233.676 161.528 231.813C161.229 231.38 160.988 230.894 160.746 230.35C160.521 229.843 160.259 229.194 159.991 228.629C157.883 224.194 152.193 216.392 145.263 207.244C138.299 198.051 130.018 187.42 122.59 177.208C112.098 161.221 100.636 145.771 80.9183 102.052L80.9134 102.04L80.9075 102.029L79.9066 99.9617C69.657 78.9379 62.2531 68.1523 52.4945 57.7908C47.4757 52.4621 41.8393 47.2515 34.9075 40.8318C27.97 34.4069 19.7114 26.7497 9.41146 16.5018C8.4607 15.5558 7.64416 14.6696 7.23958 13.6522C6.9117 12.8273 6.96133 12.3268 7.14778 11.9529C7.36154 11.5248 7.85848 11.0494 8.8597 10.5115C9.92293 9.94036 11.1182 9.63742 12.4124 9.46173ZM97.3822 14.1961C61.7526 8.34649 23.0888 12.0494 12.9505 13.4256C12.6495 13.4665 12.3786 13.5133 12.1341 13.5652C12.1664 13.5976 12.1988 13.6321 12.2327 13.6658C22.479 23.8603 30.693 31.4771 37.6253 37.8973C44.5289 44.2908 50.2752 49.6003 55.4066 55.0486C65.5226 65.7896 73.1359 76.9468 83.5003 98.2059L84.512 100.295L84.5384 100.35L84.5648 100.407C104.11 143.743 115.417 158.997 125.876 174.926C133.261 185.075 141.457 195.596 148.451 204.829C155.272 213.832 161.276 222.016 163.603 226.911C163.886 227.507 164.277 228.446 164.402 228.727C164.608 229.193 164.733 229.415 164.823 229.546C165.211 230.11 165.489 230.31 165.586 230.371C165.67 230.423 165.722 230.437 165.794 230.445C165.897 230.457 166.093 230.458 166.428 230.391C166.777 230.322 167.154 230.208 167.677 230.033L167.767 230.003L167.857 229.976L345.861 177.769C359.618 172.3 367.115 168.025 370.886 164.597C372.01 163.576 372.658 161.516 371.943 158.745C370.986 155.035 369.059 149.006 364.292 135.684L364.191 135.399L364.123 135.104C361.468 123.378 358.489 117.046 355.842 113.575C353.393 110.363 351.133 109.461 349.018 108.992C348.376 108.85 347.592 108.8 346.569 108.834L228.588 112.765C218.36 113.77 209.785 114.425 201.681 117.206C193.849 119.894 186.352 124.638 178.867 134.149C171.36 146.356 161.041 150.145 151.793 149.494C147.302 149.178 143.198 147.828 139.917 146.11C136.764 144.459 133.871 142.201 132.273 139.67C126.37 130.324 123.592 126.025 108.486 100.082C107.65 98.6474 106.861 96.9892 106.344 95.1629C102.593 81.9092 105.939 71.5527 113.128 64.9949C120.001 58.7258 129.771 56.5091 138.056 57.8377C145 58.9512 160.192 61.5001 167.788 62.3016C181.831 63.7831 189.704 65.198 197.426 64.2166C204.641 63.2997 211.929 60.1803 223.671 51.4324C229.672 45.8507 233.163 41.3867 235.048 37.9539C236.95 34.4904 237.058 32.3892 236.871 31.3221C236.559 29.5346 234.636 28.2889 232.794 28.2752C174.527 30.0026 133.591 21.4174 97.3822 14.1961Z" fill="black"/>
<path d="M344.501 183.38L197.501 226.493" stroke="url(#paint0_radial_8474_7275)" stroke-width="2"/>
<path d="M147.219 211.5C139.779 201.565 130.215 189.391 121.767 177.774C111.267 161.774 99.7667 146.274 80.0072 102.462C62.5446 66.1694 53.6253 59.6703 28.7725 36.4998" stroke="url(#paint1_radial_8474_7275)" stroke-width="2"/>
<path d="M38.501 6.33477C55.3097 5.61776 77.2737 5.81953 98.2666 9.27409C132.424 16.0857 170.373 24.0297 223.001 23.4722" stroke="url(#paint2_radial_8474_7275)" stroke-width="2"/>
<path d="M293.001 195.5L295.001 201.5" stroke="black" stroke-width="2"/>
<path d="M49.001 51.4998L44.501 55.4998" stroke="black" stroke-width="2"/>
<path d="M129.501 120L124.001 123" stroke="black" stroke-width="2"/>
<path d="M92.0932 234.5H94.2932V220.5H92.8132C92.3132 221.86 91.6532 222.26 89.7932 222.26V223.82H92.0932V234.5ZM97.421 234.5H99.541V232.38H97.421V234.5ZM104.754 234.5H111.194V232.5H107.114L111.194 222.46V220.5H104.954V222.5H108.834L104.754 232.54V234.5ZM112.26 234.5H114.3L114.7 231.76H117.2V231.72L117.6 234.5H119.8L117.52 220.5H114.54L112.26 234.5ZM114.96 229.86L115.92 222.94H115.96L116.94 229.86H114.96ZM122.241 234.5H125.161L127.281 220.5H125.261L123.821 231.36H123.781L122.341 220.5H120.121L122.241 234.5ZM131.878 234.7C134.038 234.7 135.218 233.42 135.218 231.18V223.82C135.218 221.58 134.038 220.3 131.878 220.3C129.718 220.3 128.538 221.58 128.538 223.82V231.18C128.538 233.42 129.718 234.7 131.878 234.7ZM131.878 232.7C131.178 232.7 130.738 232.32 130.738 231.32V223.68C130.738 222.68 131.178 222.3 131.878 222.3C132.578 222.3 133.018 222.68 133.018 223.68V231.32C133.018 232.32 132.578 232.7 131.878 232.7ZM137.548 234.58C139.708 234.58 140.748 233.48 140.748 231.18V220.5H138.548V231.24C138.548 232.16 138.128 232.58 137.248 232.58C137.008 232.58 136.768 232.56 136.528 232.5V234.5C136.848 234.56 137.148 234.58 137.548 234.58Z" fill="#EFF0F7"/>
<path d="M49.7771 88.9798C49.7771 87.9798 49.9371 87.1264 50.2571 86.4198C50.5771 85.6998 51.1504 84.9064 51.9771 84.0398C52.7904 83.1731 53.3504 82.4331 53.6571 81.8198C53.9771 81.2064 54.1371 80.5664 54.1371 79.8998C54.1371 79.2998 54.0371 78.8864 53.8371 78.6598C53.6504 78.4198 53.3704 78.2998 52.9971 78.2998C52.2371 78.2998 51.8571 78.7598 51.8571 79.6798V81.1798H49.7771V79.8198C49.7771 78.6864 50.0571 77.8198 50.6171 77.2198C51.1771 76.6064 51.9904 76.2998 53.0571 76.2998C54.1237 76.2998 54.9371 76.6064 55.4971 77.2198C56.0571 77.8198 56.3371 78.6864 56.3371 79.8198C56.3371 80.6731 56.1304 81.5064 55.7171 82.3198C55.3171 83.1331 54.6171 84.0664 53.6171 85.1198C52.9637 85.8131 52.5237 86.3798 52.2971 86.8198C52.0704 87.2464 51.9571 87.7064 51.9571 88.1998V88.4998H56.1371V90.4998H49.7771V88.9798Z" fill="#EFF0F7"/>
<path d="M32.9371 28.6998C31.8571 28.6998 31.0371 28.3998 30.4771 27.7998C29.9304 27.1998 29.6571 26.3398 29.6571 25.2198V24.0798H31.7371V25.3198C31.7371 26.2398 32.1171 26.6998 32.8771 26.6998C33.2504 26.6998 33.5304 26.5864 33.7171 26.3598C33.9171 26.1198 34.0171 25.7064 34.0171 25.1198V23.9798C34.0171 23.3398 33.9037 22.8864 33.6771 22.6198C33.4504 22.3398 33.0837 22.1998 32.5771 22.1998H31.8371V20.1998H32.6371C33.0771 20.1998 33.4037 20.0864 33.6171 19.8598C33.8437 19.6331 33.9571 19.2531 33.9571 18.7198V17.6998C33.9571 17.2198 33.8571 16.8664 33.6571 16.6398C33.4571 16.4131 33.1904 16.2998 32.8571 16.2998C32.1504 16.2998 31.7971 16.7331 31.7971 17.5998V18.5198H29.7171V17.7798C29.7171 16.6598 29.9904 15.7998 30.5371 15.1998C31.0971 14.5998 31.8971 14.2998 32.9371 14.2998C33.9904 14.2998 34.7904 14.5998 35.3371 15.1998C35.8837 15.7864 36.1571 16.6398 36.1571 17.7598V18.2598C36.1571 19.0198 36.0304 19.6331 35.7771 20.0998C35.5237 20.5531 35.1304 20.8798 34.5971 21.0798V21.1198C35.1704 21.3331 35.5837 21.6798 35.8371 22.1598C36.0904 22.6398 36.2171 23.2531 36.2171 23.9998V25.2398C36.2171 26.3598 35.9371 27.2198 35.3771 27.8198C34.8304 28.4064 34.0171 28.6998 32.9371 28.6998Z" fill="#EFF0F7"/>
<path d="M223.497 42.9598H219.297V40.9598L223.297 31.4998H225.697V40.9598H226.737V42.9598H225.697V45.4998H223.497V42.9598ZM223.497 40.9598V35.4998H223.457L221.297 40.9598H223.497Z" fill="#EFF0F7"/>
<path d="M192.037 62.6998C190.97 62.6998 190.157 62.3998 189.597 61.7998C189.037 61.1864 188.757 60.3131 188.757 59.1798V58.0798H190.837V59.3398C190.837 60.2464 191.217 60.6998 191.977 60.6998C192.737 60.6998 193.117 60.2464 193.117 59.3398V56.1998C193.117 55.2798 192.737 54.8198 191.977 54.8198C191.217 54.8198 190.837 55.2798 190.837 56.1998V56.3198H188.757L189.157 48.4998H194.957V50.4998H191.117L190.937 53.8398H190.977C191.39 53.1598 192.024 52.8198 192.877 52.8198C193.677 52.8198 194.284 53.0931 194.697 53.6398C195.11 54.1864 195.317 54.9798 195.317 56.0198V59.1798C195.317 60.3131 195.037 61.1864 194.477 61.7998C193.917 62.3998 193.104 62.6998 192.037 62.6998Z" fill="#EFF0F7"/>
<path d="M112.057 61.6998C110.977 61.6998 110.15 61.3931 109.577 60.7798C109.004 60.1664 108.717 59.2998 108.717 58.1798V50.9398C108.717 48.5131 109.837 47.2998 112.077 47.2998C113.144 47.2998 113.957 47.6064 114.517 48.2198C115.077 48.8198 115.357 49.6864 115.357 50.8198V51.0798H113.277V50.6798C113.277 49.7598 112.897 49.2998 112.137 49.2998C111.724 49.2998 111.417 49.4264 111.217 49.6798C111.017 49.9331 110.917 50.3798 110.917 51.0198V53.6998H110.957C111.344 52.8864 112.01 52.4798 112.957 52.4798C113.757 52.4798 114.364 52.7531 114.777 53.2998C115.19 53.8464 115.397 54.6398 115.397 55.6798V58.1798C115.397 59.2998 115.11 60.1664 114.537 60.7798C113.964 61.3931 113.137 61.6998 112.057 61.6998ZM112.057 59.6998C112.817 59.6998 113.197 59.2464 113.197 58.3398V55.8598C113.197 54.9398 112.817 54.4798 112.057 54.4798C111.297 54.4798 110.917 54.9398 110.917 55.8598V58.3398C110.917 59.2464 111.297 59.6998 112.057 59.6998Z" fill="#EFF0F7"/>
<path d="M154.117 123.5H149.677V121.5H156.277V123.42L152.837 135.5H150.597L154.117 123.5Z" fill="#EFF0F7"/>
<path d="M203.997 134.7C202.89 134.7 202.037 134.406 201.437 133.82C200.85 133.22 200.557 132.36 200.557 131.24V130C200.557 129.306 200.67 128.726 200.897 128.26C201.124 127.78 201.49 127.406 201.997 127.14V127.1C201.53 126.846 201.184 126.5 200.957 126.06C200.744 125.606 200.637 125.033 200.637 124.34V123.76C200.637 122.64 200.924 121.786 201.497 121.2C202.084 120.6 202.917 120.3 203.997 120.3C205.077 120.3 205.904 120.6 206.477 121.2C207.064 121.786 207.357 122.64 207.357 123.76V124.34C207.357 125.673 206.904 126.593 205.997 127.1V127.14C206.504 127.406 206.87 127.78 207.097 128.26C207.324 128.726 207.437 129.306 207.437 130V131.24C207.437 132.36 207.137 133.22 206.537 133.82C205.95 134.406 205.104 134.7 203.997 134.7ZM203.997 126.2C204.77 126.2 205.157 125.733 205.157 124.8V123.7C205.157 122.766 204.77 122.3 203.997 122.3C203.224 122.3 202.837 122.766 202.837 123.7V124.8C202.837 125.733 203.224 126.2 203.997 126.2ZM203.997 132.7C204.824 132.7 205.237 132.173 205.237 131.12V129.78C205.237 128.726 204.824 128.2 203.997 128.2C203.17 128.2 202.757 128.726 202.757 129.78V131.12C202.757 132.173 203.17 132.7 203.997 132.7Z" fill="#EFF0F7"/>
<path d="M347.917 128.7C346.85 128.7 346.037 128.4 345.477 127.8C344.917 127.186 344.637 126.313 344.637 125.18V124.92H346.717V125.32C346.717 126.24 347.097 126.7 347.857 126.7C348.27 126.7 348.577 126.573 348.777 126.32C348.977 126.066 349.077 125.62 349.077 124.98V122.3H349.037C348.65 123.113 347.984 123.52 347.037 123.52C346.237 123.52 345.63 123.246 345.217 122.7C344.804 122.153 344.597 121.36 344.597 120.32V117.82C344.597 116.7 344.884 115.833 345.457 115.22C346.03 114.606 346.857 114.3 347.937 114.3C349.017 114.3 349.844 114.606 350.417 115.22C350.99 115.833 351.277 116.7 351.277 117.82V125.06C351.277 127.486 350.157 128.7 347.917 128.7ZM347.937 121.52C348.697 121.52 349.077 121.06 349.077 120.14V117.66C349.077 116.753 348.697 116.3 347.937 116.3C347.177 116.3 346.797 116.753 346.797 117.66V120.14C346.797 121.06 347.177 121.52 347.937 121.52Z" fill="#EFF0F7"/>
<path d="M362.893 186.82H360.593V185.26C361.22 185.26 361.72 185.206 362.093 185.1C362.48 184.993 362.786 184.82 363.013 184.58C363.24 184.326 363.44 183.966 363.613 183.5H365.093V197.5H362.893V186.82ZM371.001 197.7C369.921 197.7 369.094 197.393 368.521 196.78C367.948 196.166 367.661 195.3 367.661 194.18V186.82C367.661 185.7 367.948 184.833 368.521 184.22C369.094 183.606 369.921 183.3 371.001 183.3C372.081 183.3 372.908 183.606 373.481 184.22C374.054 184.833 374.341 185.7 374.341 186.82V194.18C374.341 195.3 374.054 196.166 373.481 196.78C372.908 197.393 372.081 197.7 371.001 197.7ZM371.001 195.7C371.761 195.7 372.141 195.24 372.141 194.32V186.68C372.141 185.76 371.761 185.3 371.001 185.3C370.241 185.3 369.861 185.76 369.861 186.68V194.32C369.861 195.24 370.241 195.7 371.001 195.7Z" fill="#EFF0F7"/>
<path d="M225.964 204.923L227.442 204.488L226.315 200.661L227.014 200.455C228.491 200.02 228.975 198.988 228.533 197.483L228.26 196.557C227.817 195.052 226.851 194.447 225.374 194.881L223.198 195.522L225.964 204.923ZM225.92 199.317L225.07 196.43L225.769 196.224C226.239 196.086 226.557 196.226 226.755 196.897L227.083 198.012C227.28 198.684 227.088 198.974 226.618 199.112L225.92 199.317ZM237.86 201.423L239.338 200.988L236.571 191.586L235.094 192.021L237.86 201.423ZM248.314 198.346L249.792 197.912L247.421 189.853L248.965 189.399L248.57 188.056L244.003 189.399L244.399 190.742L245.943 190.288L248.314 198.346ZM267.633 192.662L271.542 191.512L271.146 190.169L268.715 190.884L266.344 182.826L264.867 183.26L267.633 192.662ZM278.628 189.426L279.998 189.023L279.725 187.104L281.404 186.61L281.396 186.583L282.214 188.371L283.692 187.936L279.394 178.986L277.393 179.574L278.628 189.426ZM279.525 185.777L278.802 180.94L278.829 180.932L280.854 185.386L279.525 185.777ZM291.124 185.75L292.44 185.362L290.42 178.499L290.447 178.491L294.24 184.833L295.757 184.386L292.991 174.985L291.675 175.372L293.331 180.999L293.304 181.007L290.211 175.803L288.357 176.348L291.124 185.75ZM303.571 182.087L307.6 180.901L307.205 179.558L304.653 180.309L303.803 177.422L305.831 176.825L305.436 175.482L303.408 176.079L302.677 173.594L305.229 172.843L304.833 171.5L300.804 172.686L303.571 182.087Z" fill="#EFF0F7"/>
<g filter="url(#filter0_d_8474_7275)">
<circle cx="210.501" cy="222.5" r="3" fill="#00FF38"/>
</g>
<g filter="url(#filter1_d_8474_7275)">
<path d="M18.001 23.4998C18.001 25.1566 16.6578 26.4998 15.001 26.4998C13.3441 26.4998 12.001 25.1566 12.001 23.4998C12.001 21.8429 13.3441 20.4998 15.001 20.4998C16.6578 20.4998 18.001 21.8429 18.001 23.4998Z" fill="#00FF38"/>
</g>
<g filter="url(#filter2_d_8474_7275)">
<path d="M368.501 123.5C368.501 125.157 367.158 126.5 365.501 126.5C363.844 126.5 362.501 125.157 362.501 123.5C362.501 121.843 363.844 120.5 365.501 120.5C367.158 120.5 368.501 121.843 368.501 123.5Z" fill="#00FF38"/>
</g>
</g>
<defs>
<filter id="filter0_d_8474_7275" x="205.501" y="217.5" width="10" height="10" filterUnits="userSpaceOnUse" color-interpolation-filters="sRGB">
<feFlood flood-opacity="0" result="BackgroundImageFix"/>
<feColorMatrix in="SourceAlpha" type="matrix" values="0 0 0 0 0 0 0 0 0 0 0 0 0 0 0 0 0 0 127 0" result="hardAlpha"/>
<feOffset/>
<feGaussianBlur stdDeviation="1"/>
<feComposite in2="hardAlpha" operator="out"/>
<feColorMatrix type="matrix" values="0 0 0 0 0 0 0 0 0 0 0 0 0 0 0 0 0 0 1 0"/>
<feBlend mode="normal" in2="BackgroundImageFix" result="effect1_dropShadow_8474_7275"/>
<feBlend mode="normal" in="SourceGraphic" in2="effect1_dropShadow_8474_7275" result="shape"/>
</filter>
<filter id="filter1_d_8474_7275" x="10.001" y="18.4998" width="10" height="10" filterUnits="userSpaceOnUse" color-interpolation-filters="sRGB">
<feFlood flood-opacity="0" result="BackgroundImageFix"/>
<feColorMatrix in="SourceAlpha" type="matrix" values="0 0 0 0 0 0 0 0 0 0 0 0 0 0 0 0 0 0 127 0" result="hardAlpha"/>
<feOffset/>
<feGaussianBlur stdDeviation="1"/>
<feComposite in2="hardAlpha" operator="out"/>
<feColorMatrix type="matrix" values="0 0 0 0 0 0 0 0 0 0 0 0 0 0 0 0 0 0 1 0"/>
<feBlend mode="normal" in2="BackgroundImageFix" result="effect1_dropShadow_8474_7275"/>
<feBlend mode="normal" in="SourceGraphic" in2="effect1_dropShadow_8474_7275" result="shape"/>
</filter>
<filter id="filter2_d_8474_7275" x="360.501" y="118.5" width="10" height="10" filterUnits="userSpaceOnUse" color-interpolation-filters="sRGB">
<feFlood flood-opacity="0" result="BackgroundImageFix"/>
<feColorMatrix in="SourceAlpha" type="matrix" values="0 0 0 0 0 0 0 0 0 0 0 0 0 0 0 0 0 0 127 0" result="hardAlpha"/>
<feOffset/>
<feGaussianBlur stdDeviation="1"/>
<feComposite in2="hardAlpha" operator="out"/>
<feColorMatrix type="matrix" values="0 0 0 0 0 0 0 0 0 0 0 0 0 0 0 0 0 0 1 0"/>
<feBlend mode="normal" in2="BackgroundImageFix" result="effect1_dropShadow_8474_7275"/>
<feBlend mode="normal" in="SourceGraphic" in2="effect1_dropShadow_8474_7275" result="shape"/>
</filter>
<radialGradient id="paint0_radial_8474_7275" cx="0" cy="0" r="1" gradientUnits="userSpaceOnUse" gradientTransform="translate(270.757 204.921) rotate(163.499) scale(76.4031 31.0548)">
<stop stop-color="#39FF65" stop-opacity="0.5"/>
<stop offset="1" stop-color="#00FF38"/>
</radialGradient>
<radialGradient id="paint1_radial_8474_7275" cx="0" cy="0" r="1" gradientUnits="userSpaceOnUse" gradientTransform="translate(87.7996 123.936) rotate(123.827) scale(106.033 73.1867)">
<stop stop-color="#39FF65" stop-opacity="0.5"/>
<stop offset="1" stop-color="#00FF38"/>
</radialGradient>
<radialGradient id="paint2_radial_8474_7275" cx="0" cy="0" r="1" gradientUnits="userSpaceOnUse" gradientTransform="translate(130.445 14.7434) rotate(174.528) scale(92.3654 13.0872)">
<stop stop-color="#39FF65" stop-opacity="0.5"/>
<stop offset="1" stop-color="#00FF38"/>
</radialGradient>
<clipPath id="clip0_8474_7275">
<rect width="383" height="241" fill="white"/>
</clipPath>
</defs>
</svg>
