<svg width="380" height="274" viewBox="0 0 380 274" fill="none" xmlns="http://www.w3.org/2000/svg">
<path d="M166.739 24.2657L51.3985 7.54015C41.6155 5.18531 30.0722 5.2699 24.7674 7.33941C18.4008 9.82312 9.14758 19.6791 6.08778 29.5221C3.61457 37.4782 9.20282 38.1059 12.7921 38.5091L12.8923 38.5204L28.6926 40.7134C31.6315 41.8808 33.9666 48.4228 41.2544 38.218C47.3636 29.6636 50.7353 37.0504 51.0373 40.573L53.6344 70.8675C53.6534 79.3813 56.2099 80.2267 61.9674 81.1528L140.653 92.5044C150.697 93.7721 165.25 102.105 165.25 102.105C165.25 102.105 187.024 112.732 190.849 115.953C196.076 121.389 196.411 130.306 201.946 136.928C206.505 142.382 213.666 141.883 231.295 143.993C250.297 146.268 252.237 154.202 254.706 160.439C257.423 167.303 261.357 173.499 271.897 178.837C279.686 182.782 280.753 186.948 279.828 192.706L270.972 259.112C269.378 270.32 276.682 269.15 280.534 267.164L297.241 255.086C301.548 251.523 308.593 250.919 297.683 243.692C288.955 237.911 288.826 235.58 291.342 231.816C306.096 213.518 332.51 167.78 348.327 143.187C365.235 116.897 369.723 103.028 372.199 94.6542C373.185 89.6014 377.11 81.0592 369.783 78.893C363.084 76.9124 362.517 72.7739 362.98 69.8958L364.63 60.1732C366.257 52.6529 362.436 51.1349 357.384 50.1489L270.002 36.7039L216.901 29.9011L166.739 24.2657Z" fill="black" fill-opacity="0.1"/>
<path d="M166.737 24.2655L51.3964 7.53995L51.2677 7.51811C41.5959 5.87617 32.8628 4.3936 25.4692 7.27854C18.0429 10.1763 9.14547 19.6789 6.08568 29.5219C3.61247 37.4779 9.20072 38.1057 12.79 38.5089L12.8902 38.5202L28.6905 40.7132C31.6294 41.8806 33.9645 48.4226 41.2523 38.2178C47.3615 29.6634 50.7332 37.0502 51.0352 40.5728L53.6323 70.8672C53.6513 79.3811 56.2078 80.2265 61.9653 81.1526L140.651 92.5042C150.695 93.7719 165.248 102.105 165.248 102.105C165.248 102.105 187.022 112.732 190.847 115.952C196.074 121.388 196.409 130.306 201.944 136.928C206.503 142.382 213.663 141.883 231.293 143.993C250.295 146.267 252.235 154.201 254.704 160.439C257.421 167.302 261.355 173.499 271.895 178.836C279.684 182.781 280.751 186.948 279.826 192.705L270.97 259.112C269.376 270.32 276.68 269.15 280.532 267.163L297.239 255.086C301.546 251.522 308.591 250.918 297.681 243.692C288.953 237.911 288.824 235.58 291.34 231.816C306.094 213.518 332.508 167.78 348.325 143.186C365.233 116.897 369.721 103.028 372.197 94.654C373.183 89.6012 377.108 81.059 369.781 78.8928C363.082 76.9122 362.514 72.7737 362.978 69.8955L364.628 60.173C366.255 52.6527 362.434 51.1347 357.382 50.1487L270 36.7037L216.899 29.9009L166.737 24.2655Z" stroke="black" stroke-width="10"/>
<path d="M6.4999 28C9.49237 22.8938 19.5516 13.7551 35.8157 13.0702C35.8157 13.0702 95.9285 21.6376 116.353 25.3277L157.498 23.0002" stroke="#5B93FF" stroke-width="2"/>
<path d="M166.737 24.2655L51.3964 7.53995L51.2677 7.51811C41.5959 5.87617 32.8628 4.3936 25.4692 7.27854C18.0429 10.1763 9.14547 19.6789 6.08568 29.5219C3.61247 37.4779 9.20072 38.1057 12.79 38.5089L12.8902 38.5202L28.6905 40.7132C31.6294 41.8806 33.9645 48.4226 41.2523 38.2178C47.3615 29.6634 50.7332 37.0502 51.0352 40.5728L53.6323 70.8672C53.6513 79.3811 56.2078 80.2265 61.9653 81.1526L140.651 92.5042C150.695 93.7719 165.248 102.105 165.248 102.105C165.248 102.105 187.022 112.732 190.847 115.952C196.074 121.388 196.409 130.306 201.944 136.928C206.503 142.382 213.663 141.883 231.293 143.993C250.295 146.267 252.235 154.201 254.704 160.439C257.421 167.302 261.355 173.499 271.895 178.836C279.684 182.781 280.751 186.948 279.826 192.705L270.97 259.112C269.376 270.32 276.68 269.15 280.532 267.163L297.239 255.086C301.546 251.522 308.591 250.918 297.681 243.692C288.953 237.911 288.824 235.58 291.34 231.816C306.094 213.518 332.508 167.78 348.325 143.186C365.233 116.897 369.721 103.028 372.197 94.654C373.183 89.6012 377.108 81.059 369.781 78.8928C363.082 76.9122 362.514 72.7737 362.978 69.8955L364.628 60.173C366.255 52.6527 362.434 51.1347 357.382 50.1487L270 36.7037L216.899 29.9009L166.737 24.2655Z" stroke="white" stroke-width="2"/>
<path d="M171.7 105.314C167.992 103.444 165.25 102.106 165.25 102.106C165.25 102.106 150.697 93.7726 140.653 92.5048L69.4608 82.2342" stroke="url(#paint0_radial_8528_7646)" stroke-width="2"/>
<path d="M364.859 113.967C361.323 121.502 356.156 131.013 348.327 143.187C335.575 163.014 315.936 196.584 301.072 218.44" stroke="url(#paint1_radial_8528_7646)" stroke-width="2"/>
<path d="M101.494 14.8049L166.738 24.2659L216.901 29.9013L270.002 36.7041L349.69 48.9655" stroke="url(#paint2_radial_8528_7646)" stroke-width="2"/>
<path d="M28.873 42.8269C27.45 44.5167 24.9266 44.7331 23.2368 43.3101C21.547 41.8872 21.3306 39.3638 22.7536 37.6739C24.1765 35.9841 26.6999 35.7678 28.3898 37.1908C30.0796 38.6137 30.2959 41.1371 28.873 42.8269Z" fill="#00FF38"/>
<path d="M236.529 147.093C235.106 148.783 232.583 148.999 230.893 147.576C229.203 146.153 228.987 143.63 230.41 141.94C231.833 140.25 234.356 140.034 236.046 141.457C237.736 142.88 237.952 145.403 236.529 147.093Z" fill="#00FF38"/>
<path d="M118.469 86.2446L117.543 92.0016" stroke="black" stroke-width="4"/>
<path d="M57.9395 5.20508L57.074 11.6666" stroke="black" stroke-width="4"/>
<path d="M304.204 208.003L310.202 211.747" stroke="black" stroke-width="4"/>
<path d="M56.4082 17.6045L60.6696 18.2329L60.0412 22.4943L55.7798 21.8659L56.4082 17.6045Z" fill="white"/>
<path d="M55.1602 26.0977L59.4216 26.7261L58.7931 30.9875L54.5317 30.3591L55.1602 26.0977Z" fill="white"/>
<path d="M55.7832 21.8516L60.0446 22.48L59.4162 26.7414L55.1548 26.113L55.7832 21.8516Z" fill="black"/>
<path d="M52.1465 16.9761L56.4079 17.6045L55.7795 21.8659L51.5181 21.2375L52.1465 16.9761Z" fill="black"/>
<path d="M50.8984 25.4692L55.1598 26.0977L54.5314 30.3591L50.27 29.7307L50.8984 25.4692Z" fill="black"/>
<path d="M51.5234 21.2231L55.7848 21.8516L55.1564 26.113L50.895 25.4846L51.5234 21.2231Z" fill="white"/>
<defs>
<radialGradient id="paint0_radial_8528_7646" cx="0" cy="0" r="1" gradientUnits="userSpaceOnUse" gradientTransform="translate(120.474 93.6615) rotate(-167.513) scale(52.3434 32.086)">
<stop stop-color="#39FF65" stop-opacity="0.5"/>
<stop offset="1" stop-color="#00FF38"/>
</radialGradient>
<radialGradient id="paint1_radial_8528_7646" cx="0" cy="0" r="1" gradientUnits="userSpaceOnUse" gradientTransform="translate(332.971 166.15) rotate(138.708) scale(61.5978 13.6057)">
<stop stop-color="#39FF65" stop-opacity="0.5"/>
<stop offset="1" stop-color="#00FF38"/>
</radialGradient>
<radialGradient id="paint2_radial_8528_7646" cx="0" cy="0" r="1" gradientUnits="userSpaceOnUse" gradientTransform="translate(225.355 31.622) rotate(-172.422) scale(125.211 84.7158)">
<stop stop-color="#39FF65" stop-opacity="0.5"/>
<stop offset="1" stop-color="#00FF38"/>
</radialGradient>
</defs>
</svg>
