<svg width="856" height="762" viewBox="0 0 856 762" fill="none" xmlns="http://www.w3.org/2000/svg">
<path d="M171.555 676.999L603.746 579.786C625.675 575.147 664.969 564.619 676.7 567.834C681.914 569.263 687.774 575.02 690.453 579.241C710.547 610.904 749.763 669.514 766.817 693.039C795.337 732.381 832.009 754.708 842.141 748.278C845.871 745.91 836.858 730.311 832.585 722.955C708.106 528.362 455.363 128.548 429.789 93.8494C417.33 76.9447 405.791 56.9669 394.611 42.1506C380.109 22.9304 349.012 4.76344 311.851 15.3195C286.207 22.604 274.112 41.2737 270.65 58.6407C266.526 75.4705 270.918 89.8566 277.884 100.833C286.473 114.368 305.661 133.406 329.533 104.769C347.353 83.3923 357.608 102.351 362.43 109.949L497.101 332.421C517.462 364.505 512.282 366.608 505.666 383.243C502.207 388.991 494.463 400.302 491.605 404.011C488.033 408.647 476.318 423.78 461.672 421.231C447.026 418.682 440.726 396.623 438.241 389.909C435.757 383.195 423.157 339.08 380.519 335.345C347.72 332.472 331.45 352.271 321.838 372.584C313.614 386.686 306.223 412.366 285.061 435.008C256.492 465.574 217.645 465.949 196.601 457.984C168.235 448.746 142.815 413.356 124.646 376.327C105.148 336.59 88.1448 309.479 75.8939 292.974C63.6756 276.513 39.5876 254.427 22.7903 255.02C8.88888 255.511 11.7221 274.283 15.6217 283.849L44.2399 368.136C48.9405 381.142 56.2338 404.94 66.9151 420.663C74.1114 431.256 86.327 445.652 91.1901 451.449C107.376 469.799 144.799 514.894 166.092 537.748C192.096 565.66 206.641 583.913 194.255 617.586C184.595 643.85 170.022 646.587 158.866 643.005C147.12 639.234 142.093 624.04 149.514 608.672C162.309 588.708 147.614 563.686 116.195 572.967C81.0098 589.375 83.8131 616.81 87.9346 632.946C104.716 676.186 139.22 683.899 171.555 676.999Z" fill="black" fill-opacity="0.1"/>
<path d="M171.555 676.999L603.746 579.786C625.675 575.147 664.969 564.619 676.7 567.834C681.914 569.263 687.774 575.02 690.453 579.241C710.547 610.904 749.763 669.514 766.817 693.039C795.337 732.381 832.009 754.708 842.141 748.278C845.871 745.91 836.858 730.311 832.585 722.955C708.106 528.362 455.363 128.548 429.789 93.8494C417.33 76.9447 405.791 56.9669 394.611 42.1506C380.109 22.9304 349.012 4.76344 311.851 15.3195C286.207 22.604 274.112 41.2737 270.65 58.6407C266.526 75.4705 270.918 89.8566 277.884 100.833C286.473 114.368 305.661 133.406 329.533 104.769C347.353 83.3923 357.608 102.351 362.43 109.949L497.101 332.421C517.462 364.505 512.282 366.608 505.666 383.243C502.207 388.991 494.463 400.302 491.605 404.011C488.033 408.647 476.318 423.78 461.672 421.231C447.026 418.682 440.726 396.623 438.241 389.909C435.757 383.195 423.157 339.08 380.519 335.345C347.72 332.472 331.45 352.271 321.838 372.584C313.614 386.686 306.223 412.366 285.061 435.008C256.492 465.574 217.645 465.949 196.601 457.984C168.235 448.746 142.815 413.356 124.646 376.327C105.148 336.59 88.1448 309.479 75.8939 292.974C63.6756 276.513 39.5876 254.427 22.7903 255.02C8.88888 255.511 11.7221 274.283 15.6217 283.849L44.2399 368.136C48.9405 381.142 56.2338 404.94 66.9151 420.663C74.1114 431.256 86.327 445.652 91.1901 451.449C107.376 469.799 144.799 514.894 166.092 537.748C192.096 565.66 206.641 583.913 194.255 617.586C184.595 643.85 170.022 646.587 158.866 643.005C147.12 639.234 142.093 624.04 149.514 608.672C162.309 588.708 147.614 563.686 116.195 572.967C81.0098 589.375 83.8131 616.81 87.9346 632.946C104.716 676.186 139.22 683.899 171.555 676.999Z" stroke="black" stroke-width="24"/>
<path d="M687.002 575.244L654.236 527.345C647.27 516.369 637.297 512.038 618.384 524.041L523.487 574.197C517.576 577.948 501.636 586.051 486.848 587.382C472.059 588.714 342.595 617.933 279.711 632.376C266.296 636.743 227.207 654.308 207.001 669.5" stroke="#5B93FF" stroke-width="6"/>
<path d="M171.555 676.999L603.746 579.786C625.675 575.147 664.969 564.619 676.7 567.834C681.914 569.263 687.774 575.02 690.453 579.241C710.547 610.904 749.763 669.514 766.817 693.039C795.337 732.381 832.009 754.708 842.141 748.278C845.871 745.91 836.858 730.311 832.585 722.955C708.106 528.362 455.363 128.548 429.789 93.8494C417.33 76.9447 405.791 56.9669 394.611 42.1506C380.109 22.9304 349.012 4.76344 311.851 15.3195C286.207 22.604 274.112 41.2737 270.65 58.6407C266.526 75.4705 270.918 89.8566 277.884 100.833C286.725 114.764 305.661 133.406 329.533 104.769C347.353 83.3923 357.608 102.351 362.43 109.949L497.101 332.421C517.462 364.505 512.282 366.608 505.666 383.243C502.207 388.991 494.463 400.302 491.605 404.011C488.033 408.647 476.318 423.78 461.672 421.231C447.026 418.682 440.726 396.623 438.241 389.909C435.757 383.195 423.157 339.08 380.519 335.345C347.72 332.472 331.45 352.271 321.838 372.584C313.614 386.686 306.223 412.366 285.061 435.008C256.492 465.574 217.645 465.949 196.601 457.984C168.235 448.746 142.815 413.356 124.646 376.327C105.148 336.59 88.1448 309.479 75.8939 292.974C63.6756 276.513 39.5876 254.427 22.7903 255.02C8.88888 255.511 11.7221 274.283 15.6217 283.849L44.2399 368.136C48.9405 381.142 56.2338 404.94 66.9151 420.663C74.1114 431.256 86.327 445.652 91.1901 451.449C107.376 469.799 144.799 514.894 166.092 537.748C192.096 565.66 206.641 583.913 194.255 617.586C184.595 643.85 170.022 646.587 158.866 643.005C147.12 639.234 142.093 624.04 149.514 608.672C162.309 588.708 147.614 563.686 116.195 572.967C81.0098 589.375 83.8131 616.81 87.9346 632.946C104.716 676.186 139.22 683.899 171.555 676.999Z" stroke="white" stroke-width="6"/>
<path d="M563.457 300.379C649.695 435.546 757.932 606.192 828.276 716.216" stroke="url(#paint0_radial_8497_987)" stroke-width="6"/>
<path d="M603.747 579.786L198.504 670.938" stroke="url(#paint1_radial_8497_987)" stroke-width="6"/>
<path d="M690.444 579.358C695.107 576.399 701.286 577.78 704.245 582.443C707.204 587.106 705.823 593.285 701.16 596.245C696.497 599.204 690.318 597.823 687.359 593.16C684.399 588.497 685.78 582.317 690.444 579.358Z" fill="#00FF38"/>
<path d="M294.444 110.358C299.107 107.399 305.286 108.78 308.245 113.443C311.204 118.106 309.823 124.285 305.16 127.245C300.497 130.204 294.318 128.823 291.359 124.16C288.399 119.497 289.78 113.317 294.444 110.358Z" fill="#00FF38"/>
<path d="M503.094 607.54L498.187 608.499L496.269 598.681L501.176 597.722L503.094 607.54Z" fill="black"/>
<path d="M402.219 183.844L399.663 179.547L408.26 174.433L410.816 178.73L402.219 183.844Z" fill="black"/>
<path d="M40.666 371.837L39.0254 367.114L48.4747 363.831L50.1153 368.555L40.666 371.837Z" fill="black"/>
<path d="M511.123 654.076L502.316 655.902L500.484 647.066L509.291 645.24L511.123 654.076Z" fill="white"/>
<path d="M507.465 636.468L498.658 638.294L496.826 629.458L505.633 627.632L507.465 636.468Z" fill="white"/>
<path d="M509.293 645.271L500.486 647.097L498.654 638.261L507.461 636.435L509.293 645.271Z" fill="black"/>
<path d="M505.639 627.664L496.831 629.49L495 620.654L503.807 618.828L505.639 627.664Z" fill="black"/>
<path d="M519.934 652.25L511.126 654.076L509.295 645.24L518.102 643.414L519.934 652.25Z" fill="black"/>
<path d="M516.275 634.643L507.468 636.469L505.636 627.633L514.444 625.807L516.275 634.643Z" fill="black"/>
<path d="M518.105 643.447L509.298 645.273L507.466 636.436L516.274 634.611L518.105 643.447Z" fill="white"/>
<path d="M514.447 625.84L505.64 627.666L503.808 618.829L512.616 617.004L514.447 625.84Z" fill="white"/>
<path d="M462.215 569.817L465.269 583.479L462.107 584.186C459.96 584.666 458.64 583.711 458.151 581.525L457.85 580.178C457.361 577.992 458.149 576.566 460.296 576.086L461.311 575.859L460.068 570.297L462.215 569.817ZM461.747 577.811L460.732 578.038C460.049 578.191 459.748 578.586 459.966 579.562L460.329 581.182C460.547 582.158 460.987 582.387 461.671 582.234L462.686 582.008L461.747 577.811ZM440.437 574.685L443.492 588.348L441.344 588.828L438.29 575.165L440.437 574.685ZM420.755 579.085L423.373 590.796L425.618 590.294L426.054 592.246L419.418 593.729L418.982 591.777L421.226 591.276L418.608 579.565L420.755 579.085ZM383.702 587.368L386.756 601.031L384.609 601.511L381.991 589.8L378.458 590.589L378.022 588.638L383.702 587.368ZM363.234 591.943L364.063 606.104L361.155 606.754L355.875 593.588L358.022 593.108L359.019 595.734L359.01 595.695L361.45 595.15L361.243 592.389L363.234 591.943ZM361.611 597.061L359.679 597.493L362.145 604.032L362.184 604.023L361.611 597.061ZM340.585 597.006L343.64 610.669L340.946 611.271L337.029 603.56L336.99 603.569L338.819 611.747L336.906 612.174L333.852 598.512L336.057 598.019L340.863 607.417L340.902 607.408L338.673 597.434L340.585 597.006ZM318.007 602.054L321.062 615.716L315.206 617.025L314.77 615.074L318.478 614.245L317.671 610.634L314.724 611.292L314.288 609.341L317.235 608.682L316.297 604.485L312.588 605.314L312.152 603.363L318.007 602.054Z" fill="#EFF0F7"/>
<defs>
<radialGradient id="paint0_radial_8497_987" cx="0" cy="0" r="1" gradientUnits="userSpaceOnUse" gradientTransform="translate(696.304 508.987) rotate(57.5087) scale(245.684 0.58439)">
<stop stop-color="#39FF65" stop-opacity="0.5"/>
<stop offset="1" stop-color="#00FF38"/>
</radialGradient>
<radialGradient id="paint1_radial_8497_987" cx="0" cy="0" r="1" gradientUnits="userSpaceOnUse" gradientTransform="translate(401.13 625.634) rotate(-12.8574) scale(208.835 98.2576)">
<stop stop-color="#39FF65" stop-opacity="0.5"/>
<stop offset="1" stop-color="#00FF38"/>
</radialGradient>
</defs>
</svg>
