<svg width="382" height="275" viewBox="0 0 382 275" fill="none" xmlns="http://www.w3.org/2000/svg">
<rect width="382" height="275" fill="white"/>
<path d="M283.5 95.3398C283.667 93.6731 285.1 90.1398 289.5 89.3398C293.9 88.5398 295.667 86.6731 296 85.8398C296.667 84.6731 299 82.6398 303 83.8398C304.2 84.2398 346.167 67.0065 367 58.3398C368 58.0065 369.4 56.3398 367 52.3398C365 47.5398 362.5 41.6732 361.5 39.3398C361.167 37.5065 360.6 33.0398 361 29.8398" stroke="#5B93FF" stroke-width="2"/>
<path d="M372.499 64.34L324.499 83.84C280.5 100.84 193.198 136.24 187.998 137.84C182.798 139.44 176.498 143.173 173.998 144.84C158.498 156.507 126.949 180.627 123.998 182.84C119 186.589 117 188.34 115.5 199.34C114.875 206.84 111.388 211.34 107.498 214.84C105.832 216.34 101.7 220.34 92.5 228.34C79 238.34 76.5 245.34 70 261.34C66 272.84 60.5 270.84 54 266.34C41.5015 259.34 18.4999 247.34 13.9985 244.84C9.92033 242.575 7 242.84 7.49991 236.84C7.83204 232.854 7.2984 221.64 6.4984 210.84C4.99991 196.34 7.1653 192.84 13.4984 173.84C17.4984 161.84 20.9985 159.84 28.9984 155.84C43.4984 147.84 61.9985 138.84 73.9984 135.84C82.4985 132.34 84.9984 135.34 84.9984 139.34C84.9984 140.952 85.7724 144.366 90.7137 144.829C92.2288 144.971 93.7656 144.868 95.2738 145.07C100.871 145.822 104.114 147.796 104.998 151.34C106.109 155.789 111 165.84 112.5 174.34C113.5 183.84 117.832 180.34 119.998 178.34L159.498 148.34C164.499 144.34 173.998 138.64 171.999 135.84C169.498 132.34 170.998 129.34 173.499 126.84C185.499 118.34 210.999 106.84 217.999 104.34C224.999 101.84 223.498 100.84 220.999 94.84L211.499 69.84C210.5 65.8398 206.5 63.3398 218 59.3398C254 42.3398 330.998 11.3401 346.499 6.33996C351.498 4.5546 354.335 3.83999 356.499 8.83996C361.333 20.0066 371.799 44.34 374.999 52.34C378.199 60.34 375.998 62.8401 372.499 64.34Z" fill="black" fill-opacity="0.1"/>
<path d="M372.499 64.34L324.499 83.84C280.5 100.84 193.198 136.24 187.998 137.84C182.798 139.44 176.498 143.173 173.998 144.84C158.498 156.507 126.949 180.627 123.998 182.84C119 186.589 117 188.34 115.5 199.34C114.875 206.84 111.388 211.34 107.498 214.84C105.832 216.34 101.7 220.34 92.5 228.34C79 238.34 76.5 245.34 70 261.34C66 272.84 60.5 270.84 54 266.34C41.5015 259.34 18.4999 247.34 13.9985 244.84C9.92033 242.575 7 242.84 7.49991 236.84C7.83204 232.854 7.2984 221.64 6.4984 210.84C4.99991 196.34 7.1653 192.84 13.4984 173.84C17.4984 161.84 20.9985 159.84 28.9984 155.84C43.4984 147.84 61.9985 138.84 73.9984 135.84C82.4985 132.34 84.9984 135.34 84.9984 139.34C84.9984 140.952 85.7724 144.366 90.7137 144.829C92.2288 144.971 93.7656 144.868 95.2738 145.07C100.871 145.822 104.114 147.796 104.998 151.34C106.109 155.789 111 165.84 112.5 174.34C113.5 183.84 117.832 180.34 119.998 178.34L159.498 148.34C164.499 144.34 173.998 138.64 171.999 135.84C169.498 132.34 170.998 129.34 173.499 126.84C185.499 118.34 210.999 106.84 217.999 104.34C224.999 101.84 223.498 100.84 220.999 94.84L211.499 69.84C210.5 65.8398 206.5 63.3398 218 59.3398C254 42.3398 330.998 11.3401 346.499 6.33996C351.498 4.5546 354.335 3.83999 356.499 8.83996C361.333 20.0066 371.799 44.34 374.999 52.34C378.199 60.34 375.998 62.8401 372.499 64.34Z" stroke="black" stroke-width="10"/>
<path d="M372.499 64.34L324.499 83.84C280.5 100.84 193.198 136.24 187.998 137.84C182.798 139.44 176.498 143.173 173.998 144.84C158.498 156.507 126.949 180.627 123.998 182.84C119 186.589 117 188.34 115.5 199.34C114.875 206.84 111.388 211.34 107.498 214.84C105.832 216.34 101.7 220.34 92.5 228.34C79 238.34 76.5 245.34 70 261.34C66 272.84 60.5 270.84 54 266.34C41.5015 259.34 18.4999 247.34 13.9985 244.84C9.92033 242.575 7 242.84 7.49991 236.84C7.83204 232.854 7.2984 221.64 6.4984 210.84C4.99991 196.34 7.1653 192.84 13.4984 173.84C17.4984 161.84 20.9985 159.84 28.9984 155.84C43.4984 147.84 61.9985 138.84 73.9984 135.84C82.4985 132.34 84.9984 135.34 84.9984 139.34C84.9984 140.952 85.7724 144.366 90.7137 144.829C92.2288 144.971 93.7656 144.868 95.2738 145.07C100.871 145.822 104.114 147.796 104.998 151.34C106.109 155.789 111 165.84 112.5 174.34C113.5 183.84 117.832 180.34 119.998 178.34L159.498 148.34C164.499 144.34 173.998 138.64 171.999 135.84C169.498 132.34 170.998 129.34 173.499 126.84C185.499 118.34 210.999 106.84 217.999 104.34C224.999 101.84 223.498 100.84 220.999 94.84L211.499 69.84C210.5 65.8398 206.5 63.3398 218 59.3398C254 42.3398 330.998 11.3401 346.499 6.33996C351.498 4.5546 354.335 3.83999 356.499 8.83996C361.333 20.0066 371.799 44.34 374.999 52.34C378.199 60.34 375.998 62.8401 372.499 64.34Z" stroke="white" stroke-width="2"/>
<path d="M372.498 64.3398L324.498 83.8398C299.061 93.668 259.151 109.646 228.999 121.688M346.498 6.33984C345.553 6.64481 344.379 7.04649 342.999 7.53581C321.758 15.0693 251.803 43.3766 217.999 59.3397C216.692 59.7942 215.586 60.2294 214.652 60.6495" stroke="url(#paint0_radial_8506_1315)" stroke-width="2"/>
<path d="M333.438 107.497L329.435 109.089L327.843 105.087L331.845 103.495L333.438 107.497Z" fill="white"/>
<path d="M330.26 99.522L326.257 101.114L324.665 97.1116L328.668 95.5195L330.26 99.522Z" fill="white"/>
<path d="M331.85 103.51L327.847 105.102L326.255 101.099L330.258 99.507L331.85 103.51Z" fill="black"/>
<path d="M328.672 95.5347L324.669 97.1268L323.077 93.1243L327.08 91.5322L328.672 95.5347Z" fill="black"/>
<path d="M337.439 105.905L333.437 107.497L331.845 103.495L335.847 101.903L337.439 105.905Z" fill="black"/>
<path d="M334.264 97.9304L330.261 99.5225L328.669 95.52L332.672 93.9279L334.264 97.9304Z" fill="black"/>
<path d="M335.852 101.918L331.849 103.51L330.257 99.5076L334.259 97.9155L335.852 101.918Z" fill="white"/>
<path d="M332.676 93.9431L328.673 95.5352L327.081 91.5327L331.084 89.9406L332.676 93.9431Z" fill="white"/>
<path fill-rule="evenodd" clip-rule="evenodd" d="M322.859 78.8551L327.114 88.2436L324.142 89.3242L319.888 79.9357L322.859 78.8551Z" fill="black"/>
<path fill-rule="evenodd" clip-rule="evenodd" d="M178.999 118.181L182.852 126.356L179.876 127.426L176.024 119.251L178.999 118.181Z" fill="black"/>
<path fill-rule="evenodd" clip-rule="evenodd" d="M59.3287 264.449L55.6968 272.724L52.9354 271.184L56.5672 262.909L59.3287 264.449Z" fill="black"/>
<circle cx="361" cy="18.8398" r="4" fill="#00FF38"/>
<circle cx="170" cy="147.84" r="4" fill="#00FF38"/>
<defs>
<radialGradient id="paint0_radial_8506_1315" cx="0" cy="0" r="1" gradientUnits="userSpaceOnUse" gradientTransform="translate(294 57.8399) rotate(141.028) scale(102.061 97.7073)">
<stop stop-color="#39FF65" stop-opacity="0.5"/>
<stop offset="1" stop-color="#008F20"/>
</radialGradient>
</defs>
</svg>
