<svg width="434" height="373" viewBox="0 0 434 373" fill="none" xmlns="http://www.w3.org/2000/svg">
<path d="M114.151 20.8735L10.3802 286.895C0.506877 314.094 7.17173 331.008 16.0945 343.751C25.0172 356.494 35.9667 363.502 51.7236 366.281C67.4805 369.059 84.0189 367.406 93.7218 367.086C103.425 366.766 110.926 364.534 115.415 359.233C122.458 351.539 121.427 340.493 120.075 335.685L110.423 286.766C107.524 271.531 102.887 248.881 100.684 238.339C99.3212 225.913 102.738 220.931 109.342 218.034C115.945 215.136 124.548 218.176 129.56 227.183C133.57 234.389 140.387 232.647 142.508 231.497C148.87 228.05 164.976 219.822 180.825 212.868C196.673 205.914 214.674 199.919 222.56 197.888C240.112 193.367 261.467 187.43 282.602 185.628C308.994 183.376 335.721 183.824 347.539 185.908C357.399 187.647 367.881 191.554 370.423 200.097C372.973 208.67 370.28 215.304 366.889 220.135C362.32 225.71 355.06 228.533 348.579 231.054L348.183 231.208C332.919 237.148 319.103 237.758 307.315 241.264C296.137 244.589 288.809 251.202 286.84 259.486C284.872 267.77 291.245 271.94 301.528 279.845C311.811 287.751 324.18 292.471 336.982 294.728C349.785 296.986 363.587 297.896 371.015 294.636C374.317 293.188 379.191 284.739 380.34 282.065C385.098 271.396 394.545 250.451 397.626 244.496C401.477 237.051 414.219 219.497 420.127 211.908C426.035 204.318 431.962 182.217 425.306 168.142C419.019 154.848 405.144 144.279 390.777 142.253C376.411 140.228 348.721 138.899 327.664 140.263C307.634 141.561 295.428 150.318 287.811 156.083C280.194 161.848 269.449 168.077 259.718 171.438C247.789 175.558 238.951 176.915 227.134 174.832C221.853 174.07 199.774 170.007 182.817 167.017C167.289 164.279 143.851 170.132 133.028 172.962L99.4603 184.813C94.0154 186.899 79.8808 186.438 77.3598 174.824C74.4951 161.626 86.548 156.304 93.7501 153.851C93.7501 153.851 100.191 152.448 112.982 145.565C125.772 138.681 127.785 130.279 125.925 115.353C124.064 100.427 126.731 90.6174 129.019 83.4051C133.447 66.9238 146.19 37.8559 147.809 34.424C150.463 28.7993 153.801 9.07944 136.654 5.54819C122.936 2.7232 116.525 13.1686 114.151 20.8735Z" fill="black" fill-opacity="0.1"/>
<path d="M114.151 20.8735L10.3802 286.895C0.506877 314.094 7.17173 331.008 16.0945 343.751C25.0172 356.494 35.9667 363.502 51.7236 366.281C67.4805 369.059 84.0189 367.406 93.7218 367.086C103.425 366.766 110.926 364.534 115.415 359.233C122.458 351.539 121.427 340.493 120.075 335.685L110.423 286.766C107.524 271.531 102.887 248.881 100.684 238.339C99.3212 225.913 102.738 220.931 109.342 218.034C115.945 215.136 124.548 218.176 129.56 227.183C133.57 234.389 140.387 232.647 142.508 231.497C148.87 228.05 164.976 219.822 180.825 212.868C196.673 205.914 214.674 199.919 222.56 197.888C240.112 193.367 261.467 187.43 282.602 185.628C308.994 183.376 335.721 183.824 347.539 185.908C357.399 187.647 367.881 191.554 370.423 200.097C372.973 208.67 370.28 215.304 366.889 220.135C362.32 225.71 355.06 228.533 348.579 231.054L348.183 231.208C332.919 237.148 319.103 237.758 307.315 241.264C296.137 244.589 288.809 251.202 286.84 259.486C284.872 267.77 291.245 271.94 301.528 279.845C311.811 287.751 324.18 292.471 336.982 294.728C349.785 296.986 363.587 297.896 371.015 294.636C374.317 293.188 379.191 284.739 380.34 282.065C385.098 271.396 394.545 250.451 397.626 244.496C401.477 237.051 414.219 219.497 420.127 211.908C426.035 204.318 431.962 182.217 425.306 168.142C419.019 154.848 405.144 144.279 390.777 142.253C376.411 140.228 348.721 138.899 327.664 140.263C307.634 141.561 295.428 150.318 287.811 156.083C280.194 161.848 269.449 168.077 259.718 171.438C247.789 175.558 238.951 176.915 227.134 174.832C221.853 174.07 199.774 170.007 182.817 167.017C167.289 164.279 143.851 170.132 133.028 172.962L99.4603 184.813C94.0154 186.899 79.8808 186.438 77.3598 174.824C74.4951 161.626 86.548 156.304 93.7501 153.851C93.7501 153.851 100.191 152.448 112.982 145.565C125.772 138.681 127.785 130.279 125.925 115.353C124.064 100.427 126.731 90.6174 129.019 83.4051C133.447 66.9238 146.19 37.8559 147.809 34.424C150.463 28.7993 153.801 9.07944 136.654 5.54819C122.936 2.7232 116.525 13.1686 114.151 20.8735Z" stroke="black" stroke-width="10"/>
<path d="M40.6969 209.991L64.2394 171.495C66.5944 165.817 73.5047 147.743 73.5047 147.743L91.4262 95.0542L101.181 54.1264" stroke="#5B93FF" stroke-width="2"/>
<path d="M114.151 20.8735L10.3802 286.895C0.506877 314.094 7.17173 331.008 16.0945 343.751C25.0172 356.494 35.9667 363.502 51.7236 366.281C67.4805 369.059 84.0189 367.406 93.7218 367.086C103.425 366.766 110.926 364.534 115.415 359.233C122.458 351.539 121.427 340.493 120.075 335.685L110.423 286.766C107.524 271.531 102.887 248.881 100.684 238.339C99.3212 225.913 102.738 220.931 109.342 218.034C115.945 215.136 124.548 218.176 129.56 227.183C133.57 234.389 140.387 232.647 142.508 231.497C148.87 228.05 164.976 219.822 180.825 212.868C196.673 205.914 214.674 199.919 222.56 197.888C240.112 193.367 261.467 187.43 282.602 185.628C308.994 183.376 335.721 183.824 347.539 185.908C357.399 187.647 367.881 191.554 370.423 200.097C372.973 208.67 370.28 215.304 366.889 220.135C362.32 225.71 355.06 228.533 348.579 231.054L348.183 231.208C332.919 237.148 319.103 237.758 307.315 241.264C296.137 244.589 288.809 251.202 286.84 259.486C284.872 267.77 291.245 271.94 301.528 279.845C311.811 287.751 324.18 292.471 336.982 294.728C349.785 296.986 363.587 297.896 371.015 294.636C374.317 293.188 379.191 284.739 380.34 282.065C385.098 271.396 394.545 250.451 397.626 244.496C401.477 237.051 414.219 219.497 420.127 211.908C426.035 204.318 431.962 182.217 425.306 168.142C419.019 154.848 405.144 144.279 390.777 142.253C376.411 140.228 348.721 138.899 327.664 140.263C307.634 141.561 295.428 150.318 287.811 156.083C280.194 161.848 269.449 168.077 259.718 171.438C247.789 175.558 238.951 176.915 227.134 174.832C221.853 174.07 199.774 170.007 182.817 167.017C167.289 164.279 143.851 170.132 133.028 172.962L99.4603 184.813C94.0154 186.899 79.8808 186.438 77.3598 174.824C74.4951 161.626 86.548 156.304 93.7501 153.851C93.7501 153.851 100.191 152.448 112.982 145.565C125.772 138.681 127.785 130.279 125.925 115.353C124.064 100.427 126.731 90.6174 129.019 83.4051C133.447 66.9238 146.19 37.8559 147.809 34.424C150.463 28.7993 153.801 9.07944 136.654 5.54819C122.936 2.7232 116.525 13.1686 114.151 20.8735Z" stroke="white" stroke-width="2"/>
<path d="M74.803 367.848C67.5361 367.946 59.5336 367.658 51.723 366.281C35.9661 363.502 25.0166 356.494 16.0939 343.751C7.17112 331.008 0.506276 314.094 10.3796 286.895L114.151 20.8735C114.964 18.2338 116.251 15.2724 118.144 12.6332" stroke="url(#paint0_radial_8507_1395)" stroke-width="2"/>
<path d="M335.581 184.634C321.861 183.774 302.14 183.961 282.603 185.628C261.468 187.43 240.113 193.367 222.561 197.888C214.675 199.919 196.674 205.914 180.826 212.868C169.347 217.905 157.733 223.61 149.783 227.683" stroke="url(#paint1_radial_8507_1395)" stroke-width="2"/>
<path d="M339.48 142.347L339.943 136.844" stroke="black" stroke-width="2"/>
<path d="M190.617 212.056L188.039 206.524" stroke="black" stroke-width="2"/>
<path d="M68.8398 145.397L62.6991 142.791" stroke="black" stroke-width="2"/>
<path d="M60.3398 141.672L58.6094 145.617L54.6647 143.886L56.3952 139.942L60.3398 141.672Z" fill="white"/>
<path d="M52.4766 138.228L50.7461 142.173L46.8015 140.442L48.5319 136.498L52.4766 138.228Z" fill="white"/>
<path d="M56.4062 139.95L54.6758 143.894L50.7312 142.164L52.4616 138.219L56.4062 139.95Z" fill="black"/>
<path d="M48.5469 136.506L46.8164 140.45L42.8718 138.72L44.6023 134.775L48.5469 136.506Z" fill="black"/>
<path d="M62.0703 137.729L60.3398 141.674L56.3952 139.943L58.1257 135.998L62.0703 137.729Z" fill="black"/>
<path d="M54.207 134.283L52.4766 138.228L48.5319 136.497L50.2624 132.553L54.207 134.283Z" fill="black"/>
<path d="M58.1367 136.006L56.4062 139.951L52.4616 138.22L54.1921 134.276L58.1367 136.006Z" fill="white"/>
<path d="M50.2773 132.561L48.5469 136.505L44.6022 134.775L46.3327 130.83L50.2773 132.561Z" fill="white"/>
<path d="M371.124 219.876C369.081 220.718 366.743 219.745 365.901 217.702C365.06 215.66 366.033 213.322 368.075 212.48C370.118 211.638 372.456 212.611 373.298 214.654C374.14 216.696 373.166 219.035 371.124 219.876Z" fill="#00FF38"/>
<path d="M103.21 247.777C101.167 248.619 98.8291 247.646 97.9873 245.603C97.1455 243.561 98.1187 241.223 100.161 240.381C102.204 239.539 104.542 240.512 105.384 242.555C106.225 244.597 105.252 246.935 103.21 247.777Z" fill="#00FF38"/>
<defs>
<radialGradient id="paint0_radial_8507_1395" cx="0" cy="0" r="1" gradientUnits="userSpaceOnUse" gradientTransform="translate(66.8847 186.407) rotate(-67.7551) scale(185.321 57.3291)">
<stop stop-color="#39FF65" stop-opacity="0.5"/>
<stop offset="1" stop-color="#00FF38"/>
</radialGradient>
<radialGradient id="paint1_radial_8507_1395" cx="0" cy="0" r="1" gradientUnits="userSpaceOnUse" gradientTransform="translate(242.964 206.236) rotate(-13.2515) scale(95.1906 51.5315)">
<stop stop-color="#39FF65" stop-opacity="0.5"/>
<stop offset="1" stop-color="#00FF38"/>
</radialGradient>
</defs>
</svg>
