<svg width="486" height="254" viewBox="0 0 486 254" fill="none" xmlns="http://www.w3.org/2000/svg">
<g clip-path="url(#clip0_8494_1215)">
<path d="M403.761 25.9223L455.112 6.39466C464.437 1.29029 470.494 5.10667 473.343 10.4105L480.014 25.6341C483.709 34.4428 477.936 37.1202 474.087 38.9052L450.868 48.504C441.668 51.5235 429.628 62.1295 422.238 69.9655C417.014 75.5063 405.109 87.6525 394.064 97.4513C376.386 112.275 371.083 115.124 351.713 122.938L326.569 133.429C325.287 134.024 318.528 137.938 317.133 131.57C315.865 125.78 308.087 127.191 304.927 127.098L219.317 128.218C207.44 128.659 204.107 129.036 193.012 124.438C183.027 119.716 180.026 130.331 175.083 137.04C167.669 147.104 169.522 152.22 170.425 155.569C170.916 158.588 173.136 168.809 177.397 187.41C183.538 209.895 179.986 212.321 170.792 234.512C167.344 242.834 160.031 250.805 135.101 243.27C109.53 236.032 86.7687 239.053 74.1049 241.159C63.1363 242.998 36.9267 246.71 17.6965 249.782C-1.78533 250.633 3.71864 235.609 10.352 230.584C20.8804 222.194 37.9631 206.088 47.3346 199.403C59.7412 191.701 56.5943 185.756 53.7916 178.871C51.5497 173.363 52.2375 167.124 53.4431 163.833C64.06 136.306 85.9682 85.225 89.1108 75.193C92.5504 65.804 95.9763 62.2667 102.391 59.2909L115.221 53.3411C127.065 48.6285 126.793 43.5578 127.642 39.7864C129.845 29.412 133.773 30.3185 136.808 29.3005C153.222 25.196 175.362 19.9946 202.448 18.7345C223.034 17.7769 239.612 19.0375 264.416 25.4617C287.274 31.3821 302.161 32.4599 312.285 32.8803C325.398 33.4248 349.587 32.8071 366.537 33.0527C383.487 33.2982 398.416 28.4014 403.761 25.9223Z" fill="black" fill-opacity="0.2"/>
<path d="M406.546 22.6829L393.452 24.8642C388.201 25.7389 382.889 26.193 377.565 26.2221L310.885 26.5861C306.256 26.6114 301.632 26.2347 297.068 25.4604L249.783 17.4385C238.965 15.9603 214.559 13.5866 203.48 15.9182" stroke="#FF8A00" stroke-width="2"/>
<path d="M403.761 25.9223L455.112 6.39466C464.437 1.29029 470.494 5.10667 473.343 10.4105L480.014 25.6341C483.709 34.4428 477.936 37.1202 474.087 38.9052L450.868 48.504C441.668 51.5235 429.628 62.1295 422.238 69.9655C417.014 75.5063 405.109 87.6525 394.064 97.4513C376.386 112.275 371.083 115.124 351.713 122.938L326.569 133.429C325.287 134.024 318.528 137.938 317.133 131.57C315.865 125.78 308.087 127.191 304.927 127.098L219.317 128.218C207.44 128.659 204.107 129.036 193.012 124.438C183.027 119.716 180.026 130.331 175.083 137.04C167.669 147.104 169.522 152.22 170.425 155.569C170.916 158.588 173.136 168.809 177.397 187.41C183.538 209.895 179.986 212.321 170.792 234.512C167.344 242.834 160.031 250.805 135.101 243.27C109.53 236.032 86.7687 239.053 74.1049 241.159C63.1363 242.998 36.9267 246.71 17.6965 249.782C-1.78533 250.633 3.71864 235.609 10.352 230.584C20.8804 222.194 37.9631 206.088 47.3346 199.403C59.7412 191.701 56.5943 185.756 53.7916 178.871C51.5497 173.363 52.2375 167.124 53.4431 163.833C64.06 136.306 85.9682 85.225 89.1108 75.193C92.5504 65.804 95.9763 62.2667 102.391 59.2909L115.221 53.3411C127.065 48.6285 126.793 43.5578 127.642 39.7864C129.845 29.412 133.773 30.3185 136.808 29.3005C153.222 25.196 175.362 19.9946 202.448 18.7345C223.034 17.7769 239.612 19.0375 264.416 25.4617C287.274 31.3821 302.161 32.4599 312.285 32.8803C325.398 33.4248 349.587 32.8071 366.537 33.0527C383.487 33.2982 398.416 28.4014 403.761 25.9223Z" stroke="black" stroke-width="8"/>
<path d="M403.761 25.9223L455.112 6.39466C464.437 1.29029 470.494 5.10667 473.343 10.4105L480.014 25.6341C483.709 34.4428 477.936 37.1202 474.087 38.9052L450.868 48.504C441.668 51.5235 429.628 62.1295 422.238 69.9655C417.014 75.5063 405.109 87.6525 394.064 97.4513C376.386 112.275 371.083 115.124 351.713 122.938L326.569 133.429C325.287 134.024 318.528 137.938 317.133 131.57C315.865 125.78 308.087 127.191 304.927 127.098L219.317 128.218C207.44 128.659 204.107 129.036 193.012 124.438C183.027 119.716 180.026 130.331 175.083 137.04C167.669 147.104 169.522 152.22 170.425 155.569C170.916 158.588 173.136 168.809 177.397 187.41C183.538 209.895 179.986 212.321 170.792 234.512C167.344 242.834 160.031 250.805 135.101 243.27C109.53 236.032 86.7687 239.053 74.1049 241.159C63.1363 242.998 36.9267 246.71 17.6965 249.782C-1.78533 250.633 3.71864 235.609 10.352 230.584C20.8804 222.194 37.9631 206.088 47.3346 199.403C59.7412 191.701 56.5943 185.756 53.7916 178.871C51.5497 173.363 52.2375 167.124 53.4431 163.833C64.06 136.306 85.9682 85.225 89.1108 75.193C92.5504 65.804 95.9763 62.2667 102.391 59.2909L115.221 53.3411C127.065 48.6285 126.793 43.5578 127.642 39.7864C129.845 29.412 133.773 30.3185 136.808 29.3005C153.222 25.196 175.362 19.9946 202.448 18.7345C223.034 17.7769 239.612 19.0375 264.416 25.4617C287.274 31.3821 302.161 32.4599 312.285 32.8803C325.398 33.4248 349.587 32.8071 366.537 33.0527C383.487 33.2982 398.416 28.4014 403.761 25.9223Z" stroke="white" stroke-width="2"/>
<path d="M401.044 27.0581C394.287 29.6468 381.164 33.265 366.536 33.0531C349.586 32.8076 325.398 33.4253 312.285 32.8808C302.161 32.4604 287.274 31.3825 264.415 25.4622C239.611 19.0379 223.033 17.7773 202.448 18.735C175.361 19.9951 153.221 25.1965 136.807 29.3009C135.502 29.7386 134.032 29.8205 132.605 30.5962" stroke="url(#paint0_radial_8494_1215)" stroke-width="2"/>
<circle cx="476.823" cy="37.2468" r="3" transform="rotate(-69.88 476.823 37.2468)" fill="#00FF38"/>
<path d="M365.213 22.9534L360.932 22.4779L361.407 18.1968L365.688 18.6722L365.213 22.9534Z" fill="white"/>
<path d="M366.156 14.4207L361.875 13.9452L362.35 9.66405L366.632 10.1395L366.156 14.4207Z" fill="white"/>
<path d="M365.686 18.6868L361.404 18.2113L361.88 13.9302L366.161 14.4056L365.686 18.6868Z" fill="black"/>
<path d="M366.629 10.1548L362.348 9.67936L362.823 5.39818L367.104 5.8736L366.629 10.1548Z" fill="black"/>
<path d="M369.494 23.4287L365.213 22.9533L365.688 18.6721L369.97 19.1475L369.494 23.4287Z" fill="black"/>
<path d="M370.438 14.8967L366.156 14.4213L366.632 10.1401L370.913 10.6155L370.438 14.8967Z" fill="black"/>
<path d="M369.967 19.1626L365.686 18.6872L366.161 14.406L370.442 14.8814L369.967 19.1626Z" fill="white"/>
<path d="M370.91 10.6306L366.629 10.1552L367.104 5.87401L371.386 6.34943L370.91 10.6306Z" fill="white"/>
<path fill-rule="evenodd" clip-rule="evenodd" d="M365.862 29.0787L365.628 37.0341L364.048 36.9882L364.281 29.0322L365.862 29.0787Z" fill="black"/>
<path fill-rule="evenodd" clip-rule="evenodd" d="M266.706 123.693L266.472 131.649L264.891 131.603L265.125 123.647L266.706 123.693Z" fill="black"/>
<path fill-rule="evenodd" clip-rule="evenodd" d="M23.6514 214.013L28.4838 220.336L27.2277 221.297L22.395 214.973L23.6514 214.013Z" fill="black"/>
</g>
<defs>
<radialGradient id="paint0_radial_8494_1215" cx="0" cy="0" r="1" gradientUnits="userSpaceOnUse" gradientTransform="translate(266.685 28.9446) rotate(40.8056) scale(134.957 66.5656)">
<stop stop-color="#39FF65" stop-opacity="0.5"/>
<stop offset="1" stop-color="#00FF38"/>
</radialGradient>
<clipPath id="clip0_8494_1215">
<rect width="486" height="254" fill="white"/>
</clipPath>
</defs>
</svg>
