<svg width="281" height="473" viewBox="0 0 281 473" fill="none" xmlns="http://www.w3.org/2000/svg">
<g clip-path="url(#clip0_8514_961)">
<path opacity="0.1" d="M6.36802 51.6786L77.0962 301.254L99.9395 381.704C110.454 419.4 115.057 446.896 142.186 459.702C184.688 479.766 212.98 454.971 224.734 440.614L251.091 409.376C274.623 381.781 269.812 376.746 266.394 364.074C257.399 342.135 241.374 345.628 233.965 354.295L200.2 394.199C187.517 407.011 175.421 396.325 178.258 383.288L184.959 343.325C187.756 318.659 197.187 310.394 218.536 304.99L263.847 290.993C275.401 287.601 277.51 281.962 274.859 273.522L271.944 263.3C268.338 252.198 259.509 247.477 247.727 240.81L205.174 218.511C187.541 210.187 182.05 194.878 180.868 182.156L166.863 77.1266C163.558 59.5319 149.504 61.1916 143.854 68.4765L125.332 90.1433C114.407 101.574 116.393 110.252 120.878 120.662L144.243 164.867C154.042 182.762 154.96 193.701 153.342 211.183L146.995 266.795C144.436 288.146 132.956 278.967 131.021 272.525L76.5893 80.9567C70.9726 60.0593 79.9765 52.6985 90.7889 46.1915L110.442 35.0112C126.102 25.2634 116.531 17.4279 107.777 16.0601C98.3325 13.8133 80.0284 9.48543 70.6641 6.83424C61.2997 4.18304 53.8726 6.09552 49.4773 9.54977C39.205 16.8647 17.519 32.6375 11.6282 37.0215C4.80936 42.0963 4.21948 45.6882 6.36802 51.6786Z" fill="black" stroke="black" stroke-width="16"/>
<path d="M6.36802 51.6786L77.0962 301.254L99.9395 381.704C110.454 419.4 115.057 446.896 142.186 459.702C184.688 479.766 212.98 454.971 224.734 440.614L251.091 409.376C274.623 381.781 269.812 376.746 266.394 364.074C257.399 342.135 241.374 345.628 233.965 354.295L200.2 394.199C187.517 407.011 175.421 396.325 178.258 383.288L184.959 343.325C187.756 318.659 197.187 310.394 218.536 304.99L263.847 290.993C275.401 287.601 277.51 281.962 274.859 273.522L271.944 263.3C268.338 252.198 259.509 247.477 247.727 240.81L205.174 218.511C187.541 210.187 182.05 194.878 180.868 182.156L166.863 77.1266C163.558 59.5319 149.504 61.1916 143.854 68.4765L125.332 90.1433C114.407 101.574 116.393 110.252 120.878 120.662L144.243 164.867C154.042 182.762 154.96 193.701 153.342 211.183L146.995 266.795C144.436 288.146 132.956 278.967 131.021 272.525L76.5893 80.9567C70.9726 60.0593 79.9765 52.6985 90.7889 46.1915L110.442 35.0112C126.102 25.2634 116.531 17.4279 107.777 16.0601C98.3325 13.8133 80.0284 9.48543 70.6641 6.83424C61.2997 4.18304 53.8726 6.09552 49.4773 9.54977C39.205 16.8647 17.519 32.6375 11.6282 37.0215C4.80936 42.0963 4.21948 45.6882 6.36802 51.6786Z" stroke="black" stroke-width="10"/>
<path d="M6.36802 51.6786L77.0962 301.254L99.9395 381.704C110.454 419.4 115.057 446.896 142.186 459.702C184.688 479.766 212.98 454.971 224.734 440.614L251.091 409.376C274.623 381.781 269.812 376.746 266.394 364.074C257.399 342.135 241.374 345.628 233.965 354.295L200.2 394.199C187.517 407.011 175.421 396.325 178.258 383.288L184.959 343.325C187.756 318.659 197.187 310.394 218.536 304.99L263.847 290.993C275.401 287.601 277.51 281.962 274.859 273.522L271.944 263.3C268.338 252.198 259.509 247.477 247.727 240.81L205.174 218.511C187.541 210.187 182.05 194.878 180.868 182.156L166.863 77.1266C163.558 59.5319 149.504 61.1916 143.854 68.4765L125.332 90.1433C114.407 101.574 116.393 110.252 120.878 120.662L144.243 164.867C154.042 182.762 154.96 193.701 153.342 211.183L146.995 266.795C144.436 288.146 132.956 278.967 131.021 272.525L76.5893 80.9567C70.9726 60.0593 79.9765 52.6985 90.7889 46.1915L110.442 35.0112C126.102 25.2634 116.531 17.4279 107.777 16.0601C98.3325 13.8133 80.0284 9.48543 70.6641 6.83424C61.2997 4.18304 53.8726 6.09552 49.4773 9.54977C39.205 16.8647 17.519 32.6375 11.6282 37.0215C4.80936 42.0963 4.21948 45.6882 6.36802 51.6786Z" stroke="white" stroke-width="2"/>
<path d="M84.7786 328.315L77.0949 301.255L6.36671 51.6791C5.4661 49.168 5.04665 47.0784 5.36545 45.1244M82.5755 102.03L131.019 272.525C131.569 274.355 132.889 276.407 134.557 277.916" stroke="url(#paint0_radial_8514_961)" stroke-width="2"/>
<circle cx="191.731" cy="464.845" r="4" transform="rotate(-64.73 191.731 464.845)" fill="#00FF38"/>
<circle cx="95.4224" cy="43.4028" r="4" transform="rotate(-64.73 95.4224 43.4028)" fill="#00FF38"/>
<path d="M52.6504 309.372L51.4443 305.236L55.5794 304.03L56.7856 308.165L52.6504 309.372Z" fill="white"/>
<path d="M60.8926 306.964L59.6864 302.829L63.8216 301.623L65.0278 305.758L60.8926 306.964Z" fill="white"/>
<path d="M56.7715 308.168L55.5654 304.033L59.7005 302.826L60.9067 306.962L56.7715 308.168Z" fill="black"/>
<path d="M65.0117 305.76L63.8056 301.625L67.9408 300.419L69.1469 304.554L65.0117 305.76Z" fill="black"/>
<path d="M53.8574 313.507L52.6513 309.371L56.7865 308.165L57.9926 312.3L53.8574 313.507Z" fill="black"/>
<path d="M62.0977 311.099L60.8915 306.964L65.0267 305.758L66.2328 309.893L62.0977 311.099Z" fill="black"/>
<path d="M57.9785 312.303L56.7724 308.168L60.9076 306.962L62.1137 311.097L57.9785 312.303Z" fill="white"/>
<path d="M66.2168 309.896L65.0107 305.76L69.1459 304.554L70.352 308.689L66.2168 309.896Z" fill="white"/>
<path fill-rule="evenodd" clip-rule="evenodd" d="M82.1655 301.551L72.9111 304.729L72.1166 301.668L81.3709 298.49L82.1655 301.551Z" fill="black"/>
<path fill-rule="evenodd" clip-rule="evenodd" d="M108.333 174.587L99.079 177.764L98.2846 174.703L107.539 171.526L108.333 174.587Z" fill="black"/>
<path fill-rule="evenodd" clip-rule="evenodd" d="M242.28 302.675L238.835 293.517L241.872 292.634L245.316 301.792L242.28 302.675Z" fill="black"/>
</g>
<defs>
<radialGradient id="paint0_radial_8514_961" cx="0" cy="0" r="1" gradientUnits="userSpaceOnUse" gradientTransform="translate(55.3783 191.479) rotate(78.3176) scale(138.9 109.029)">
<stop stop-color="#39FF65" stop-opacity="0.5"/>
<stop offset="1" stop-color="#00FF38"/>
</radialGradient>
<clipPath id="clip0_8514_961">
<rect width="281" height="473" fill="white"/>
</clipPath>
</defs>
</svg>
