<svg width="139" height="530" viewBox="0 0 139 530" fill="none" xmlns="http://www.w3.org/2000/svg">
<g clip-path="url(#clip0_8515_1066)">
<path d="M72.1451 333.861C73.8292 337.524 88.6942 375.194 100.714 406.527C112.733 437.861 105.81 418.967 108.785 427.048C112.698 437.678 115.664 444.938 118.016 454.544C120.995 466.713 126.835 494.653 132.699 510.523C137.097 522.426 126.996 527.958 119.559 522.027L90.6794 501.381C68.076 483.994 59.8888 462.775 51.2982 432.664C45.0455 407.66 57.9746 390.725 64.9798 374.836C69.9247 363.62 68.0909 358.491 66.3833 353.098C64.8739 348.331 63.0166 341.472 57.8448 338.39C52.673 335.307 45.8236 332.254 49.1332 320.484C54.3134 302.061 49.7904 274.857 41.8906 261.834C34.7455 251.195 30.864 249.746 26.7886 235.673C23.422 224.047 24.3168 215.057 24.1262 206.726C23.8593 195.062 17.3929 183.474 12.9203 175.974C9.34218 169.974 9.31999 167.254 7.05594 160.104C4.7919 152.954 4.98455 145.917 5.02888 141.445C5.08938 135.342 7.65114 124.881 17.4164 123.257C25.0891 121.982 26.6036 113.845 26.0237 110.357C25.1048 104.83 25.4123 100.78 31.1468 89.4347C37.5364 76.7931 35.9219 66.4196 35.4008 61.1301C34.8798 55.8406 33.3133 48.5746 26.5161 40.0277C20.768 32.8 18.108 25.7837 18.3859 21.3086C19.8481 -2.23112 42.107 4.46187 42.1021 17.3654C43.3974 47.1786 52.187 90.9541 45.4386 106.412C42.0064 113.793 41.0344 122.317 41.1879 126.115C41.3414 129.912 39.0331 136.867 32.2898 139.422C18.9779 143.427 20.3326 153.23 21.2368 163.481C21.8344 170.255 21.1748 173.885 29.0778 178.305C33.9652 181.039 36.8165 186.911 37.5591 190.515C38.7967 196.521 41.3325 202.431 36.6801 208.94C32.2798 215.095 31.3284 219.865 31.8495 225.154C32.2712 229.435 33.0076 236.431 43.526 241.492C50.906 243.109 51.1612 246.232 51.5344 250.8L51.5434 250.911C52.2376 259.397 57.6347 281.079 57.6347 281.079C62.0083 300.109 61.4031 305.9 58.9592 312.757C52.8512 325.6 58.0801 331.182 63.0217 328.569C68.4289 324.444 69.997 327.409 72.1451 333.861Z" stroke="black" stroke-width="10"/>
<path d="M109.655 430.129L99.429 420.36L66.1575 334.498C63.9506 329.848 57.6156 328.392 57.6156 328.392" stroke="#008FDF" stroke-width="2"/>
<path d="M72.1451 333.861C73.8292 337.524 88.6942 375.194 100.714 406.527C112.733 437.861 106.648 421.095 108.785 427.048C110.921 433.001 115.664 444.938 118.016 454.544C120.995 466.713 126.835 494.653 132.699 510.523C137.097 522.426 126.996 527.958 119.559 522.027L90.6794 501.381C68.076 483.994 59.8888 462.775 51.2982 432.664C45.0455 407.66 57.9746 390.725 64.9798 374.836C69.9247 363.62 68.0909 358.491 66.3833 353.098C64.8739 348.331 63.0166 341.472 57.8448 338.39C52.673 335.307 45.8236 332.254 49.1332 320.484C54.3134 302.061 49.7904 274.857 41.8906 261.834C34.7455 251.195 30.864 249.746 26.7886 235.673C23.422 224.047 24.3168 215.057 24.1262 206.726C23.8593 195.062 17.3929 183.474 12.9203 175.974C9.34218 169.974 9.31999 167.254 7.05594 160.104C4.7919 152.954 4.98455 145.917 5.02888 141.445C5.08938 135.342 7.65114 124.881 17.4164 123.257C25.0891 121.982 26.6036 113.845 26.0237 110.357C25.1048 104.83 25.4123 100.78 31.1468 89.4347C37.5364 76.7931 35.9219 66.4196 35.4008 61.1301C34.8798 55.8406 33.3133 48.5746 26.5161 40.0277C20.768 32.8 18.108 25.7837 18.3859 21.3086C19.8481 -2.23112 42.107 4.46187 42.1021 17.3654C43.3974 47.1786 52.187 90.9541 45.4386 106.412C42.0064 113.793 41.0344 122.317 41.1879 126.115C41.3414 129.912 39.0331 136.867 32.2898 139.422C18.9779 143.427 20.3326 153.23 21.2368 163.481C21.8344 170.255 21.1748 173.885 29.0778 178.305C33.9652 181.039 36.8165 186.911 37.5591 190.515C38.7967 196.521 41.3325 202.431 36.6801 208.94C32.2798 215.095 31.3284 219.865 31.8495 225.154C32.2712 229.435 33.0076 236.431 43.526 241.492C50.906 243.109 51.1612 246.232 51.5344 250.8L51.5434 250.911C52.2376 259.397 57.6347 281.079 57.6347 281.079C62.0083 300.109 61.4031 305.9 58.9592 312.757C52.8512 325.6 58.0801 331.182 63.0217 328.569C68.4289 324.444 69.997 327.409 72.1451 333.861Z" stroke="white" stroke-width="2"/>
<path d="M119.56 522.026L90.6802 501.381C68.0767 483.993 59.8896 462.775 51.299 432.664C47.6685 418.146 50.5045 406.349 54.893 395.897" stroke="url(#paint0_radial_8515_1066)" stroke-width="2"/>
<path d="M49.134 320.484C54.3142 302.061 49.7912 274.857 41.8914 261.834C34.7463 251.195 30.8648 249.746 26.7893 235.672C24.321 227.148 24.1434 220.041 24.1493 213.572" stroke="url(#paint1_radial_8515_1066)" stroke-width="2"/>
<path d="M121.978 471.513C120.397 464.75 119.039 458.719 118.017 454.544C115.665 444.938 110.922 433.001 108.786 427.048C106.649 421.095 112.734 437.861 100.714 406.527C88.6949 375.194 73.83 337.524 72.1458 333.861C71.6382 332.337 71.1629 331.006 70.6618 329.919" stroke="url(#paint2_radial_8515_1066)" stroke-width="2"/>
<path d="M110.939 415.505L109.15 411.587L113.069 409.798L114.858 413.716L110.939 415.505Z" fill="white"/>
<path d="M118.748 411.936L116.959 408.018L120.877 406.229L122.666 410.147L118.748 411.936Z" fill="white"/>
<path d="M114.844 413.721L113.055 409.802L116.973 408.013L118.762 411.932L114.844 413.721Z" fill="black"/>
<path d="M122.65 410.152L120.861 406.233L124.78 404.444L126.569 408.363L122.65 410.152Z" fill="black"/>
<path d="M112.729 419.424L110.939 415.505L114.858 413.716L116.647 417.634L112.729 419.424Z" fill="black"/>
<path d="M120.535 415.855L118.746 411.936L122.664 410.147L124.454 414.066L120.535 415.855Z" fill="black"/>
<path d="M116.633 417.639L114.844 413.721L118.762 411.932L120.551 415.85L116.633 417.639Z" fill="white"/>
<path d="M124.439 414.07L122.65 410.152L126.569 408.363L128.358 412.281L124.439 414.07Z" fill="white"/>
<circle cx="131.945" cy="508.14" r="4" transform="rotate(-54.44 131.945 508.14)" fill="#00FF38"/>
<circle cx="5.6115" cy="136.33" r="4" transform="rotate(-54.44 5.6115 136.33)" fill="#00FF38"/>
<circle cx="48.549" cy="325.598" r="4" transform="rotate(-54.44 48.549 325.598)" fill="#00FF38"/>
<path d="M102.104 419.199L108.44 416.353" stroke="black" stroke-width="2"/>
<path d="M47.9785 300.605L54.0815 300.665" stroke="black" stroke-width="2"/>
<path d="M43.5352 66.9456L49.5222 66.3085" stroke="black" stroke-width="2"/>
</g>
<defs>
<radialGradient id="paint0_radial_8515_1066" cx="0" cy="0" r="1" gradientUnits="userSpaceOnUse" gradientTransform="translate(87.1264 459.023) rotate(62.6237) scale(71.1952 43.0529)">
<stop stop-color="#39FF65" stop-opacity="0.5"/>
<stop offset="1" stop-color="#00FF38"/>
</radialGradient>
<radialGradient id="paint1_radial_8515_1066" cx="0" cy="0" r="1" gradientUnits="userSpaceOnUse" gradientTransform="translate(36.5475 267.108) rotate(76.5632) scale(55.0245 40.664)">
<stop stop-color="#39FF65" stop-opacity="0.5"/>
<stop offset="1" stop-color="#00FF38"/>
</radialGradient>
<radialGradient id="paint2_radial_8515_1066" cx="0" cy="0" r="1" gradientUnits="userSpaceOnUse" gradientTransform="translate(96.2011 400.804) rotate(69.8122) scale(75.5651 52.4695)">
<stop stop-color="#39FF65" stop-opacity="0.5"/>
<stop offset="1" stop-color="#00FF38"/>
</radialGradient>
<clipPath id="clip0_8515_1066">
<rect width="139" height="530" fill="white"/>
</clipPath>
</defs>
</svg>
