<svg width="264" height="384" viewBox="0 0 264 384" fill="none" xmlns="http://www.w3.org/2000/svg">
<g clip-path="url(#clip0_8458_7166)">
<path d="M34.1808 14.1203C21.6808 -1.87896 19.1808 6.62099 19.1808 13.6212L9.18083 232.621L6.18083 292.621L5.18085 346.12C4.68083 356.62 6.68083 361.12 11.6808 371.12C16.6809 383.121 21.6808 378.62 29.1808 374.12L215.181 271.62C244.681 256.621 225.181 239.621 211.181 232.12L188.681 221.12C154.181 205.621 135.181 230.121 129.681 251.62C116.181 293.621 67.6809 296.121 69.6808 272.12C72.1809 209.121 73.681 128.622 81.6809 69.6211C84.181 55.6219 84.6809 59.1211 91.6809 63.6211L98.6808 69.1203C108.281 77.1203 107.681 91.787 106.181 98.1203C104.514 108.287 99.8808 136.42 94.6808 167.62C89.3474 199.621 101.264 194.121 106.681 187.62C113.348 179.62 128.881 160.62 137.681 148.62C149.414 132.621 156.681 135.533 172.681 137.62C184.181 139.12 191.681 138.621 197.181 123.62C202.181 107.621 226.181 85.6211 243.681 73.1203C267.181 58.6211 258.681 48.6211 250.681 46.6211C212.181 39.1211 129.281 23.0203 107.681 18.6203C80.1808 13.621 74.6808 14.621 55.6808 21.6203C49.6808 24.121 47.1808 27.621 34.1808 14.1203Z" fill="black" fill-opacity="0.2"/>
<path d="M7.18164 289.121L15.6816 248.621L22.1816 125.121L17.6816 37.1211" stroke="#008FDF" stroke-width="2"/>
<path d="M34.1808 14.1203C21.6808 -1.87896 19.1808 6.62099 19.1808 13.6212L9.18083 232.621L6.18083 292.621L5.18085 346.12C4.68083 356.62 6.68083 361.12 11.6808 371.12C16.6809 383.121 21.6808 378.62 29.1808 374.12L215.181 271.62C244.681 256.621 225.181 239.621 211.181 232.12L188.681 221.12C154.181 205.621 135.181 230.121 129.681 251.62C116.181 293.621 67.6809 296.121 69.6808 272.12C72.1809 209.121 73.681 128.622 81.6809 69.6211C84.181 55.6219 84.6809 59.1211 91.6809 63.6211L98.6808 69.1203C108.281 77.1203 107.681 91.787 106.181 98.1203C104.514 108.287 99.8808 136.42 94.6808 167.62C89.3474 199.621 101.264 194.121 106.681 187.62C113.348 179.62 128.881 160.62 137.681 148.62C149.414 132.621 156.681 135.533 172.681 137.62C184.181 139.12 191.681 138.621 197.181 123.62C202.181 107.621 226.181 85.6211 243.681 73.1203C267.181 58.6211 258.681 48.6211 250.681 46.6211C212.181 39.1211 129.281 23.0203 107.681 18.6203C80.1808 13.621 74.6808 14.621 55.6808 21.6203C49.6808 24.121 47.1808 27.621 34.1808 14.1203Z" stroke="black" stroke-width="10"/>
<path d="M34.1808 14.1203C21.6808 -1.87896 19.1808 6.62099 19.1808 13.6212L9.18083 232.621L6.18083 292.621L5.18085 346.12C4.68083 356.62 6.68083 361.12 11.6808 371.12C16.6809 383.121 21.6808 378.62 29.1808 374.12L215.181 271.62C244.681 256.621 225.181 239.621 211.181 232.12L188.681 221.12C154.181 205.621 135.181 230.121 129.681 251.62C116.181 293.621 67.6809 296.121 69.6808 272.12C72.1809 209.121 73.681 128.622 81.6809 69.6211C84.181 55.6219 84.6809 59.1211 91.6809 63.6211L98.6808 69.1203C108.281 77.1203 107.681 91.787 106.181 98.1203C104.514 108.287 99.8808 136.42 94.6808 167.62C89.3474 199.621 101.264 194.121 106.681 187.62C113.348 179.62 128.881 160.62 137.681 148.62C149.414 132.621 156.681 135.533 172.681 137.62C184.181 139.12 191.681 138.621 197.181 123.62C202.181 107.621 226.181 85.6211 243.681 73.1203C267.181 58.6211 258.681 48.6211 250.681 46.6211C212.181 39.1211 129.281 23.0203 107.681 18.6203C80.1808 13.621 74.6808 14.621 55.6808 21.6203C49.6808 24.121 47.1808 27.621 34.1808 14.1203Z" stroke="white" stroke-width="2"/>
<path d="M6.1532 294.121L6.18123 292.621L9.18123 232.621L18.7246 23.6211" stroke="url(#paint0_radial_8458_7166)" stroke-width="2"/>
<path d="M95.1816 16.5625C98.8107 17.0685 102.916 17.7547 107.682 18.6211C127.087 22.574 195.968 35.9708 237.682 44.0906" stroke="url(#paint1_radial_8458_7166)" stroke-width="2"/>
<path d="M80.1758 81.6211C73.909 135.519 72.2261 203.86 70.1225 260.621" stroke="url(#paint2_radial_8458_7166)" stroke-width="2"/>
<path d="M35.9668 237.179L35.9343 241.486L31.6269 241.454L31.6594 237.146L35.9668 237.179Z" fill="white"/>
<path d="M27.3828 237.118L27.3503 241.426L23.0429 241.393L23.0754 237.086L27.3828 237.118Z" fill="white"/>
<path d="M31.6738 237.15L31.6413 241.457L27.334 241.425L27.3665 237.117L31.6738 237.15Z" fill="black"/>
<path d="M23.0898 237.089L23.0573 241.396L18.75 241.364L18.7825 237.057L23.0898 237.089Z" fill="black"/>
<path d="M36 232.749L35.9675 237.057L31.6601 237.024L31.6926 232.717L36 232.749Z" fill="black"/>
<path d="M27.416 232.689L27.3835 236.996L23.0761 236.964L23.1086 232.656L27.416 232.689Z" fill="black"/>
<path d="M31.707 232.718L31.6745 237.025L27.3672 236.993L27.3997 232.686L31.707 232.718Z" fill="white"/>
<path d="M23.123 232.657L23.0906 236.965L18.7832 236.932L18.8157 232.625L23.123 232.657Z" fill="white"/>
<path fill-rule="evenodd" clip-rule="evenodd" d="M4.37944 235.228L13.1809 235.203L12.8517 238.371L4.05027 238.396L4.37944 235.228Z" fill="black"/>
<path fill-rule="evenodd" clip-rule="evenodd" d="M202.681 105.121L209.182 110.198L207.37 112.257L200.87 107.18L202.681 105.121Z" fill="black"/>
<path fill-rule="evenodd" clip-rule="evenodd" d="M196.536 229.878L200.66 222.735L202.951 224.243L198.827 231.385L196.536 229.878Z" fill="black"/>
<circle cx="18.6816" cy="26.6211" r="4" transform="rotate(90 18.6816 26.6211)" fill="#00FF38"/>
<circle cx="106.682" cy="93.6211" r="4" transform="rotate(90 106.682 93.6211)" fill="#00FF38"/>
<circle cx="51.6816" cy="361.621" r="4" transform="rotate(90 51.6816 361.621)" fill="#00FF38"/>
</g>
<defs>
<radialGradient id="paint0_radial_8458_7166" cx="0" cy="0" r="1" gradientUnits="userSpaceOnUse" gradientTransform="translate(12.4435 158.423) rotate(-92.6875) scale(134.95 9.43387)">
<stop stop-color="#39FF65" stop-opacity="0.5"/>
<stop offset="1" stop-color="#00FF38"/>
</radialGradient>
<radialGradient id="paint1_radial_8458_7166" cx="0" cy="0" r="1" gradientUnits="userSpaceOnUse" gradientTransform="translate(166.483 30.281) rotate(-169.172) scale(73.0258 20.1107)">
<stop stop-color="#39FF65" stop-opacity="0.5"/>
<stop offset="1" stop-color="#00FF38"/>
</radialGradient>
<radialGradient id="paint2_radial_8458_7166" cx="0" cy="0" r="1" gradientUnits="userSpaceOnUse" gradientTransform="translate(75.1528 170.825) rotate(-93.2467) scale(89.3469 7.54036)">
<stop stop-color="#39FF65" stop-opacity="0.5"/>
<stop offset="1" stop-color="#00FF38"/>
</radialGradient>
<clipPath id="clip0_8458_7166">
<rect width="384" height="264" fill="white" transform="matrix(0 1 -1 0 264 0)"/>
</clipPath>
</defs>
</svg>
