<svg width="381" height="156" viewBox="0 0 381 156" fill="none" xmlns="http://www.w3.org/2000/svg">
<path d="M236.209 74.604L151.209 23.1041C151.209 23.1041 145.509 19.0041 136.709 16.6041C125.709 13.6041 111.209 14.3541 105.709 17.1041C104.109 17.9041 86.209 26.6036 86.209 26.6036C80.709 29.1036 71.709 29.6036 63.709 23.6036L49.709 13.104C46.709 10.604 46.709 4.104 59.709 5.10371L192.709 10.1041L267.209 12.1038C297.209 12.9372 359.109 15.2041 366.709 15.6041C376.209 16.1041 374.709 21.1041 372.209 28.1041C369.801 34.8463 368.709 40.6041 372.209 41.1041C375.709 41.6041 377.209 43.6043 371.209 52.6041C364.501 62.6668 363.709 61.1041 353.709 61.1041C345.709 61.1041 340.618 61.6038 338.709 68.6041C336.485 76.7582 340.209 82.104 350.209 87.1038C357.891 90.9444 352.876 95.7707 349.709 97.604C341.709 102.771 324.509 113.604 315.709 117.604C306.909 121.604 268.543 136.437 250.709 143.104C244.209 145.437 227.509 150.204 212.709 150.604C194.209 151.104 169.924 143.638 156.209 137.604C143.709 132.104 130.209 131.604 123.709 132.104C104.709 133.437 81.709 134.104 57.2095 132.104C41.209 127.604 27.876 125.771 22.2094 126.604C17.7102 127.104 3.08904 131.391 5.20868 113.604C7.21059 96.8043 21.7094 92.8867 30.7094 92.104C39.9094 91.304 45.0579 94.9513 49.7097 99.6038C53.2095 103.104 58.7095 108.104 66.2097 108.604C73.0995 109.063 77.4017 106.604 79.7094 104.604C82.2094 102.437 88.1094 97.4041 95.7094 96.604C103.309 95.804 108.209 98.104 113.209 101.104L156.209 127.104C177.648 141.064 195.511 135.348 207.11 131.636L207.209 131.604C219.709 127.604 223.991 115.132 223.209 108.104C222.209 99.1043 223.709 93.604 232.209 87.604C242.028 80.6732 239.043 76.104 236.209 74.604Z" stroke="black" stroke-width="10"/>
<path d="M88.709 26.1042C102.209 23.1045 126.08 23.322 129.209 24.104C131.209 24.6039 132.209 22.1043 135.209 23.6043L214.709 70.1042C220.209 73.1042 232.709 79.1042 227.209 92.1042" stroke="#5B93FF" stroke-width="2"/>
<path d="M236.209 74.604L151.209 23.1041C151.209 23.1041 145.509 19.0041 136.709 16.6041C125.709 13.6041 111.209 14.3541 105.709 17.1041C104.109 17.9041 86.209 26.6036 86.209 26.6036C80.709 29.1036 71.709 29.6036 63.709 23.6036L49.709 13.104C46.709 10.604 46.709 4.104 59.709 5.10371L192.709 10.1041L267.209 12.1038C297.209 12.9372 359.109 15.2041 366.709 15.6041C376.209 16.1041 374.709 21.1041 372.209 28.1041C369.801 34.8463 368.709 40.6041 372.209 41.1041C375.709 41.6041 377.209 43.6043 371.209 52.6041C364.501 62.6668 363.709 61.1041 353.709 61.1041C345.709 61.1041 340.618 61.6038 338.709 68.6041C336.485 76.7582 340.209 82.104 350.209 87.1038C357.891 90.9444 352.876 95.7707 349.709 97.604C341.709 102.771 324.509 113.604 315.709 117.604C306.909 121.604 268.543 136.437 250.709 143.104C244.209 145.437 227.509 150.204 212.709 150.604C194.209 151.104 169.924 143.638 156.209 137.604C143.709 132.104 130.209 131.604 123.709 132.104C104.709 133.437 81.709 134.104 57.2095 132.104C41.209 127.604 27.876 125.771 22.2094 126.604C17.7102 127.104 3.08904 131.391 5.20868 113.604C7.21059 96.8043 21.7094 92.8867 30.7094 92.104C39.9094 91.304 45.0579 94.9513 49.7097 99.6038C53.2095 103.104 58.7095 108.104 66.2097 108.604C73.0995 109.063 77.4017 106.604 79.7094 104.604C82.2094 102.437 88.1094 97.4041 95.7094 96.604C103.309 95.804 108.209 98.104 113.209 101.104L156.209 127.104C177.648 141.064 195.511 135.348 207.11 131.636L207.209 131.604C219.709 127.604 223.991 115.132 223.209 108.104C222.209 99.1043 223.709 93.604 232.209 87.604C242.028 80.6732 239.043 76.104 236.209 74.604Z" stroke="white" stroke-width="2"/>
<path d="M238.709 11.3389L192.709 10.1042L59.7088 5.10385C59.0525 5.05338 58.4293 5.02202 57.8379 5.0083" stroke="url(#paint0_radial_8525_7573)" stroke-width="2"/>
<path d="M169.709 142.754C182.948 147.166 199.34 150.965 212.709 150.604C227.509 150.204 244.209 145.437 250.709 143.104C268.543 136.437 306.909 121.604 315.709 117.604C322.686 114.433 334.943 106.966 343.709 101.434" stroke="url(#paint1_radial_8525_7573)" stroke-width="2"/>
<path d="M127.463 14.9766C130.636 15.2775 133.796 15.8091 136.71 16.6039C145.51 19.0039 151.21 23.1039 151.21 23.1039L226.395 68.6567" stroke="url(#paint2_radial_8525_7573)" stroke-width="2"/>
<path d="M59.709 17.604C59.709 19.8131 57.9181 21.604 55.709 21.604C53.4998 21.604 51.709 19.8131 51.709 17.604C51.709 15.3949 53.4998 13.604 55.709 13.604C57.9181 13.604 59.709 15.3949 59.709 17.604Z" fill="#00FF38"/>
<path d="M41.709 127.604C41.709 129.813 39.9181 131.604 37.709 131.604C35.4998 131.604 33.709 129.813 33.709 127.604C33.709 125.395 35.4998 123.604 37.709 123.604C39.9181 123.604 41.709 125.395 41.709 127.604Z" fill="#00FF38"/>
<path d="M46.209 132.604L47.709 126.604" stroke="black" stroke-width="4"/>
<path d="M152.709 28.604L156.709 22.604" stroke="black" stroke-width="4"/>
<path d="M351.709 10.604V19.604" stroke="black" stroke-width="4"/>
<path d="M359.709 14.604C359.709 16.8131 357.918 18.604 355.709 18.604C353.5 18.604 351.709 16.8131 351.709 14.604C351.709 12.3949 353.5 10.604 355.709 10.604C357.918 10.604 359.709 12.3949 359.709 14.604Z" fill="#00FF38"/>
<path d="M149.121 35.083L152.644 37.5621L150.165 41.0847L146.642 38.6056L149.121 35.083Z" fill="white"/>
<path d="M144.184 42.106L147.706 44.5851L145.227 48.1076L141.704 45.6285L144.184 42.106Z" fill="white"/>
<path d="M146.652 38.5947L150.175 41.0738L147.696 44.5964L144.173 42.1173L146.652 38.5947Z" fill="black"/>
<path d="M141.715 45.6167L145.237 48.0958L142.758 51.6184L139.236 49.1393L141.715 45.6167Z" fill="black"/>
<path d="M145.6 32.604L149.122 35.0831L146.643 38.6057L143.121 36.1266L145.6 32.604Z" fill="black"/>
<path d="M140.662 39.6265L144.185 42.1056L141.706 45.6282L138.183 43.1491L140.662 39.6265Z" fill="black"/>
<path d="M143.131 36.1152L146.653 38.5943L144.174 42.1169L140.652 39.6378L143.131 36.1152Z" fill="white"/>
<path d="M138.193 43.1377L141.716 45.6168L139.237 49.1394L135.714 46.6603L138.193 43.1377Z" fill="white"/>
<defs>
<radialGradient id="paint0_radial_8525_7573" cx="0" cy="0" r="1" gradientUnits="userSpaceOnUse" gradientTransform="translate(147.974 8.17132) rotate(177.975) scale(90.1922 4.75291)">
<stop stop-color="#39FF65" stop-opacity="0.5"/>
<stop offset="1" stop-color="#00FF38"/>
</radialGradient>
<radialGradient id="paint1_radial_8525_7573" cx="0" cy="0" r="1" gradientUnits="userSpaceOnUse" gradientTransform="translate(256.421 126.013) rotate(164.063) scale(90.1779 35.5365)">
<stop stop-color="#39FF65" stop-opacity="0.5"/>
<stop offset="1" stop-color="#00FF38"/>
</radialGradient>
<radialGradient id="paint2_radial_8525_7573" cx="0" cy="0" r="1" gradientUnits="userSpaceOnUse" gradientTransform="translate(176.765 41.7971) rotate(151.276) scale(56.2203 35.3645)">
<stop stop-color="#39FF65" stop-opacity="0.5"/>
<stop offset="1" stop-color="#00FF38"/>
</radialGradient>
</defs>
</svg>
