<svg width="249" height="405" viewBox="0 0 249 405" fill="none" xmlns="http://www.w3.org/2000/svg">
<path d="M169.536 399.589H35.5356C35.5356 399.589 28.0355 399.918 27.0355 399.589C25.5124 399.09 19.0355 393.09 19.0355 393.09C17.5355 391.59 17.5355 389.19 11.5355 389.59C5.03564 390.023 4.86897 384.757 5.03564 382.09C5.03564 382.09 5.03583 309.09 6.53564 286.59C8.40533 258.541 8.03564 172.59 8.03564 172.59C9.53564 152.09 13.0356 135.09 23.0356 102.09C25.9681 92.4129 31.5356 79.0898 52.0356 44.5898L66.5355 15.5895C67.5356 13.5898 70.0356 9.78858 70.0356 8.58858C70.0356 7.08858 69.0356 4.48485 75.5355 5.08945C97.0356 7.08938 101.717 9.98953 111.035 17.0895C121.536 25.0899 126.536 48.5895 135.536 61.0895C143.036 72.0895 165.036 77.011 173.035 77.0895C190.035 77.2561 225.336 77.5895 232.536 77.5895C242.036 77.5895 241.536 85.0895 236.536 91.0895C231.536 97.0895 231.036 107.201 235.036 108.089C239.536 109.089 243.536 107.089 243.036 115.089C242.035 140.589 219.535 150.089 207.536 150.089C201.036 150.256 178.536 150.089 178.536 150.089C170.925 150.089 170.035 153.589 170.035 159.089L171.535 250.089C172.035 270.589 174.365 312.999 174.036 318.589C173.535 327.09 177.036 338.59 189.035 342.59C203.485 347.406 209.035 336.09 213.035 332.59C217.035 329.09 230.035 325.59 237.035 330.59C242.578 334.549 239.035 339.623 236.035 343.09C228.535 351.756 199.035 384.59 199.035 384.59C186.535 398.59 178.535 399.589 169.536 399.589Z" stroke="black" stroke-width="10"/>
<path d="M169.536 399.589H35.5356C35.5356 399.589 28.0355 399.918 27.0355 399.589C25.5124 399.09 19.0355 393.09 19.0355 393.09C17.5355 391.59 17.5355 389.19 11.5355 389.59C5.03564 390.023 4.86897 384.757 5.03564 382.09C5.03564 382.09 5.03583 309.09 6.53564 286.59C8.40533 258.541 8.03564 172.59 8.03564 172.59C9.53564 152.09 13.0356 135.09 23.0356 102.09C25.9681 92.4129 31.5356 79.0898 52.0356 44.5898L66.5355 15.5895C67.5356 13.5898 70.0356 9.78858 70.0356 8.58858C70.0356 7.08858 69.0356 4.48485 75.5355 5.08945C97.0356 7.08938 101.717 9.98953 111.035 17.0895C121.536 25.0899 126.536 48.5895 135.536 61.0895C143.036 72.0895 165.036 77.011 173.035 77.0895C190.035 77.2561 225.336 77.5895 232.536 77.5895C242.036 77.5895 241.536 85.0895 236.536 91.0895C231.536 97.0895 231.036 107.201 235.036 108.089C239.536 109.089 243.536 107.089 243.036 115.089C242.035 140.589 219.535 150.089 207.536 150.089C201.036 150.256 178.536 150.089 178.536 150.089C170.925 150.089 170.035 153.589 170.035 159.089L171.535 250.089C172.035 270.589 174.365 312.999 174.036 318.589C173.535 327.09 177.036 338.59 189.035 342.59C203.485 347.406 209.035 336.09 213.035 332.59C217.035 329.09 230.035 325.59 237.035 330.59C242.578 334.549 239.035 339.623 236.035 343.09C228.535 351.756 199.035 384.59 199.035 384.59C186.535 398.59 178.535 399.589 169.536 399.589Z" fill="black" fill-opacity="0.1"/>
<path d="M150.536 399.59C159.869 399.923 179.536 396.59 189.536 385.09L232.536 337.09C233.87 334.923 232.336 328.59 223.536 328.59" stroke="#5B93FF" stroke-width="2"/>
<path d="M169.536 399.589H35.5356C35.5356 399.589 28.0355 399.918 27.0355 399.589C25.5124 399.09 19.0355 393.09 19.0355 393.09C17.5355 391.59 17.5355 389.19 11.5355 389.59C5.03564 390.023 4.86897 384.757 5.03564 382.09C5.03564 382.09 5.03583 309.09 6.53564 286.59C8.40533 258.541 8.03564 172.59 8.03564 172.59C9.53564 152.09 13.0356 135.09 23.0356 102.09C25.9681 92.4129 31.5356 79.0898 52.0356 44.5898L66.5355 15.5895C67.5356 13.5898 70.0356 9.78858 70.0356 8.58858C70.0356 7.08858 69.0356 4.48485 75.5355 5.08945C97.0356 7.08938 101.717 9.98953 111.035 17.0895C121.536 25.0899 126.536 48.5895 135.536 61.0895C143.036 72.0895 165.036 77.011 173.035 77.0895C190.035 77.2561 225.336 77.5895 232.536 77.5895C242.036 77.5895 241.536 85.0895 236.536 91.0895C231.536 97.0895 231.036 107.201 235.036 108.089C239.536 109.089 243.536 107.089 243.036 115.089C242.035 140.589 219.535 150.089 207.536 150.089C201.036 150.256 178.536 150.089 178.536 150.089C170.925 150.089 170.035 153.589 170.035 159.089L171.535 250.089C172.035 270.589 174.365 312.999 174.036 318.589C173.535 327.09 177.036 338.59 189.035 342.59C203.485 347.406 209.035 336.09 213.035 332.59C217.035 329.09 230.035 325.59 237.035 330.59C242.578 334.549 239.035 339.623 236.035 343.09C228.535 351.756 199.035 384.59 199.035 384.59C186.535 398.59 178.535 399.589 169.536 399.589Z" stroke="white" stroke-width="2"/>
<path d="M8.0293 210.09C7.92942 236.876 7.5854 270.85 6.53621 286.59C5.13977 307.539 5.04335 372.267 5.0367 381.09" stroke="url(#paint0_radial_8518_7391)" stroke-width="2"/>
<path d="M173.989 320.09C173.99 319.581 174.006 319.08 174.035 318.589C174.364 312.999 172.034 270.589 171.534 250.089L170.067 161.09" stroke="url(#paint1_radial_8518_7391)" stroke-width="2"/>
<path d="M63.0352 30.5898L57.5352 27.0898" stroke="black" stroke-width="4"/>
<path d="M197.035 382.09L201.535 386.59" stroke="black" stroke-width="4"/>
<path d="M195.535 146.09V153.59" stroke="black" stroke-width="4"/>
<path d="M180.721 364.857L183.758 361.802L186.812 364.839L183.775 367.894L180.721 364.857Z" fill="white"/>
<path d="M186.811 370.907L189.848 367.853L192.902 370.89L189.865 373.944L186.811 370.907Z" fill="white"/>
<path d="M183.766 367.882L186.803 364.828L189.857 367.865L186.82 370.919L183.766 367.882Z" fill="black"/>
<path d="M189.855 373.932L192.893 370.877L195.947 373.914L192.91 376.969L189.855 373.932Z" fill="black"/>
<path d="M177.684 367.912L180.721 364.857L183.775 367.894L180.738 370.949L177.684 367.912Z" fill="black"/>
<path d="M183.773 373.961L186.811 370.907L189.865 373.944L186.828 376.998L183.773 373.961Z" fill="black"/>
<path d="M180.729 370.937L183.766 367.882L186.82 370.919L183.783 373.974L180.729 370.937Z" fill="white"/>
<path d="M186.818 376.986L189.855 373.931L192.91 376.968L189.873 380.023L186.818 376.986Z" fill="white"/>
<circle cx="220.535" cy="329.09" r="4" transform="rotate(90 220.535 329.09)" fill="#00FF38"/>
<circle cx="11.5352" cy="145.09" r="4" transform="rotate(90 11.5352 145.09)" fill="#00FF38"/>
<defs>
<radialGradient id="paint0_radial_8518_7391" cx="0" cy="0" r="1" gradientUnits="userSpaceOnUse" gradientTransform="translate(6.53408 295.307) rotate(-91.0127) scale(85.2301 2.24783)">
<stop stop-color="#39FF65" stop-opacity="0.5"/>
<stop offset="1" stop-color="#00FF38"/>
</radialGradient>
<radialGradient id="paint1_radial_8518_7391" cx="0" cy="0" r="1" gradientUnits="userSpaceOnUse" gradientTransform="translate(172.068 240.326) rotate(-91.4552) scale(79.2622 3.0033)">
<stop stop-color="#39FF65" stop-opacity="0.5"/>
<stop offset="1" stop-color="#00FF38"/>
</radialGradient>
</defs>
</svg>
