<svg width="390" height="451" viewBox="0 0 390 451" fill="none" xmlns="http://www.w3.org/2000/svg">
<g clip-path="url(#clip0_8489_7606)">
<path d="M7.38855 162.922L170.028 437.929C173.591 443.954 181.458 447.434 188.58 446.707C198.284 444.454 200.885 440.012 204.619 432.575L247.379 342.808C254.26 325.959 266.346 326.75 273.025 328.221C296.408 332.4 341.551 339.976 341.551 339.976C352.861 341.42 359.335 334.686 362.288 328.874L380.317 298.461C386.622 288.691 385.423 280.337 383.283 276.956C380.34 272.307 372.672 259.996 365.545 247.946C358.419 235.895 343.587 235.372 337.405 236.705C320.409 239.398 283.326 245.451 264.973 245.849C254.234 246.607 244.231 244.174 233.273 241.36C224.643 239.144 218.921 234.715 214.467 232.152C203.018 225.562 190.218 215.705 187.885 204.885C185.886 195.612 195.694 190.586 200.676 189.189L239.59 178.373C248.1 175.083 251.033 167.928 251.423 164.986C254.255 151.112 257.499 139.899 262.622 129.899C267.622 120.139 277.916 111.56 281.711 108.154C284.064 106.041 291.392 96.0386 284.09 84.6731C278.248 75.5807 267.768 75.7371 262.094 77.9306L186.853 110.81C180.319 113.512 175.306 112.992 172.761 108.688C168.943 102.233 172.718 97.7123 175.812 94.1038C186.927 81.1403 208.435 55.7577 211.408 52.1407C215.124 47.6195 218.664 43.7828 218.622 36.8367C218.589 31.2798 213.32 24.2881 210.399 21.95C205.251 17.8298 195.132 8.90466 195.132 8.90466C182.778 -0.983691 171.072 7.83728 166.978 13.3565C150.073 33.2292 115.328 74.3401 109.868 80.8225C103.042 88.9255 100.749 93.186 99.7196 99.0235C99.0792 102.655 99.2337 108.024 99.3911 110.255C99.8492 114.631 100.062 126.123 100.673 137.961C101.424 152.519 98.7616 155.356 91.6999 160.113C85.9732 163.971 79.589 163.209 73.3466 160.511C68.1929 157.363 54.962 149.658 42.2489 142.306C26.3576 133.115 22.1694 130.945 10.9798 137.563C0.553558 145.471 4.58882 158.187 7.38855 162.922Z" fill="black" fill-opacity="0.15"/>
<path d="M7.38855 162.922L170.028 437.929C173.591 443.954 181.458 447.434 188.58 446.707C198.284 444.454 200.885 440.012 204.619 432.575L247.379 342.808C254.26 325.959 266.346 326.75 273.025 328.221C296.408 332.4 341.551 339.976 341.551 339.976C352.861 341.42 359.335 334.686 362.288 328.874L380.317 298.461C386.622 288.691 385.423 280.337 383.283 276.956C380.34 272.307 372.672 259.996 365.545 247.946C358.419 235.895 343.587 235.372 337.405 236.705C320.409 239.398 283.326 245.451 264.973 245.849C254.234 246.607 244.231 244.174 233.273 241.36C224.643 239.144 218.921 234.715 214.467 232.152C203.018 225.562 190.218 215.705 187.885 204.885C185.886 195.612 195.694 190.586 200.676 189.189L239.59 178.373C248.1 175.083 251.033 167.928 251.423 164.986C254.255 151.112 257.499 139.899 262.622 129.899C267.622 120.139 277.916 111.56 281.711 108.154C284.064 106.041 291.392 96.0386 284.09 84.6731C278.248 75.5807 267.768 75.7371 262.094 77.9306L186.853 110.81C180.319 113.512 175.306 112.992 172.761 108.688C168.943 102.233 172.718 97.7123 175.812 94.1038C186.927 81.1403 208.435 55.7577 211.408 52.1407C215.124 47.6195 218.664 43.7828 218.622 36.8367C218.589 31.2798 213.32 24.2881 210.399 21.95C205.251 17.8298 195.132 8.90466 195.132 8.90466C182.778 -0.983691 171.072 7.83728 166.978 13.3565C150.073 33.2292 115.328 74.3401 109.868 80.8225C103.042 88.9255 100.749 93.186 99.7196 99.0235C99.0792 102.655 99.2337 108.024 99.3911 110.255C99.8492 114.631 100.062 126.123 100.673 137.961C101.424 152.519 98.7616 155.356 91.6999 160.113C85.9732 163.971 79.589 163.209 73.3466 160.511C68.1929 157.363 54.962 149.658 42.2489 142.306C26.3576 133.115 22.1694 130.945 10.9798 137.563C0.553558 145.471 4.58882 158.187 7.38855 162.922Z" stroke="black" stroke-width="8"/>
<path d="M242.08 353.493L214.018 397.39L197.613 428.585C196.081 431.234 192.227 436.766 189.066 437.706C185.114 438.882 179.186 440.645 173.841 431.607C169.565 424.377 100.454 307.517 66.4331 249.991L15.7881 177.124" stroke="#FFC700" stroke-width="2"/>
<path d="M7.38855 162.922L170.028 437.929C173.591 443.954 181.458 447.434 188.58 446.707C198.284 444.454 200.885 440.012 204.619 432.575L247.379 342.808C254.26 325.959 266.346 326.75 273.025 328.221C296.408 332.4 341.551 339.976 341.551 339.976C352.861 341.42 359.335 334.686 362.288 328.874L380.317 298.461C386.622 288.691 385.423 280.337 383.283 276.956C380.34 272.307 372.672 259.996 365.545 247.946C358.419 235.895 343.587 235.372 337.405 236.705C320.409 239.398 283.326 245.451 264.973 245.849C254.234 246.607 244.231 244.174 233.273 241.36C224.643 239.144 218.921 234.715 214.467 232.152C203.018 225.562 190.218 215.705 187.885 204.885C185.886 195.612 195.694 190.586 200.676 189.189L239.59 178.373C248.1 175.083 251.033 167.928 251.423 164.986C254.255 151.112 257.499 139.899 262.622 129.899C267.622 120.139 277.916 111.56 281.711 108.154C284.064 106.041 291.392 96.0386 284.09 84.6731C278.248 75.5807 267.768 75.7371 262.094 77.9306L186.853 110.81C180.319 113.512 175.306 112.992 172.761 108.688C168.943 102.233 172.718 97.7123 175.812 94.1038C186.927 81.1403 208.435 55.7577 211.408 52.1407C215.124 47.6195 218.664 43.7828 218.622 36.8367C218.589 31.2798 213.32 24.2881 210.399 21.95C205.251 17.8298 195.132 8.90466 195.132 8.90466C182.778 -0.983691 171.072 7.83728 166.978 13.3565C150.073 33.2292 115.328 74.3401 109.868 80.8225C103.042 88.9255 100.749 93.186 99.7196 99.0235C99.0792 102.655 99.2337 108.024 99.3911 110.255C99.8492 114.631 100.062 126.123 100.673 137.961C101.424 152.519 98.7616 155.356 91.6999 160.113C85.9732 163.971 79.589 163.209 73.3466 160.511C68.1929 157.363 54.962 149.658 42.2489 142.306C26.3576 133.115 22.1694 130.945 10.9798 137.563C0.553558 145.471 4.58882 158.187 7.38855 162.922Z" stroke="white" stroke-width="2"/>
<path d="M99.9554 293.905L109.596 288.204L110.915 290.435C111.811 291.95 111.411 293.19 109.868 294.102L108.918 294.664C107.376 295.577 106.096 295.33 105.2 293.815L104.776 293.099L100.851 295.42L99.9554 293.905ZM106.154 292.284L106.577 293C106.862 293.482 107.237 293.614 107.926 293.206L109.069 292.53C109.757 292.123 109.823 291.731 109.538 291.249L109.114 290.533L106.154 292.284ZM108.065 307.618L117.706 301.917L118.602 303.432L108.961 309.133L108.065 307.618ZM115.301 319.853L123.564 314.966L122.627 313.382L124.005 312.568L126.774 317.25L125.397 318.065L124.46 316.481L116.197 321.368L115.301 319.853ZM128.808 342.692L138.449 336.991L139.344 338.506L131.081 343.393L132.555 345.886L131.178 346.7L128.808 342.692ZM136.372 355.482L146.941 351.35L148.154 353.402L139.442 360.674L138.546 359.159L140.298 357.751L140.27 357.768L139.252 356.046L137.203 356.886L136.372 355.482ZM140.666 355.451L141.473 356.815L145.839 353.322L145.822 353.294L140.666 355.451ZM144.845 369.81L154.486 364.108L155.61 366.009L150.711 370.895L150.727 370.923L156.497 367.51L157.295 368.86L147.655 374.561L146.735 373.005L152.697 367.025L152.681 366.997L145.643 371.159L144.845 369.81ZM153.289 384.088L162.93 378.386L165.373 382.518L163.996 383.332L162.448 380.716L159.901 382.222L161.13 384.302L159.753 385.116L158.523 383.037L155.562 384.788L157.11 387.405L155.733 388.219L153.289 384.088Z" fill="#EFF0F7"/>
<circle cx="215.744" cy="409.149" r="3" transform="rotate(59.4 215.744 409.149)" fill="#00FF38"/>
<path d="M188.285 84.4471L183.25 79.8035" stroke="black" stroke-width="2"/>
<path d="M76.6543 274.152L70.7345 277.597" stroke="black" stroke-width="2"/>
<path d="M315.248 243.887L314.076 237.139" stroke="black" stroke-width="2"/>
<path d="M98.3457 261.686L100.538 265.394L96.8308 267.587L94.6381 263.879L98.3457 261.686Z" fill="white"/>
<path d="M90.959 266.06L93.1517 269.767L89.444 271.96L87.2513 268.252L90.959 266.06Z" fill="white"/>
<path d="M94.6523 263.873L96.845 267.581L93.1374 269.774L90.9447 266.066L94.6523 263.873Z" fill="black"/>
<path d="M87.2656 268.246L89.4583 271.954L85.7507 274.147L83.558 270.439L87.2656 268.246Z" fill="black"/>
<path d="M96.1504 257.975L98.3431 261.682L94.6354 263.875L92.4427 260.167L96.1504 257.975Z" fill="black"/>
<path d="M88.7637 262.348L90.9564 266.055L87.2487 268.248L85.056 264.54L88.7637 262.348Z" fill="black"/>
<path d="M92.457 260.161L94.6497 263.869L90.9421 266.061L88.7494 262.354L92.457 260.161Z" fill="white"/>
<path d="M85.0703 264.534L87.263 268.242L83.5554 270.434L81.3627 266.727L85.0703 264.534Z" fill="white"/>
</g>
<defs>
<clipPath id="clip0_8489_7606">
<rect width="390" height="451" fill="white"/>
</clipPath>
</defs>
</svg>
