<svg width="305" height="347" viewBox="0 0 305 347" fill="none" xmlns="http://www.w3.org/2000/svg">
<path d="M123.194 320.1L292.994 76.1456C295.489 72.5607 302.111 61.5913 298.523 51.0718C294.875 40.375 286.181 35.2528 277.317 28.6984C269.089 22.615 260.695 16.5879 252.777 10.8394C239.618 1.28575 227.092 6.57864 220.826 11.2663C213.486 16.7564 197.52 28.907 192.046 32.8336C185.032 37.8645 178.274 43.3754 185.094 56.9353C190.815 68.3106 203.201 65.9475 209.258 61.8179C212.714 59.4617 218.824 54.2842 224.397 52.2746C231.364 49.7626 232.739 49.847 238.776 50.4013C245.117 50.9836 256.166 56.1475 258.104 63.3402C259.654 69.0944 253.179 74.3442 249.587 75.8691C214.676 91.5786 143.054 123.806 134.345 127.681L133.931 127.865C123.241 132.62 114.8 136.375 108.895 146.053C103.763 154.465 107.194 164.885 109.939 172.403C113.888 182.23 121.644 202.536 126.048 212.912C129.892 221.967 132.043 224.616 137.285 228.18C139.217 229.493 144.603 231.753 146.576 236.926C148.391 241.685 145.889 246.346 144.449 248.739C137.1 258.76 124.698 277.383 117.1 282.612C114.065 285.025 110.008 287.459 104.336 289.867C93.7476 294.361 80.1367 299.638 67.0968 305.173C52.0813 309.943 48.717 295.619 53.5769 289.093C58.7236 281.416 71.983 262.811 81.8186 248.384C85.7001 242.284 88.6185 235.553 88.7352 228.66C88.4839 218.08 84.6026 208.687 74.3182 205.481C65.4071 202.362 58.6279 207.361 55.9675 211.608L17.8299 266.362C16.6087 268.216 6.40785 285.738 6.01178 296.37C5.70562 302.561 6.07858 306.157 7.36443 312.086C12.0509 333.697 26.0473 339.994 37.1358 341.274C50.1776 343.085 62.1784 332.651 70.0728 327.955C76.3962 324.193 82.2 316.159 95.6744 323.544C97.0055 324.274 98.2224 325.234 99.7111 326.283C101.566 327.5 103.493 328.463 106.142 329.342C114.973 332.273 118.412 326.411 123.194 320.1Z" fill="black" fill-opacity="0.2"/>
<path d="M165.72 255.188L204.414 191.507L288.805 70.4059C293.532 64.0539 297.959 47.1832 277.848 30.5162" stroke="#7DC1FF"/>
<path d="M123.194 320.1L292.994 76.1456C295.489 72.5607 302.111 61.5913 298.523 51.0718C294.875 40.375 286.181 35.2528 277.317 28.6984C269.089 22.615 260.695 16.5879 252.777 10.8394C239.618 1.28575 227.092 6.57864 220.826 11.2663C213.486 16.7564 197.52 28.907 192.046 32.8336C185.032 37.8645 178.274 43.3754 185.094 56.9353C190.815 68.3106 203.201 65.9475 209.258 61.8179C212.714 59.4617 218.824 54.2842 224.397 52.2746C231.364 49.7626 232.739 49.847 238.776 50.4013C245.117 50.9836 256.166 56.1475 258.104 63.3402C259.654 69.0944 253.179 74.3442 249.587 75.8691C214.676 91.5786 143.054 123.806 134.345 127.681L133.931 127.865C123.241 132.62 114.8 136.375 108.895 146.053C103.763 154.465 107.194 164.885 109.939 172.403C113.888 182.23 121.644 202.536 126.048 212.912C129.892 221.967 132.043 224.616 137.285 228.18C139.217 229.493 144.603 231.753 146.576 236.926C148.391 241.685 145.889 246.346 144.449 248.739C137.1 258.76 124.698 277.383 117.1 282.612C114.065 285.025 110.008 287.459 104.336 289.867C93.7476 294.361 80.1367 299.638 67.0968 305.173C52.0813 309.943 48.717 295.619 53.5769 289.093C58.7236 281.416 71.983 262.811 81.8186 248.384C85.7001 242.284 88.6185 235.553 88.7352 228.66C88.4839 218.08 84.6026 208.687 74.3182 205.481C65.4071 202.362 58.6279 207.361 55.9675 211.608L17.8299 266.362C16.6087 268.216 6.40785 285.738 6.01178 296.37C5.70562 302.561 6.07858 306.157 7.36443 312.086C12.0509 333.697 26.0473 339.994 37.1358 341.274C50.1776 343.085 62.1784 332.651 70.0728 327.955C76.3962 324.193 82.2 316.159 95.6744 323.544C97.0055 324.274 98.2224 325.234 99.7111 326.283C101.566 327.5 103.493 328.463 106.142 329.342C114.973 332.273 118.412 326.411 123.194 320.1Z" stroke="black" stroke-width="10"/>
<path d="M123.194 320.1L292.994 76.1456C295.489 72.5607 302.111 61.5913 298.523 51.0718C294.875 40.375 286.181 35.2528 277.317 28.6984C269.089 22.615 260.695 16.5879 252.777 10.8394C239.618 1.28575 227.092 6.57864 220.826 11.2663C213.486 16.7564 197.52 28.907 192.046 32.8336C185.032 37.8645 178.274 43.3754 185.094 56.9353C190.815 68.3106 203.201 65.9475 209.258 61.8179C212.714 59.4617 218.824 54.2842 224.397 52.2746C231.364 49.7626 232.739 49.847 238.776 50.4013C245.117 50.9836 256.166 56.1475 258.104 63.3402C259.654 69.0944 253.179 74.3442 249.587 75.8691C214.676 91.5786 143.054 123.806 134.345 127.681L133.931 127.865C123.241 132.62 114.8 136.375 108.895 146.053C103.763 154.465 107.194 164.885 109.939 172.403C113.888 182.23 121.644 202.536 126.048 212.912C129.892 221.967 132.043 224.616 137.285 228.18C139.217 229.493 144.603 231.753 146.576 236.926C148.391 241.685 145.889 246.346 144.449 248.739C137.1 258.76 124.698 277.383 117.1 282.612C114.065 285.025 110.008 287.459 104.336 289.867C93.7476 294.361 80.1367 299.638 67.0968 305.173C52.0813 309.943 48.717 295.619 53.5769 289.093C58.7236 281.416 71.983 262.811 81.8186 248.384C85.7001 242.284 88.6185 235.553 88.7352 228.66C88.4839 218.08 84.6026 208.687 74.3182 205.481C65.4071 202.362 58.6279 207.361 55.9675 211.608L17.8299 266.362C16.6087 268.216 6.40785 285.738 6.01178 296.37C5.70562 302.561 6.07858 306.157 7.36443 312.086C12.0509 333.697 26.0473 339.994 37.1358 341.274C50.1776 343.085 62.1784 332.651 70.0728 327.955C76.3962 324.193 82.2 316.159 95.6744 323.544C97.0055 324.274 98.2224 325.234 99.7111 326.283C101.566 327.5 103.493 328.463 106.142 329.342C114.973 332.273 118.412 326.411 123.194 320.1Z" stroke="white" stroke-width="2"/>
<path d="M123.194 320.1L292.994 76.1456C295.489 72.5607 302.111 61.5913 298.523 51.0718C294.875 40.375 286.181 35.2528 277.317 28.6984C269.089 22.615 260.695 16.5879 252.777 10.8394C239.618 1.28575 227.092 6.57864 220.826 11.2663C213.486 16.7564 197.52 28.907 192.046 32.8336C185.032 37.8645 178.274 43.3754 185.094 56.9353C190.815 68.3106 203.201 65.9475 209.258 61.8179C212.714 59.4617 218.824 54.2842 224.397 52.2746C231.364 49.7626 232.739 49.847 238.776 50.4013C245.117 50.9836 256.166 56.1475 258.104 63.3402C259.654 69.0944 253.179 74.3442 249.587 75.8691C214.676 91.5786 143.054 123.806 134.345 127.681L133.931 127.865C123.241 132.62 114.8 136.375 108.895 146.053C103.763 154.465 107.194 164.885 109.939 172.403C113.888 182.23 121.644 202.536 126.048 212.912C129.892 221.967 132.043 224.616 137.285 228.18C139.217 229.493 144.603 231.753 146.576 236.926C148.391 241.685 145.889 246.346 144.449 248.739C137.1 258.76 124.698 277.383 117.1 282.612C114.065 285.025 110.008 287.459 104.336 289.867C93.7476 294.361 80.1367 299.638 67.0968 305.173C52.0813 309.943 48.717 295.619 53.5769 289.093C58.7236 281.416 71.983 262.811 81.8186 248.384C85.7001 242.284 88.6185 235.553 88.7352 228.66C88.4839 218.08 84.6026 208.687 74.3182 205.481C65.4071 202.362 58.6279 207.361 55.9675 211.608L17.8299 266.362C16.6087 268.216 6.40785 285.738 6.01178 296.37C5.70562 302.561 6.07858 306.157 7.36443 312.086C12.0509 333.697 26.0473 339.994 37.1358 341.274C50.1776 343.085 62.1784 332.651 70.0728 327.955C76.3962 324.193 82.2 316.159 95.6744 323.544C97.0055 324.274 98.2224 325.234 99.7111 326.283C101.566 327.5 103.493 328.463 106.142 329.342C114.973 332.273 118.412 326.411 123.194 320.1Z" stroke="white" stroke-width="2"/>
<path d="M134.857 127.453C145.465 122.721 214.347 91.7263 248.889 76.183" stroke="url(#paint0_radial_8476_7323)" stroke-width="2"/>
<path d="M282.017 91.9165L127.924 313.305" stroke="url(#paint1_radial_8476_7323)" stroke-width="2"/>
<circle cx="117.684" cy="191.929" r="4" transform="rotate(-23 117.684 191.929)" fill="#00FF38"/>
<circle cx="290.36" cy="38.241" r="4" transform="rotate(-23 290.36 38.241)" fill="#00FF38"/>
<path d="M252.104 127.266L258.395 130.571M238.203 84.2804L235.859 78.7574M45.2288 222.141L49.7486 225.111" stroke="black" stroke-width="2"/>
<path d="M261.838 133.326L264.215 129.734L267.807 132.111L265.43 135.703L261.838 133.326Z" fill="white"/>
<path d="M269 138.06L271.377 134.468L274.969 136.845L272.592 140.437L269 138.06Z" fill="white"/>
<path d="M265.418 135.693L267.795 132.101L271.387 134.478L269.01 138.07L265.418 135.693Z" fill="black"/>
<path d="M272.58 140.427L274.957 136.834L278.549 139.211L276.172 142.804L272.58 140.427Z" fill="black"/>
<path d="M259.461 136.918L261.838 133.326L265.43 135.703L263.053 139.295L259.461 136.918Z" fill="black"/>
<path d="M266.621 141.652L268.998 138.059L272.59 140.436L270.213 144.029L266.621 141.652Z" fill="black"/>
<path d="M263.041 139.285L265.418 135.693L269.01 138.07L266.633 141.662L263.041 139.285Z" fill="white"/>
<path d="M270.203 144.019L272.58 140.426L276.172 142.803L273.795 146.396L270.203 144.019Z" fill="white"/>
<path d="M208.607 164.66L209.716 163.064C210.091 162.525 210.516 162.221 210.992 162.153C211.468 162.084 211.986 162.244 212.544 162.632L213.224 163.105C213.783 163.493 214.113 163.922 214.215 164.392C214.317 164.862 214.18 165.367 213.806 165.905L213.45 166.418L216.258 168.369L215.505 169.453L208.607 164.66ZM212.821 165.221C212.944 165.043 212.986 164.878 212.947 164.724C212.912 164.563 212.776 164.401 212.54 164.237L211.722 163.668C211.485 163.504 211.286 163.433 211.124 163.457C210.966 163.474 210.825 163.571 210.702 163.748L210.346 164.261L212.464 165.733L212.821 165.221ZM215.426 154.848L216.179 153.764L223.077 158.557L222.324 159.641L215.426 154.848ZM222.494 146.778L221.707 147.911L220.722 147.226L223.05 143.876L224.035 144.561L223.248 145.694L229.16 149.803L228.407 150.887L222.494 146.778ZM232.865 129.75L233.619 128.666L239.531 132.775L240.771 130.991L241.756 131.676L239.763 134.544L232.865 129.75ZM240.005 119.476L241.026 118.007L248.704 121.677L247.951 122.761L246.444 122.007L246.464 122.02L245.608 123.252L246.821 124.387L246.123 125.393L240.005 119.476ZM245.439 121.498L241.694 119.612L241.68 119.631L244.761 122.474L245.439 121.498ZM246.349 110.347L247.294 108.987L252.155 110.802L252.169 110.782L248.04 107.913L248.711 106.947L255.609 111.741L254.835 112.854L248.896 110.656L248.882 110.675L253.918 114.175L253.247 115.14L246.349 110.347ZM253.448 100.13L255.502 97.1741L256.488 97.8589L255.187 99.7312L257.01 100.998L258.044 99.51L259.029 100.195L257.995 101.683L260.114 103.155L261.415 101.283L262.401 101.967L260.346 104.924L253.448 100.13Z" fill="#EFF0F7"/>
<defs>
<radialGradient id="paint0_radial_8476_7323" cx="0" cy="0" r="1" gradientUnits="userSpaceOnUse" gradientTransform="translate(191.682 101.898) rotate(155.779) scale(62.3071 1.98129)">
<stop stop-color="#39FF65" stop-opacity="0.5"/>
<stop offset="1" stop-color="#00FF38"/>
</radialGradient>
<radialGradient id="paint1_radial_8476_7323" cx="0" cy="0" r="1" gradientUnits="userSpaceOnUse" gradientTransform="translate(204.602 202.711) rotate(124.581) scale(134.804 91.0539)">
<stop stop-color="#39FF65" stop-opacity="0.5"/>
<stop offset="1" stop-color="#00FF38"/>
</radialGradient>
</defs>
</svg>
