<svg width="306" height="386" viewBox="0 0 306 386" fill="none" xmlns="http://www.w3.org/2000/svg">
<path d="M4.16993 242.356C4.13046 247.038 4.65032 259.69 5.08209 265.902C5.29185 269.01 6.71121 285.481 8.43903 293.356C9.33401 297.435 11.9243 310.687 15.0954 319.642C17.3306 326.453 21.8014 340.075 26.2481 349.64C31.9551 361.915 35.6943 364.329 37.5303 369.513C39.3662 374.698 36.5089 374.119 39.15 380.079C43.6469 383.791 52.602 380.619 56.2351 380.394C59.8681 380.168 71.2092 377.743 72.0931 374.248C72.9769 370.752 70.2277 367.482 63.3742 364.605C56.5206 361.728 56.1664 361.085 50.0796 355.522C43.8055 349.787 37.6594 333.929 34.4883 324.974C30.9833 315.076 30.6194 312.553 35.1664 310.413C41.9461 307.221 41.9056 306.974 40.8087 300.28L40.7541 299.947C39.7556 293.844 36.2988 274.348 34.4509 263.458C32.3283 250.949 25.2614 253.982 22.0903 245.027C20.0791 239.348 20.9024 223.7 21.6193 219.734C22.8484 212.933 28.0033 197.317 33.7379 191.043C38.131 186.236 47.5987 185.25 52.9239 185.309C71.0794 183.654 111.711 179.662 118.899 178.389C127.883 176.799 124.614 179.548 130.495 181.179C136.377 182.809 137.59 181.742 139.342 180.698C141.532 179.392 136.917 169.357 151.007 170.202C165.706 169.771 191.374 162.801 207.045 156.193C222.736 149.575 228.972 144.715 241.668 138.628C255.945 132.511 260.766 128.152 267.472 123.125C273.761 118.411 281.532 101.703 285.855 91.1548C297.807 61.9925 300.229 33.5525 301.421 18.2786C302.341 6.49575 294.29 6.12883 290.15 7.41822L276.481 12.2584C270.825 14.2613 270.826 14.261 269.608 16.8139C267.578 21.0713 272.513 28.6176 276.864 32.8094C281.695 37.4638 284.944 42.1479 278.679 45.4272C271.52 49.1746 270.765 39.6293 268.38 35.8139C265.935 31.9056 264.826 31.7681 262.352 26.2791C259.878 20.7902 262.084 13.1132 259.672 9.72411C254.244 2.0987 249.293 4.38211 244.972 10.1558C240.548 16.0661 235.859 21.8695 228.436 30.8634C221.012 39.8573 214.336 46.465 201.432 66.9472C198.04 72.3317 194.372 78.4646 205.918 87.1059C215.301 94.1277 221.872 112.07 218.269 121.984C214.509 132.332 197.934 142.445 184.983 143.319C172.031 144.192 159.414 146.008 151.401 148.845C147.133 150.357 132.578 157.102 125.204 160.244C117.829 163.386 104.21 162.374 97.7487 163.601C91.2877 164.828 63.5106 173.443 57.6284 174.626C50.6968 176.02 34.2492 176.01 22.7405 177.963C11.1379 179.933 12.4015 183.216 12.8522 190.482C13.2144 196.323 9.43428 210.788 5.94817 218.918C3.14762 225.449 4.21928 236.504 4.16993 242.356Z" fill="black" fill-opacity="0.1"/>
<path d="M4.16993 242.356C4.13046 247.038 4.65032 259.69 5.08209 265.902C5.29185 269.01 6.71121 285.481 8.43903 293.356C9.33401 297.435 11.9243 310.687 15.0954 319.642C17.3306 326.453 21.8014 340.075 26.2481 349.64C31.9551 361.915 35.6943 364.329 37.5303 369.513C39.3662 374.698 36.5089 374.119 39.15 380.079C43.6469 383.791 52.602 380.619 56.2351 380.394C59.8681 380.168 71.2092 377.743 72.0931 374.248C72.9769 370.752 70.2277 367.482 63.3742 364.605C56.5206 361.728 56.1664 361.085 50.0796 355.522C43.8055 349.787 37.6594 333.929 34.4883 324.974C30.9833 315.076 30.6194 312.553 35.1664 310.413C41.9461 307.221 41.9056 306.974 40.8087 300.28L40.7541 299.947C39.7556 293.844 36.2988 274.348 34.4509 263.458C32.3283 250.949 25.2614 253.982 22.0903 245.027C20.0791 239.348 20.9024 223.7 21.6193 219.734C22.8484 212.933 28.0033 197.317 33.7379 191.043C38.131 186.236 47.5987 185.25 52.9239 185.309C71.0794 183.654 111.711 179.662 118.899 178.389C127.883 176.799 124.614 179.548 130.495 181.179C136.377 182.809 137.59 181.742 139.342 180.698C141.532 179.392 136.917 169.357 151.007 170.202C165.706 169.771 191.374 162.801 207.045 156.193C222.736 149.575 228.972 144.715 241.668 138.628C255.945 132.511 260.766 128.152 267.472 123.125C273.761 118.411 281.532 101.703 285.855 91.1548C297.807 61.9925 300.229 33.5525 301.421 18.2786C302.341 6.49575 294.29 6.12883 290.15 7.41822L276.481 12.2584C270.825 14.2613 270.826 14.261 269.608 16.8139C267.578 21.0713 272.513 28.6176 276.864 32.8094C281.695 37.4638 284.944 42.1479 278.679 45.4272C271.52 49.1746 270.765 39.6293 268.38 35.8139C265.935 31.9056 264.826 31.7681 262.352 26.2791C259.878 20.7902 262.084 13.1132 259.672 9.72411C254.244 2.0987 249.293 4.38211 244.972 10.1558C240.548 16.0661 235.859 21.8695 228.436 30.8634C221.012 39.8573 214.336 46.465 201.432 66.9472C198.04 72.3317 194.372 78.4646 205.918 87.1059C215.301 94.1277 221.872 112.07 218.269 121.984C214.509 132.332 197.934 142.445 184.983 143.319C172.031 144.192 159.414 146.008 151.401 148.845C147.133 150.357 132.578 157.102 125.204 160.244C117.829 163.386 104.21 162.374 97.7487 163.601C91.2877 164.828 63.5106 173.443 57.6284 174.626C50.6968 176.02 34.2492 176.01 22.7405 177.963C11.1379 179.933 12.4015 183.216 12.8522 190.482C13.2144 196.323 9.43428 210.788 5.94817 218.918C3.14762 225.449 4.21928 236.504 4.16993 242.356Z" stroke="black" stroke-width="8"/>
<path d="M65.3418 378.627L49.8187 375.212C49.0692 374.594 47.6135 372.28 47.7865 367.976C47.9595 363.671 43.191 358.994 40.7852 357.194C38.6742 354.229 33.8573 346.917 31.4774 341.395C29.0975 335.873 22.8803 315.62 20.0692 306.184C18.7339 302.413 18.8427 282.749 13.5505 278.788C10.0865 276.196 9.103 269.224 7.90522 264.344C6.70744 259.464 4.16768 226.587 4.16768 226.587" stroke="#5B93FF" stroke-width="2"/>
<path d="M4.16993 242.356C4.13046 247.038 4.65032 259.69 5.08209 265.902C5.29185 269.01 6.71121 285.481 8.43903 293.356C9.33401 297.435 11.9243 310.687 15.0954 319.642C17.3306 326.453 21.8014 340.075 26.2481 349.64C31.9551 361.915 35.6943 364.329 37.5303 369.513C39.3662 374.698 36.5089 374.119 39.15 380.079C43.6469 383.791 52.602 380.619 56.2351 380.394C59.8681 380.168 71.2092 377.743 72.0931 374.248C72.9769 370.752 70.2277 367.482 63.3742 364.605C56.5206 361.728 56.1664 361.085 50.0796 355.522C43.8055 349.787 37.6594 333.929 34.4883 324.974C30.9833 315.076 30.6194 312.553 35.1664 310.413C41.9461 307.221 41.9056 306.974 40.8087 300.28L40.7541 299.947C39.7556 293.844 36.2988 274.348 34.4509 263.458C32.3283 250.949 25.2614 253.982 22.0903 245.027C20.0791 239.348 20.9024 223.7 21.6193 219.734C22.8484 212.933 28.0033 197.317 33.7379 191.043C38.131 186.236 47.5987 185.25 52.9239 185.309C71.0794 183.654 111.711 179.662 118.899 178.389C127.883 176.799 124.614 179.548 130.495 181.179C136.377 182.809 137.59 181.742 139.342 180.698C141.532 179.392 136.917 169.357 151.007 170.202C165.706 169.771 191.374 162.801 207.045 156.193C222.736 149.575 228.972 144.715 241.668 138.628C255.945 132.511 260.766 128.152 267.472 123.125C273.761 118.411 281.532 101.703 285.855 91.1548C297.807 61.9925 300.229 33.5525 301.421 18.2786C302.341 6.49575 294.29 6.12883 290.15 7.41822L276.481 12.2584C270.825 14.2613 270.826 14.261 269.608 16.8139C267.578 21.0713 272.513 28.6176 276.864 32.8094C281.695 37.4638 284.944 42.1479 278.679 45.4272C271.52 49.1746 270.765 39.6293 268.38 35.8139C265.935 31.9056 264.826 31.7681 262.352 26.2791C259.878 20.7902 262.084 13.1132 259.672 9.72411C254.244 2.0987 249.293 4.38211 244.972 10.1558C240.548 16.0661 235.859 21.8695 228.436 30.8634C221.012 39.8573 214.336 46.465 201.432 66.9472C198.04 72.3317 194.372 78.4646 205.918 87.1059C215.301 94.1277 221.872 112.07 218.269 121.984C214.509 132.332 197.934 142.445 184.983 143.319C172.031 144.192 159.414 146.008 151.401 148.845C147.133 150.357 132.578 157.102 125.204 160.244C117.829 163.386 104.21 162.374 97.7487 163.601C91.2877 164.828 63.5106 173.443 57.6284 174.626C50.6968 176.02 34.2492 176.01 22.7405 177.963C11.1379 179.933 12.4015 183.216 12.8522 190.482C13.2144 196.323 9.43428 210.788 5.94817 218.918C3.14762 225.449 4.21928 236.504 4.16993 242.356Z" stroke="white" stroke-width="2"/>
<path d="M37.1687 368.581C35.2253 363.993 31.6031 361.156 26.2488 349.64C21.8022 340.075 17.3313 326.453 15.0962 319.642C11.925 310.687 9.33474 297.435 8.43976 293.356C6.71195 285.481 5.29259 269.01 5.08282 265.902C4.65105 259.69 4.13119 247.037 4.17067 242.356C4.22001 236.504 3.14835 225.449 5.94891 218.918C8.24767 213.557 10.6743 205.441 11.9567 198.861" stroke="url(#paint0_radial_8497_1119)" stroke-width="2"/>
<path d="M46.0346 342.6C46.772 344.683 45.6817 346.969 43.5992 347.706C41.5168 348.444 39.2309 347.353 38.4935 345.271C37.756 343.188 38.8464 340.902 40.9288 340.165C43.0112 339.428 45.2972 340.518 46.0346 342.6Z" fill="#00FF38"/>
<path d="M19.3418 216.297L25.5277 217.289" stroke="black" stroke-width="2"/>
<path d="M229.9 24.5106L234.869 28.0555" stroke="black" stroke-width="2"/>
<path d="M1.79251 269.568L7.79665 269.12" stroke="black" stroke-width="2"/>
<path d="M11.584 268.781L11.327 265.784L14.3239 265.527L14.5809 268.524L11.584 268.781Z" fill="white"/>
<path d="M17.5547 268.266L17.2977 265.27L20.2946 265.013L20.5516 268.009L17.5547 268.266Z" fill="white"/>
<path d="M14.5703 268.524L14.3133 265.527L17.3102 265.27L17.5672 268.267L14.5703 268.524Z" fill="black"/>
<path d="M20.541 268.009L20.284 265.012L23.2809 264.755L23.5379 267.752L20.541 268.009Z" fill="black"/>
<path d="M11.8398 271.778L11.5828 268.781L14.5797 268.524L14.8367 271.521L11.8398 271.778Z" fill="black"/>
<path d="M17.8125 271.263L17.5555 268.266L20.5524 268.009L20.8094 271.006L17.8125 271.263Z" fill="black"/>
<path d="M14.8262 271.521L14.5692 268.524L17.566 268.267L17.8231 271.264L14.8262 271.521Z" fill="white"/>
<path d="M20.7988 271.006L20.5418 268.009L23.5387 267.752L23.7957 270.749L20.7988 271.006Z" fill="white"/>
<defs>
<radialGradient id="paint0_radial_8497_1119" cx="0" cy="0" r="1" gradientUnits="userSpaceOnUse" gradientTransform="translate(22.2873 284.462) rotate(82.9487) scale(86.8035 27.2714)">
<stop stop-color="#39FF65" stop-opacity="0.5"/>
<stop offset="1" stop-color="#00FF38"/>
</radialGradient>
</defs>
</svg>
