<svg width="304" height="387" viewBox="0 0 304 387" fill="none" xmlns="http://www.w3.org/2000/svg">
<path d="M4.64116 243.768C4.64254 248.45 5.27279 261.097 5.75876 267.306C5.99564 270.412 7.55868 286.87 9.35515 294.729C10.2857 298.801 12.9915 312.029 16.2407 320.956C18.5352 327.748 23.1247 341.33 27.6547 350.855C33.4686 363.08 37.2288 365.462 39.1099 370.63C40.991 375.798 38.1287 375.244 40.8217 381.181C45.3509 384.853 54.278 381.604 57.9089 381.347C61.5398 381.089 72.8593 378.566 73.7127 375.062C74.566 371.559 71.7884 368.314 64.91 365.496C58.0316 362.679 57.6717 362.039 51.5366 356.529C45.2127 350.85 38.9285 335.046 35.6793 326.119C32.0881 316.252 31.7022 313.732 36.2304 311.552C42.9819 308.301 42.9392 308.054 41.784 301.371L41.7265 301.038C40.6748 294.944 37.048 275.479 35.1052 264.606C32.8735 252.116 25.8333 255.21 22.5841 246.283C20.5235 240.622 21.2102 224.968 21.8925 220.995C23.0622 214.184 28.0806 198.523 33.7602 192.199C38.1112 187.354 47.5699 186.286 52.8954 186.299C71.0358 184.485 111.631 180.138 118.808 178.803C127.778 177.135 124.532 179.912 130.428 181.491C136.323 183.07 137.527 181.993 139.27 180.933C141.448 179.608 136.746 169.614 150.843 170.336C165.538 169.776 191.144 162.583 206.756 155.838C222.39 149.084 228.582 144.169 241.225 137.972C255.448 131.731 260.231 127.329 266.893 122.244C273.14 117.476 280.765 100.7 284.996 90.1149C296.693 60.8494 298.867 32.3894 299.926 17.1056C300.743 5.31525 292.689 5.0186 288.56 6.34407L274.934 11.3034C269.296 13.3555 269.297 13.3552 268.101 15.9186C266.108 20.1936 271.109 27.6965 275.496 31.8502C280.367 36.4623 283.657 41.1179 277.422 44.4517C270.296 48.2615 269.457 38.7231 267.038 34.9287C264.56 31.0418 263.449 30.914 260.928 25.4468C258.406 19.9797 260.545 12.2837 258.103 8.91584C252.609 1.33809 247.679 3.66461 243.408 9.47577C239.036 15.4245 234.398 21.2686 227.053 30.3269C219.708 39.3853 213.09 46.051 200.365 66.645C197.02 72.0589 193.405 78.2236 205.027 86.7637C214.471 93.7034 221.198 111.588 217.682 121.532C214.012 131.914 197.526 142.171 184.583 143.157C171.639 144.144 159.038 146.07 151.051 148.977C146.796 150.525 132.3 157.398 124.954 160.604C117.607 163.81 103.979 162.917 97.5291 164.2C91.0791 165.484 63.3782 174.341 57.5065 175.575C50.5873 177.029 34.1403 177.162 22.6491 179.216C11.0641 181.287 12.3563 184.559 12.8704 191.821C13.2836 197.659 9.62982 212.156 6.2148 220.316C3.47135 226.871 4.63943 237.916 4.64116 243.768Z" fill="black" fill-opacity="0.1"/>
<path d="M4.64116 243.768C4.64254 248.45 5.27279 261.097 5.75876 267.306C5.99564 270.412 7.55868 286.87 9.35515 294.729C10.2857 298.801 12.9915 312.029 16.2407 320.956C18.5352 327.748 23.1247 341.33 27.6547 350.855C33.4686 363.08 37.2288 365.462 39.1099 370.63C40.991 375.798 38.1287 375.244 40.8217 381.181C45.3509 384.853 54.278 381.604 57.9089 381.347C61.5398 381.089 72.8593 378.566 73.7127 375.062C74.566 371.559 71.7884 368.314 64.91 365.496C58.0316 362.679 57.6717 362.039 51.5366 356.529C45.2127 350.85 38.9285 335.046 35.6793 326.119C32.0881 316.252 31.7022 313.732 36.2304 311.552C42.9819 308.301 42.9392 308.054 41.784 301.371L41.7265 301.038C40.6748 294.944 37.048 275.479 35.1052 264.606C32.8735 252.116 25.8333 255.21 22.5841 246.283C20.5235 240.622 21.2102 224.968 21.8925 220.995C23.0622 214.184 28.0806 198.523 33.7602 192.199C38.1112 187.354 47.5699 186.286 52.8954 186.299C71.0358 184.485 111.631 180.138 118.808 178.803C127.778 177.135 124.532 179.912 130.428 181.491C136.323 183.07 137.527 181.993 139.27 180.933C141.448 179.608 136.746 169.614 150.843 170.336C165.538 169.776 191.144 162.583 206.756 155.838C222.39 149.084 228.582 144.169 241.225 137.972C255.448 131.731 260.231 127.329 266.893 122.244C273.14 117.476 280.765 100.7 284.996 90.1149C296.693 60.8494 298.867 32.3894 299.926 17.1056C300.743 5.31525 292.689 5.0186 288.56 6.34407L274.934 11.3034C269.296 13.3555 269.297 13.3552 268.101 15.9186C266.108 20.1936 271.109 27.6965 275.496 31.8502C280.367 36.4623 283.657 41.1179 277.422 44.4517C270.296 48.2615 269.457 38.7231 267.038 34.9287C264.56 31.0418 263.449 30.914 260.928 25.4468C258.406 19.9797 260.545 12.2837 258.103 8.91584C252.609 1.33809 247.679 3.66461 243.408 9.47577C239.036 15.4245 234.398 21.2686 227.053 30.3269C219.708 39.3853 213.09 46.051 200.365 66.645C197.02 72.0589 193.405 78.2236 205.027 86.7637C214.471 93.7034 221.198 111.588 217.682 121.532C214.012 131.914 197.526 142.171 184.583 143.157C171.639 144.144 159.038 146.07 151.051 148.977C146.796 150.525 132.3 157.398 124.954 160.604C117.607 163.81 103.979 162.917 97.5291 164.2C91.0791 165.484 63.3782 174.341 57.5065 175.575C50.5873 177.029 34.1403 177.162 22.6491 179.216C11.0641 181.287 12.3563 184.559 12.8704 191.821C13.2836 197.659 9.62982 212.156 6.2148 220.316C3.47135 226.871 4.63943 237.916 4.64116 243.768Z" stroke="black" stroke-width="8"/>
<path d="M69.2279 378.823L54.4476 376.221C53.6927 375.609 52.2168 373.309 52.3523 369.003C52.4877 364.697 47.6786 360.062 45.2572 358.283C43.1204 355.336 38.2399 348.067 35.8119 342.566C33.3839 337.064 26.9902 316.866 24.0968 307.455C22.7287 303.696 22.6658 284.032 17.3393 280.117C13.8528 277.555 12.8085 270.593 11.5682 265.723C10.3278 260.854 4.63616 226.211 4.63616 226.211" stroke="#5B93FF" stroke-width="2"/>
<path d="M4.64116 243.768C4.64254 248.45 5.27279 261.097 5.75876 267.306C5.99564 270.412 7.55868 286.87 9.35515 294.729C10.2857 298.801 12.9915 312.029 16.2407 320.956C18.5352 327.748 23.1247 341.33 27.6547 350.855C33.4686 363.08 37.2288 365.462 39.1099 370.63C40.991 375.798 38.1287 375.244 40.8217 381.181C45.3509 384.853 54.278 381.604 57.9089 381.347C61.5398 381.089 72.8593 378.566 73.7127 375.062C74.566 371.559 71.7884 368.314 64.91 365.496C58.0316 362.679 57.6717 362.039 51.5366 356.529C45.2127 350.85 38.9285 335.046 35.6793 326.119C32.0881 316.252 31.7022 313.732 36.2304 311.552C42.9819 308.301 42.9392 308.054 41.784 301.371L41.7265 301.038C40.6748 294.944 37.048 275.479 35.1052 264.606C32.8735 252.116 25.8333 255.21 22.5841 246.283C20.5235 240.622 21.2102 224.968 21.8925 220.995C23.0622 214.184 28.0806 198.523 33.7602 192.199C38.1112 187.354 47.5699 186.286 52.8954 186.299C71.0358 184.485 111.631 180.138 118.808 178.803C127.778 177.135 124.532 179.912 130.428 181.491C136.323 183.07 137.527 181.993 139.27 180.933C141.448 179.608 136.746 169.614 150.843 170.336C165.538 169.776 191.144 162.583 206.756 155.838C222.39 149.084 228.582 144.169 241.225 137.972C255.448 131.731 260.231 127.329 266.893 122.244C273.14 117.476 280.765 100.7 284.996 90.1149C296.693 60.8494 298.867 32.3894 299.926 17.1056C300.743 5.31525 292.689 5.0186 288.56 6.34407L274.934 11.3034C269.296 13.3555 269.297 13.3552 268.101 15.9186C266.108 20.1936 271.109 27.6965 275.496 31.8502C280.367 36.4623 283.657 41.1179 277.422 44.4517C270.296 48.2615 269.457 38.7231 267.038 34.9287C264.56 31.0418 263.449 30.914 260.928 25.4468C258.406 19.9797 260.545 12.2837 258.103 8.91584C252.609 1.33809 247.679 3.66461 243.408 9.47577C239.036 15.4245 234.398 21.2686 227.053 30.3269C219.708 39.3853 213.09 46.051 200.365 66.645C197.02 72.0589 193.405 78.2236 205.027 86.7637C214.471 93.7034 221.198 111.588 217.682 121.532C214.012 131.914 197.526 142.171 184.583 143.157C171.639 144.144 159.038 146.07 151.051 148.977C146.796 150.525 132.3 157.398 124.954 160.604C117.607 163.81 103.979 162.917 97.5291 164.2C91.0791 165.484 63.3782 174.341 57.5065 175.575C50.5873 177.029 34.1403 177.162 22.6491 179.216C11.0641 181.287 12.3563 184.559 12.8704 191.821C13.2836 197.659 9.62982 212.156 6.2148 220.316C3.47135 226.871 4.63943 237.916 4.64116 243.768Z" stroke="white" stroke-width="2"/>
<path d="M38.7393 369.701C36.7559 365.13 33.109 362.325 27.6545 350.855C23.1246 341.33 18.535 327.747 16.2405 320.956C12.9913 312.029 10.2855 298.8 9.35496 294.729C7.55849 286.87 5.99545 270.412 5.75857 267.306C5.27261 261.097 4.64236 248.45 4.64097 243.768C4.63925 237.916 3.47116 226.871 6.21461 220.316C8.46651 214.935 10.8222 206.799 12.0472 200.207" stroke="url(#paint0_radial_8497_1119)" stroke-width="2"/>
<path d="M47.3778 343.644C48.1334 345.72 47.0631 348.015 44.9871 348.771C42.9112 349.526 40.6159 348.456 39.8603 346.38C39.1047 344.304 40.1751 342.009 42.251 341.253C44.3269 340.497 46.6223 341.568 47.3778 343.644Z" fill="#00FF38"/>
<path d="M19.584 217.578L25.7784 218.516" stroke="black" stroke-width="2"/>
<path d="M228.461 23.9615L233.46 27.4629" stroke="black" stroke-width="2"/>
<defs>
<radialGradient id="paint0_radial_8497_1119" cx="0" cy="0" r="1" gradientUnits="userSpaceOnUse" gradientTransform="translate(23.1244 285.714) rotate(82.4487) scale(86.8035 27.2714)">
<stop stop-color="#39FF65" stop-opacity="0.5"/>
<stop offset="1" stop-color="#00FF38"/>
</radialGradient>
</defs>
</svg>
