<svg width="150" height="447" viewBox="0 0 150 447" fill="none" xmlns="http://www.w3.org/2000/svg">
<g clip-path="url(#clip0_8501_1201)">
<path d="M121.342 264.527C126.866 281.542 120.48 284.32 124.928 303.094C127.926 317.543 135.268 352.085 138.565 367.55C139.222 373.919 140.134 383.826 139.818 388.067C139.423 393.367 138.994 402.91 141.761 410.71C143.856 416.614 147.162 428.313 148.66 432.685" stroke="#5B93FF" stroke-width="2"/>
<path d="M129.736 411.324C133.295 390.42 131.583 371.149 130.108 363.948C125.275 343.12 118.147 311.173 114.784 289.225C113.539 279.415 111.733 272.585 114.94 269.428C118.876 265.554 119.309 265.827 117.852 258.844C113.763 239.248 103.819 190.849 96.7543 154.023C89.6894 117.197 85.5112 99.8386 82.0379 92.0339C75.7907 77.1352 64.6985 48.7619 61.2307 40.2501C59.165 33.1626 57.7332 35.2717 56.1247 15.1069C55.5333 0.251587 41.9998 5.15471 46.2144 16.4434C55.2167 40.5554 54.9557 73.7884 45.8321 110.135C42.2013 122.127 38.4881 144.726 28.2225 146.414C21.5126 145.299 18.9961 150.583 18.2567 154.821C11.0071 177.391 6.82879 199.875 6.13619 212.356C4.90062 234.621 5.64747 274.579 10.5203 284.518C13.6272 294.089 18.9044 297.311 29.5283 295.275C37.2241 294.539 37.9679 300.997 37.93 305.947C37.4505 321.853 37.4061 327.51 37.3349 336.703C37.25 347.668 39.3496 350.153 45.3248 354.797C57.968 365.503 57.968 365.503 69.8718 380.446L69.9463 380.539C72.7369 384.042 76.146 388.32 72.951 393.552C70.3721 397.774 72.8843 402.037 74.9899 404.176L90.7744 420.21C95.8254 425.341 103.424 430.209 106.592 432.002C110.699 434.273 121.738 439.262 133.038 441.048C146.549 443.184 148.195 430.655 138.8 427.658C128.572 424.396 128.617 418.74 129.736 411.324Z" fill="black" fill-opacity="0.1"/>
<path d="M129.736 411.324C133.295 390.42 131.583 371.149 130.108 363.948C125.275 343.12 118.147 311.173 114.784 289.225C113.539 279.415 111.733 272.585 114.94 269.428C118.876 265.554 119.309 265.827 117.852 258.844C113.763 239.248 103.819 190.849 96.7543 154.023C89.6894 117.197 85.5112 99.8386 82.0379 92.0339C75.7907 77.1352 64.6985 48.7619 61.2307 40.2501C59.165 33.1626 57.7332 35.2717 56.1247 15.1069C55.5333 0.251587 41.9998 5.15471 46.2144 16.4434C55.2167 40.5554 54.9557 73.7884 45.8321 110.135C42.2013 122.127 38.4881 144.726 28.2225 146.414C21.5126 145.299 18.9961 150.583 18.2567 154.821C11.0071 177.391 6.82879 199.875 6.13619 212.356C4.90062 234.621 5.64747 274.579 10.5203 284.518C13.6272 294.089 18.9044 297.311 29.5283 295.275C37.2241 294.539 37.9679 300.997 37.93 305.947C37.4505 321.853 37.4061 327.51 37.3349 336.703C37.25 347.668 39.3496 350.153 45.3248 354.797C57.968 365.503 57.968 365.503 69.8718 380.446L69.9463 380.539C72.7369 384.042 76.146 388.32 72.951 393.552C70.3721 397.774 72.8843 402.037 74.9899 404.176L90.7744 420.21C95.8254 425.341 103.424 430.209 106.592 432.002C110.699 434.273 121.738 439.262 133.038 441.048C146.549 443.184 148.195 430.655 138.8 427.658C128.572 424.396 128.617 418.74 129.736 411.324Z" stroke="black" stroke-width="10"/>
<path d="M129.736 411.324C133.295 390.42 131.583 371.149 130.108 363.948C125.275 343.12 118.147 311.173 114.784 289.225C113.539 279.415 111.733 272.585 114.94 269.428C118.876 265.554 119.309 265.827 117.852 258.844C113.763 239.248 103.819 190.849 96.7543 154.023C89.6894 117.197 85.5112 99.8386 82.0379 92.0339C75.7907 77.1352 64.6985 48.7619 61.2307 40.2501C59.165 33.1626 57.7332 35.2717 56.1247 15.1069C55.5333 0.251587 41.9998 5.15471 46.2144 16.4434C55.2167 40.5554 54.9557 73.7884 45.8321 110.135C42.2013 122.127 38.4881 144.726 28.2225 146.414C21.5126 145.299 18.9961 150.583 18.2567 154.821C11.0071 177.391 6.82879 199.875 6.13619 212.356C4.90062 234.621 5.64747 274.579 10.5203 284.518C13.6272 294.089 18.9044 297.311 29.5283 295.275C37.2241 294.539 37.9679 300.997 37.93 305.947C37.4505 321.853 37.4061 327.51 37.3349 336.703C37.25 347.668 39.3496 350.153 45.3248 354.797C57.968 365.503 57.968 365.503 69.8718 380.446L69.9463 380.539C72.7369 384.042 76.146 388.32 72.951 393.552C70.3721 397.774 72.8843 402.037 74.9899 404.176L90.7744 420.21C95.8254 425.341 103.424 430.209 106.592 432.002C110.699 434.273 121.738 439.262 133.038 441.048C146.549 443.184 148.195 430.655 138.8 427.658C128.572 424.396 128.617 418.74 129.736 411.324Z" stroke="white" stroke-width="2"/>
<path d="M78.7428 84.0477C79.9296 86.9605 81.0441 89.6669 82.0364 92.0334C85.5097 99.8381 89.6879 117.197 96.7528 154.023C103.533 189.365 112.965 235.365 117.328 256.336" stroke="url(#paint0_radial_8501_1201)" stroke-opacity="0.8" stroke-width="2"/>
<path d="M16.9869 158.876C10.5193 180.05 6.78776 200.623 6.13666 212.356C5.2592 228.168 5.38155 252.903 7.27148 269.473" stroke="url(#paint1_radial_8501_1201)" stroke-opacity="0.8" stroke-width="2"/>
<path d="M129.736 411.324C133.295 390.421 131.583 371.15 130.108 363.949C125.275 343.121 118.147 311.173 114.784 289.226M114.784 289.226C114.721 288.731 114.657 288.244 114.592 287.764L114.784 289.226Z" stroke="url(#paint2_radial_8501_1201)" stroke-opacity="0.8" stroke-width="2"/>
<circle cx="38.6753" cy="345.905" r="4" transform="rotate(-134.55 38.6753 345.905)" fill="#00FF38"/>
<circle cx="48.4038" cy="97.7794" r="4" transform="rotate(-134.55 48.4038 97.7794)" fill="#00FF38"/>
<path d="M105.408 369.165L104.422 364.972L108.615 363.985L109.601 368.178L105.408 369.165Z" fill="white"/>
<path d="M113.764 367.195L112.777 363.002L116.97 362.015L117.957 366.208L113.764 367.195Z" fill="white"/>
<path d="M109.586 368.18L108.599 363.987L112.792 363L113.779 367.193L109.586 368.18Z" fill="black"/>
<path d="M117.941 366.21L116.955 362.017L121.148 361.031L122.134 365.224L117.941 366.21Z" fill="black"/>
<path d="M106.395 373.358L105.408 369.165L109.601 368.178L110.588 372.371L106.395 373.358Z" fill="black"/>
<path d="M114.75 371.388L113.764 367.195L117.957 366.208L118.943 370.401L114.75 371.388Z" fill="black"/>
<path d="M110.572 372.373L109.586 368.18L113.779 367.193L114.765 371.386L110.572 372.373Z" fill="white"/>
<path d="M118.928 370.403L117.941 366.21L122.134 365.223L123.121 369.416L118.928 370.403Z" fill="white"/>
<path fill-rule="evenodd" clip-rule="evenodd" d="M135.046 364.362L125.199 366.779L124.773 363.622L134.619 361.206L135.046 364.362Z" fill="black"/>
</g>
<defs>
<radialGradient id="paint0_radial_8501_1201" cx="0" cy="0" r="1" gradientUnits="userSpaceOnUse" gradientTransform="translate(98.1854 170.393) rotate(78.3888) scale(85.5861 57.5842)">
<stop stop-color="#39FF65" stop-opacity="0.7"/>
<stop offset="1" stop-color="#00FF38"/>
</radialGradient>
<radialGradient id="paint1_radial_8501_1201" cx="0" cy="0" r="1" gradientUnits="userSpaceOnUse" gradientTransform="translate(12.191 214.281) rotate(-4.4021) scale(55.6495 40.9352)">
<stop stop-color="#39FF65" stop-opacity="0.5"/>
<stop offset="1" stop-color="#00FF38"/>
</radialGradient>
<radialGradient id="paint2_radial_8501_1201" cx="0" cy="0" r="1" gradientUnits="userSpaceOnUse" gradientTransform="translate(122.259 349.68) rotate(7.61127) scale(62.2677 45.024)">
<stop stop-color="#39FF65" stop-opacity="0.5"/>
<stop offset="1" stop-color="#00FF38"/>
</radialGradient>
<clipPath id="clip0_8501_1201">
<rect width="150" height="447" fill="white"/>
</clipPath>
</defs>
</svg>
