<svg width="233" height="392" viewBox="0 0 233 392" fill="none" xmlns="http://www.w3.org/2000/svg">
<g clip-path="url(#clip0_2351_624)">
<path d="M119.89 199.561C118.898 199.689 112.73 201.895 103.157 202.725C77.8513 201.952 73.1328 206.593 70.8111 209.917C58.042 228.198 30.9997 267.172 24.7274 274.836C18.4552 282.5 23.4767 288.609 26.9631 292.193C26.9631 292.193 45.947 310.417 58.5328 325.936C69.5027 339.143 82.2805 357.662 82.2805 357.662L89.9074 373.82" stroke="#0057FF" stroke-width="2"/>
<path d="M61.4383 207.596L27.6917 254.794C21.2753 263.687 14.5545 274.131 7.27389 284.143C1.11301 295.02 5.83712 303.766 10.2275 310.986L11.7025 313.181C12.7966 314.808 14.0089 316.353 15.3296 317.803L17.456 320.137C22.1897 325.577 26.8134 322.336 29.0533 320.156C30.8453 318.413 34.9026 311.336 42.0107 318.992C51.6697 331.357 74.061 348.638 84.3102 369.5C97.3247 400.088 120.587 384.992 127.724 369.958C127.724 369.958 137.278 354.108 143.007 343.791C176.678 276.438 192.877 242.591 200.01 230.581C207.403 217.529 209.898 221.241 218.122 214.636C233.032 205.154 228.588 194.131 221.487 185.971C214.386 177.812 211.941 170.565 217.591 155.721C223.24 140.878 224.133 136.97 217.244 129.551C211.391 123.247 211.169 113.698 210.403 107.747C209.718 90.6944 205.006 58.0287 205.006 58.0287C196.921 18.7398 192.029 4.24594 169.89 4.57672L87.9382 14.1249C55.96 20.2606 54.1495 33.6012 37.9545 64.4228C35.0581 69.3331 31.6473 85.905 47.3396 86.4039C60.2331 84.7431 60.03 75.6949 59.549 67.6907C59.2818 46.0479 79.0284 50.6256 86.985 57.6029C113.886 81.1928 169.175 128.181 184.481 141.334C197.852 151.206 195.132 153.573 189.095 181.069C184.997 196.217 175.077 189.429 171.757 171.708C168.417 157.519 160.002 162.635 155.986 166.681L141.65 180.628C134.546 188.096 118.723 202.234 95.2572 196.182C71.1043 188.706 63.9666 203.742 61.4383 207.596Z" stroke="black" stroke-width="8"/>
<path d="M61.4383 207.596L27.6917 254.794C21.2753 263.687 14.5545 274.131 7.27389 284.143C1.11301 295.02 5.83712 303.766 10.2275 310.986L11.7025 313.181C12.7966 314.808 14.0089 316.353 15.3296 317.803L17.456 320.137C22.1897 325.577 26.8134 322.336 29.0533 320.156C30.8453 318.413 34.9026 311.336 42.0107 318.992C51.6697 331.357 74.061 348.638 84.3102 369.5C97.3247 400.088 120.587 384.992 127.724 369.958C127.724 369.958 137.278 354.108 143.007 343.791C176.678 276.438 192.877 242.591 200.01 230.581C207.403 217.529 209.898 221.241 218.122 214.636C233.032 205.154 228.588 194.131 221.487 185.971C214.386 177.812 211.941 170.565 217.591 155.721C223.24 140.878 224.133 136.97 217.244 129.551C211.391 123.247 211.169 113.698 210.403 107.747C209.718 90.6944 205.006 58.0287 205.006 58.0287C196.921 18.7398 192.029 4.24594 169.89 4.57672L87.9382 14.1249C55.96 20.2606 54.1495 33.6012 37.9545 64.4228C35.0581 69.3331 31.6473 85.905 47.3396 86.4039C60.2331 84.7431 60.03 75.6949 59.549 67.6907C59.2818 46.0479 79.0284 50.6256 86.985 57.6029C113.886 81.1928 169.175 128.181 184.481 141.334C197.852 151.206 195.132 153.573 189.095 181.069C184.997 196.217 175.077 189.429 171.757 171.708C168.417 157.519 160.002 162.635 155.986 166.681L141.65 180.628C134.546 188.096 118.723 202.234 95.2572 196.182C71.1043 188.706 63.9666 203.742 61.4383 207.596Z" stroke="white" stroke-width="2"/>
<path fill-rule="evenodd" clip-rule="evenodd" d="M12.4456 269.527L19.4561 274.375L18.4781 275.743L11.4676 270.894L12.4456 269.527Z" fill="white"/>
</g>
<defs>
<clipPath id="clip0_2351_624">
<rect width="233" height="392" fill="white"/>
</clipPath>
</defs>
</svg>
