<svg width="380" height="244" viewBox="0 0 380 244" fill="none" xmlns="http://www.w3.org/2000/svg">
<g clip-path="url(#clip0_2351_624)">
<path d="M188.322 130.927C188.322 129.927 186.922 123.527 187.322 113.927C191.322 88.9269 187.322 83.6542 184.322 80.9269C167.822 65.9269 132.622 34.1269 125.822 26.9269C119.022 19.7269 112.322 23.9269 108.322 26.9268C108.322 26.9268 87.8223 43.4269 70.8223 53.9269C56.3223 63.1197 36.3223 73.4268 36.3223 73.4268L19.3223 78.9269" stroke="#0057FF" stroke-width="2"/>
<path d="M187.822 71.9267L145.321 32.4267C137.321 24.9267 127.821 16.9267 118.821 8.42664C108.821 0.926733 99.5431 4.49475 91.8206 7.92668L89.4558 9.10924C87.7018 9.9864 86.0146 10.9914 84.4079 12.116L81.8212 13.9268C75.8212 17.9268 78.4456 22.9267 80.3206 25.4267C81.8206 27.4267 88.3212 32.3549 79.8206 38.4267C66.3223 46.4268 46.3223 66.4268 24.3215 73.9267C-7.67819 82.9268 4.32227 107.927 18.3215 116.927C18.3215 116.927 32.8212 128.427 42.3215 135.427C104.821 177.427 136.321 197.817 147.322 206.427C159.321 215.427 155.321 217.427 160.822 226.427C168.321 242.427 179.822 239.427 188.822 233.427C197.822 227.427 205.322 225.927 219.322 233.427C233.322 240.927 237.083 242.311 245.322 236.427C252.321 231.427 261.821 232.427 267.821 232.427C284.821 233.927 317.821 233.427 317.821 233.427C357.821 230.427 372.821 227.427 375.322 205.427L376.322 122.927C374.322 90.4267 361.322 86.9267 332.822 66.9267C328.322 63.4267 312.321 57.9267 309.822 73.4267C309.822 86.4267 318.822 87.3812 326.822 87.9267C348.321 90.4267 341.258 109.427 333.322 116.427C306.488 140.093 252.821 188.927 237.821 202.427C226.321 214.427 224.321 211.427 197.822 201.927C183.321 195.927 191.321 186.955 209.321 185.927C223.821 184.427 219.822 175.427 216.322 170.927L204.321 154.927C197.821 146.927 185.821 129.427 194.822 106.927C205.321 83.9267 191.321 74.9267 187.822 71.9267Z" stroke="black" stroke-width="8"/>
<path d="M187.822 71.9267L145.321 32.4267C137.321 24.9267 127.821 16.9267 118.821 8.42664C108.821 0.926733 99.5431 4.49475 91.8206 7.92668L89.4558 9.10924C87.7018 9.9864 86.0146 10.9914 84.4079 12.116L81.8212 13.9268C75.8212 17.9268 78.4456 22.9267 80.3206 25.4267C81.8206 27.4267 88.3212 32.3549 79.8206 38.4267C66.3223 46.4268 46.3223 66.4268 24.3215 73.9267C-7.67819 82.9268 4.32227 107.927 18.3215 116.927C18.3215 116.927 32.8212 128.427 42.3215 135.427C104.821 177.427 136.321 197.817 147.322 206.427C159.321 215.427 155.321 217.427 160.822 226.427C168.321 242.427 179.822 239.427 188.822 233.427C197.822 227.427 205.322 225.927 219.322 233.427C233.322 240.927 237.083 242.311 245.322 236.427C252.321 231.427 261.821 232.427 267.821 232.427C284.821 233.927 317.821 233.427 317.821 233.427C357.821 230.427 372.821 227.427 375.322 205.427L376.322 122.927C374.322 90.4267 361.322 86.9267 332.822 66.9267C328.322 63.4267 312.321 57.9267 309.822 73.4267C309.822 86.4267 318.822 87.3812 326.822 87.9267C348.321 90.4267 341.258 109.427 333.322 116.427C306.488 140.093 252.821 188.927 237.821 202.427C226.321 214.427 224.321 211.427 197.822 201.927C183.321 195.927 191.321 186.955 209.321 185.927C223.821 184.427 219.822 175.427 216.322 170.927L204.321 154.927C197.821 146.927 185.821 129.427 194.822 106.927C205.321 83.9267 191.321 74.9267 187.822 71.9267Z" stroke="white" stroke-width="2"/>
<path fill-rule="evenodd" clip-rule="evenodd" d="M132.657 15.4232L126.953 21.7568L125.721 20.6121L131.426 14.2785L132.657 15.4232Z" fill="white"/>
</g>
<defs>
<clipPath id="clip0_2351_624">
<rect width="380" height="244" fill="white"/>
</clipPath>
</defs>
</svg>
