<svg width="382" height="429" viewBox="0 0 382 429" fill="none" xmlns="http://www.w3.org/2000/svg">
<path d="M9.68963 243.721L211.859 412.724C228.775 428.339 242.633 424.342 249.795 416.647C256.956 408.953 255.396 394.537 248.524 388.725L216.014 360.578C206.469 352.506 205.175 345.518 211.309 338.265C216.124 332.571 223.14 331.244 231.098 337.319L251.392 355.136L271.775 378.266C282.26 389.098 288.922 379.671 292.21 376.558L369.376 293.826C382.127 279.987 375.857 265.255 369.895 257.594C366.17 251.998 358.938 241.126 358.938 241.126C348.904 226.354 350.798 215.907 351.646 204.837L358.271 165.257C358.942 152.074 349.692 147.525 344.642 146.528L320.535 142.513C310.505 141.365 307.075 132.876 306.614 128.776L297.119 87.3502C296.501 84.2087 296.793 79.2173 301.754 74.8998C306.32 70.9259 302.867 65.5822 301.193 63.9483L263.658 22.3838C244.833 5.15426 231.032 1.34127 220.024 9.7123C211.218 16.4091 211.054 25.4817 212.073 29.1809L225.593 80.5588C227.71 88.8968 224.745 91.6282 222.867 94.6236L209.366 111.363C202.133 119.915 196.864 131.567 196.864 131.567L147.475 224.039C142.287 233.272 145.219 240.903 147.334 243.564L158.644 264.26C162.149 269.407 167.299 282.057 159.856 291.478C152.412 300.899 139.979 295.623 134.693 291.808L80.5387 246.666C60.158 232.05 43.0978 227.445 18.963 227.335C0.277869 227.249 4.7263 239.524 9.68963 243.721Z" fill="black" fill-opacity="0.1"/>
<path d="M9.68963 243.721L211.859 412.724C228.775 428.339 242.633 424.342 249.795 416.647C256.956 408.953 255.396 394.537 248.524 388.725L216.014 360.578C206.469 352.506 205.175 345.518 211.309 338.265C216.124 332.571 223.14 331.244 231.098 337.319L251.392 355.136L271.775 378.266C282.26 389.098 288.922 379.671 292.21 376.558L369.376 293.826C382.127 279.987 375.857 265.255 369.895 257.594C366.17 251.998 358.938 241.126 358.938 241.126C348.904 226.354 350.798 215.907 351.646 204.837L358.271 165.257C358.942 152.074 349.692 147.525 344.642 146.528L320.535 142.513C310.505 141.365 307.075 132.876 306.614 128.776L297.119 87.3502C296.501 84.2087 296.793 79.2173 301.754 74.8998C306.32 70.9259 302.867 65.5822 301.193 63.9483L263.658 22.3838C244.833 5.15426 231.032 1.34127 220.024 9.7123C211.218 16.4091 211.054 25.4817 212.073 29.1809L225.593 80.5588C227.71 88.8968 224.745 91.6282 222.867 94.6236L209.366 111.363C202.133 119.915 196.864 131.567 196.864 131.567L147.475 224.039C142.287 233.272 145.219 240.903 147.334 243.564L158.644 264.26C162.149 269.407 167.299 282.057 159.856 291.478C152.412 300.899 139.979 295.623 134.693 291.808L80.5387 246.666C60.158 232.05 43.0978 227.445 18.963 227.335C0.277869 227.249 4.7263 239.524 9.68963 243.721Z" stroke="black" stroke-width="10"/>
<path d="M217.159 361.546L243.886 392.661C253.99 403.17 242.459 430.743 215.234 406.411L101.698 313.016L51.5684 277.827" stroke="#5B93FF" stroke-width="2"/>
<path d="M9.68963 243.721L211.859 412.724C228.775 428.339 242.633 424.342 249.795 416.647C256.956 408.953 255.396 394.537 248.524 388.725L216.014 360.578C206.469 352.506 205.175 345.518 211.309 338.265C216.124 332.571 223.14 331.244 231.098 337.319L251.392 355.136L271.775 378.266C282.26 389.098 288.922 379.671 292.21 376.558L369.376 293.826C382.127 279.987 375.857 265.255 369.895 257.594C366.17 251.998 358.938 241.126 358.938 241.126C348.904 226.354 350.798 215.907 351.646 204.837L358.271 165.257C358.942 152.074 349.692 147.525 344.642 146.528L320.535 142.513C310.505 141.365 307.075 132.876 306.614 128.776L297.119 87.3502C296.501 84.2087 296.793 79.2173 301.754 74.8998C306.32 70.9259 302.867 65.5822 301.193 63.9483L263.658 22.3838C244.833 5.15426 231.032 1.34127 220.024 9.7123C211.218 16.4091 211.054 25.4817 212.073 29.1809L225.593 80.5588C227.71 88.8968 224.745 91.6282 222.867 94.6236L209.366 111.363C202.133 119.915 196.864 131.567 196.864 131.567L147.475 224.039C142.287 233.272 145.219 240.903 147.334 243.564L158.644 264.26C162.149 269.407 167.299 282.057 159.856 291.478C152.412 300.899 139.979 295.623 134.693 291.808L80.5387 246.666C60.158 232.05 43.0978 227.445 18.963 227.335C0.277869 227.249 4.7263 239.524 9.68963 243.721Z" stroke="white" stroke-width="2"/>
<path d="M18.9633 227.334C43.098 227.445 60.1582 232.05 80.5389 246.666L122.787 281.882M207.639 409.196L21.9657 253.982" stroke="url(#paint0_radial_8518_7393)" stroke-width="2"/>
<path d="M164.168 376.976L168.365 372.013" stroke="black" stroke-width="4"/>
<path d="M198.857 121.466L203.703 124.254" stroke="black" stroke-width="4"/>
<path d="M346.891 313.445L351.532 318.024" stroke="black" stroke-width="4"/>
<path d="M249.745 384.276C251.432 385.702 251.643 388.226 250.217 389.913C248.79 391.6 246.267 391.811 244.58 390.384C242.893 388.958 242.682 386.434 244.108 384.747C245.535 383.06 248.059 382.849 249.745 384.276Z" fill="#00FF38"/>
<path d="M183.893 354.127L187.182 356.909L184.4 360.198L181.111 357.417L183.893 354.127Z" fill="white"/>
<path d="M178.352 360.685L181.641 363.467L178.859 366.756L175.57 363.974L178.352 360.685Z" fill="white"/>
<path d="M181.121 357.407L184.41 360.188L181.629 363.477L178.34 360.696L181.121 357.407Z" fill="black"/>
<path d="M175.582 363.964L178.871 366.745L176.09 370.034L172.801 367.253L175.582 363.964Z" fill="black"/>
<path d="M180.604 351.346L183.893 354.128L181.111 357.417L177.822 354.635L180.604 351.346Z" fill="black"/>
<path d="M175.062 357.903L178.352 360.685L175.57 363.974L172.281 361.192L175.062 357.903Z" fill="black"/>
<path d="M177.832 354.625L181.121 357.406L178.34 360.696L175.051 357.914L177.832 354.625Z" fill="white"/>
<path d="M172.293 361.182L175.582 363.964L172.801 367.253L169.512 364.471L172.293 361.182Z" fill="white"/>
<defs>
<radialGradient id="paint0_radial_8518_7393" cx="0" cy="0" r="1" gradientUnits="userSpaceOnUse" gradientTransform="translate(120.935 309.091) rotate(49.6357) scale(133.42 32.1386)">
<stop stop-color="#39FF65" stop-opacity="0.5"/>
<stop offset="1" stop-color="#00FF38"/>
</radialGradient>
</defs>
</svg>
