<svg width="68" height="68" viewBox="0 0 68 68" fill="none" xmlns="http://www.w3.org/2000/svg">
<path d="M51.6793 60.6565C57.9221 56.5209 62.5162 50.3247 64.6606 43.1481C66.805 35.9715 66.3638 28.2696 63.4139 21.385C60.464 14.5005 55.1925 8.86984 48.5182 5.47468C41.844 2.07952 34.1904 1.13516 26.8915 2.8062M51.6793 60.6565V48.2171M51.6793 60.6565H64.1958M16.2332 7.40167C10.0119 11.5525 5.44171 17.7535 3.31736 24.9261C1.193 32.0987 1.64886 39.7893 4.60567 46.6605C7.56247 53.5318 12.8332 59.1489 19.5012 62.5352C26.1692 65.9215 33.8128 66.8627 41.1027 65.1951M16.2332 7.40167V19.7842M16.2332 7.40167H3.79841" stroke="white" stroke-width="4" stroke-linecap="round" stroke-linejoin="round"/>
</svg>
