<svg width="520" height="250" viewBox="0 0 520 250" fill="none" xmlns="http://www.w3.org/2000/svg">
<path d="M333.877 3.31352C335.998 2.74609 338.258 3.04315 340.16 4.13935C342.061 5.23555 343.449 7.04111 344.018 9.15881C344.586 11.2765 344.288 13.5329 343.19 15.4316L275.5 132.469L266.281 115.345L328.849 7.16509C329.947 5.26641 331.756 3.88096 333.877 3.31352Z" fill="black"/>
<path d="M203.823 228.207C203.255 226.09 203.553 223.833 204.651 221.935L240.766 159.505L250.327 176.038L218.992 230.201C217.894 232.1 216.085 233.485 213.964 234.053C211.843 234.62 209.583 234.323 207.681 233.227C205.779 232.131 204.392 230.325 203.823 228.207Z" fill="black"/>
<path d="M508.879 118.764C508.152 117.508 507.107 116.464 505.848 115.738C504.589 115.013 503.162 114.631 501.708 114.631C484.434 112.452 467.817 106.648 452.95 97.5986C440.511 89.1636 429.963 78.2404 421.975 65.5215C414.36 53.1723 404.279 42.5206 392.362 34.2297C382.011 28.2786 370.577 24.4458 358.726 22.9553L287.726 145.732C300.02 146.014 312.042 149.397 322.672 155.566C332.614 162.689 341.048 171.703 347.49 182.09C356.807 196.732 369.128 209.235 383.641 218.773C400.676 229.069 419.728 235.591 439.507 237.898C441.034 237.985 442.555 237.648 443.901 236.924C445.248 236.201 446.367 235.119 447.136 233.8L508.945 126.916C509.641 125.667 510 124.26 509.988 122.831C509.977 121.403 509.594 120.001 508.879 118.764V118.764Z" fill="black"/>
<path d="M179.84 4.13813C181.742 3.04192 184.002 2.74486 186.123 3.3123C188.244 3.87974 190.053 5.26519 191.151 7.16387L315.349 221.933C316.447 223.832 316.745 226.089 316.176 228.206C315.608 230.324 314.22 232.129 312.319 233.226C310.417 234.322 308.157 234.619 306.036 234.052C303.915 233.484 302.106 232.099 301.008 230.2L176.809 15.4304C175.711 13.5317 175.414 11.2753 175.982 9.15759C176.551 7.03988 177.938 5.23433 179.84 4.13813Z" fill="black"/>
<path d="M11.121 118.764C11.8477 117.508 12.8929 116.464 14.1516 115.738C15.4103 115.013 16.8382 114.631 18.2916 114.631C35.5661 112.452 52.183 106.648 67.0498 97.5986C79.4888 89.1636 90.0367 78.2404 98.025 65.5215C105.64 53.1723 115.72 42.5206 127.638 34.2297C137.988 28.2786 149.423 24.4458 161.273 22.9553L232.274 145.732C219.98 146.014 207.958 149.397 197.327 155.566C187.386 162.689 178.952 171.703 172.51 182.09C163.193 196.732 150.871 209.235 136.359 218.773C119.323 229.069 100.272 235.591 80.4925 237.898C78.966 237.985 77.4452 237.648 76.0987 236.924C74.7522 236.201 73.6327 235.119 72.8642 233.8L11.0546 126.916C10.3592 125.667 9.9997 124.26 10.0113 122.831C10.023 121.403 10.4053 120.001 11.121 118.764Z" fill="black"/>
</svg>
