<svg width="256" height="83" viewBox="0 0 256 83" fill="none" xmlns="http://www.w3.org/2000/svg">
<path d="M50.4409 54.7163C49.0679 54.3632 47.621 54.4252 46.2832 54.8944C44.9454 55.3637 43.7768 56.2192 42.9252 57.3526C42.0736 58.4861 41.5772 59.8466 41.4989 61.2622C41.4206 62.6777 41.7639 64.0847 42.4853 65.3052C43.2067 66.5256 44.2738 67.5048 45.5517 68.1187C46.8296 68.7327 48.2608 68.9538 49.6644 68.7543C51.068 68.5548 52.381 67.9435 53.4371 66.9977C54.4933 66.052 55.2452 64.8142 55.5979 63.4411C56.0679 61.6004 55.7889 59.6485 54.8223 58.0131C53.8556 56.3777 52.2801 55.1921 50.4409 54.7163ZM51.3903 62.3592C51.2599 62.8719 50.9881 63.3378 50.606 63.7038C50.2239 64.0697 49.7467 64.3211 49.2287 64.4292C48.7108 64.5373 48.1729 64.4979 47.6763 64.3154C47.1796 64.1329 46.7442 63.8147 46.4195 63.3969C46.0947 62.9792 45.8938 62.4787 45.8395 61.9523C45.7853 61.426 45.8798 60.895 46.1124 60.4198C46.345 59.9446 46.7064 59.5442 47.1553 59.2642C47.6042 58.9841 48.1228 58.8358 48.6519 58.8359C48.8939 58.8325 49.1353 58.8621 49.3694 58.9239C50.0917 59.1134 50.7097 59.581 51.0884 60.2247C51.4671 60.8684 51.5756 61.6357 51.3903 62.3592Z" fill="black"/>
<path fill-rule="evenodd" clip-rule="evenodd" d="M50.452 45.819L51.6343 55.7582L50.5952 55.8819L49.4128 45.9427L50.452 45.819ZM47.5251 45.9425L46.3448 55.8818L45.3056 55.7584L46.4859 45.8191L47.5251 45.9425ZM36.5478 51.5132L45.4155 56.1516L44.9305 57.0788L36.0628 52.4405L36.5478 51.5132ZM61.2406 52.4405L52.3729 57.0788L51.8879 56.1516L60.7555 51.5132L61.2406 52.4405ZM34.9928 54.0126L42.5352 60.5942L41.8472 61.3827L34.3048 54.8011L34.9928 54.0126ZM62.9986 54.8011L55.4562 61.3827L54.7682 60.5942L62.3106 54.0126L62.9986 54.8011ZM34.3048 68.4462L41.8472 61.8646L42.5352 62.653L34.9928 69.2347L34.3048 68.4462ZM62.3106 69.2347L54.7682 62.653L55.4562 61.8646L62.9986 68.4462L62.3106 69.2347ZM36.0628 70.8057L44.9305 66.1674L45.4155 67.0947L36.5478 71.733L36.0628 70.8057ZM60.7555 71.733L51.8879 67.0947L52.3729 66.1674L61.2406 70.8057L60.7555 71.733ZM49.4128 77.3595L50.5952 67.4202L51.6343 67.5439L50.452 77.4831L49.4128 77.3595ZM46.4859 77.483L45.3056 67.5438L46.3448 67.4204L47.5251 77.3596L46.4859 77.483Z" fill="black"/>
<path d="M48.6521 45.3289C39.6375 45.3289 32.3301 52.6363 32.3301 61.6509C32.3301 70.6656 39.6375 77.973 48.6521 77.973C57.6668 77.973 64.9742 70.6656 64.9742 61.6509C64.9628 52.6415 57.6616 45.3403 48.6521 45.3289ZM48.6521 49.2601C51.1137 49.258 53.5205 49.9866 55.5676 51.3536C57.6147 52.7206 59.2101 54.6645 60.1515 56.9389C61.0929 59.2133 61.3381 61.716 60.8559 64.1299C60.3738 66.5438 59.186 68.7603 57.4431 70.4986C55.7002 72.2368 53.4805 73.4187 51.0654 73.8944C48.6502 74.3701 46.1482 74.1182 43.8762 73.1707C41.6043 72.2232 39.6648 70.6227 38.3032 68.572C36.9417 66.5212 36.2195 64.1125 36.2281 61.6509C36.2592 54.8074 41.8086 49.2725 48.6521 49.2601Z" fill="black"/>
<path d="M48.6518 41C37.2466 41 28 50.2455 28 61.6518C28 73.0571 37.2455 82.3036 48.6518 82.3036C60.0571 82.3036 69.3036 73.0581 69.3036 61.6518C69.3036 50.2466 60.0581 41 48.6518 41ZM48.6518 80.293C38.3865 80.293 30.0655 71.972 30.0655 61.7067C30.0655 51.4424 38.3865 43.1204 48.6518 43.1204C58.9172 43.1204 67.2381 51.4424 67.2381 61.7067C67.2396 64.1479 66.7599 66.5655 65.8264 68.8211C64.8929 71.0768 63.5239 73.1263 61.7977 74.8525C60.0715 76.5787 58.0219 77.9477 55.7663 78.8813C53.5106 79.8148 51.093 80.2945 48.6518 80.293Z" fill="black"/>
<path d="M207.412 54.7163C206.039 54.3632 204.592 54.4252 203.254 54.8944C201.916 55.3637 200.748 56.2192 199.896 57.3526C199.044 58.4861 198.548 59.8466 198.47 61.2622C198.391 62.6777 198.735 64.0847 199.456 65.3052C200.177 66.5256 201.245 67.5048 202.523 68.1187C203.8 68.7327 205.232 68.9538 206.635 68.7543C208.039 68.5548 209.352 67.9435 210.408 66.9977C211.464 66.052 212.216 64.8142 212.569 63.4411C213.039 61.6004 212.76 59.6485 211.793 58.0131C210.826 56.3777 209.251 55.1921 207.412 54.7163ZM208.361 62.3592C208.231 62.8719 207.959 63.3378 207.577 63.7038C207.195 64.0697 206.717 64.3211 206.2 64.4292C205.682 64.5373 205.144 64.4979 204.647 64.3154C204.15 64.1329 203.715 63.8147 203.39 63.3969C203.066 62.9792 202.865 62.4787 202.81 61.9523C202.756 61.426 202.851 60.895 203.083 60.4198C203.316 59.9446 203.677 59.5442 204.126 59.2642C204.575 58.9841 205.094 58.8358 205.623 58.8359C205.865 58.8325 206.106 58.8621 206.34 58.9239C207.063 59.1134 207.681 59.581 208.059 60.2247C208.438 60.8684 208.546 61.6357 208.361 62.3592Z" fill="black"/>
<path fill-rule="evenodd" clip-rule="evenodd" d="M207.423 45.819L208.605 55.7582L207.566 55.8819L206.384 45.9427L207.423 45.819ZM204.496 45.9425L203.316 55.8818L202.276 55.7584L203.457 45.8191L204.496 45.9425ZM193.519 51.5132L202.386 56.1515L201.901 57.0788L193.034 52.4405L193.519 51.5132ZM218.211 52.4405L209.344 57.0788L208.859 56.1515L217.726 51.5132L218.211 52.4405ZM191.964 54.0126L199.506 60.5942L198.818 61.3827L191.276 54.8011L191.964 54.0126ZM219.969 54.8011L212.427 61.3827L211.739 60.5942L219.281 54.0126L219.969 54.8011ZM191.276 68.4462L198.818 61.8646L199.506 62.653L191.964 69.2347L191.276 68.4462ZM219.281 69.2347L211.739 62.653L212.427 61.8646L219.969 68.4462L219.281 69.2347ZM193.034 70.8057L201.901 66.1674L202.386 67.0947L193.519 71.733L193.034 70.8057ZM217.726 71.733L208.859 67.0947L209.344 66.1674L218.211 70.8057L217.726 71.733ZM206.384 77.3595L207.566 67.4203L208.605 67.5439L207.423 77.4831L206.384 77.3595ZM203.457 77.483L202.276 67.5438L203.316 67.4204L204.496 77.3596L203.457 77.483Z" fill="black"/>
<path d="M205.623 45.3289C196.608 45.3289 189.301 52.6363 189.301 61.6509C189.301 70.6656 196.608 77.973 205.623 77.973C214.638 77.973 221.945 70.6656 221.945 61.6509C221.934 52.6415 214.632 45.3403 205.623 45.3289ZM205.623 49.2601C208.085 49.258 210.491 49.9866 212.538 51.3536C214.586 52.7206 216.181 54.6645 217.122 56.9389C218.064 59.2133 218.309 61.716 217.827 64.1299C217.345 66.5438 216.157 68.7603 214.414 70.4986C212.671 72.2368 210.451 73.4187 208.036 73.8944C205.621 74.3701 203.119 74.1182 200.847 73.1707C198.575 72.2232 196.636 70.6227 195.274 68.572C193.913 66.5212 193.19 64.1125 193.199 61.6509C193.23 54.8074 198.779 49.2725 205.623 49.2601Z" fill="black"/>
<path d="M205.623 41C194.217 41 184.971 50.2455 184.971 61.6518C184.971 73.0571 194.216 82.3036 205.623 82.3036C217.028 82.3036 226.274 73.0581 226.274 61.6518C226.274 50.2466 217.029 41 205.623 41ZM205.623 80.293C195.357 80.293 187.036 71.972 187.036 61.7067C187.036 51.4424 195.357 43.1204 205.623 43.1204C215.888 43.1204 224.209 51.4424 224.209 61.7067C224.21 64.1479 223.731 66.5655 222.797 68.8211C221.864 71.0768 220.495 73.1263 218.768 74.8525C217.042 76.5787 214.993 77.9477 212.737 78.8813C210.481 79.8148 208.064 80.2945 205.623 80.293Z" fill="black"/>
<path fill-rule="evenodd" clip-rule="evenodd" d="M23.1601 22.6791L3.27712 20.0417V22.6791L14.265 25.846C13.393 27.4284 13.4279 29.5382 14.265 29.5382C-0.926949 29.5382 -0.474553 37.9992 0.307431 52.6242C0.44116 55.1253 0.584529 57.8067 0.660942 60.6568C1.07953 76.2699 17.9277 77.0084 26.2995 75.426L26.2994 75.2417L26.2991 75.0625C26.2884 68.5841 26.2459 42.7229 49.8451 42.7229C69.1002 42.7229 70.0771 64.5249 67.6354 75.426H186.933C183.794 63.2962 187.561 43.6744 206.816 43.2524C226.071 42.8304 227.048 65.0524 225.129 75.426C235.419 75.426 256 75.1095 256 73.8435C256 73.3427 254.795 72.7363 253.279 71.9739C250.007 70.3276 245.29 67.9544 248.151 64.3491C249.253 62.961 250.318 61.7556 251.29 60.6559C254.011 57.5768 256 55.3266 256 52.2173C241.78 28.6344 179.306 30.1864 163.759 30.5726C161.571 30.627 160.313 30.6582 160.248 30.5932C142.732 5.77919 103.373 8.1635 92.1586 8.84283C90.978 8.91435 90.1094 8.96697 89.611 8.96697C87.5181 5.59117 81.0648 1.58241 77.5766 0L73.9139 1.58241C73.2522 3.52944 72.7056 6.13595 72.2528 8.29479C71.8723 10.1088 71.5581 11.6068 71.2977 12.1318C63.6011 13.0628 47.2246 18.9004 34.034 23.6024C29.2901 25.2934 24.9582 26.8376 21.5904 27.9538L23.1601 22.6791ZM73.411 19.0564C71.8111 20.0421 70.1126 21.0887 68.1586 22.172C70.7748 26.3914 88.0416 26.9193 88.0416 26.9193L153.446 31.6665C152.4 25.8643 134.124 11.6222 101.646 11.6227C85.4752 11.6229 80.3794 14.7627 73.411 19.0564ZM73.391 71.9972L176.468 72.5247L176.303 72.4854C166.802 70.2377 150.392 69.5221 132.663 68.7491C118.367 68.1257 103.214 67.465 90.1345 65.9336C75.4839 67.5185 74.4374 68.8321 73.391 71.9972Z" fill="black"/>
</svg>
