<svg width="300" height="200" viewBox="0 0 300 200" fill="none" xmlns="http://www.w3.org/2000/svg">
<g clip-path="url(#clip0_1174_570)">
<rect width="300" height="200" fill="#EEC40E"/>
<path fill-rule="evenodd" clip-rule="evenodd" d="M0 0V200H300V0H0ZM60 20L20 60V140L60 180H240L280 140V60L240 20H60Z" fill="black"/>
<path d="M77.6875 129.562L94.9375 58H114.688L88.3125 149H75L77.6875 129.562ZM62.9375 58L80.125 129.562L82.9375 149H69.5625L43.375 58H62.9375Z" fill="black"/>
<path d="M161.875 125.062C161.875 123.438 161.729 121.958 161.438 120.625C161.146 119.292 160.521 118.062 159.562 116.938C158.646 115.812 157.292 114.688 155.5 113.562C153.75 112.438 151.458 111.271 148.625 110.062C145.25 108.646 141.979 107.146 138.812 105.562C135.646 103.938 132.792 102.062 130.25 99.9375C127.708 97.8125 125.688 95.3125 124.188 92.4375C122.729 89.5208 122 86.1042 122 82.1875C122 78.3542 122.688 74.875 124.062 71.75C125.479 68.625 127.479 65.9583 130.062 63.75C132.646 61.5 135.667 59.7708 139.125 58.5625C142.625 57.3542 146.521 56.75 150.812 56.75C156.646 56.75 161.688 57.9583 165.938 60.375C170.229 62.7917 173.542 66.1042 175.875 70.3125C178.25 74.5208 179.438 79.3542 179.438 84.8125H161.188C161.188 82.2292 160.812 79.9583 160.062 78C159.354 76 158.208 74.4375 156.625 73.3125C155.042 72.1875 153 71.625 150.5 71.625C148.167 71.625 146.229 72.1042 144.688 73.0625C143.188 73.9792 142.062 75.25 141.312 76.875C140.604 78.4583 140.25 80.25 140.25 82.25C140.25 83.75 140.604 85.1042 141.312 86.3125C142.062 87.4792 143.083 88.5417 144.375 89.5C145.667 90.4167 147.188 91.3125 148.938 92.1875C150.729 93.0625 152.688 93.9167 154.812 94.75C158.938 96.375 162.583 98.1667 165.75 100.125C168.917 102.042 171.562 104.208 173.688 106.625C175.812 109 177.417 111.688 178.5 114.688C179.583 117.688 180.125 121.104 180.125 124.938C180.125 128.729 179.458 132.188 178.125 135.312C176.833 138.396 174.938 141.062 172.438 143.312C169.938 145.521 166.917 147.229 163.375 148.438C159.875 149.646 155.958 150.25 151.625 150.25C147.417 150.25 143.438 149.667 139.688 148.5C135.938 147.292 132.625 145.479 129.75 143.062C126.917 140.604 124.688 137.5 123.062 133.75C121.438 129.958 120.625 125.479 120.625 120.312H138.938C138.938 123.062 139.208 125.417 139.75 127.375C140.292 129.292 141.125 130.833 142.25 132C143.375 133.125 144.75 133.979 146.375 134.562C148.042 135.104 149.938 135.375 152.062 135.375C154.479 135.375 156.396 134.917 157.812 134C159.271 133.083 160.312 131.854 160.938 130.312C161.562 128.771 161.875 127.021 161.875 125.062Z" fill="black"/>
<path d="M235.875 118.688H254.062C253.812 125.521 252.438 131.292 249.938 136C247.438 140.667 243.875 144.208 239.25 146.625C234.667 149.042 229.125 150.25 222.625 150.25C217.583 150.25 213.104 149.417 209.188 147.75C205.271 146.042 201.938 143.542 199.188 140.25C196.438 136.958 194.354 132.896 192.938 128.062C191.562 123.188 190.875 117.583 190.875 111.25V95.8125C190.875 89.4792 191.604 83.875 193.062 79C194.562 74.125 196.688 70.0417 199.438 66.75C202.229 63.4167 205.583 60.9167 209.5 59.25C213.458 57.5417 217.917 56.6875 222.875 56.6875C229.5 56.6875 235.042 57.9375 239.5 60.4375C243.958 62.9375 247.396 66.5833 249.812 71.375C252.271 76.125 253.75 81.9375 254.25 88.8125H235.938C235.854 84.4792 235.375 81.0833 234.5 78.625C233.667 76.125 232.333 74.375 230.5 73.375C228.667 72.3333 226.125 71.8125 222.875 71.8125C220.458 71.8125 218.375 72.25 216.625 73.125C214.875 73.9583 213.438 75.3125 212.312 77.1875C211.188 79.0625 210.354 81.5208 209.812 84.5625C209.312 87.6042 209.062 91.3125 209.062 95.6875V111.25C209.062 115.542 209.292 119.208 209.75 122.25C210.208 125.25 210.938 127.708 211.938 129.625C212.938 131.542 214.292 132.938 216 133.812C217.75 134.688 219.958 135.125 222.625 135.125C225.708 135.125 228.188 134.667 230.062 133.75C231.979 132.833 233.396 131.188 234.312 128.812C235.229 126.438 235.75 123.062 235.875 118.688Z" fill="black"/>
</g>
<defs>
<clipPath id="clip0_1174_570">
<rect width="300" height="200" fill="white"/>
</clipPath>
</defs>
</svg>
